<svg width="44" height="44" viewBox="0 0 44 44" fill="none" xmlns="http://www.w3.org/2000/svg">
<circle cx="21.7677" cy="21.7677" r="20.7677" fill="white" stroke="#4285F8" stroke-width="2"/>
<path d="M23.8503 33.622L16.1457 25.6024V23.311H20.1555C21.1675 23.311 22.0413 22.9815 22.7768 22.3223C23.5116 21.6639 23.9553 20.8478 24.1081 19.874H15V17.5827H23.7644C23.4398 16.9144 22.9578 16.3652 22.3185 15.9352C21.6785 15.506 20.9575 15.2913 20.1555 15.2913H15V13H28.748V15.2913H25.0246C25.2919 15.6159 25.5306 15.9692 25.7407 16.3511C25.9507 16.733 26.113 17.1435 26.2276 17.5827H28.748V19.874H26.4281C26.2753 21.497 25.607 22.8573 24.4231 23.9549C23.2393 25.0532 21.8167 25.6024 20.1555 25.6024H19.3249L27.0295 33.622H23.8503Z" fill="#2F80ED"/>
</svg>
