<svg width="14" height="22" viewBox="0 0 14 22" fill="none" xmlns="http://www.w3.org/2000/svg">
<path d="M9.0038 21.1836L1.47485 13.2211V10.8915H5.4561C6.32276 10.8915 7.0902 10.6343 7.7584 10.12C8.42616 9.60518 8.83241 8.88736 8.97715 7.96653H0.202148V5.58363H8.8413C8.62463 4.87946 8.18675 4.30616 7.52765 3.86373C6.86898 3.42129 6.15138 3.20008 5.37485 3.20008H0.202148V0.816528H13.7975V3.20008H9.9788C10.286 3.47091 10.566 3.83664 10.8186 4.29728C11.0712 4.75748 11.2517 5.18626 11.36 5.58363H13.7975V7.96653H11.4146C11.2339 9.53736 10.611 10.8014 9.5459 11.7586C8.48033 12.7154 7.20741 13.2118 5.72715 13.2478H4.8334L12.335 21.1836H9.0038Z" fill="white"/>
</svg>
