<svg width="17" height="21" viewBox="0 0 17 21" fill="none" xmlns="http://www.w3.org/2000/svg">
<path d="M5.64134 20.7539C5.46406 20.9068 5.27038 20.9885 5.0603 20.999C4.84934 21.0103 4.65521 20.9286 4.47793 20.7539C4.32281 20.6011 4.24525 20.4263 4.24525 20.2298C4.24525 20.0332 4.30065 19.8476 4.41145 19.6729L9.56369 12.5971L0.954469 11.7782C0.489106 11.7345 0.189944 11.4999 0.0569833 11.0745C-0.0759776 10.6482 0.0237429 10.2822 0.356145 9.97645L11.3587 0.247233C11.5359 0.0943606 11.7301 0.0122462 11.941 0.000890035C12.1511 -0.00959262 12.3448 0.0725218 12.5221 0.247233C12.6772 0.400105 12.7547 0.574815 12.7547 0.771365C12.7547 0.967915 12.6993 1.15355 12.5885 1.32826L7.43631 8.40405L16.0455 9.22301C16.5109 9.26668 16.8101 9.50123 16.943 9.92666C17.076 10.353 16.9763 10.719 16.6439 11.0247L5.64134 20.7539Z" fill="white"/>
</svg>
