<svg width="20" height="20" viewBox="0 0 20 20" fill="none" xmlns="http://www.w3.org/2000/svg">
<path d="M9.4998 10.1929V5.50005H10.4998V9.60005V9.80716L10.6463 9.9536L13.9927 13.3L13.2998 13.9929L9.4998 10.1929ZM1.09629 13.3623C0.984445 13.0663 0.888521 12.7657 0.808465 12.4603L0.808424 12.4601C0.726833 12.1493 0.661548 11.8293 0.612736 11.5H1.64846C1.69164 11.7351 1.74339 11.9655 1.8038 12.1913L1.80397 12.1919C1.86342 12.4129 1.93101 12.6321 2.0067 12.8494L1.09629 13.3623ZM0.819928 7.53255L0.820086 7.53198C0.905442 7.21994 1.00516 6.91451 1.11923 6.61559L2.00808 7.12351C1.93146 7.34506 1.86318 7.56988 1.80323 7.79794L1.80301 7.7988C1.74284 8.02938 1.69122 8.26314 1.64812 8.50005H0.614107C0.664601 8.17041 0.733244 7.84795 0.819928 7.53255ZM3.28229 16.7125L3.28199 16.7122C3.04429 16.4695 2.81643 16.2149 2.59842 15.9481L3.47983 15.4445C3.64211 15.6349 3.81009 15.8168 3.9838 15.9901C4.15798 16.1648 4.34087 16.3336 4.53236 16.4967L4.02506 17.3972C3.7641 17.1803 3.51654 16.952 3.28229 16.7125ZM7.79856 1.80325L7.79769 1.80348C7.56964 1.86342 7.34482 1.9317 7.12327 2.00833L6.61529 1.11936C6.91429 1.0051 7.21983 0.905064 7.53197 0.819266C7.84747 0.732969 8.17004 0.664587 8.4998 0.614227V1.64837C8.26289 1.69146 8.02913 1.74308 7.79856 1.80325ZM12.4675 0.819239C12.7797 0.905044 13.0853 1.00509 13.3843 1.11936L12.8763 2.00833C12.6548 1.9317 12.43 1.86342 12.2019 1.80348L12.2011 1.80325C11.9705 1.74308 11.7367 1.69146 11.4998 1.64837V0.614227C11.8295 0.664582 12.1521 0.732955 12.4675 0.819239ZM16.7176 16.7372L16.7173 16.7375C16.4846 16.9754 16.239 17.1986 15.9802 17.4072L15.4674 16.497C15.656 16.3367 15.8347 16.1722 16.0034 16.0036C16.172 15.835 16.3364 15.6563 16.4967 15.4676L17.3989 15.9759C17.1816 16.2416 16.9545 16.4953 16.7176 16.7372ZM15.9918 4.00895L15.9909 4.00804C15.8199 3.83747 15.6437 3.67208 15.4624 3.51189L15.9761 2.60018C16.2278 2.80743 16.4718 3.0292 16.7083 3.2656C16.9475 3.50485 17.1717 3.75176 17.3809 4.00633L16.4832 4.53208C16.3245 4.35267 16.1607 4.17829 15.9918 4.00895ZM19.18 7.5171C19.2668 7.83961 19.3354 8.16722 19.3859 8.50005H18.3539C18.3103 8.25338 18.2576 8.01433 18.1959 7.78304L18.1956 7.78193C18.1355 7.55913 18.0672 7.3381 17.9906 7.11884L18.8822 6.59661C18.9954 6.89524 19.0947 7.20204 19.18 7.5171ZM18.1964 12.2022L18.1966 12.2013C18.2568 11.9707 18.3084 11.737 18.3515 11.5H19.3856C19.3353 11.8297 19.2669 12.1521 19.1807 12.4675C19.0949 12.7798 18.9948 13.0855 18.8805 13.3846L17.9915 12.8766C18.0681 12.655 18.1364 12.4302 18.1964 12.2022ZM3.99625 3.9965C3.82762 4.16513 3.66318 4.34383 3.50288 4.53247L2.60153 4.02467C2.81757 3.76242 3.04319 3.51377 3.27836 3.2786C3.51353 3.04344 3.76218 2.81782 4.02442 2.60177L4.53222 3.50312C4.34359 3.66343 4.16488 3.82787 3.99625 3.9965ZM8.4998 18.3516V19.3859C8.17017 19.3355 7.84771 19.2672 7.53231 19.1809C7.22006 19.0951 6.9144 18.995 6.61529 18.8807L7.12334 17.9916C7.34487 18.0681 7.56966 18.1361 7.7977 18.1956C8.02855 18.2563 8.2626 18.3083 8.4998 18.3516ZM11.4998 19.3859V18.3516C11.7369 18.3083 11.9708 18.2564 12.2015 18.1957C12.4297 18.1362 12.6546 18.0682 12.8763 17.9916L13.3843 18.8807C13.0852 18.995 12.7796 19.0951 12.4673 19.1809C12.1519 19.2672 11.8294 19.3355 11.4998 19.3859Z" fill="#1C1B1F" stroke="white"/>
</svg>
