<svg width="15" height="19" viewBox="0 0 15 19" fill="none" xmlns="http://www.w3.org/2000/svg">
<path d="M7.32376 0.847778C8.51383 0.847778 9.52841 1.26095 10.3675 2.0873C11.206 2.91421 11.6252 3.91408 11.6252 5.08691V6.78256H12.4855C12.9587 6.78256 13.3639 6.94845 13.7011 7.28023C14.0378 7.61258 14.2061 8.01191 14.2061 8.47821V16.9565C14.2061 17.4228 14.0378 17.8221 13.7011 18.1545C13.3639 18.4862 12.9587 18.6521 12.4855 18.6521H2.16199C1.68883 18.6521 1.28392 18.4862 0.947259 18.1545C0.610024 17.8221 0.441406 17.4228 0.441406 16.9565V8.47821C0.441406 8.01191 0.610024 7.61258 0.947259 7.28023C1.28392 6.94845 1.68883 6.78256 2.16199 6.78256H3.02229V5.08691C3.02229 3.91408 3.44183 2.91421 4.2809 2.0873C5.1194 1.26095 6.13369 0.847778 7.32376 0.847778ZM7.32376 2.54343C6.60685 2.54343 5.99747 2.79071 5.49563 3.28528C4.9938 3.77984 4.74288 4.38039 4.74288 5.08691V6.78256H9.90464V5.08691C9.90464 4.38039 9.65372 3.77984 9.15188 3.28528C8.65005 2.79071 8.04067 2.54343 7.32376 2.54343ZM2.16199 16.9565H12.4855V8.47821H2.16199V16.9565ZM7.32376 11.0217C6.8506 11.0217 6.44569 11.1876 6.10902 11.5194C5.77179 11.8517 5.60317 12.251 5.60317 12.7173C5.60317 13.1836 5.77179 13.583 6.10902 13.9153C6.44569 14.2471 6.8506 14.413 7.32376 14.413C7.79692 14.413 8.20212 14.2471 8.53935 13.9153C8.87602 13.583 9.04435 13.1836 9.04435 12.7173C9.04435 12.251 8.87602 11.8517 8.53935 11.5194C8.20212 11.1876 7.79692 11.0217 7.32376 11.0217Z" fill="white"/>
</svg>
