<svg width="18" height="14" viewBox="0 0 18 14" fill="none" xmlns="http://www.w3.org/2000/svg">
<path d="M1.625 14C1.15833 14 0.771 13.846 0.463 13.538C0.154333 13.2293 0 12.8417 0 12.375V1.625C0 1.15833 0.154333 0.771 0.463 0.463C0.771 0.154333 1.15833 0 1.625 0H16.375C16.8417 0 17.2293 0.154333 17.538 0.463C17.846 0.771 18 1.15833 18 1.625V12.375C18 12.8417 17.846 13.2293 17.538 13.538C17.2293 13.846 16.8417 14 16.375 14H1.625ZM9 7.125L1 1.875V12.375C1 12.5583 1.05833 12.7083 1.175 12.825C1.29167 12.9417 1.44167 13 1.625 13H16.375C16.5583 13 16.7083 12.9417 16.825 12.825C16.9417 12.7083 17 12.5583 17 12.375V1.875L9 7.125ZM9 6L16.7 1H1.3L9 6ZM1 12.375C1 12.5583 1.05833 12.7083 1.175 12.825C1.29167 12.9417 1.44167 13 1.625 13H1C1 13 1 12.9417 1 12.825C1 12.7083 1 12.5583 1 12.375Z" fill="#1D1C1D"/>
</svg>
