<svg width="26" height="19" viewBox="0 0 26 19" fill="none" xmlns="http://www.w3.org/2000/svg">
<path d="M15.3244 10.336C14.4588 10.336 13.7271 10.0372 13.1295 9.4395C12.5318 8.84183 12.233 8.1102 12.233 7.24461C12.233 6.39964 12.5318 5.67337 13.1295 5.06581C13.7271 4.45742 14.4588 4.15323 15.3244 4.15323C16.1899 4.15323 16.9216 4.45742 17.5192 5.06581C18.1169 5.67337 18.4157 6.39964 18.4157 7.24461C18.4157 8.1102 18.1169 8.84183 17.5192 9.4395C16.9216 10.0372 16.1899 10.336 15.3244 10.336ZM4.93731 14.1693V0.35083H25.7114V14.1693H4.93731ZM9.01794 12.3145H21.6308C21.6308 11.6962 21.8472 11.1707 22.28 10.7379C22.7128 10.3051 23.2383 10.0887 23.8566 10.0887V4.43146C23.2383 4.43146 22.7128 4.2097 22.28 3.76619C21.8472 3.3235 21.6308 2.80333 21.6308 2.20566H9.01794C9.01794 2.82394 8.80154 3.34947 8.36875 3.78227C7.93595 4.21506 7.41042 4.43146 6.79214 4.43146V10.0887C7.41042 10.0887 7.93595 10.3051 8.36875 10.7379C8.80154 11.1707 9.01794 11.6962 9.01794 12.3145ZM0.609375 18.4972V4.02958H2.4642V16.6424H22.0327V18.4972H0.609375Z" fill="white"/>
</svg>
