<svg width="116" height="107" viewBox="0 0 116 107" fill="none" xmlns="http://www.w3.org/2000/svg">
<path d="M115.639 106.061C115.639 106.101 91.2535 106.132 61.1808 106.132C31.108 106.132 6.71973 106.093 6.71973 106.061C6.71973 106.03 31.0975 105.993 61.1808 105.993C91.2641 105.993 115.639 106.024 115.639 106.061Z" fill="#263238"/>
<path d="M38.9096 23.057C38.9096 23.057 39.139 11.2425 29.3652 5.2417H60.3423C60.3423 5.2417 69.1986 12.4184 69.2724 23.057H38.9096Z" fill="#EBEBEB"/>
<path d="M57.9825 9.55C57.9825 9.58955 54.4442 9.62118 50.0728 9.62118C45.7014 9.62118 42.1631 9.58955 42.1631 9.55C42.1631 9.51045 45.7014 9.48145 50.0728 9.48145C54.4442 9.48145 57.9825 9.51308 57.9825 9.55Z" fill="#455A64"/>
<path d="M61.3606 11.6881C61.3606 11.725 56.6727 11.7567 50.8907 11.7567C45.1087 11.7567 40.4209 11.725 40.4209 11.6881C40.4209 11.6512 45.1087 11.6169 50.8907 11.6169C56.6727 11.6169 61.3606 11.6486 61.3606 11.6881Z" fill="#263238"/>
<path d="M63.123 17.0932C63.123 17.1301 58.4351 17.1618 52.6531 17.1618C46.8711 17.1618 42.1807 17.1301 42.1807 17.0932C42.1807 17.0563 46.8685 17.0247 52.6531 17.0247C58.4378 17.0247 63.123 17.0563 63.123 17.0932Z" fill="#263238"/>
<path d="M52.1801 14.1479C52.0387 14.1694 51.8959 14.1791 51.7529 14.1769L50.5823 14.198C49.5936 14.2112 48.2305 14.2191 46.7224 14.2191C45.2142 14.2191 43.8511 14.2191 42.8624 14.198L41.6918 14.1769C41.5488 14.1791 41.406 14.1694 41.2646 14.1479C41.406 14.1273 41.5489 14.1185 41.6918 14.1215L42.8624 14.1004C43.8511 14.1004 45.2142 14.0793 46.7224 14.0793C48.2305 14.0793 49.5936 14.0793 50.5823 14.1004L51.7529 14.1215C51.8958 14.1185 52.0387 14.1273 52.1801 14.1479Z" fill="#263238"/>
<path d="M61.3624 14.1479C61.2584 14.1694 61.1523 14.1792 61.0461 14.1769L60.1813 14.198C59.4536 14.2112 58.4438 14.2191 57.3311 14.2191C56.2185 14.2191 55.2087 14.2191 54.481 14.198L53.6162 14.1769C53.51 14.1792 53.4038 14.1694 53.2998 14.1479C53.4041 14.1287 53.5101 14.1198 53.6162 14.1215L54.481 14.1004C55.2087 14.1004 56.2185 14.0793 57.3311 14.0793C58.4438 14.0793 59.4404 14.0793 60.1813 14.1004L61.0461 14.1215C61.1522 14.1185 61.2583 14.1274 61.3624 14.1479Z" fill="#263238"/>
<path d="M54.1241 19.9907C53.9819 20.0122 53.8381 20.0219 53.6943 20.0197L52.5263 20.0408C51.5376 20.0408 50.1719 20.0619 48.6664 20.0619C47.1609 20.0619 45.7925 20.0619 44.8038 20.0408L43.6358 20.0197C43.492 20.0219 43.3483 20.0122 43.2061 19.9907C43.3483 19.97 43.4921 19.9612 43.6358 19.9643L44.8038 19.9432C45.7925 19.9432 47.1583 19.9221 48.6664 19.9221C50.1745 19.9221 51.5376 19.9221 52.5263 19.9432L53.6943 19.9643C53.8381 19.9612 53.9818 19.97 54.1241 19.9907Z" fill="#263238"/>
<path d="M63.3045 19.9907C63.2005 20.0122 63.0944 20.0219 62.9881 20.0197L62.1233 20.0408C61.393 20.0408 60.3858 20.0619 59.2732 20.0619C58.1606 20.0619 57.164 20.0619 56.4204 20.0408L55.5556 20.0197C55.4494 20.0219 55.3433 20.0122 55.2393 19.9907C55.3436 19.9714 55.4496 19.9626 55.5556 19.9643L56.4204 19.9432C57.1508 19.9432 58.1579 19.9221 59.2732 19.9221C60.3885 19.9221 61.3825 19.9221 62.1233 19.9432L62.9881 19.9643C63.0942 19.9626 63.2002 19.9714 63.3045 19.9907Z" fill="#263238"/>
<path d="M32.5791 22.7222H78.2815L80.7704 101.898C80.7873 102.43 80.6993 102.959 80.5115 103.456C80.3237 103.953 80.0397 104.409 79.6759 104.796C79.312 105.183 78.8754 105.495 78.3909 105.714C77.9064 105.932 77.3837 106.053 76.8524 106.069H29.2017C28.5303 106.07 27.8845 105.812 27.3982 105.349C26.9118 104.886 26.622 104.254 26.5888 103.583L24.3926 58.8748C24.3926 58.8748 10.838 53.955 11.0673 38.945C11.0673 38.945 11.6843 22.7222 32.5791 22.7222Z" fill="#263238"/>
<path d="M35.0587 105.951L33.0654 22.7222H79.9384L80.7847 102.449C80.8139 103.377 80.4733 104.279 79.838 104.956C79.2027 105.632 78.3246 106.029 77.3967 106.059H77.2755L35.0587 105.951Z" fill="#455A64"/>
<path d="M36.9404 27.5444L37.8896 66.2968H76.0645L75.5504 27.5444H36.9404Z" fill="#263238"/>
<path d="M41.1626 32.5592C43.0267 33.0627 45.3811 32.8492 47.2953 32.7569C47.4351 32.7569 47.5692 32.7014 47.6681 32.6025C47.767 32.5036 47.8226 32.3694 47.8226 32.2296C47.8226 32.0897 47.767 31.9556 47.6681 31.8567C47.5692 31.7578 47.4351 31.7023 47.2953 31.7023C45.3811 31.6074 43.024 31.3938 41.1626 31.9C41.0735 31.9263 40.9984 31.9869 40.954 32.0684C40.9095 32.15 40.8992 32.2459 40.9253 32.3351C40.9423 32.3911 40.9728 32.442 41.0142 32.4834C41.0556 32.5248 41.1066 32.5554 41.1626 32.5723V32.5592Z" fill="#E0E0E0"/>
<path d="M50.554 32.4826C52.3838 32.9492 54.7488 32.8649 56.6181 32.6856C56.7579 32.6856 56.8921 32.63 56.991 32.5311C57.0898 32.4322 57.1454 32.2981 57.1454 32.1583C57.1454 32.0184 57.0898 31.8843 56.991 31.7854C56.8921 31.6865 56.7579 31.631 56.6181 31.631C54.7488 31.449 52.3838 31.3673 50.554 31.834C50.5112 31.8469 50.4714 31.8682 50.4368 31.8966C50.4023 31.9249 50.3737 31.9598 50.3526 31.9992C50.3316 32.0386 50.3185 32.0818 50.3141 32.1263C50.3098 32.1708 50.3142 32.2157 50.3272 32.2585C50.3433 32.3121 50.3724 32.3609 50.4119 32.4005C50.4515 32.4401 50.5003 32.4692 50.554 32.4852V32.4826Z" fill="#E0E0E0"/>
<path d="M59.8179 32.3166C60.738 32.5961 61.732 32.5486 62.6864 32.5644C63.661 32.6225 64.6387 32.604 65.6104 32.5091C66.0876 32.4405 66.0876 31.61 65.6104 31.5441C64.6388 31.447 63.6611 31.4276 62.6864 31.4861C61.732 31.5019 60.738 31.4544 59.8179 31.7339C59.7547 31.7521 59.6991 31.7904 59.6596 31.843C59.62 31.8955 59.5986 31.9595 59.5986 32.0253C59.5986 32.091 59.62 32.155 59.6596 32.2076C59.6991 32.2601 59.7547 32.2984 59.8179 32.3166Z" fill="#E0E0E0"/>
<path d="M68.4036 32.3692C69.0979 32.4702 69.7982 32.5239 70.4997 32.53C71.1958 32.5458 71.9472 32.6592 72.6222 32.4667C72.7169 32.438 72.8 32.3796 72.859 32.3001C72.918 32.2205 72.9499 32.1241 72.9499 32.0251C72.9499 31.926 72.918 31.8296 72.859 31.7501C72.8 31.6706 72.7169 31.6121 72.6222 31.5835C71.9472 31.391 71.1958 31.5044 70.4997 31.5202C69.7981 31.5258 69.0977 31.5804 68.4036 31.6836C68.3303 31.7062 68.2662 31.7516 68.2206 31.8133C68.175 31.875 68.1504 31.9497 68.1504 32.0264C68.1504 32.1031 68.175 32.1778 68.2206 32.2395C68.2662 32.3012 68.3303 32.3466 68.4036 32.3692Z" fill="#E0E0E0"/>
<path d="M48.9644 70.9055H37.9014V78.8126H48.9644V70.9055Z" fill="#0055B1"/>
<path d="M39.9025 70.9055H37.9014V78.8126H39.9025V70.9055Z" fill="#263238"/>
<path d="M62.5113 70.9055H51.4482V78.8126H62.5113V70.9055Z" fill="#0055B1"/>
<path d="M53.3342 70.9055H51.333V78.8126H53.3342V70.9055Z" fill="#263238"/>
<path d="M76.0611 70.9055H64.998V78.8126H76.0611V70.9055Z" fill="#0055B1"/>
<path d="M66.6828 70.9055H64.6816V78.8126H66.6828V70.9055Z" fill="#263238"/>
<path d="M76.0611 81.4253H64.998V89.3324H76.0611V81.4253Z" fill="#0055B1"/>
<path d="M67.0598 81.4253H64.998V89.3324H67.0598V81.4253Z" fill="#263238"/>
<path d="M48.9644 81.4253H37.9014V89.3324H48.9644V81.4253Z" fill="#0055B1"/>
<path d="M39.9025 81.4097H37.9014V89.3167H39.9025V81.4097Z" fill="#263238"/>
<path d="M48.9644 91.8398H37.9014V99.7469H48.9644V91.8398Z" fill="#0055B1"/>
<path opacity="0.3" d="M48.9644 91.8398H37.9014V99.7469H48.9644V91.8398Z" fill="black"/>
<path d="M39.9025 91.8398H37.9014V99.7469H39.9025V91.8398Z" fill="#263238"/>
<path d="M62.4498 81.4253H51.3867V89.3324H62.4498V81.4253Z" fill="#0055B1"/>
<path d="M53.3879 81.4097H51.3867V89.3167H53.3879V81.4097Z" fill="#263238"/>
<path d="M62.5113 91.8398H51.4482V99.7469H62.5113V91.8398Z" fill="#0055B1"/>
<path opacity="0.3" d="M62.5113 91.8398H51.4482V99.7469H62.5113V91.8398Z" fill="black"/>
<path d="M53.4494 91.8398H51.4482V99.7469H53.4494V91.8398Z" fill="#263238"/>
<path d="M76.0611 91.8398H64.998V99.7469H76.0611V91.8398Z" fill="#E0E0E0"/>
<path d="M66.9992 91.8398H64.998V99.7469H66.9992V91.8398Z" fill="#263238"/>
<path d="M31.4077 106.072C31.2178 106.072 30.5244 87.4209 29.8574 64.4141C29.1903 41.4074 28.8027 22.7326 28.9926 22.7273C29.1824 22.722 29.8758 41.3731 30.5429 64.3851C31.2099 87.3971 31.5975 106.067 31.4077 106.072Z" fill="#455A64"/>
<path d="M76.0049 61.8831V63.3042L80.3816 64.3931L80.3579 62.2021L76.0049 61.8831Z" fill="#455A64"/>
<path d="M22.8745 59.033C22.6349 58.9381 22.3778 58.8958 22.1204 58.9091C21.8614 58.9334 21.6073 58.9955 21.3664 59.0937L18.3712 60.0956L12.518 62.0625L1.44442 65.7537C1.00749 65.8785 0.631975 66.1601 0.389793 66.5446C0.149811 66.9208 0.0603804 67.3736 0.13932 67.8128C0.187756 68.0305 0.251184 68.2446 0.329152 68.4535L0.542715 69.0916C0.68509 69.5161 0.824828 69.9353 0.967203 70.3545C1.52264 72.0226 2.06402 73.6423 2.59133 75.2137C3.64596 78.3512 4.61622 81.2778 5.51002 83.9381C7.28707 89.2719 8.72927 93.5906 9.72853 96.5752C10.2242 98.0675 10.6065 99.2249 10.8702 100.003C10.9967 100.396 11.0969 100.694 11.1628 100.897C11.2287 101.1 11.2577 101.202 11.2577 101.202C11.2931 101.303 11.3381 101.4 11.3922 101.492C11.5442 101.767 11.7638 101.999 12.0303 102.165C12.2461 102.298 12.4873 102.386 12.7386 102.423C12.9899 102.459 13.246 102.443 13.4909 102.376C14.0657 102.191 14.7248 101.959 15.471 101.711L26.4813 97.9989L14.738 61.3242L20.6123 59.3547L31.2192 91.8557L30.7552 80.5501C28.6196 74.1881 26.3126 67.3092 23.9001 60.1299C23.8183 59.8839 23.6843 59.6586 23.5073 59.4693C23.3302 59.2799 23.1144 59.1311 22.8745 59.033ZM9.33832 75.741L6.71757 67.4463L7.60609 67.1642L10.2268 75.4589L9.33832 75.741ZM11.1576 71.1718L9.62834 66.3363L10.5169 66.0569L12.0461 70.8897L11.1576 71.1718ZM13.2088 77.3045L11.6822 72.469L12.5708 72.1895L14.0973 77.0224L13.2088 77.3045ZM13.7361 78.6017L14.6246 78.3196L18.8432 91.7081L17.9546 91.9876L13.7361 78.6017ZM19.2729 96.1191L18.3686 93.2584L19.2571 92.9763L20.1614 95.8396L19.2729 96.1191ZM22.9299 94.6004L22.0413 94.8799L16.4597 77.2148L17.3482 76.9354L22.9299 94.6004ZM16.8921 75.2453L16.0036 75.5248L12.7659 65.287L13.6544 65.0049L16.8921 75.2453Z" fill="#0055B1"/>
<path opacity="0.3" d="M22.8745 59.033C22.6349 58.9381 22.3778 58.8958 22.1204 58.9091C21.8614 58.9334 21.6073 58.9955 21.3664 59.0937L18.3712 60.0956L12.518 62.0625L1.44442 65.7537C1.00749 65.8785 0.631975 66.1601 0.389793 66.5446C0.149811 66.9208 0.0603804 67.3736 0.13932 67.8128C0.187756 68.0305 0.251184 68.2446 0.329152 68.4535L0.542715 69.0916C0.68509 69.5161 0.824828 69.9353 0.967203 70.3545C1.52264 72.0226 2.06402 73.6423 2.59133 75.2137C3.64596 78.3512 4.61622 81.2778 5.51002 83.9381C7.28707 89.2719 8.72927 93.5906 9.72853 96.5752C10.2242 98.0675 10.6065 99.2249 10.8702 100.003C10.9967 100.396 11.0969 100.694 11.1628 100.897C11.2287 101.1 11.2577 101.202 11.2577 101.202C11.2931 101.303 11.3381 101.4 11.3922 101.492C11.5442 101.767 11.7638 101.999 12.0303 102.165C12.2461 102.298 12.4873 102.386 12.7386 102.423C12.9899 102.459 13.246 102.443 13.4909 102.376C14.0657 102.191 14.7248 101.959 15.471 101.711L26.4813 97.9989L14.738 61.3242L20.6123 59.3547L31.2192 91.8557L30.7552 80.5501C28.6196 74.1881 26.3126 67.3092 23.9001 60.1299C23.8183 59.8839 23.6843 59.6586 23.5073 59.4693C23.3302 59.2799 23.1144 59.1311 22.8745 59.033ZM9.33832 75.741L6.71757 67.4463L7.60609 67.1642L10.2268 75.4589L9.33832 75.741ZM11.1576 71.1718L9.62834 66.3363L10.5169 66.0569L12.0461 70.8897L11.1576 71.1718ZM13.2088 77.3045L11.6822 72.469L12.5708 72.1895L14.0973 77.0224L13.2088 77.3045ZM13.7361 78.6017L14.6246 78.3196L18.8432 91.7081L17.9546 91.9876L13.7361 78.6017ZM19.2729 96.1191L18.3686 93.2584L19.2571 92.9763L20.1614 95.8396L19.2729 96.1191ZM22.9299 94.6004L22.0413 94.8799L16.4597 77.2148L17.3482 76.9354L22.9299 94.6004ZM16.8921 75.2453L16.0036 75.5248L12.7659 65.287L13.6544 65.0049L16.8921 75.2453Z" fill="black"/>
<path d="M26.4897 98.0491L26.4765 98.0069L15.4662 101.719C14.72 101.967 14.0609 102.199 13.4861 102.384C13.2412 102.451 12.9851 102.467 12.7338 102.431C12.4824 102.394 12.2413 102.306 12.0254 102.173C11.759 102.007 11.5394 101.775 11.3874 101.5C11.2846 101.316 11.2608 101.208 11.2529 101.21L11.2793 101.287C11.4175 101.661 11.675 101.98 12.0123 102.194C12.2296 102.333 12.4738 102.425 12.7291 102.464C12.9843 102.503 13.2449 102.489 13.494 102.421C14.0741 102.239 14.7332 102.012 15.482 101.764L28.1191 97.5455L31.1169 96.5436L31.4069 96.396L26.4897 98.0491Z" fill="#263238"/>
<path d="M11.1589 100.902C11.0929 100.699 10.9928 100.401 10.8662 100.008C10.6025 99.2168 10.2202 98.062 9.72457 96.5802C8.73058 93.5956 7.28837 89.2769 5.50605 83.9431C4.61225 81.2776 3.63672 78.3562 2.58737 75.2187C2.06005 73.6508 1.51867 72.0311 0.963237 70.3595C0.820862 69.9403 0.681124 69.5211 0.538749 69.0966L0.325186 68.4586C0.247218 68.2496 0.18379 68.0355 0.135353 67.8179C0.0602915 67.377 0.154457 66.9241 0.399011 66.5497C0.641192 66.1652 1.01671 65.8835 1.45364 65.7587L12.5272 62.0675L18.3804 60.1059L21.3756 59.104C21.6165 59.0059 21.8706 58.9437 22.1296 58.9194C22.5192 58.8988 22.9047 59.0065 23.2272 59.2261C23.5496 59.4456 23.7911 59.7649 23.9146 60.1349C26.3218 67.3143 28.6288 74.1931 30.7697 80.5552L30.7512 80.128C28.6578 73.8741 26.3956 67.1297 24.0412 60.0901C23.9524 59.8268 23.8077 59.5858 23.617 59.3837C23.4263 59.1817 23.1942 59.0233 22.9364 58.9194C22.6796 58.8165 22.4032 58.7715 22.127 58.7876C21.8556 58.8123 21.5891 58.8762 21.336 58.9774L18.3435 59.982L12.4903 61.9436L1.41673 65.6559C0.953499 65.7833 0.553566 66.0771 0.293547 66.4811C0.0400742 66.8833 -0.0539612 67.3657 0.0298902 67.8337C0.0800851 68.0567 0.145269 68.276 0.224997 68.4902C0.296184 68.7038 0.370008 68.9147 0.441196 69.1282C0.580934 69.5501 0.723309 69.9719 0.863047 70.3885C1.42552 72.0584 1.96953 73.6781 2.49509 75.2477L5.42432 83.9616L9.67711 96.5855C10.1833 98.0725 10.5735 99.2221 10.8398 100.013C10.9743 100.403 11.0771 100.701 11.1457 100.904L11.2538 101.207C11.2538 101.207 11.2248 101.105 11.1589 100.902Z" fill="#263238"/>
<path d="M17.3396 76.9395L16.4521 77.22L22.0349 94.8833L22.9224 94.6028L17.3396 76.9395Z" fill="#FAFAFA"/>
<path d="M13.6531 65.0049L12.7656 65.2854L16.0036 75.5299L16.891 75.2494L13.6531 65.0049Z" fill="#FAFAFA"/>
<path d="M10.5193 66.0554L9.63184 66.3359L11.1598 71.1703L12.0473 70.8898L10.5193 66.0554Z" fill="#FAFAFA"/>
<path d="M7.44259 66.9153L6.55762 67.1948L9.16878 75.4613L10.0538 75.1817L7.44259 66.9153Z" fill="#FAFAFA"/>
<path d="M19.2683 92.9739L18.3809 93.2544L19.2851 96.1153L20.1725 95.8348L19.2683 92.9739Z" fill="#FAFAFA"/>
<path d="M12.5691 72.189L11.6816 72.4695L13.2096 77.3039L14.0971 77.0234L12.5691 72.189Z" fill="#FAFAFA"/>
<path d="M14.614 78.3269L13.7266 78.6074L17.9577 91.9944L18.8452 91.7139L14.614 78.3269Z" fill="#FAFAFA"/>
<path d="M14.7393 61.324L26.4773 98.0066L26.4905 98.0488L31.4077 96.401L31.2205 91.8502L20.6135 59.3545L14.7393 61.324Z" fill="#FAFAFA"/>
<path d="M26.4238 100.24L31.1908 98.563L31.0879 96.4722L26.4897 98.0488L26.4238 100.24Z" fill="#263238"/>
<path d="M86.5247 39.5487C86.5247 39.5856 86.3771 39.6093 86.1925 39.6014C86.0079 39.5935 85.8656 39.5566 85.8682 39.517C85.8708 39.4775 86.0185 39.4564 86.2004 39.4643C86.3823 39.4722 86.5273 39.5091 86.5247 39.5487Z" fill="#263238"/>
<path d="M89.1073 39.4378C88.9048 39.5229 88.6863 39.5634 88.4667 39.5564C88.2507 39.5965 88.0287 39.5902 87.8154 39.538C88.2342 39.414 88.6745 39.3799 89.1073 39.4378Z" fill="#263238"/>
<path d="M91.6637 38.9817C91.4737 39.0922 91.2626 39.1613 91.0441 39.1847C90.8347 39.2509 90.6141 39.2742 90.3955 39.2533C90.7948 39.0765 91.2271 38.9867 91.6637 38.9896V38.9817Z" fill="#263238"/>
<path d="M94.1312 38.1934C93.9579 38.3273 93.7585 38.4234 93.5459 38.4755C93.3481 38.5707 93.1325 38.6228 92.9131 38.6284C93.0857 38.4934 93.2853 38.3972 93.4984 38.3463C93.697 38.2535 93.9122 38.2015 94.1312 38.1934Z" fill="#263238"/>
<path d="M96.4679 37.0781C96.1301 37.3548 95.7387 37.5586 95.3184 37.6766C95.4733 37.5209 95.658 37.398 95.8615 37.3154C96.045 37.1951 96.2515 37.1143 96.4679 37.0781Z" fill="#263238"/>
<path d="M98.6221 35.6411C98.6458 35.6701 98.4296 35.8652 98.1369 36.0762C97.9734 36.2222 97.7812 36.3326 97.5727 36.4005C97.5516 36.3688 97.7678 36.1737 98.0578 35.9628C98.3479 35.7519 98.5983 35.6095 98.6221 35.6411Z" fill="#263238"/>
<path d="M100.527 33.8849C100.556 33.9113 100.372 34.1486 100.119 34.3912C99.8656 34.6337 99.6362 34.8288 99.6125 34.7998C99.5887 34.7708 99.768 34.5362 100.021 34.2936C100.274 34.051 100.498 33.8507 100.527 33.8849Z" fill="#263238"/>
<path d="M102.1 31.8315C102.135 31.8499 101.992 32.0951 101.786 32.401C101.581 32.7068 101.388 32.9283 101.359 32.894C101.425 32.6842 101.531 32.4897 101.673 32.3219C101.879 32.0318 102.069 31.8104 102.1 31.8315Z" fill="#263238"/>
<path d="M103.261 29.5166C103.171 29.945 102.991 30.3495 102.733 30.7031C102.817 30.2728 102.998 29.8672 103.261 29.5166Z" fill="#263238"/>
<path d="M103.946 27.0222C103.965 27.2405 103.939 27.4605 103.869 27.6682C103.843 27.8865 103.772 28.0968 103.658 28.2851C103.663 27.8485 103.761 27.418 103.946 27.0222Z" fill="#263238"/>
<path d="M104.211 24.4463C104.278 24.8778 104.25 25.3186 104.129 25.7382C104.076 25.5262 104.067 25.3053 104.103 25.0896C104.095 24.8701 104.132 24.6513 104.211 24.4463Z" fill="#263238"/>
<path d="M104.081 21.8623C104.212 22.2788 104.251 22.7187 104.194 23.1516C104.11 22.9496 104.068 22.7324 104.071 22.5135C104.031 22.2979 104.034 22.0765 104.081 21.8623Z" fill="#263238"/>
<path d="M103.557 19.3262C103.673 19.5126 103.749 19.7208 103.781 19.9379C103.855 20.1446 103.886 20.3646 103.871 20.5838C103.755 20.3974 103.679 20.1892 103.647 19.9721C103.574 19.765 103.543 19.5453 103.557 19.3262Z" fill="#263238"/>
<path d="M102.618 16.9136C102.764 17.0771 102.875 17.2693 102.942 17.4778C103.052 17.6685 103.12 17.8808 103.14 18.1C102.995 17.9346 102.885 17.7419 102.816 17.5332C102.708 17.3424 102.641 17.1315 102.618 16.9136Z" fill="#263238"/>
<path d="M101.235 14.7225C101.264 14.6987 101.454 14.9176 101.662 15.2129C101.805 15.3789 101.912 15.5729 101.976 15.7824C101.945 15.8035 101.752 15.582 101.549 15.292C101.406 15.1259 101.299 14.932 101.235 14.7225Z" fill="#263238"/>
<path d="M99.4404 12.8665C99.4641 12.8375 99.7041 12.9956 99.9677 13.2408C100.231 13.486 100.411 13.7181 100.384 13.7444C100.358 13.7708 100.136 13.5836 99.8754 13.341C99.6144 13.0985 99.4167 12.8955 99.4404 12.8665Z" fill="#263238"/>
<path d="M97.8297 11.7539C97.8481 11.7222 97.9905 11.7723 98.1461 11.8672C98.3016 11.9621 98.4097 12.065 98.3913 12.0966C98.3728 12.1282 98.2278 12.0782 98.0749 11.9859C97.922 11.8936 97.8086 11.7881 97.8297 11.7539Z" fill="#263238"/>
<path d="M90.679 18.2662C95.723 18.2662 99.8121 14.1771 99.8121 9.13308C99.8121 4.08902 95.723 0 90.679 0C85.6349 0 81.5459 4.08902 81.5459 9.13308C81.5459 14.1771 85.6349 18.2662 90.679 18.2662Z" fill="#FF0000"/>
<path d="M96.0083 48.9534L94.6637 44.0256C94.6637 44.0256 88.3359 45.6735 87.9325 45.162C85.636 42.3224 84.4759 38.4203 84.1147 37.0202C84.1648 36.8199 84.2334 36.5852 84.3256 36.311C84.4058 36.0763 84.5253 35.857 84.679 35.6624C84.8605 35.4145 85.0752 35.1928 85.317 35.0033C85.3827 34.9662 85.431 34.9045 85.4512 34.8318C85.4715 34.7592 85.4621 34.6814 85.4251 34.6157C85.4062 34.5789 85.379 34.5472 85.3455 34.5229C85.3121 34.4986 85.2734 34.4825 85.2326 34.476C84.969 34.4575 84.3046 34.8583 83.8063 35.6202C83.3079 36.3822 83.1577 34.9584 83.0944 34.4417C83.0311 33.9249 82.7543 32.3324 82.5802 32.219C82.3166 32.0635 82.1083 32.3087 82.1848 32.8255C82.2612 33.3422 82.3799 34.9083 82.1057 34.9347C81.8315 34.9611 81.5414 32.2981 81.5414 32.2981C81.5414 32.2981 81.5704 31.7234 81.2514 31.7366C80.674 31.7603 81.1934 34.5498 81.2514 34.8161C81.291 34.998 80.9878 35.0323 80.9614 34.8319C80.935 34.6315 80.7294 32.1953 80.1441 32.1953C79.6932 32.2111 80.5474 34.4944 80.3075 35.0244C80.0676 35.5543 79.8356 33.2262 79.4058 33.2579C79.2476 33.2579 79.129 33.3 79.4559 34.6183C79.7309 35.558 80.0566 36.4822 80.4314 37.3867H80.4077C80.4077 37.3867 82.7543 51.1549 88.8447 50.385C95.3281 49.5835 96.0083 48.9534 96.0083 48.9534Z" fill="#FFBE9D"/>
<path d="M86.82 62.6133L48.1758 59.8001C47.6519 59.7635 47.1638 59.5212 46.818 59.126C46.4723 58.7308 46.2969 58.2149 46.3302 57.6908L48.0598 33.9485C48.0963 33.4246 48.3386 32.9365 48.7338 32.5908C49.129 32.245 49.645 32.0696 50.169 32.1029L88.8449 34.9056C89.3714 34.9427 89.8616 35.1875 90.2077 35.586C90.5538 35.9845 90.7275 36.5041 90.6905 37.0306L88.9609 60.773C88.9428 61.0336 88.8736 61.288 88.7571 61.5218C88.6407 61.7556 88.4793 61.9642 88.2822 62.1356C88.085 62.307 87.8561 62.4379 87.6084 62.5208C87.3607 62.6036 87.099 62.6369 86.8385 62.6186L86.82 62.6133Z" fill="#0055B1"/>
<path d="M86.8191 62.6132C86.9377 62.6132 87.0537 62.6132 87.1724 62.6132C87.5183 62.5761 87.8479 62.4468 88.1268 62.2388C88.352 62.0717 88.539 61.8585 88.6754 61.6135C88.8118 61.3685 88.8944 61.0972 88.9178 60.8177C88.9653 60.148 89.0206 59.3755 89.0813 58.5081L90.1359 43.8039C90.2466 42.2519 90.3635 40.6269 90.4866 38.9289C90.5182 38.5071 90.5472 38.0773 90.5788 37.6475C90.6529 37.2216 90.6422 36.7853 90.5472 36.3635C90.4278 35.9434 90.167 35.5774 89.809 35.3274C89.6293 35.2002 89.4297 35.1039 89.2184 35.0426C89.0002 34.9926 88.7777 34.9634 88.5539 34.9556L76.8977 34.1145L50.1918 32.1608C49.906 32.1399 49.6191 32.1833 49.3522 32.2878C49.0852 32.3923 48.8451 32.5552 48.6494 32.7646C48.4539 32.9728 48.3078 33.2224 48.2223 33.4949C48.1483 33.7738 48.1093 34.0607 48.1063 34.3492C48.0184 35.5198 47.9305 36.6817 47.8426 37.8347C47.6669 40.1426 47.5016 42.4136 47.347 44.6476C47.02 49.114 46.7036 53.4248 46.4031 57.5273C46.3341 58.0255 46.4587 58.5313 46.7511 58.9405C47.039 59.3435 47.4718 59.6194 47.9586 59.7104C48.9421 59.8079 49.9387 59.8607 50.909 59.9398L56.5644 60.3537L66.7205 61.1025L81.422 62.194L85.4164 62.4999L86.4711 62.5895L86.8244 62.6211C86.8244 62.6211 86.7057 62.6211 86.4711 62.6027L85.4164 62.5341L81.4194 62.2573L66.7126 61.2027L56.5644 60.4802L50.9063 60.0716C49.9334 59.9951 48.9553 59.945 47.9428 59.8448C47.4245 59.7488 46.9634 59.4559 46.6562 59.0275C46.3482 58.5939 46.2154 58.0599 46.2844 57.5326C46.5824 53.4274 46.8961 49.1193 47.2204 44.6503C47.3821 42.4162 47.5465 40.1452 47.7134 37.8374C47.7978 36.6825 47.8857 35.5207 47.9771 34.3518C47.9819 34.0527 48.0226 33.7553 48.0984 33.4659C48.2382 33.0253 48.5224 32.6447 48.9051 32.3855C49.2878 32.1262 49.7466 32.0034 50.2076 32.0369L76.9135 33.988L88.5671 34.8422C88.7981 34.8504 89.0277 34.8813 89.2526 34.9345C89.5865 35.0309 89.8909 35.2092 90.1382 35.4532C90.3854 35.6973 90.5678 35.9994 90.6685 36.3319C90.7321 36.5491 90.758 36.7756 90.7449 37.0016C90.7449 37.223 90.7159 37.4366 90.7001 37.6554C90.6685 38.0852 90.6368 38.515 90.6052 38.9368C90.4804 40.633 90.3609 42.2571 90.2466 43.8092C89.7852 50.0157 89.4108 55.0384 89.1525 58.5134C89.0865 59.3808 89.0285 60.148 88.9784 60.8204C88.9525 61.1053 88.8656 61.3812 88.7237 61.6296C88.5818 61.878 88.3881 62.093 88.1558 62.2599C87.8729 62.4684 87.5382 62.5951 87.1882 62.6264C87.1005 62.6343 87.0123 62.6343 86.9245 62.6264L86.8191 62.6132Z" fill="#263238"/>
<path d="M67.9176 55.3383L67.8428 56.3665L86.7892 57.7445L86.864 56.7163L67.9176 55.3383Z" fill="#FAFAFA"/>
<path d="M77.0035 58.0631L76.9287 59.0913L86.6452 59.798L86.72 58.7698L77.0035 58.0631Z" fill="#FAFAFA"/>
<path d="M49.7343 43.1753L49.4916 46.5043C49.4391 47.2247 49.9804 47.8512 50.7008 47.9037L56.0415 48.2931C56.7618 48.3456 57.3883 47.8042 57.4408 47.0839L57.6836 43.7548C57.7361 43.0345 57.1947 42.408 56.4744 42.3555L51.1337 41.9661C50.4133 41.9135 49.7868 42.4549 49.7343 43.1753Z" fill="#455A64"/>
<path d="M49.5195 46.1609L49.5485 45.7812L53.6405 46.0791C53.7528 46.0907 53.8664 46.0801 53.9746 46.0478C54.0829 46.0155 54.1837 45.9622 54.2713 45.891C54.359 45.8197 54.4317 45.7319 54.4855 45.6326C54.5392 45.5332 54.5728 45.4242 54.5844 45.3119C54.596 45.1995 54.5853 45.086 54.5531 44.9777C54.5208 44.8695 54.4675 44.7687 54.3962 44.681C54.325 44.5934 54.2372 44.5206 54.1378 44.4669C54.0385 44.4132 53.9295 44.3796 53.8171 44.368H53.7776L49.6856 44.07L49.712 43.6877L53.8066 43.9857C54.1268 44.0198 54.4213 44.177 54.6278 44.4242C54.8344 44.6713 54.9368 44.989 54.9136 45.3102C54.8903 45.6314 54.7431 45.9311 54.5032 46.1458C54.2632 46.3606 53.9491 46.4738 53.6273 46.4614L49.5195 46.1609Z" fill="#0055B1"/>
<path d="M54.7625 45.1031L54.7344 45.4844L57.5426 45.6916L57.5707 45.3103L54.7625 45.1031Z" fill="#0055B1"/>
<path d="M51.124 37.0451L50.9961 38.7991L71.4412 40.2897L71.5691 38.5358L51.124 37.0451Z" fill="#FAFAFA"/>
<path d="M98.4606 32.4271C97.9148 33.3367 97.9702 34.4784 98.1231 35.5304C98.276 36.5824 98.5133 37.6554 98.2786 38.6943C98.1231 39.3771 97.7513 40.06 97.9306 40.7376C98.0492 41.2201 98.4105 41.5998 98.5897 42.0559C98.8534 42.715 98.7031 43.448 98.6161 44.1493C98.5291 44.8507 98.5344 45.6337 98.9984 46.1637C99.5758 46.8228 100.638 46.7938 101.429 46.4273C102.22 46.0608 102.848 45.4096 103.581 44.9324C104.314 44.4552 105.268 44.1414 106.057 44.5211C106.42 44.6951 106.734 45.0062 107.135 45.0484C107.696 45.0906 108.139 44.5764 108.683 44.4262C109.149 44.2996 109.648 44.4552 110.127 44.3998C111.106 44.2917 111.828 43.2371 111.691 42.2642C111.599 41.7783 111.36 41.3326 111.005 40.9885C110.65 40.6443 110.197 40.4185 109.708 40.3421C109.294 40.2736 108.796 40.263 108.569 39.9097C108.232 39.3824 108.833 38.7206 108.719 38.1116C108.646 37.6739 108.229 37.3812 107.82 37.202C107.412 37.0227 106.961 36.904 106.644 36.5929C106.078 36.0392 106.141 35.1322 105.967 34.3571C105.679 33.081 104.485 30.4681 101.885 30.2124" fill="#263238"/>
<path d="M97.2578 105.038L97.3079 103.177L100.796 103.248L100.751 105.972H100.535C99.5727 106.006 95.6336 106.077 94.9982 105.869C94.2811 105.645 97.2578 105.038 97.2578 105.038Z" fill="#0055B1"/>
<path d="M99.4863 105.916C99.5442 105.624 99.7075 105.363 99.9451 105.183C100.179 105.004 100.472 104.919 100.765 104.946L100.747 105.919L99.4863 105.916Z" fill="#0055B1"/>
<path d="M95.8029 105.384C95.8029 105.384 94.7482 105.663 94.8853 105.837C95.0224 106.011 98.9931 106.101 100.752 105.969V105.892L96.1087 105.84C96.1087 105.84 96.0059 105.397 95.8029 105.384Z" fill="#0055B1"/>
<path d="M100.801 105.89H100.569L99.9363 105.906H97.8429C97.0256 105.906 96.2847 105.861 95.7495 105.832L95.1167 105.792L94.9453 105.779H95.1167L95.7521 105.803C96.2794 105.824 97.0256 105.85 97.8429 105.866C98.6602 105.882 99.3985 105.885 99.9337 105.882H100.801V105.89Z" fill="#263238"/>
<path d="M96.1036 105.895C96.0776 105.789 96.0396 105.687 95.9902 105.589C95.9294 105.499 95.8586 105.416 95.7793 105.342C95.883 105.39 95.9694 105.469 96.0273 105.568C96.0852 105.667 96.1118 105.781 96.1036 105.895Z" fill="#263238"/>
<path d="M97.1403 105.392C97.0995 105.351 97.0632 105.306 97.0322 105.257C96.9821 105.178 96.9505 105.104 96.961 105.099C96.9716 105.094 97.019 105.154 97.0691 105.233C97.1192 105.313 97.1508 105.386 97.1403 105.392Z" fill="#263238"/>
<path d="M97.4265 105.249C97.3825 105.227 97.3417 105.198 97.3052 105.165C97.2446 105.11 97.205 105.057 97.2129 105.049C97.2208 105.041 97.2762 105.078 97.3342 105.133C97.3922 105.189 97.4344 105.241 97.4265 105.249Z" fill="#263238"/>
<path d="M97.6109 104.922C97.6109 104.935 97.5292 104.943 97.429 104.943C97.3288 104.943 97.2471 104.943 97.2471 104.92C97.3054 104.899 97.3677 104.893 97.429 104.901C97.4904 104.895 97.5525 104.902 97.6109 104.922Z" fill="#263238"/>
<path d="M97.6779 104.693C97.6176 104.732 97.5467 104.751 97.4749 104.748C97.4036 104.759 97.3305 104.747 97.2666 104.714C97.3351 104.709 97.4038 104.709 97.4723 104.714C97.5396 104.698 97.6087 104.691 97.6779 104.693Z" fill="#263238"/>
<path d="M97.0177 105.086C96.9436 105.099 96.8677 105.099 96.7936 105.086C96.713 105.073 96.6336 105.054 96.5563 105.028C96.5097 105.013 96.4647 104.993 96.4218 104.97C96.3957 104.953 96.3762 104.928 96.3664 104.898C96.3637 104.882 96.3657 104.864 96.3722 104.848C96.3787 104.833 96.3895 104.819 96.4034 104.809C96.49 104.769 96.5877 104.761 96.6799 104.785C96.7722 104.809 96.8533 104.864 96.9096 104.941C96.9439 104.985 96.9674 105.036 96.9781 105.091V105.152C96.9574 105.082 96.9244 105.017 96.8806 104.959C96.831 104.899 96.7651 104.854 96.6908 104.83C96.6481 104.814 96.6029 104.808 96.5576 104.81C96.5123 104.812 96.4679 104.823 96.4271 104.843C96.3902 104.869 96.4034 104.912 96.4429 104.935C96.483 104.956 96.5244 104.975 96.5668 104.991C96.6412 105.019 96.718 105.041 96.7962 105.057C96.8705 105.062 96.9444 105.072 97.0177 105.086Z" fill="#263238"/>
<path d="M96.9716 105.096C96.9451 105.049 96.9376 104.993 96.9505 104.941C96.9582 104.88 96.9819 104.823 97.0191 104.775C97.0382 104.741 97.0658 104.713 97.0991 104.694C97.1324 104.674 97.1703 104.664 97.2089 104.664C97.2308 104.671 97.2495 104.685 97.2616 104.704C97.2737 104.724 97.2784 104.747 97.2748 104.769C97.2683 104.804 97.2549 104.837 97.2353 104.867C97.2052 104.916 97.1688 104.961 97.1272 105.001C97.0908 105.041 97.0457 105.072 96.9954 105.091C97.0347 105.057 97.0717 105.02 97.1061 104.98C97.143 104.94 97.1748 104.896 97.201 104.848C97.2327 104.801 97.2564 104.717 97.201 104.706C97.1456 104.695 97.085 104.753 97.0507 104.798C97.0172 104.841 96.9946 104.89 96.9848 104.943C96.9765 104.994 96.9721 105.045 96.9716 105.096Z" fill="#263238"/>
<path d="M100.747 104.936C100.66 104.927 100.571 104.927 100.484 104.936C100.277 104.954 100.081 105.031 99.9162 105.157C99.7519 105.283 99.6268 105.453 99.5556 105.647C99.5002 105.795 99.4923 105.895 99.4844 105.895C99.4818 105.872 99.4818 105.848 99.4844 105.824C99.5163 105.578 99.6337 105.352 99.8159 105.184C99.9981 105.016 100.234 104.918 100.481 104.907C100.544 104.901 100.608 104.901 100.671 104.907C100.697 104.913 100.723 104.923 100.747 104.936Z" fill="#263238"/>
<path d="M100.417 103.478C100.438 103.716 100.444 103.956 100.433 104.195C100.439 104.433 100.43 104.672 100.407 104.909C100.379 104.432 100.379 103.954 100.407 103.478H100.417Z" fill="#263238"/>
<path d="M99.0555 105.566C98.8877 105.603 98.7155 105.616 98.544 105.605C98.373 105.61 98.202 105.593 98.0352 105.555C98.0352 105.555 98.2645 105.555 98.5467 105.555C98.8288 105.555 99.0529 105.566 99.0555 105.566Z" fill="#263238"/>
<path d="M99.7382 105.581C99.7249 105.615 99.71 105.647 99.6934 105.679C99.667 105.729 99.6565 105.779 99.6433 105.776C99.6301 105.774 99.6275 105.721 99.6565 105.663C99.6855 105.605 99.7303 105.566 99.7382 105.581Z" fill="#263238"/>
<path d="M100.004 105.265C99.992 105.295 99.974 105.322 99.9509 105.344C99.914 105.378 99.8797 105.402 99.8718 105.394C99.8639 105.386 99.885 105.349 99.9219 105.315C99.9588 105.281 99.9957 105.257 100.004 105.265Z" fill="#263238"/>
<path d="M100.374 105.125C100.374 105.139 100.324 105.125 100.274 105.154C100.224 105.183 100.184 105.197 100.176 105.189C100.168 105.181 100.197 105.133 100.26 105.112C100.324 105.091 100.376 105.115 100.374 105.125Z" fill="#263238"/>
<path d="M100.638 105.062C100.628 105.079 100.612 105.093 100.593 105.101C100.574 105.107 100.553 105.107 100.533 105.101C100.543 105.083 100.558 105.069 100.578 105.062C100.606 105.051 100.633 105.051 100.638 105.062Z" fill="#263238"/>
<path d="M107.151 105.038L107.201 103.177L110.687 103.248L110.642 105.972H110.426C109.464 106.006 105.527 106.077 104.889 105.869C104.175 105.645 107.151 105.038 107.151 105.038Z" fill="#0055B1"/>
<path d="M109.381 105.916C109.439 105.623 109.603 105.362 109.842 105.183C110.076 105.003 110.369 104.918 110.662 104.946L110.641 105.919L109.381 105.916Z" fill="#0055B1"/>
<path d="M105.698 105.384C105.698 105.384 104.643 105.663 104.777 105.837C104.912 106.011 108.885 106.101 110.644 105.969V105.892L105.998 105.84C105.998 105.84 105.901 105.397 105.698 105.384Z" fill="#0055B1"/>
<path d="M110.696 105.89H110.464L109.829 105.906H107.735C106.918 105.906 106.177 105.861 105.645 105.832L105.009 105.792L104.838 105.779H105.012L105.645 105.803C106.172 105.824 106.918 105.85 107.735 105.866C108.553 105.882 109.294 105.885 109.829 105.882H110.696V105.89Z" fill="#263238"/>
<path d="M105.995 105.895C105.969 105.789 105.932 105.687 105.884 105.589C105.823 105.499 105.752 105.416 105.673 105.342C105.776 105.39 105.862 105.469 105.92 105.568C105.977 105.667 106.003 105.781 105.995 105.895Z" fill="#263238"/>
<path d="M107.038 105.392C106.998 105.351 106.962 105.306 106.932 105.257C106.885 105.178 106.851 105.104 106.861 105.099C106.872 105.094 106.919 105.154 106.967 105.233C106.997 105.283 107.021 105.336 107.038 105.392Z" fill="#263238"/>
<path d="M107.322 105.249C107.278 105.227 107.237 105.199 107.201 105.165C107.143 105.11 107.1 105.057 107.108 105.049C107.116 105.041 107.169 105.078 107.23 105.133C107.29 105.189 107.33 105.241 107.322 105.249Z" fill="#263238"/>
<path d="M107.505 104.922C107.505 104.935 107.424 104.943 107.324 104.943C107.223 104.943 107.142 104.943 107.142 104.92C107.2 104.899 107.262 104.893 107.324 104.901C107.385 104.895 107.447 104.902 107.505 104.922Z" fill="#263238"/>
<path d="M107.564 104.693C107.503 104.731 107.431 104.75 107.359 104.748C107.287 104.759 107.214 104.747 107.15 104.714C107.219 104.709 107.288 104.709 107.356 104.714C107.424 104.698 107.494 104.691 107.564 104.693Z" fill="#263238"/>
<path d="M106.923 105.086C106.849 105.099 106.773 105.099 106.699 105.086C106.618 105.073 106.539 105.054 106.462 105.028C106.414 105.014 106.368 104.994 106.325 104.97C106.298 104.954 106.28 104.928 106.272 104.898C106.269 104.882 106.271 104.865 106.277 104.849C106.283 104.833 106.293 104.819 106.306 104.809C106.393 104.769 106.49 104.761 106.583 104.785C106.675 104.809 106.756 104.864 106.812 104.941C106.846 104.985 106.871 105.036 106.883 105.091C106.889 105.111 106.889 105.132 106.883 105.152C106.862 105.082 106.828 105.017 106.783 104.959C106.735 104.898 106.67 104.853 106.596 104.83C106.51 104.8 106.415 104.804 106.332 104.843C106.298 104.869 106.311 104.912 106.348 104.935C106.388 104.959 106.43 104.978 106.475 104.991C106.549 105.019 106.626 105.041 106.704 105.057C106.836 105.078 106.923 105.078 106.923 105.086Z" fill="#263238"/>
<path d="M106.866 105.097C106.839 105.05 106.83 104.994 106.842 104.941C106.851 104.882 106.873 104.826 106.908 104.777C106.928 104.745 106.955 104.718 106.988 104.699C107.021 104.679 107.058 104.668 107.095 104.667C107.118 104.672 107.138 104.686 107.15 104.706C107.163 104.726 107.168 104.749 107.164 104.772C107.158 104.808 107.143 104.841 107.122 104.87C107.093 104.92 107.056 104.965 107.014 105.004C106.979 105.044 106.934 105.075 106.885 105.094C106.923 105.059 106.959 105.022 106.993 104.983C107.03 104.943 107.062 104.898 107.09 104.851C107.122 104.804 107.143 104.719 107.09 104.709C107.037 104.698 106.977 104.756 106.94 104.801C106.909 104.845 106.887 104.894 106.874 104.946C106.866 104.996 106.863 105.046 106.866 105.097Z" fill="#263238"/>
<path d="M110.643 104.936C110.555 104.927 110.467 104.927 110.379 104.936C110.173 104.954 109.976 105.031 109.812 105.157C109.648 105.283 109.523 105.453 109.451 105.647C109.396 105.795 109.388 105.895 109.38 105.895C109.375 105.872 109.375 105.848 109.38 105.824C109.387 105.76 109.402 105.698 109.422 105.637C109.488 105.433 109.614 105.254 109.784 105.123C109.954 104.993 110.16 104.917 110.374 104.907C110.438 104.901 110.502 104.901 110.566 104.907C110.594 104.911 110.62 104.921 110.643 104.936Z" fill="#263238"/>
<path d="M110.31 103.478C110.338 103.954 110.338 104.432 110.31 104.909C110.289 104.672 110.284 104.433 110.294 104.195C110.285 103.956 110.29 103.716 110.31 103.478Z" fill="#263238"/>
<path d="M108.948 105.566C108.781 105.603 108.61 105.616 108.44 105.605C108.268 105.611 108.097 105.594 107.931 105.555C107.931 105.555 108.16 105.555 108.44 105.555C108.719 105.555 108.948 105.566 108.948 105.566Z" fill="#263238"/>
<path d="M109.631 105.581C109.631 105.581 109.612 105.629 109.588 105.679C109.565 105.729 109.549 105.779 109.538 105.776C109.528 105.774 109.522 105.721 109.538 105.663C109.554 105.605 109.625 105.566 109.631 105.581Z" fill="#263238"/>
<path d="M109.896 105.265C109.884 105.295 109.866 105.322 109.843 105.344C109.806 105.378 109.769 105.402 109.761 105.394C109.753 105.386 109.777 105.349 109.814 105.315C109.851 105.281 109.885 105.257 109.896 105.265Z" fill="#263238"/>
<path d="M110.266 105.125C110.266 105.139 110.219 105.125 110.166 105.154C110.113 105.183 110.079 105.197 110.068 105.189C110.058 105.181 110.089 105.133 110.153 105.112C110.216 105.091 110.271 105.115 110.266 105.125Z" fill="#263238"/>
<path d="M110.528 105.062C110.518 105.079 110.503 105.093 110.484 105.101C110.464 105.107 110.443 105.107 110.424 105.101C110.424 105.101 110.442 105.072 110.471 105.062C110.5 105.051 110.526 105.051 110.528 105.062Z" fill="#263238"/>
<path d="M96.5534 57.1978L94.8818 82.116V104.588H101.563C101.563 104.588 101.845 85.2087 101.668 83.9405C101.668 83.9405 102.76 64.5301 102.884 64.8069C103.147 65.3738 103.132 81.8734 103.506 83.9168C103.88 85.9601 105.615 104.588 105.615 104.588H112.046L109.884 83.2313C109.839 80.658 109.177 58.0599 109.177 58.0599L96.5534 57.1978Z" fill="#263238"/>
<path d="M111.902 103.311C111.829 103.363 111.743 103.394 111.654 103.398C111.412 103.42 111.169 103.38 110.947 103.282C110.639 103.13 110.314 103.013 109.979 102.934C109.602 102.879 109.21 103.077 108.835 103.327C108.491 103.599 108.087 103.785 107.657 103.87C107.3 103.904 106.94 103.86 106.602 103.741C106.377 103.667 106.157 103.579 105.943 103.478C105.862 103.446 105.786 103.403 105.719 103.348C105.719 103.325 106.064 103.485 106.628 103.654C106.956 103.754 107.3 103.786 107.641 103.749C108.05 103.663 108.434 103.482 108.761 103.222C108.949 103.095 109.148 102.987 109.357 102.9C109.56 102.82 109.779 102.793 109.995 102.821C110.342 102.902 110.677 103.027 110.992 103.193C111.199 103.292 111.426 103.344 111.656 103.343C111.812 103.338 111.896 103.298 111.902 103.311Z" fill="#455A64"/>
<path d="M101.618 103.156C101.552 103.094 101.481 103.036 101.407 102.984C101.193 102.865 100.943 102.827 100.703 102.879C100.348 102.979 100.015 103.147 99.7222 103.372C99.5347 103.499 99.3351 103.606 99.1263 103.694C98.8937 103.789 98.6393 103.819 98.3907 103.781C97.8845 103.694 97.4837 103.43 97.0724 103.34C96.714 103.264 96.3418 103.28 95.9914 103.388C95.385 103.57 95.0291 103.757 95.0186 103.731C95.0927 103.673 95.1743 103.625 95.2611 103.588C95.4876 103.471 95.723 103.373 95.9651 103.293C96.3303 103.166 96.7226 103.14 97.1014 103.216C97.5312 103.309 97.9372 103.57 98.4013 103.646C98.8653 103.723 99.2898 103.483 99.6405 103.264C99.9482 103.036 100.299 102.873 100.671 102.784C100.933 102.737 101.204 102.792 101.425 102.94C101.512 102.989 101.579 103.065 101.618 103.156Z" fill="#455A64"/>
<path d="M108.726 62.3653C108.609 62.4417 108.475 62.4871 108.336 62.4971C108.004 62.5468 107.665 62.5255 107.342 62.4346C107.019 62.3437 106.719 62.1853 106.461 61.9698C106.266 61.8037 106.179 61.6692 106.198 61.6587C106.54 61.9595 106.945 62.1786 107.384 62.2997C107.823 62.4207 108.284 62.4404 108.731 62.3574L108.726 62.3653Z" fill="#455A64"/>
<path d="M97.6336 61.3923C97.6494 61.3923 97.6494 61.5268 97.5809 61.7219C97.488 61.9773 97.333 62.2056 97.13 62.3863C96.9261 62.5663 96.682 62.6946 96.4181 62.7607C96.2151 62.8055 96.0859 62.7897 96.0859 62.7739C96.4399 62.6937 96.7676 62.5248 97.0383 62.2831C97.309 62.0414 97.5139 61.7349 97.6336 61.3923Z" fill="#455A64"/>
<path d="M98.7318 31.0349C98.4962 31.2745 98.3148 31.5618 98.1997 31.8774C98.0846 32.1931 98.0386 32.5297 98.0647 32.8647C98.1232 33.5347 98.3411 34.1811 98.7001 34.7498" fill="#263238"/>
<path d="M104.489 41.3414L104.847 33.0811L101.533 30.571L98.5221 32.0423C98.5221 32.0423 98.4219 35.8231 98.5221 37.463C98.6223 39.103 100.275 39.277 100.275 39.277C100.275 39.277 100.228 40.1814 100.175 41.1226C100.146 41.6883 100.34 42.2428 100.715 42.6672C101.09 43.0916 101.617 43.352 102.182 43.3927C102.753 43.4325 103.317 43.2438 103.749 42.868C104.181 42.4923 104.446 41.9602 104.486 41.3889C104.486 41.3731 104.489 41.3573 104.489 41.3414Z" fill="#FFBE9D"/>
<path d="M99.0586 34.7998C99.0586 34.8415 99.071 34.8823 99.0941 34.917C99.1173 34.9517 99.1503 34.9787 99.1888 34.9947C99.2273 35.0106 99.2698 35.0148 99.3107 35.0067C99.3516 34.9985 99.3892 34.9784 99.4187 34.9489C99.4482 34.9194 99.4683 34.8819 99.4764 34.8409C99.4845 34.8 99.4804 34.7576 99.4644 34.7191C99.4484 34.6805 99.4214 34.6476 99.3867 34.6244C99.352 34.6012 99.3112 34.5889 99.2695 34.5889C99.2418 34.5889 99.2144 34.5943 99.1888 34.6049C99.1632 34.6155 99.14 34.6311 99.1204 34.6506C99.1008 34.6702 99.0853 34.6935 99.0747 34.7191C99.0641 34.7447 99.0586 34.7721 99.0586 34.7998Z" fill="#263238"/>
<path d="M98.6473 34.5707C98.6736 34.5971 98.8292 34.4652 99.0533 34.4521C99.2774 34.4389 99.4488 34.5496 99.4725 34.5206C99.4962 34.4916 99.4567 34.4573 99.3829 34.4046C99.2829 34.3395 99.1644 34.3089 99.0454 34.3176C98.9267 34.3232 98.8133 34.3687 98.7237 34.4468C98.6552 34.5048 98.6341 34.5575 98.6473 34.5707Z" fill="#263238"/>
<path d="M101.499 34.8C101.499 34.8552 101.521 34.9082 101.56 34.9473C101.599 34.9863 101.652 35.0083 101.707 35.0083C101.749 35.0088 101.79 34.9969 101.825 34.9742C101.86 34.9514 101.887 34.9188 101.904 34.8805C101.92 34.8422 101.925 34.7998 101.917 34.7588C101.91 34.7178 101.89 34.6799 101.861 34.6501C101.832 34.6202 101.794 34.5997 101.754 34.591C101.713 34.5824 101.67 34.586 101.632 34.6015C101.593 34.617 101.56 34.6436 101.536 34.678C101.512 34.7124 101.5 34.753 101.499 34.7947V34.8Z" fill="#263238"/>
<path d="M101.151 34.5707C101.178 34.597 101.333 34.4652 101.557 34.452C101.781 34.4388 101.953 34.5496 101.976 34.5206C102 34.4916 101.961 34.4573 101.887 34.4046C101.786 34.3404 101.668 34.31 101.549 34.3175C101.43 34.3251 101.317 34.3704 101.225 34.4467C101.159 34.5047 101.138 34.5575 101.151 34.5707Z" fill="#263238"/>
<path d="M101.08 36.6929C100.735 36.8671 100.368 36.9931 99.9883 37.0673C100.072 37.1805 100.191 37.2629 100.326 37.3015C100.462 37.3401 100.606 37.3329 100.737 37.2808C100.797 37.2677 100.853 37.243 100.903 37.208C100.953 37.1731 100.995 37.1285 101.028 37.0771C101.06 37.0256 101.082 36.9682 101.093 36.9081C101.103 36.848 101.101 36.7865 101.088 36.7271L101.08 36.6929Z" fill="#FAFAFA"/>
<path d="M100.274 39.2767C101.054 39.2444 101.807 38.9901 102.447 38.5437C102.447 38.5437 101.954 39.7486 100.311 39.6801L100.274 39.2767Z" fill="#EB996E"/>
<path d="M100.333 36.4873C100.212 36.4579 100.088 36.4429 99.9637 36.4425C99.9057 36.4425 99.8503 36.4425 99.8371 36.3898C99.8299 36.3262 99.8419 36.262 99.8714 36.2052C99.9188 36.0576 99.9716 35.902 100.024 35.7386C100.132 35.4037 100.225 35.1031 100.288 34.8817C100.332 34.7649 100.36 34.6424 100.37 34.5178C100.309 34.6262 100.262 34.7413 100.227 34.8606C100.148 35.0768 100.045 35.3879 99.9373 35.7096C99.8872 35.8757 99.8371 36.0312 99.7896 36.1815C99.7577 36.2555 99.7503 36.3377 99.7686 36.4162C99.7766 36.4365 99.7894 36.4545 99.8059 36.4687C99.8225 36.483 99.8422 36.493 99.8635 36.4979C99.8958 36.5032 99.9287 36.5032 99.961 36.4979C100.085 36.5115 100.21 36.508 100.333 36.4873Z" fill="#263238"/>
<path d="M104.604 36.0182C104.578 35.7451 104.608 35.4696 104.693 35.2087C104.736 35.0785 104.813 34.9623 104.917 34.8727C105.02 34.783 105.146 34.7233 105.281 34.6999C105.438 34.6916 105.592 34.7406 105.714 34.8376C105.837 34.9347 105.92 35.0732 105.948 35.2272C105.968 35.3845 105.939 35.5441 105.867 35.6851C105.795 35.8262 105.681 35.9422 105.542 36.0182C105.402 36.0902 105.247 36.1297 105.089 36.1338C104.931 36.1379 104.774 36.1065 104.63 36.0419" fill="#FFBE9D"/>
<path d="M105.083 35.7782C105.083 35.7598 105.17 35.802 105.286 35.765C105.358 35.7401 105.421 35.6931 105.465 35.6306C105.509 35.5682 105.532 35.4934 105.531 35.417C105.538 35.3785 105.537 35.3389 105.527 35.3011C105.517 35.2632 105.499 35.2281 105.473 35.1982C105.422 35.1593 105.358 35.1406 105.294 35.1455C105.173 35.1455 105.086 35.1876 105.078 35.1692C105.07 35.1507 105.133 35.0927 105.281 35.0505C105.326 35.04 105.373 35.0392 105.418 35.0483C105.464 35.0574 105.507 35.0761 105.544 35.1033C105.588 35.1446 105.62 35.1955 105.64 35.2519C105.66 35.3082 105.666 35.3684 105.658 35.4276C105.651 35.5398 105.609 35.647 105.537 35.7334C105.474 35.8039 105.388 35.8489 105.294 35.86C105.144 35.8758 105.067 35.7888 105.083 35.7782Z" fill="#EB996E"/>
<path d="M98.542 31.1957C97.8143 32.1001 98.7845 32.6696 99.267 33.0413C99.6388 33.3313 100.736 34.096 101.698 33.7347C101.358 33.2786 100.97 33.0782 100.82 32.6432C101.213 33.1969 101.627 33.6161 102.302 33.6978C102.167 33.305 101.977 32.5061 102.122 32.4745C102.302 34.0353 103.765 35.3483 104.772 34.8474C104.961 34.3564 105.031 33.8278 104.977 33.3047C104.923 32.7816 104.746 32.2785 104.461 31.8364C104.169 31.3993 103.789 31.0275 103.345 30.7448C102.902 30.4621 102.405 30.2744 101.885 30.1938C101.288 30.1031 100.679 30.1459 100.101 30.3191C99.5229 30.4924 98.9904 30.7918 98.542 31.1957Z" fill="#263238"/>
<path d="M105.454 36.1685C105.454 36.1527 105.578 36.2714 105.528 36.4955C105.512 36.5601 105.482 36.6204 105.44 36.6719C105.398 36.7235 105.345 36.765 105.285 36.7934C105.21 36.8277 105.128 36.8438 105.046 36.8406C104.963 36.8374 104.883 36.8149 104.811 36.7749C104.74 36.7322 104.68 36.6743 104.634 36.6055C104.588 36.5366 104.559 36.4585 104.547 36.3768C104.531 36.2454 104.565 36.1127 104.642 36.0051C104.774 35.8258 104.921 35.8073 104.921 35.8205C104.843 35.8885 104.776 35.9686 104.724 36.0578C104.673 36.1494 104.655 36.2554 104.673 36.3584C104.683 36.4192 104.706 36.4772 104.74 36.5286C104.774 36.58 104.819 36.6235 104.871 36.6563C104.925 36.6861 104.984 36.7037 105.045 36.7078C105.106 36.712 105.168 36.7025 105.225 36.68C105.271 36.6607 105.314 36.6317 105.349 36.5949C105.384 36.5581 105.411 36.5143 105.428 36.4665C105.456 36.3699 105.465 36.2686 105.454 36.1685Z" fill="#0055B1"/>
<path d="M94.0569 49.752L96.53 49.2378L97.2814 53.3984C96.6464 55.5308 96.1184 57.6938 95.6995 59.879L101.5 63.4991L102.394 61.8011L103.825 63.1616L109.998 59.879C109.236 55.9242 107.311 54.8907 107.311 54.2473C107.311 52.4017 107.047 54.1946 108.595 48.0804C110.143 41.9662 104.495 41.3413 104.495 41.3413C104.495 41.3413 104.622 42.1956 100.129 41.3809C98.4837 41.0829 91.916 44.5316 91.916 44.5316L94.0569 49.752Z" fill="#0055B1"/>
<path d="M100.121 41.3807C100.121 41.3807 100.068 45.905 101.146 45.5992C102.225 45.2933 104.397 43.3607 104.487 41.3306L100.121 41.3807Z" fill="#FFBE9D"/>
<path d="M100.395 49.3092C100.383 48.7733 100.413 48.2372 100.488 47.7062C100.519 47.1731 100.596 46.6438 100.72 46.1243C100.733 46.6612 100.701 47.1983 100.625 47.7299C100.593 48.2619 100.517 48.7903 100.395 49.3092Z" fill="#263238"/>
<path d="M101.082 48.9427C101.003 48.5194 100.969 48.0891 100.98 47.6587C100.946 47.2289 100.958 46.7968 101.014 46.3694C101.093 46.7935 101.127 47.2247 101.117 47.656C101.153 48.0849 101.141 48.5164 101.082 48.9427Z" fill="#263238"/>
<path d="M100.116 49.752C100.079 49.752 100.053 49.636 100.116 49.5068C100.18 49.3776 100.282 49.3196 100.306 49.3486C100.33 49.3776 100.288 49.462 100.243 49.5622C100.198 49.6624 100.156 49.7547 100.116 49.752Z" fill="#263238"/>
<path d="M100.263 49.7518C100.226 49.7518 100.212 49.6569 100.231 49.5541C100.249 49.4513 100.299 49.3774 100.336 49.3853C100.373 49.3933 100.386 49.4803 100.368 49.5831C100.35 49.6859 100.299 49.7597 100.263 49.7518Z" fill="#263238"/>
<path d="M100.403 49.7547C100.366 49.7547 100.327 49.6782 100.316 49.5754C100.305 49.4726 100.329 49.3882 100.369 49.3856C100.408 49.3829 100.445 49.462 100.453 49.5622C100.461 49.6624 100.445 49.7494 100.403 49.7547Z" fill="#263238"/>
<path d="M100.632 49.8258C100.592 49.8258 100.563 49.694 100.495 49.5622C100.426 49.4304 100.347 49.3143 100.373 49.2827C100.4 49.2511 100.539 49.3302 100.621 49.5042C100.703 49.6782 100.669 49.8285 100.632 49.8258Z" fill="#263238"/>
<path d="M101.111 49.3486C101.077 49.3618 101.006 49.2484 101.006 49.0849C101.006 48.9215 101.077 48.8213 101.111 48.8213C101.146 48.8213 101.143 48.9452 101.143 49.0849C101.143 49.2247 101.148 49.3354 101.111 49.3486Z" fill="#263238"/>
<path d="M101.251 49.2745C101.214 49.2745 101.174 49.1902 101.164 49.0794C101.153 48.9687 101.164 48.8738 101.214 48.8712C101.264 48.8685 101.29 48.9555 101.301 49.0663C101.312 49.177 101.288 49.2719 101.251 49.2745Z" fill="#263238"/>
<path d="M101.478 49.2378C101.449 49.2615 101.367 49.2061 101.296 49.1139C101.224 49.0216 101.19 48.9293 101.222 48.9082C101.253 48.8871 101.333 48.9398 101.404 49.0295C101.475 49.1191 101.501 49.214 101.478 49.2378Z" fill="#263238"/>
<path d="M101.549 49.164C101.515 49.1798 101.449 49.1113 101.364 49.0375C101.28 48.9636 101.206 48.9083 101.219 48.8713C101.232 48.8344 101.351 48.8397 101.457 48.9346C101.562 49.0295 101.583 49.1429 101.549 49.164Z" fill="#263238"/>
<path d="M99.7924 41.8791C99.7924 41.8633 99.8715 41.8238 99.9638 41.9081C100.002 41.9526 100.02 42.0103 100.016 42.0686C100.012 42.1269 99.9842 42.181 99.94 42.2192C99.9183 42.2387 99.8929 42.2535 99.8653 42.2629C99.8377 42.2722 99.8085 42.2759 99.7794 42.2737C99.7503 42.2715 99.722 42.2634 99.6962 42.25C99.6703 42.2366 99.6474 42.218 99.6289 42.1955C99.6161 42.1823 99.6054 42.1672 99.5973 42.1507C99.5849 42.1158 99.5811 42.0784 99.5861 42.0417C99.5912 42.005 99.605 41.9701 99.6263 41.9398C99.7027 41.8396 99.795 41.8633 99.7897 41.8791C99.7568 41.9109 99.73 41.9484 99.7106 41.9899C99.6843 42.0611 99.7106 42.156 99.8187 42.1428C99.9268 42.1296 99.9347 42.0373 99.8926 41.9714C99.8504 41.9055 99.795 41.9002 99.7924 41.8791Z" fill="#263238"/>
<path d="M99.8959 42.7308C99.8722 42.7598 99.7983 42.7308 99.7271 42.6939C99.656 42.657 99.6164 42.5779 99.6375 42.5463C99.6586 42.5146 99.7351 42.5304 99.8062 42.5832C99.8774 42.6359 99.917 42.6992 99.8959 42.7308Z" fill="#263238"/>
<path d="M99.9644 42.9099C99.996 42.9336 99.9644 43.0259 99.8589 43.0654C99.7534 43.105 99.6664 43.0654 99.6743 43.0259C99.6822 42.9863 99.7429 42.9653 99.8088 42.9389C99.8747 42.9125 99.9354 42.8862 99.9644 42.9099Z" fill="#263238"/>
<path d="M99.9694 43.3558C99.9984 43.3796 99.9694 43.4481 99.9299 43.5088C99.8903 43.5694 99.8139 43.601 99.7849 43.5747C99.7559 43.5483 99.7717 43.4824 99.8244 43.4217C99.8771 43.3611 99.9378 43.3427 99.9694 43.3558Z" fill="#263238"/>
<path d="M99.8569 43.8384C99.8569 43.8226 99.9624 43.7856 100.086 43.899C100.121 43.9323 100.146 43.9744 100.159 44.0209C100.171 44.0674 100.171 44.1164 100.158 44.1627C100.14 44.2236 100.103 44.2773 100.053 44.3162C100.003 44.355 99.9415 44.377 99.878 44.3789C99.8156 44.3742 99.7563 44.3497 99.7089 44.3089C99.6614 44.2681 99.6283 44.2132 99.6144 44.1521C99.6028 44.1013 99.6081 44.048 99.6295 44.0004C99.6509 43.9528 99.6873 43.9135 99.733 43.8885C99.8859 43.8041 99.9967 43.8885 99.9703 43.9017C99.9052 43.9084 99.8427 43.9311 99.7884 43.9676C99.765 43.9845 99.7475 44.0084 99.7386 44.0359C99.7296 44.0634 99.7295 44.093 99.7383 44.1205C99.7492 44.1532 99.7695 44.1819 99.7967 44.203C99.824 44.2242 99.8568 44.2367 99.8912 44.2391C99.915 44.2378 99.9383 44.2317 99.9597 44.2213C99.9812 44.2108 100 44.1962 100.016 44.1783C100.032 44.1604 100.044 44.1395 100.051 44.1169C100.059 44.0943 100.062 44.0704 100.06 44.0467C100.057 44.0105 100.045 43.9757 100.023 43.9465C99.9439 43.87 99.8543 43.87 99.8569 43.8384Z" fill="#263238"/>
<path d="M100.152 44.6056C100.17 44.6398 100.112 44.7031 100.049 44.7743C99.9856 44.8455 99.9329 44.9114 99.896 44.8982C99.859 44.885 99.8643 44.7796 99.946 44.6847C100.028 44.5898 100.136 44.5713 100.152 44.6056Z" fill="#263238"/>
<path d="M100.3 45.0825C100.334 45.0957 100.329 45.2011 100.247 45.2961C100.165 45.391 100.06 45.4094 100.042 45.3778C100.023 45.3462 100.081 45.2776 100.144 45.2064C100.208 45.1352 100.263 45.0693 100.3 45.0825Z" fill="#263238"/>
<path d="M100.378 45.8552C100.341 45.8552 100.302 45.7709 100.294 45.6575C100.286 45.5441 100.294 45.4545 100.344 45.4492C100.394 45.4439 100.42 45.5336 100.428 45.6469C100.436 45.7603 100.418 45.8526 100.378 45.8552Z" fill="#263238"/>
<path d="M101.661 45.9791C101.643 46.0107 101.569 46.0054 101.498 45.9791C101.426 45.9527 101.384 45.8789 101.403 45.8446C101.421 45.8103 101.495 45.8182 101.566 45.8446C101.637 45.871 101.68 45.9316 101.661 45.9791Z" fill="#263238"/>
<path d="M102.108 45.4516C102.134 45.478 102.09 45.565 102.011 45.6467C101.931 45.7285 101.842 45.7733 101.815 45.7469C101.789 45.7206 101.831 45.6336 101.913 45.5518C101.995 45.4701 102.079 45.4279 102.108 45.4516Z" fill="#263238"/>
<path d="M102.47 45.1566C102.47 45.1355 102.538 45.125 102.639 45.1276H102.652L102.67 45.1434C102.694 45.1669 102.711 45.1958 102.721 45.2275C102.73 45.2592 102.732 45.2928 102.726 45.3254C102.718 45.3669 102.698 45.4048 102.667 45.4334C102.636 45.462 102.596 45.4796 102.554 45.4836C102.51 45.4876 102.465 45.4772 102.426 45.454C102.388 45.4307 102.358 45.3958 102.341 45.3544C102.327 45.3215 102.324 45.2851 102.331 45.2502C102.339 45.2153 102.357 45.1835 102.383 45.1593C102.47 45.0802 102.552 45.1197 102.541 45.1355C102.531 45.1514 102.488 45.1619 102.459 45.2199C102.452 45.2326 102.448 45.2472 102.448 45.2621C102.448 45.277 102.452 45.2915 102.459 45.3043C102.469 45.3185 102.482 45.3299 102.497 45.3373C102.512 45.3447 102.529 45.3479 102.546 45.3465C102.602 45.3465 102.628 45.2489 102.599 45.2146L102.631 45.2305C102.528 45.2041 102.467 45.1883 102.47 45.1566Z" fill="#263238"/>
<path d="M102.848 45.0852C102.811 45.0852 102.795 44.9876 102.816 44.8875C102.837 44.7873 102.885 44.7108 102.922 44.7161C102.958 44.7214 102.972 44.8136 102.951 44.9138C102.929 45.014 102.885 45.0931 102.848 45.0852Z" fill="#263238"/>
<path d="M103.424 44.6794C103.411 44.7137 103.324 44.7084 103.231 44.6794C103.139 44.6504 103.078 44.5766 103.094 44.5423C103.11 44.508 103.197 44.5133 103.287 44.5423C103.376 44.5713 103.44 44.6452 103.424 44.6794Z" fill="#263238"/>
<path d="M103.49 44.1784C103.505 44.1784 103.503 44.2259 103.534 44.2602C103.566 44.2944 103.606 44.3024 103.635 44.2602C103.664 44.218 103.635 44.1863 103.592 44.1705C103.561 44.1623 103.529 44.1623 103.498 44.1705C103.482 44.1705 103.498 44.0967 103.587 44.0782C103.615 44.073 103.644 44.0751 103.671 44.0844C103.697 44.0936 103.721 44.1097 103.74 44.131C103.764 44.1592 103.779 44.1945 103.781 44.2316C103.783 44.2687 103.774 44.3056 103.753 44.3366C103.735 44.3689 103.706 44.3945 103.672 44.4097C103.638 44.4248 103.6 44.4288 103.563 44.421C103.536 44.4146 103.511 44.4009 103.49 44.3814C103.47 44.362 103.455 44.3374 103.447 44.3103C103.421 44.2101 103.476 44.1653 103.49 44.1784Z" fill="#263238"/>
<path d="M103.895 43.7618C103.872 43.758 103.85 43.748 103.831 43.7327C103.813 43.7175 103.799 43.6976 103.792 43.6752C103.784 43.6527 103.782 43.6286 103.787 43.6054C103.792 43.5821 103.803 43.5605 103.818 43.543C103.845 43.543 103.9 43.5693 103.921 43.63C103.942 43.6906 103.929 43.7513 103.895 43.7618Z" fill="#263238"/>
<path d="M104.271 43.3926C104.253 43.4242 104.179 43.4189 104.107 43.3767C104.036 43.3346 103.994 43.2766 104.015 43.2449C104.036 43.2133 104.105 43.2185 104.176 43.2581C104.247 43.2976 104.289 43.3583 104.271 43.3926Z" fill="#263238"/>
<path d="M104.529 42.8387C104.545 42.8757 104.482 42.9363 104.392 42.9759C104.302 43.0154 104.213 43.0207 104.197 42.9759C104.181 42.931 104.244 42.8809 104.334 42.8414C104.363 42.8244 104.397 42.8152 104.431 42.8147C104.465 42.8143 104.499 42.8225 104.529 42.8387Z" fill="#263238"/>
<path d="M104.647 42.1769C104.647 42.1638 104.697 42.1137 104.787 42.1611C104.813 42.1756 104.835 42.1965 104.851 42.2219C104.866 42.2473 104.875 42.2763 104.876 42.3061C104.876 42.345 104.864 42.3828 104.843 42.4148C104.821 42.4468 104.789 42.4714 104.753 42.4854C104.717 42.4994 104.677 42.5021 104.64 42.4931C104.602 42.4842 104.568 42.464 104.542 42.4353C104.522 42.4122 104.51 42.3845 104.504 42.3548C104.499 42.3252 104.502 42.2948 104.513 42.2666C104.547 42.1743 104.621 42.169 104.623 42.1875C104.626 42.206 104.602 42.235 104.607 42.2851C104.613 42.3351 104.644 42.38 104.702 42.3589C104.76 42.3378 104.76 42.2851 104.726 42.2402C104.692 42.1954 104.663 42.1954 104.647 42.1769Z" fill="#263238"/>
<path d="M105.01 41.5999C105.01 41.6368 104.952 41.6842 104.86 41.7053C104.767 41.7264 104.688 41.7053 104.68 41.6763C104.672 41.6473 104.738 41.5919 104.831 41.5709C104.923 41.5498 105.002 41.5629 105.01 41.5999Z" fill="#263238"/>
<path d="M104.641 41.4074L104.786 41.2966L104.641 41.4074Z" fill="#263238"/>
<path d="M92.6647 45.1671C92.6304 45.1671 92.6172 45.0906 92.6409 45.0221C92.6647 44.9535 92.7095 44.9087 92.7438 44.9193C92.778 44.9298 92.7912 44.9957 92.7701 45.0643C92.749 45.1328 92.7016 45.1882 92.6647 45.1671Z" fill="#263238"/>
<path d="M92.9816 45.5493C92.9816 45.5335 93.0291 45.4834 93.124 45.5255C93.1567 45.54 93.1845 45.5637 93.2039 45.5936C93.2234 45.6236 93.2338 45.6585 93.2338 45.6943C93.2338 45.73 93.2234 45.765 93.2039 45.7949C93.1845 45.8249 93.1567 45.8486 93.124 45.863C93.0889 45.8822 93.0487 45.8899 93.0091 45.8852C92.9694 45.8805 92.9321 45.8635 92.9025 45.8367C92.8807 45.8155 92.8645 45.7892 92.8553 45.7602C92.8461 45.7312 92.8442 45.7004 92.8498 45.6706C92.8683 45.5677 92.9447 45.5519 92.95 45.5677C92.9553 45.5836 92.9342 45.6205 92.95 45.6732C92.9658 45.7259 93.0027 45.7734 93.0686 45.7417C93.1346 45.7101 93.1214 45.6521 93.0686 45.6073C93.0159 45.5625 92.9895 45.5677 92.9816 45.5493Z" fill="#263238"/>
<path d="M93.3733 46.4115C93.3575 46.4458 93.2758 46.4458 93.1888 46.4115C93.1017 46.3773 93.0464 46.3193 93.0596 46.285C93.0727 46.2507 93.1571 46.2507 93.2441 46.285C93.3311 46.3193 93.3865 46.3773 93.3733 46.4115Z" fill="#263238"/>
<path d="M93.4711 46.9387C93.4579 46.9757 93.3946 46.9862 93.326 46.9651C93.2575 46.944 93.2127 46.8966 93.2232 46.8596C93.2338 46.8227 93.2997 46.8122 93.3682 46.8359C93.4368 46.8596 93.4816 46.9045 93.4711 46.9387Z" fill="#263238"/>
<path d="M93.6326 47.2974C93.6642 47.3158 93.6563 47.3923 93.6115 47.4661C93.5667 47.5399 93.5061 47.5874 93.4744 47.5663C93.4428 47.5452 93.4507 47.4714 93.4929 47.3976C93.5053 47.37 93.5247 47.3463 93.5493 47.3287C93.5738 47.3111 93.6026 47.3003 93.6326 47.2974Z" fill="#263238"/>
<path d="M93.727 47.6637C93.7085 47.6637 93.7718 47.5662 93.9063 47.6031C93.9449 47.6137 93.9802 47.6337 94.0092 47.6613C94.0382 47.6889 94.0599 47.7232 94.0724 47.7613C94.0875 47.8144 94.0818 47.8713 94.0563 47.9204C94.0308 47.9694 93.9875 48.0068 93.9353 48.0249C93.8879 48.044 93.8361 48.0489 93.786 48.0391C93.7359 48.0292 93.6898 48.0051 93.6532 47.9696C93.6237 47.9355 93.6074 47.892 93.6074 47.847C93.6074 47.8019 93.6237 47.7584 93.6532 47.7243C93.6749 47.7028 93.7043 47.6907 93.7349 47.6907C93.7655 47.6907 93.7949 47.7028 93.8166 47.7243C93.8456 47.7586 93.8324 47.785 93.8166 47.785C93.8092 47.7858 93.8018 47.7848 93.7948 47.7821C93.7879 47.7793 93.7818 47.7749 93.7771 47.7692C93.772 47.7661 93.7663 47.7642 93.7604 47.7636C93.7545 47.763 93.7486 47.7638 93.743 47.7658C93.7374 47.7678 93.7324 47.7711 93.7283 47.7753C93.7241 47.7795 93.721 47.7847 93.7191 47.7903C93.7127 47.8066 93.7115 47.8245 93.7158 47.8415C93.72 47.8585 93.7295 47.8738 93.7428 47.8852C93.7628 47.8995 93.7862 47.9084 93.8106 47.9112C93.8351 47.9139 93.8598 47.9104 93.8825 47.901C93.9906 47.8614 93.9458 47.7402 93.8667 47.7006C93.7876 47.6611 93.7402 47.6795 93.727 47.6637Z" fill="#263238"/>
<path d="M94.1166 48.352C94.143 48.3783 94.1166 48.439 94.0691 48.4864C94.0217 48.5339 93.9558 48.5444 93.9294 48.5181C93.903 48.4917 93.9294 48.4284 93.9768 48.3836C94.0243 48.3388 94.0823 48.3177 94.1166 48.352Z" fill="#263238"/>
<path d="M94.2588 48.8055C94.2878 48.8318 94.2587 48.8977 94.2139 48.9531C94.1691 49.0085 94.0953 49.0348 94.0663 49.0085C94.0373 48.9821 94.0663 48.9162 94.1137 48.8608C94.1612 48.8055 94.2324 48.7791 94.2588 48.8055Z" fill="#263238"/>
<path d="M96.9516 60.5461C96.9199 60.5645 96.8487 60.5039 96.7986 60.409C96.7485 60.314 96.7301 60.2244 96.7617 60.2059C96.7934 60.1875 96.8645 60.2481 96.9173 60.343C96.97 60.438 96.9858 60.5276 96.9516 60.5461Z" fill="#263238"/>
<path d="M97.1812 60.5459C97.1469 60.5617 97.0836 60.4985 97.0415 60.4035C96.9993 60.3086 96.994 60.2216 97.0415 60.2058C97.0889 60.19 97.139 60.2533 97.1812 60.3482C97.2234 60.4431 97.2155 60.5301 97.1812 60.5459Z" fill="#263238"/>
<path d="M97.5053 60.7177V60.8021C97.5053 60.8417 97.5449 60.8575 97.5818 60.8364C97.6187 60.8153 97.6161 60.7863 97.5818 60.752C97.5475 60.7178 97.5211 60.723 97.5106 60.7046C97.5 60.6861 97.5422 60.6387 97.6266 60.665C97.6658 60.6778 97.6984 60.7053 97.7176 60.7417C97.7368 60.7781 97.7411 60.8206 97.7294 60.8601C97.7161 60.9 97.6877 60.9332 97.6503 60.9524C97.622 60.973 97.5878 60.9841 97.5528 60.9841C97.5177 60.9841 97.4836 60.973 97.4552 60.9524C97.4359 60.9346 97.4212 60.9123 97.4124 60.8875C97.4037 60.8626 97.4012 60.836 97.4051 60.81C97.4341 60.7125 97.5 60.6993 97.5053 60.7177Z" fill="#263238"/>
<path d="M98.3189 60.8887C98.3426 60.9177 98.2925 60.9941 98.2081 61.0574C98.1238 61.1207 98.0394 61.147 98.0157 61.1154C97.9919 61.0838 98.042 61.0099 98.1264 60.9467C98.2108 60.8834 98.2978 60.857 98.3189 60.8887Z" fill="#263238"/>
<path d="M98.5841 61.1524C98.5999 61.1867 98.563 61.2394 98.5024 61.271C98.4417 61.3027 98.3732 61.3 98.3573 61.271C98.3415 61.242 98.3758 61.184 98.4391 61.1524C98.5024 61.1208 98.5683 61.1208 98.5841 61.1524Z" fill="#263238"/>
<path d="M98.9593 61.5718C98.9197 61.5718 98.8828 61.5217 98.8697 61.4479C98.8565 61.3741 98.8828 61.3108 98.9198 61.3055C98.9567 61.3003 98.9962 61.3556 99.0068 61.4294C99.0173 61.5033 98.9962 61.5665 98.9593 61.5718Z" fill="#263238"/>
<path d="M99.5635 61.5639C99.555 61.5976 99.555 61.633 99.5635 61.6667C99.5793 61.7195 99.6136 61.7564 99.6716 61.7221C99.7296 61.6878 99.7138 61.6377 99.6716 61.6008C99.6294 61.5639 99.5872 61.5744 99.5767 61.5586C99.5661 61.5428 99.6083 61.4848 99.7085 61.5112C99.7377 61.5193 99.7644 61.5346 99.7861 61.5558C99.8078 61.577 99.8237 61.6034 99.8324 61.6324C99.8435 61.6821 99.8344 61.7341 99.8072 61.777C99.7801 61.82 99.737 61.8505 99.6874 61.8618C99.6592 61.8686 99.6297 61.8688 99.6014 61.8624C99.573 61.856 99.5465 61.8432 99.5239 61.8249C99.5017 61.8045 99.485 61.7789 99.4753 61.7503C99.4656 61.7217 99.4633 61.6912 99.4686 61.6615C99.4818 61.5586 99.5582 61.5349 99.5635 61.5639Z" fill="#263238"/>
<path d="M100.279 61.8409C100.305 61.8699 100.265 61.9437 100.192 62.007C100.118 62.0703 100.039 62.0993 100.015 62.0702C99.9912 62.0412 100.028 61.9674 100.102 61.9041C100.176 61.8409 100.255 61.8119 100.279 61.8409Z" fill="#263238"/>
<path d="M100.753 62.1226C100.78 62.1489 100.737 62.2307 100.64 62.2755C100.542 62.3203 100.45 62.2966 100.447 62.257C100.445 62.2175 100.508 62.1832 100.582 62.1489C100.656 62.1146 100.724 62.0936 100.753 62.1226Z" fill="#263238"/>
<path d="M101.113 62.6369C101.076 62.6501 101.029 62.6079 101.008 62.5446C100.987 62.4813 101.008 62.4207 101.034 62.4101C101.06 62.3996 101.118 62.4391 101.139 62.5024C101.161 62.5657 101.147 62.6263 101.113 62.6369Z" fill="#263238"/>
<path d="M101.518 62.3944C101.502 62.3944 101.533 62.3153 101.634 62.3206C101.669 62.3226 101.704 62.3363 101.731 62.3596C101.758 62.3829 101.777 62.4145 101.784 62.4496C101.792 62.4847 101.788 62.5213 101.772 62.5537C101.757 62.5861 101.731 62.6126 101.7 62.629C101.665 62.652 101.624 62.6618 101.583 62.6564C101.543 62.6511 101.505 62.631 101.478 62.6C101.46 62.5751 101.449 62.5456 101.447 62.5149C101.444 62.4842 101.451 62.4534 101.465 62.426C101.515 62.3364 101.599 62.3548 101.591 62.3733C101.573 62.3988 101.561 62.4288 101.557 62.4603C101.557 62.5078 101.578 62.5394 101.628 62.5104C101.678 62.4814 101.66 62.4445 101.613 62.4155C101.565 62.3865 101.533 62.4076 101.518 62.3944Z" fill="#263238"/>
<path d="M101.898 62.025C101.866 62.0461 101.811 62.025 101.774 61.9696C101.737 61.9143 101.734 61.8563 101.774 61.8352C101.813 61.8141 101.861 61.8352 101.898 61.8906C101.935 61.9459 101.929 62.0039 101.898 62.025Z" fill="#263238"/>
<path d="M102.085 61.722C102.059 61.7484 102.004 61.7378 101.962 61.6957C101.919 61.6535 101.906 61.5981 101.933 61.5717C101.959 61.5454 102.017 61.5559 102.059 61.5981C102.101 61.6403 102.112 61.6957 102.085 61.722Z" fill="#263238"/>
<path d="M102.29 61.1417C102.272 61.1417 102.311 61.0705 102.393 61.0995C102.417 61.1082 102.439 61.1239 102.454 61.1445C102.469 61.1651 102.479 61.1898 102.48 61.2155C102.477 61.2564 102.457 61.2942 102.426 61.3209C102.395 61.3475 102.355 61.3608 102.314 61.3579C102.29 61.3567 102.267 61.3499 102.246 61.3379C102.226 61.326 102.208 61.3094 102.195 61.2894C102.184 61.2688 102.178 61.2457 102.178 61.2221C102.178 61.1986 102.184 61.1754 102.195 61.1549C102.227 61.0863 102.285 61.0837 102.29 61.0995C102.293 61.1258 102.293 61.1523 102.29 61.1786C102.291 61.1861 102.292 61.1935 102.295 61.2003C102.299 61.2071 102.303 61.2132 102.309 61.2182H102.361V61.1892C102.361 61.1892 102.311 61.1549 102.29 61.1417Z" fill="#263238"/>
<path d="M102.712 61.5717C102.693 61.5635 102.678 61.5485 102.669 61.5295C102.66 61.5105 102.659 61.4889 102.665 61.4689C102.666 61.4588 102.669 61.4491 102.674 61.4402C102.679 61.4313 102.685 61.4234 102.693 61.417C102.701 61.4106 102.71 61.4059 102.719 61.403C102.729 61.4002 102.739 61.3993 102.749 61.4004C102.768 61.408 102.784 61.4226 102.793 61.4412C102.801 61.4597 102.803 61.4809 102.797 61.5005C102.794 61.5206 102.783 61.5388 102.768 61.5519C102.752 61.5649 102.733 61.572 102.712 61.5717Z" fill="#263238"/>
<path d="M102.905 61.7984C102.891 61.7837 102.88 61.7656 102.875 61.7458C102.869 61.726 102.869 61.705 102.873 61.685C102.873 61.664 102.88 61.6435 102.892 61.6265C102.905 61.6095 102.922 61.5967 102.942 61.5901C102.979 61.5901 103.024 61.6349 103.011 61.7087C102.997 61.7826 102.934 61.8221 102.905 61.7984Z" fill="#263238"/>
<path d="M103.171 62.1043C103.157 62.1202 103.138 62.1316 103.118 62.1372C103.097 62.1428 103.075 62.1424 103.055 62.1359C103.034 62.1357 103.013 62.1287 102.996 62.1159C102.979 62.1031 102.966 62.0851 102.96 62.0647C102.96 62.0278 103.007 61.9856 103.081 61.9988C103.155 62.012 103.189 62.0621 103.171 62.1043Z" fill="#263238"/>
<path d="M103.386 62.3624C103.373 62.3493 103.407 62.2965 103.489 62.3097C103.514 62.3151 103.538 62.3266 103.558 62.3431C103.577 62.3597 103.593 62.3808 103.603 62.4046C103.614 62.4448 103.609 62.4879 103.589 62.5245C103.569 62.561 103.535 62.5881 103.495 62.5997C103.467 62.6073 103.439 62.6077 103.411 62.6008C103.384 62.5938 103.359 62.5798 103.339 62.5602C103.324 62.5381 103.315 62.5119 103.315 62.485C103.315 62.4582 103.324 62.432 103.339 62.4099C103.381 62.3308 103.455 62.3519 103.447 62.3704C103.434 62.3917 103.428 62.4165 103.429 62.4415C103.429 62.4758 103.429 62.4758 103.444 62.4758H103.471C103.497 62.4758 103.489 62.46 103.492 62.4521C103.489 62.4364 103.481 62.4223 103.468 62.4125C103.429 62.3783 103.397 62.3783 103.386 62.3624Z" fill="#263238"/>
<path d="M103.725 62.8848C103.705 62.8792 103.688 62.8663 103.677 62.8487C103.666 62.8311 103.663 62.8101 103.667 62.7899C103.666 62.7798 103.668 62.7696 103.672 62.7602C103.675 62.7508 103.681 62.7422 103.688 62.735C103.695 62.7278 103.704 62.7222 103.713 62.7185C103.723 62.7148 103.733 62.7131 103.743 62.7134C103.753 62.7153 103.762 62.7192 103.771 62.7247C103.779 62.7302 103.786 62.7374 103.792 62.7457C103.798 62.754 103.802 62.7634 103.804 62.7732C103.806 62.7831 103.806 62.7932 103.804 62.8031C103.803 62.8241 103.795 62.8442 103.78 62.8593C103.765 62.8744 103.746 62.8835 103.725 62.8848Z" fill="#263238"/>
<path d="M104.237 62.6132C104.237 62.6501 104.163 62.6686 104.089 62.6501C104.015 62.6316 103.963 62.5895 103.971 62.5525C103.978 62.5156 104.047 62.4998 104.121 62.5156C104.195 62.5314 104.245 62.5895 104.237 62.6132Z" fill="#263238"/>
<path d="M104.429 62.5208C104.408 62.5182 104.388 62.5079 104.374 62.4918C104.36 62.4758 104.352 62.4551 104.353 62.4338C104.353 62.381 104.374 62.3336 104.413 62.3309C104.453 62.3283 104.484 62.3678 104.49 62.4206C104.495 62.4733 104.469 62.5181 104.429 62.5208Z" fill="#263238"/>
<path d="M104.788 62.2362C104.751 62.2362 104.72 62.194 104.72 62.1413C104.72 62.0886 104.751 62.0464 104.788 62.0464C104.825 62.0464 104.857 62.0886 104.857 62.1413C104.857 62.194 104.828 62.2362 104.788 62.2362Z" fill="#263238"/>
<path d="M105.065 61.8484C105.065 61.8352 105.112 61.7825 105.199 61.8352C105.225 61.8509 105.245 61.8738 105.258 61.901C105.271 61.9282 105.275 61.9585 105.271 61.9881C105.263 62.028 105.242 62.0637 105.209 62.0881C105.177 62.1125 105.137 62.1239 105.097 62.12C105.06 62.123 105.024 62.1132 104.995 62.0921C104.965 62.071 104.944 62.0402 104.935 62.005C104.926 61.9698 104.93 61.9326 104.946 61.9001C104.962 61.8675 104.989 61.8417 105.023 61.8273C105.112 61.7825 105.168 61.8431 105.152 61.8563C105.136 61.8695 105.104 61.8563 105.078 61.9064C105.071 61.9138 105.066 61.9226 105.063 61.9321C105.06 61.9416 105.059 61.9518 105.06 61.9618C105.071 61.9736 105.086 61.981 105.102 61.9829C105.128 61.9829 105.141 61.9829 105.147 61.9644C105.149 61.946 105.149 61.9274 105.147 61.909C105.147 61.8906 105.073 61.8642 105.065 61.8484Z" fill="#263238"/>
<path d="M105.779 61.6269C105.75 61.656 105.7 61.648 105.65 61.6428C105.599 61.6375 105.547 61.6217 105.531 61.5874C105.515 61.5531 105.573 61.4898 105.671 61.5057C105.768 61.5215 105.805 61.6032 105.779 61.6269Z" fill="#263238"/>
<path d="M106.14 61.4373C106.122 61.4716 106.048 61.4689 105.969 61.4557C105.889 61.4426 105.821 61.4188 105.816 61.3793C105.81 61.3397 105.892 61.3002 105.992 61.3186C106.093 61.3371 106.158 61.4056 106.14 61.4373Z" fill="#263238"/>
<path d="M106.346 61.2714C106.309 61.2714 106.283 61.2213 106.285 61.1685C106.288 61.1158 106.325 61.0763 106.364 61.0815C106.404 61.0868 106.428 61.129 106.422 61.1817C106.423 61.2034 106.415 61.2244 106.401 61.2409C106.387 61.2573 106.367 61.2682 106.346 61.2714Z" fill="#263238"/>
<path d="M106.657 60.7833C106.643 60.7833 106.683 60.7121 106.778 60.7306C106.807 60.7381 106.834 60.7541 106.854 60.7767C106.874 60.7992 106.887 60.8272 106.891 60.8571C106.896 60.8956 106.888 60.9346 106.869 60.968C106.849 61.0014 106.819 61.0274 106.783 61.0417C106.745 61.0535 106.704 61.0515 106.668 61.0361C106.631 61.0207 106.601 60.9928 106.583 60.9573C106.567 60.9291 106.563 60.8962 106.569 60.8648C106.576 60.8334 106.594 60.8054 106.62 60.786C106.704 60.7253 106.765 60.786 106.751 60.786C106.738 60.786 106.707 60.8097 106.688 60.8466C106.67 60.8835 106.688 60.8782 106.688 60.8862C106.693 60.8922 106.7 60.897 106.707 60.9002C106.714 60.9034 106.722 60.9049 106.73 60.9046C106.738 60.8996 106.745 60.893 106.75 60.8853C106.755 60.8775 106.758 60.8689 106.759 60.8598C106.76 60.8511 106.758 60.8424 106.755 60.8346C106.751 60.8267 106.745 60.82 106.738 60.815C106.709 60.7939 106.667 60.7991 106.657 60.7833Z" fill="#263238"/>
<path d="M107.109 60.7703C107.088 60.7616 107.072 60.7457 107.063 60.7258C107.054 60.7059 107.052 60.6833 107.059 60.6622C107.058 60.651 107.061 60.64 107.065 60.6297C107.07 60.6194 107.076 60.6101 107.084 60.6025C107.092 60.5948 107.102 60.5889 107.113 60.5851C107.123 60.5814 107.134 60.5798 107.146 60.5805C107.182 60.5805 107.204 60.6359 107.193 60.6886C107.182 60.7413 107.146 60.7782 107.109 60.7703Z" fill="#263238"/>
<path d="M107.489 60.4488C107.469 60.4432 107.452 60.4304 107.442 60.4128C107.431 60.3952 107.427 60.3741 107.431 60.3539C107.43 60.3447 107.43 60.3353 107.433 60.3262C107.435 60.3172 107.439 60.3087 107.445 60.3013C107.45 60.2939 107.457 60.2877 107.466 60.2832C107.474 60.2786 107.483 60.2758 107.492 60.2748C107.501 60.2733 107.511 60.2737 107.52 60.276C107.529 60.2782 107.538 60.2823 107.546 60.2879C107.553 60.2936 107.56 60.3007 107.564 60.3089C107.569 60.317 107.572 60.3261 107.574 60.3355C107.576 60.3467 107.576 60.3584 107.574 60.3697C107.572 60.3912 107.563 60.4113 107.547 60.426C107.532 60.4407 107.511 60.4489 107.489 60.4488Z" fill="#263238"/>
<path d="M108.029 60.1374C108.007 60.1691 107.942 60.1638 107.873 60.1374C107.804 60.1111 107.744 60.0979 107.739 60.0583C107.733 60.0188 107.81 59.9819 107.905 60.003C108 60.0241 108.05 60.1058 108.029 60.1374Z" fill="#263238"/>
<path d="M108.287 59.9529C108.252 59.9687 108.2 59.9186 108.221 59.8501C108.242 59.7815 108.31 59.7684 108.331 59.8C108.34 59.813 108.346 59.8276 108.35 59.843C108.353 59.8584 108.353 59.8742 108.35 59.8896C108.344 59.9041 108.336 59.9172 108.325 59.9281C108.314 59.9391 108.301 59.9475 108.287 59.9529Z" fill="#263238"/>
<path d="M108.597 59.6497C108.577 59.6441 108.56 59.6312 108.549 59.6136C108.538 59.596 108.535 59.575 108.539 59.5548C108.539 59.5445 108.541 59.5343 108.545 59.5249C108.549 59.5154 108.555 59.5069 108.562 59.4998C108.569 59.4926 108.578 59.487 108.588 59.4834C108.597 59.4797 108.608 59.478 108.618 59.4783C108.637 59.4833 108.654 59.4957 108.665 59.5129C108.676 59.53 108.68 59.5507 108.676 59.5706C108.675 59.5912 108.666 59.6106 108.651 59.6251C108.637 59.6397 108.617 59.6484 108.597 59.6497Z" fill="#263238"/>
<path d="M104.796 45.6444L103.048 47.403L107.282 51.5662C107.282 51.5662 108.144 49.0561 108.745 46.8467C109.17 45.2859 104.796 45.6444 104.796 45.6444Z" fill="#0055B1"/>
<path d="M104.112 47.5609C104.075 47.5609 104.036 47.4844 104.025 47.3842C104.014 47.284 104.038 47.197 104.075 47.1944C104.112 47.1918 104.152 47.2682 104.162 47.3711C104.173 47.4739 104.149 47.5609 104.112 47.5609Z" fill="#263238"/>
<path d="M104.515 47.6428C104.515 47.6797 104.449 47.7113 104.368 47.7113C104.286 47.7113 104.223 47.6797 104.223 47.6428C104.223 47.6059 104.289 47.5742 104.368 47.5742C104.447 47.5742 104.515 47.6032 104.515 47.6428Z" fill="#263238"/>
<path d="M104.626 48.2281C104.592 48.207 104.595 48.1464 104.595 48.0805C104.595 48.0145 104.595 47.9565 104.626 47.9354C104.658 47.9143 104.732 47.9724 104.732 48.0805C104.732 48.1886 104.663 48.2518 104.626 48.2281Z" fill="#263238"/>
<path d="M104.977 48.286C104.961 48.286 105.021 48.2017 105.135 48.2386C105.169 48.2496 105.2 48.2696 105.224 48.2964C105.248 48.3233 105.265 48.3561 105.272 48.3915C105.277 48.4393 105.266 48.4875 105.239 48.5276C105.212 48.5677 105.173 48.5972 105.126 48.611C105.08 48.6248 105.031 48.622 104.987 48.6031C104.942 48.5842 104.906 48.5504 104.884 48.5075C104.872 48.4722 104.871 48.4342 104.88 48.3981C104.889 48.362 104.909 48.3294 104.937 48.3045C104.953 48.2882 104.973 48.2759 104.995 48.2686C105.017 48.2613 105.041 48.2591 105.064 48.2623C105.098 48.2623 105.108 48.2887 105.103 48.294C105.065 48.3076 105.033 48.3336 105.011 48.3678C104.977 48.4258 104.995 48.5022 105.087 48.4785C105.18 48.4548 105.156 48.3704 105.087 48.3282C105.019 48.286 104.987 48.3019 104.977 48.286Z" fill="#263238"/>
<path d="M105.431 48.9981C105.397 48.9981 105.383 48.9269 105.402 48.8662C105.42 48.8056 105.468 48.7661 105.505 48.7766C105.542 48.7871 105.555 48.8478 105.534 48.9084C105.513 48.9691 105.468 49.0086 105.431 48.9981Z" fill="#263238"/>
<path d="M105.825 48.9214C105.862 48.9214 105.876 49.0321 105.854 49.1534C105.833 49.2747 105.786 49.3696 105.749 49.3617C105.712 49.3538 105.699 49.2509 105.72 49.1296C105.741 49.0084 105.789 48.9161 105.825 48.9214Z" fill="#263238"/>
<path d="M106.247 49.4065C106.247 49.4434 106.181 49.483 106.089 49.4935C105.996 49.5041 105.923 49.4803 105.917 49.4434C105.912 49.4065 105.983 49.367 106.075 49.3564C106.168 49.3459 106.247 49.3617 106.247 49.4065Z" fill="#263238"/>
<path d="M106.416 49.607C106.416 49.5912 106.472 49.549 106.572 49.5912C106.602 49.6041 106.629 49.6239 106.651 49.6491C106.672 49.6743 106.688 49.7041 106.696 49.7362C106.705 49.7803 106.699 49.826 106.68 49.8665C106.66 49.9069 106.628 49.9399 106.588 49.9603C106.547 49.9847 106.498 49.9926 106.452 49.9823C106.405 49.972 106.364 49.9443 106.337 49.905C106.32 49.8718 106.314 49.8339 106.321 49.7972C106.328 49.7604 106.346 49.7269 106.374 49.7019C106.391 49.6842 106.413 49.6718 106.437 49.6662C106.461 49.6605 106.486 49.662 106.509 49.6703C106.54 49.6835 106.546 49.7019 106.54 49.7072C106.522 49.7094 106.504 49.7164 106.49 49.7276C106.475 49.7387 106.463 49.7535 106.456 49.7705C106.427 49.8338 106.456 49.876 106.532 49.8443C106.609 49.8127 106.582 49.7283 106.532 49.6809C106.482 49.6334 106.419 49.6281 106.416 49.607Z" fill="#263238"/>
<path d="M106.86 50.5377C106.823 50.5377 106.791 50.4375 106.791 50.3162C106.791 50.195 106.823 50.0974 106.86 50.0974C106.896 50.0974 106.928 50.195 106.928 50.3162C106.928 50.4375 106.899 50.5377 106.86 50.5377Z" fill="#263238"/>
<path d="M106.222 43.8408C106.122 44.0464 105.995 44.2371 105.842 44.4077C105.579 44.7399 105.215 45.1987 104.788 45.6653C104.361 46.132 103.97 46.5723 103.683 46.8782C103.536 47.0514 103.372 47.2103 103.195 47.3527C103.315 47.1593 103.454 46.9782 103.609 46.8122C103.873 46.4932 104.263 46.0555 104.685 45.5757L105.766 44.3444C105.906 44.1661 106.058 43.9978 106.222 43.8408Z" fill="#263238"/>
<path d="M109.183 59.6179C109.183 59.6549 109.104 59.668 109.025 59.6496C108.946 59.6311 108.89 59.5837 108.898 59.5468C108.906 59.5098 108.98 59.4967 109.056 59.5151C109.133 59.5336 109.191 59.581 109.183 59.6179Z" fill="#263238"/>
<path d="M109.384 59.2962C109.384 59.2831 109.4 59.2409 109.476 59.2356C109.501 59.2359 109.525 59.2435 109.546 59.2576C109.567 59.2717 109.583 59.2915 109.592 59.3147C109.6 59.3292 109.604 59.345 109.606 59.3613C109.607 59.3776 109.605 59.394 109.6 59.4096C109.595 59.4251 109.586 59.4394 109.576 59.4516C109.565 59.4639 109.552 59.4738 109.537 59.4808H109.51C109.379 59.5151 109.265 59.3859 109.323 59.2857C109.332 59.2706 109.344 59.2584 109.36 59.2509C109.376 59.2434 109.393 59.2408 109.41 59.2435C109.414 59.2433 109.418 59.244 109.422 59.2457C109.425 59.2473 109.428 59.2498 109.431 59.253C109.433 59.2561 109.434 59.2598 109.435 59.2636C109.436 59.2675 109.435 59.2715 109.434 59.2751C109.426 59.2811 109.419 59.2891 109.415 59.2983C109.411 59.3076 109.409 59.3178 109.41 59.3279C109.41 59.3279 109.45 59.3569 109.473 59.349C109.474 59.3434 109.473 59.3377 109.47 59.3329C109.468 59.328 109.463 59.3244 109.458 59.3226C109.429 59.3147 109.392 59.3147 109.384 59.2962Z" fill="#263238"/>
<path d="M86.9433 49.9496C86.793 49.4513 84.9026 48.4283 85.1874 48.1515C85.5565 47.7876 87.1121 49.3063 87.2518 49.4249C87.3915 49.5436 87.5629 49.3405 87.4311 49.2404C87.2413 49.0953 85.2744 47.5345 85.6356 47.1759C85.836 46.9755 86.1629 47.3789 86.1629 47.3789C86.1629 47.3789 87.8978 48.9793 88.0639 48.8027C88.23 48.626 87.2413 47.6505 86.8853 47.3473C86.5294 47.0441 86.532 46.7514 86.7904 46.704C86.9644 46.6697 88.0771 47.5767 88.4198 47.8878C88.7626 48.1989 89.6985 49.0637 89.5746 48.2543V48.2174C89.4322 47.4264 89.5746 46.7646 89.7592 46.6064C89.798 46.5675 89.848 46.5418 89.9022 46.5327C89.9564 46.5236 90.0121 46.5317 90.0614 46.5558C90.1108 46.5799 90.1514 46.6188 90.1776 46.6671C90.2038 46.7154 90.2142 46.7707 90.2074 46.8253C90.2153 46.8644 90.2153 46.9047 90.2074 46.9439V47.0019C90.1994 47.2781 90.2179 47.5545 90.2628 47.8272C90.2991 48.0722 90.3766 48.3093 90.4921 48.5285C90.6266 48.7921 90.7558 48.9925 90.8613 49.1692C92.1242 49.8652 95.76 51.7029 99.4011 51.9824C100.06 52.0325 103.396 47.7191 103.396 47.7191L106.668 50.933C106.225 51.6897 106.069 51.8637 103.846 54.9037C100.221 59.8631 88.8179 51.6502 88.8179 51.6502L88.7125 51.5974C87.8461 51.1747 87.0045 50.7028 86.1919 50.1842C85.2111 49.4961 85.2691 49.4065 85.3667 49.301C85.5881 49.0242 87.0962 50.4611 86.9433 49.9496Z" fill="#FFBE9D"/>
</svg>
