<svg width="32" height="32" viewBox="0 0 32 32" fill="none" xmlns="http://www.w3.org/2000/svg">
<mask id="mask0_32_2099" style="mask-type:alpha" maskUnits="userSpaceOnUse" x="0" y="0" width="32" height="32">
<rect width="32" height="32" fill="#4285F8"/>
</mask>
<g mask="url(#mask0_32_2099)">
<path d="M4.66699 14.6667V4.66666H14.667V14.6667H4.66699ZM6.66699 12.6667H12.667V6.66666H6.66699V12.6667ZM4.66699 27.3333V17.3333H14.667V27.3333H4.66699ZM6.66699 25.3333H12.667V19.3333H6.66699V25.3333ZM17.3337 14.6667V4.66666H27.3337V14.6667H17.3337ZM19.3337 12.6667H25.3337V6.66666H19.3337V12.6667ZM24.8337 27.3333V24.8333H27.3337V27.3333H24.8337ZM17.3337 19.8333V17.3333H19.8337V19.8333H17.3337ZM19.8337 22.3333V19.8333H22.3337V22.3333H19.8337ZM17.3337 24.8333V22.3333H19.8337V24.8333H17.3337ZM19.8337 27.3333V24.8333H22.3337V27.3333H19.8337ZM22.3337 24.8333V22.3333H24.8337V24.8333H22.3337ZM22.3337 19.8333V17.3333H24.8337V19.8333H22.3337ZM24.8337 22.3333V19.8333H27.3337V22.3333H24.8337Z" fill="#4285F8"/>
</g>
</svg>
