<svg width="65" height="100" viewBox="0 0 65 100" fill="none" xmlns="http://www.w3.org/2000/svg">
<path d="M29.9243 36.0781H22.9727C22.9706 36.2919 23.0111 36.5039 23.0919 36.7018C23.1727 36.8996 23.2922 37.0794 23.4433 37.2305C23.5945 37.3817 23.7742 37.5012 23.9721 37.582C24.17 37.6628 24.382 37.7033 24.5957 37.7011H28.2852C28.4996 37.7028 28.7122 37.6621 28.9108 37.5813C29.1093 37.5006 29.29 37.3814 29.4423 37.2305C29.5947 37.0797 29.7157 36.9002 29.7984 36.7024C29.8811 36.5047 29.9239 36.2925 29.9243 36.0781Z" fill="#E6E6E6"/>
<g opacity="0.2">
<path d="M63.0592 32.3823L42.5901 70.2126L22.1211 32.3823H63.0592Z" fill="#0055B1"/>
</g>
<path d="M46.3408 54.7185L43.3455 60.2528C43.272 60.389 43.163 60.5029 43.03 60.5823C42.897 60.6616 42.7451 60.7035 42.5902 60.7035C42.4354 60.7035 42.2834 60.6616 42.1505 60.5823C42.0175 60.5029 41.9085 60.389 41.835 60.2528L38.8397 54.7185C38.5696 54.2183 38.4342 53.6565 38.4466 53.0881C38.459 52.5198 38.6188 51.9644 38.9104 51.4765C39.2021 50.9885 39.6154 50.5847 40.1101 50.3045C40.6047 50.0244 41.1637 49.8776 41.7321 49.8784H43.4644C44.0315 49.8803 44.5884 50.0292 45.0809 50.3105C45.5733 50.5918 45.9844 50.9959 46.2741 51.4834C46.5639 51.9709 46.7223 52.5252 46.734 53.0921C46.7456 53.6591 46.6102 54.2195 46.3408 54.7185Z" fill="#0055B1"/>
<path d="M42.9146 86.8343L52.2187 90.6588C52.4003 90.7354 52.55 90.8721 52.6426 91.046C52.7353 91.2198 52.7653 91.4203 52.7276 91.6137C52.6899 91.8071 52.5868 91.9816 52.4356 92.108C52.2844 92.2343 52.0943 92.3048 51.8973 92.3075H33.2987C33.1017 92.3048 32.9117 92.2343 32.7605 92.108C32.6093 91.9816 32.5062 91.8071 32.4685 91.6137C32.4308 91.4203 32.4608 91.2198 32.5535 91.046C32.6461 90.8721 32.7958 90.7354 32.9774 90.6588L42.2558 86.8343C42.3601 86.7906 42.4721 86.7681 42.5852 86.7681C42.6983 86.7681 42.8103 86.7906 42.9146 86.8343Z" fill="#0055B1"/>
<path d="M42.5903 79.5585C43.2488 79.5585 43.7826 79.0247 43.7826 78.3662C43.7826 77.7077 43.2488 77.1738 42.5903 77.1738C41.9318 77.1738 41.3979 77.7077 41.3979 78.3662C41.3979 79.0247 41.9318 79.5585 42.5903 79.5585Z" fill="#0055B1"/>
<path d="M42.5899 66.526C42.9289 66.526 43.2038 66.2512 43.2038 65.9122C43.2038 65.5732 42.9289 65.2983 42.5899 65.2983C42.2509 65.2983 41.9761 65.5732 41.9761 65.9122C41.9761 66.2512 42.2509 66.526 42.5899 66.526Z" fill="#0055B1"/>
<path d="M42.59 72.5457C42.9752 72.5457 43.2874 72.2334 43.2874 71.8483C43.2874 71.4631 42.9752 71.1509 42.59 71.1509C42.2048 71.1509 41.8926 71.4631 41.8926 71.8483C41.8926 72.2334 42.2048 72.5457 42.59 72.5457Z" fill="#0055B1"/>
<path d="M62.9563 94.519H22.2239C21.7295 94.5207 21.2559 94.7181 20.9066 95.068C20.5573 95.4179 20.3607 95.8919 20.3599 96.3863C20.3616 96.8801 20.5585 97.3533 20.9077 97.7025C21.2569 98.0517 21.73 98.2486 22.2239 98.2503H62.9563C63.4502 98.2486 63.9233 98.0517 64.2725 97.7025C64.6217 97.3533 64.8187 96.8801 64.8204 96.3863C64.8195 95.8919 64.6229 95.4179 64.2736 95.068C63.9243 94.7181 63.4507 94.5207 62.9563 94.519Z" fill="#0055B1"/>
<path d="M62.9563 30.5181H22.2239C21.73 30.5198 21.2569 30.7167 20.9077 31.0659C20.5585 31.4151 20.3616 31.8883 20.3599 32.3821C20.3616 32.876 20.5585 33.3491 20.9077 33.6983C21.2569 34.0475 21.73 34.2444 22.2239 34.2461H62.9563C63.4502 34.2444 63.9233 34.0475 64.2725 33.6983C64.6217 33.3491 64.8187 32.876 64.8204 32.3821C64.8187 31.8883 64.6217 31.4151 64.2725 31.0659C63.9233 30.7167 63.4502 30.5198 62.9563 30.5181Z" fill="#0055B1"/>
<path d="M9.67739 95.6827L7.41162 94.9467L8.81929 89.6021L11.0851 90.338L9.67739 95.6827Z" fill="#FF8B7B"/>
<path d="M7.37619 94.6441L9.92156 95.4701C9.96451 95.4828 10.0009 95.5117 10.023 95.5506C10.0452 95.5896 10.0514 95.6356 10.0405 95.679L9.51019 97.7359C9.47624 97.8418 9.40175 97.93 9.303 97.9812C9.20424 98.0323 9.08924 98.0424 8.98312 98.009C8.10252 97.7069 7.69757 97.5173 6.57594 97.1542C5.88496 96.9292 3.61597 96.3443 2.66467 96.0357C1.71337 95.7272 2.0444 94.7952 2.47506 94.8402C4.40337 95.0427 6.13885 94.9527 6.94231 94.657C7.08153 94.6048 7.23413 94.6003 7.37619 94.6441Z" fill="#263238"/>
<path opacity="0.2" d="M11.0849 90.3412L8.81911 89.6021L8.09277 92.3595L10.3618 93.0955L11.0849 90.3412Z" fill="black"/>
<path d="M17.2777 36.2387C17.2777 36.2387 13.2122 55.0559 12.2577 61.821C11.2132 69.229 7.28906 91.4753 7.28906 91.4753L11.496 92.6387C11.496 92.6387 17.3259 71.0641 19.0293 63.8618C20.8772 56.0425 25.7784 36.2227 25.7784 36.2227L17.2777 36.2387Z" fill="#0055B1"/>
<path opacity="0.3" d="M22.3044 42.4097C20.6974 46.0542 19.9036 53.9796 20.5271 57.6273C21.6648 52.9511 23.0339 47.3912 24.0913 43.1135C23.7345 41.873 23.1432 40.5071 22.3044 42.4097Z" fill="black"/>
<path d="M11.6025 92.7226L7.09668 91.4821L7.18667 89.647L12.2581 91.3985L11.6025 92.7226Z" fill="#263238"/>
<path d="M6.44374 94.7793C6.65332 94.8405 6.86878 94.8793 7.08651 94.895C7.09727 94.8957 7.10799 94.8933 7.11746 94.8881C7.12693 94.883 7.13478 94.8753 7.14013 94.866C7.14547 94.8566 7.1481 94.846 7.14771 94.8352C7.14732 94.8244 7.14394 94.814 7.13793 94.8051C7.08008 94.7311 6.58194 94.0851 6.27019 94.1044C6.23431 94.1062 6.19949 94.1172 6.16909 94.1363C6.13869 94.1554 6.11374 94.1821 6.09665 94.2137C6.06443 94.2603 6.04509 94.3145 6.04057 94.3709C6.03606 94.4274 6.04653 94.484 6.07093 94.5351C6.1621 94.6584 6.29432 94.745 6.44374 94.7793ZM6.95475 94.7793C6.52409 94.7279 6.22841 94.6186 6.15771 94.4805C6.14289 94.4478 6.13717 94.4118 6.14113 94.3761C6.14508 94.3405 6.15859 94.3066 6.1802 94.278C6.18835 94.2625 6.20029 94.2494 6.21491 94.2398C6.22953 94.2303 6.24634 94.2246 6.26376 94.2233C6.43088 94.2041 6.74584 94.519 6.95475 94.7697V94.7793Z" fill="#263238"/>
<path d="M7.06441 94.8919H7.09012C7.09946 94.8899 7.10816 94.8856 7.11545 94.8794C7.12274 94.8733 7.12839 94.8654 7.1319 94.8565C7.1319 94.8308 7.40508 94.1944 7.2476 93.8923C7.22802 93.8543 7.19979 93.8214 7.16518 93.7963C7.13057 93.7712 7.09055 93.7545 7.04834 93.7477C7.00271 93.734 6.9538 93.7361 6.9095 93.7536C6.86519 93.7711 6.82806 93.803 6.80408 93.8441C6.67232 94.0755 6.85551 94.6572 7.0387 94.8661L7.06441 94.8919ZM7.06441 93.8731C7.08592 93.8793 7.1059 93.8899 7.12305 93.9043C7.14021 93.9187 7.15417 93.9365 7.16404 93.9566C7.21788 94.2154 7.18747 94.4845 7.07726 94.7247C6.92165 94.4842 6.86307 94.1936 6.91335 93.9116C6.91335 93.8827 6.95835 93.8506 7.0387 93.8666L7.06441 93.8731Z" fill="#263238"/>
<path d="M21.6038 18.3731C21.4817 18.6623 21.3788 18.8809 21.2664 19.1251C21.1539 19.3694 21.0317 19.5943 20.9128 19.8257C20.675 20.2917 20.4243 20.7449 20.164 21.198C19.6381 22.108 19.0586 22.9858 18.4285 23.827C17.7836 24.6968 17.0688 25.5126 16.2913 26.2663C15.463 27.0817 14.5238 27.7763 13.5017 28.3296L13.4213 28.3714C13.2913 28.4386 13.153 28.4883 13.01 28.5192C12.278 28.6714 11.5198 28.6416 10.802 28.4324C10.2057 28.254 9.6384 27.9898 9.11798 27.6483C8.24491 27.0612 7.46121 26.3511 6.79114 25.54C6.16864 24.8003 5.60249 24.015 5.09744 23.1906C4.59867 22.3805 4.15522 21.5377 3.77012 20.6678C3.67094 20.4377 3.65804 20.1796 3.73379 19.9407C3.80954 19.7019 3.96885 19.4984 4.18251 19.3676C4.39617 19.2367 4.64985 19.1873 4.897 19.2283C5.14416 19.2694 5.36823 19.3982 5.5281 19.5911L5.56024 19.6297C6.09053 20.2724 6.6658 20.957 7.2443 21.5805C7.808 22.2013 8.40676 22.7893 9.03763 23.3417C9.59522 23.8471 10.2152 24.2791 10.8824 24.6272C11.1318 24.7555 11.3996 24.8444 11.6762 24.8908C11.8311 24.9195 11.991 24.9062 12.139 24.8522L11.6473 25.0418C12.3115 24.594 12.9172 24.065 13.4503 23.467C14.0306 22.8152 14.5674 22.126 15.0572 21.4037C15.565 20.6645 16.047 19.89 16.5002 19.093C16.7316 18.6977 16.9534 18.2959 17.1623 17.8878L17.4836 17.2803C17.5833 17.0843 17.6925 16.8593 17.7697 16.7019L17.789 16.6569C18.0232 16.1624 18.4421 15.7797 18.9556 15.5908C19.4691 15.402 20.0362 15.4221 20.535 15.6469C21.0338 15.8716 21.4245 16.2831 21.6232 16.7929C21.8218 17.3027 21.8126 17.87 21.5974 18.3731H21.6038Z" fill="#263238"/>
<path opacity="0.3" d="M16.3491 22.7375C17.3582 20.0571 19.5018 20.0121 20.4307 20.7224C20.3632 20.8477 20.2925 20.9731 20.2218 21.0984C19.7176 21.9758 19.165 22.8245 18.5666 23.6406C17.9524 24.4801 17.2767 25.2729 16.5451 26.0124C16.3137 26.2406 16.0759 26.4655 15.8284 26.6841C15.7433 25.3472 15.9201 24.0065 16.3491 22.7375Z" fill="black"/>
<path d="M3.68959 20.8347L1.60059 20.9119L2.12123 18.6782C2.84044 18.7139 3.55427 18.8216 4.25202 18.9996C4.37906 19.0381 4.49525 19.1059 4.59119 19.1976C4.68714 19.2894 4.76012 19.4024 4.80425 19.5276C4.84838 19.6528 4.8624 19.7866 4.84519 19.9182C4.82798 20.0498 4.78001 20.1755 4.70517 20.2852C4.59216 20.4513 4.44096 20.5879 4.26425 20.6835C4.08754 20.7791 3.89048 20.831 3.68959 20.8347Z" fill="#FF8B7B"/>
<path d="M4.85982 18.9485C4.6548 18.786 4.42012 18.6648 4.16884 18.5918C3.9953 19.5045 2.8833 21.044 2.8833 21.044H3.75425C3.86631 21.0443 3.97707 21.02 4.0787 20.9728C4.18033 20.9256 4.27035 20.8566 4.34239 20.7708L4.95302 20.038C5.0199 19.961 5.07065 19.8714 5.10224 19.7745C5.13384 19.6775 5.14564 19.5752 5.13694 19.4736C5.12825 19.372 5.09924 19.2731 5.05164 19.1829C5.00404 19.0928 4.93881 19.013 4.85982 18.9485Z" fill="#0055B1"/>
<path d="M0 19.8834L0.584919 18.3086L2.11472 18.6814L1.59407 20.9118L0 19.8834Z" fill="#FF8B7B"/>
<path d="M26.2673 96.7238H23.8858L23.8022 91.2056H26.1837L26.2673 96.7238Z" fill="#FF8B7B"/>
<path d="M23.7603 96.4474H26.4374C26.4598 96.4465 26.4821 96.4501 26.5031 96.4579C26.5241 96.4656 26.5434 96.4775 26.5598 96.4927C26.5762 96.5079 26.5895 96.5262 26.5988 96.5466C26.6081 96.5669 26.6134 96.5889 26.6142 96.6113L26.7428 98.7292C26.7428 98.8406 26.699 98.9476 26.6208 99.027C26.5426 99.1063 26.4364 99.1518 26.325 99.1535C25.3929 99.1374 24.9494 99.0828 23.7539 99.0828C23.0308 99.0828 20.6107 99.1567 19.6112 99.1567C18.6117 99.1567 18.6471 98.1668 19.0616 98.0768C20.9642 97.6783 22.6612 97.1127 23.3329 96.5952C23.4537 96.4975 23.6049 96.4452 23.7603 96.4474Z" fill="#263238"/>
<path opacity="0.2" d="M26.1869 91.209H23.8022L23.8472 94.0532H26.2287L26.1869 91.209Z" fill="black"/>
<path d="M21.9253 36.2388C21.9253 36.2388 21.0158 56.9392 21.4014 63.7622C21.8257 71.2312 22.7127 93.3651 22.7127 93.3651H27.0771C27.0771 93.3651 28.1763 71.8322 28.4398 64.4404C28.7258 56.4057 30.021 36.2388 30.021 36.2388H21.9253Z" fill="#0055B1"/>
<path d="M27.2539 93.3651H22.5391L22.1792 91.6104L27.3824 91.8707L27.2539 93.3651Z" fill="#263238"/>
<path d="M22.9151 96.862C23.1317 96.8566 23.3471 96.8286 23.5578 96.7785C23.568 96.775 23.5772 96.7691 23.5845 96.7613C23.5917 96.7534 23.597 96.7439 23.5996 96.7335C23.6008 96.7232 23.5994 96.7128 23.5954 96.7033C23.5915 96.6937 23.5852 96.6853 23.5771 96.6788C23.5 96.6242 22.8251 96.1646 22.5326 96.2803C22.5001 96.2934 22.4714 96.3144 22.4489 96.3413C22.4265 96.3682 22.4111 96.4003 22.4041 96.4346C22.3894 96.4868 22.3882 96.5419 22.4005 96.5947C22.4129 96.6476 22.4384 96.6964 22.4748 96.7367C22.6012 96.8311 22.7579 96.8757 22.9151 96.862ZM23.3971 96.6981C22.9697 96.7817 22.658 96.7688 22.5455 96.6596C22.5224 96.6325 22.5067 96.5999 22.4999 96.565C22.4931 96.5301 22.4956 96.494 22.5069 96.4603C22.5092 96.4431 22.5161 96.4269 22.5269 96.4134C22.5376 96.3998 22.5518 96.3894 22.568 96.3832C22.7255 96.3221 23.1208 96.5214 23.3971 96.6981Z" fill="#263238"/>
<path d="M23.5387 96.7782C23.547 96.7809 23.556 96.7809 23.5644 96.7782C23.5725 96.7736 23.5793 96.7671 23.5844 96.7593C23.5894 96.7514 23.5925 96.7425 23.5933 96.7332C23.5933 96.7043 23.648 96.0198 23.4069 95.7884C23.3763 95.7584 23.3393 95.7359 23.2986 95.7225C23.2579 95.7091 23.2147 95.7053 23.1723 95.7112C23.1253 95.713 23.0801 95.7304 23.0441 95.7607C23.008 95.7909 22.983 95.8323 22.973 95.8784C22.9152 96.1387 23.2719 96.6368 23.5098 96.7782C23.5192 96.7812 23.5293 96.7812 23.5387 96.7782ZM23.2173 95.8141C23.2394 95.8135 23.2613 95.8175 23.2818 95.8258C23.3022 95.8341 23.3208 95.8465 23.3362 95.8623C23.469 96.0916 23.5242 96.3576 23.4937 96.6208C23.288 96.444 23.0502 96.0647 23.0855 95.8944C23.0855 95.8623 23.1112 95.8237 23.1916 95.8141H23.2173Z" fill="#263238"/>
<path d="M31.213 17.0267C31.2487 16.8258 31.2434 16.6197 31.1976 16.4209C31.1517 16.222 31.0662 16.0345 30.9462 15.8694C30.8262 15.7044 30.6741 15.5653 30.4991 15.4604C30.324 15.3555 30.1296 15.287 29.9275 15.2591H29.9018C29.1337 15.1466 28.1695 15.0309 27.2246 14.9859C25.421 14.883 23.6129 14.883 21.8093 14.9859C20.9769 15.063 20.1638 15.2012 19.5146 15.3265H19.4889C19.083 15.4085 18.7072 15.5997 18.402 15.8795C18.0967 16.1592 17.8736 16.517 17.7566 16.9142C16.9789 19.5335 16.0501 24.8813 17.2649 36.2359H30.0078C30.0978 35.0982 29.8439 31.3958 30.0303 26.6811C30.2166 23.4409 30.6117 20.216 31.213 17.0267Z" fill="#263238"/>
<path opacity="0.3" d="M31.0909 17.7272C30.8273 19.2505 30.5027 21.3235 30.2777 23.5121C30.2777 23.5121 29.1143 21.2303 28.9022 19.2794C28.6901 17.3286 30.3645 17.1808 31.0909 17.7272Z" fill="black"/>
<g opacity="0.2">
<path d="M22.5456 18.0291C22.5192 18.0279 22.4939 18.0181 22.4735 18.0012C22.4531 17.9843 22.4387 17.9613 22.4326 17.9355C22.4264 17.9098 22.4288 17.8827 22.4393 17.8585C22.4498 17.8342 22.468 17.814 22.491 17.8009L26.4633 15.7408C26.4916 15.7271 26.5241 15.7247 26.554 15.7343C26.5839 15.7439 26.609 15.7646 26.624 15.7922C26.6388 15.8208 26.6416 15.8541 26.632 15.8848C26.6224 15.9155 26.601 15.9411 26.5726 15.9562L22.6003 18.0098C22.5835 18.0197 22.5649 18.0262 22.5456 18.0291Z" fill="white"/>
<path d="M24.3643 18.2157C24.3486 18.2164 24.333 18.2135 24.3185 18.2074C24.3041 18.2013 24.2912 18.1921 24.2807 18.1804L22.1017 16.0174C22.0803 15.9943 22.0684 15.9638 22.0684 15.9323C22.0684 15.9007 22.0803 15.8703 22.1017 15.8471C22.1245 15.8249 22.1551 15.8125 22.1869 15.8125C22.2187 15.8125 22.2493 15.8249 22.2721 15.8471L24.4479 18.0132C24.47 18.036 24.4824 18.0666 24.4824 18.0984C24.4824 18.1302 24.47 18.1608 24.4479 18.1836C24.4368 18.1942 24.4237 18.2025 24.4093 18.208C24.395 18.2136 24.3797 18.2162 24.3643 18.2157Z" fill="white"/>
<path d="M27.2344 14.9825C25.4318 14.8795 23.6248 14.8795 21.8222 14.9825H21.7323C21.6885 15.1478 21.6782 15.3203 21.7019 15.4897C21.7256 15.6591 21.7829 15.8221 21.8704 15.9691C22.1726 16.4512 22.8057 16.7212 23.757 16.7726H24.1137C26.6848 16.7726 27.6779 15.2106 27.7197 15.1432L27.8097 14.9985L27.2344 14.9825Z" fill="white"/>
</g>
<path d="M22.0794 14.9631C23.6542 14.5903 23.9306 13.6165 23.8245 12.5463C23.7995 12.2782 23.7577 12.012 23.6992 11.7493L25.6725 10.1102L27.1219 8.9082C26.7202 10.6533 26.2671 13.8318 27.4433 14.9952C27.4433 14.9952 26.4792 16.6022 23.7699 16.4608C21.4977 16.3354 22.0794 14.9631 22.0794 14.9631Z" fill="#FF8B7B"/>
<path opacity="0.2" d="M23.6992 11.7494C23.7577 12.0122 23.7996 12.2784 23.8246 12.5465C24.5605 12.3986 25.544 11.6144 25.6468 10.8624C25.683 10.6134 25.6916 10.3612 25.6725 10.1104L23.6992 11.7494Z" fill="black"/>
<path d="M22.6515 3.38672C21.5813 4.02949 21.7516 5.63642 21.4624 6.78698C22.1437 6.85447 23.2172 5.64285 23.2172 5.64285L23.8599 3.80131L22.6515 3.38672Z" fill="#263238"/>
<path d="M28.3431 6.62018C27.6585 8.88916 27.3789 10.2486 25.9263 11.1967C25.4591 11.5091 24.9154 11.6879 24.354 11.7136C23.7926 11.7393 23.2348 11.611 22.741 11.3426C22.2473 11.0742 21.8363 10.6759 21.5525 10.1908C21.2688 9.70569 21.1231 9.15222 21.1312 8.59028C21.1312 6.42735 22.2432 3.07851 24.7243 2.61572C25.259 2.50143 25.8145 2.52982 26.3348 2.69805C26.8551 2.86628 27.3221 3.16842 27.6887 3.57415C28.0554 3.97987 28.3088 4.47491 28.4237 5.00956C28.5386 5.54421 28.5107 6.09967 28.3431 6.62018Z" fill="#FF8B7B"/>
<path d="M26.2059 8.54512C27.8128 6.68108 25.8042 5.76192 27.4464 4.46673C25.5985 4.55351 22.555 4.42174 22.0118 3.15548C21.4687 1.88922 23.1399 0.173019 24.5315 0.0123265C26.1384 -0.174077 25.7913 1.8153 25.7913 1.8153C25.7913 1.8153 31.9394 1.43285 29.9886 4.065C31.467 3.97501 31.0588 6.36612 28.4877 8.38442C27.8417 8.59975 26.2059 8.54512 26.2059 8.54512Z" fill="#263238"/>
<path d="M29.6191 4.09701C29.6191 4.09701 30.8854 3.72099 30.8436 2.71826C31.3 3.03322 31.3482 3.99095 29.6191 4.09701Z" fill="#263238"/>
<path d="M28.7196 8.98857C28.3497 9.44546 27.833 9.76005 27.2573 9.87881C26.5277 10.0106 26.3574 9.33567 26.7205 8.67683C27.0419 8.08548 27.8229 7.30451 28.4785 7.46842C29.1341 7.63233 29.1856 8.41329 28.7196 8.98857Z" fill="#FF8B7B"/>
<path d="M24.6827 6.56215C24.6377 6.74855 24.5027 6.88353 24.3773 6.85461C24.252 6.82568 24.1909 6.65856 24.2359 6.47216C24.2809 6.28576 24.4159 6.15077 24.538 6.17648C24.6602 6.20219 24.7277 6.37253 24.6827 6.56215Z" fill="#263238"/>
<path d="M22.552 6.13462C22.507 6.32102 22.3721 6.456 22.2499 6.43029C22.1278 6.40458 22.0603 6.23425 22.1053 6.04784C22.1503 5.86144 22.2853 5.72646 22.4074 5.75217C22.5295 5.77788 22.597 5.94821 22.552 6.13462Z" fill="#263238"/>
<path d="M23.2074 6.36279C22.8447 6.89189 22.4122 7.3697 21.9219 7.78331C22.0311 7.9011 22.1649 7.99351 22.3137 8.05404C22.4625 8.11456 22.6227 8.14173 22.7832 8.13363L23.2074 6.36279Z" fill="#FF5652"/>
<path d="M23.4389 8.78923C23.6614 8.81013 23.8858 8.78558 24.0985 8.71707C24.3112 8.64856 24.5077 8.53753 24.6762 8.39072C24.6817 8.38589 24.6861 8.37996 24.6891 8.37331C24.6921 8.36666 24.6936 8.35945 24.6936 8.35215C24.6936 8.34485 24.6921 8.33764 24.6891 8.33099C24.6861 8.32435 24.6817 8.31841 24.6762 8.31359C24.6654 8.30318 24.651 8.29736 24.636 8.29736C24.6211 8.29736 24.6067 8.30318 24.5959 8.31359C24.4112 8.47064 24.1926 8.58283 23.9573 8.64137C23.722 8.69991 23.4764 8.70322 23.2396 8.65104C23.2324 8.64966 23.225 8.64973 23.2179 8.65126C23.2107 8.65278 23.204 8.65574 23.198 8.65993C23.192 8.66413 23.1869 8.66949 23.183 8.67569C23.1791 8.68189 23.1765 8.68881 23.1753 8.69604C23.1725 8.71094 23.1756 8.72636 23.184 8.73898C23.1924 8.75161 23.2055 8.76042 23.2203 8.76352L23.4389 8.78923Z" fill="#263238"/>
<path d="M25.5053 6.0415C25.5231 6.04738 25.5422 6.04738 25.56 6.0415C25.5735 6.03561 25.5856 6.02706 25.5957 6.01636C25.6058 6.00566 25.6137 5.99303 25.6188 5.97922C25.6239 5.96541 25.6261 5.95071 25.6254 5.93601C25.6247 5.92131 25.621 5.90691 25.6146 5.89366C25.5456 5.72933 25.437 5.58464 25.2985 5.47248C25.16 5.36033 24.9959 5.2842 24.8208 5.25089C24.791 5.24718 24.761 5.25516 24.737 5.27314C24.713 5.29112 24.697 5.31771 24.6922 5.34731C24.6904 5.36209 24.6916 5.37709 24.6957 5.39142C24.6997 5.40575 24.7066 5.41914 24.7158 5.4308C24.7251 5.44246 24.7366 5.45216 24.7496 5.45935C24.7627 5.46653 24.777 5.47105 24.7918 5.47265C24.928 5.50139 25.0551 5.56256 25.1626 5.65097C25.27 5.73937 25.3545 5.85239 25.4089 5.98044C25.4183 5.99808 25.4322 6.01298 25.4491 6.02368C25.466 6.03439 25.4853 6.04052 25.5053 6.0415Z" fill="#263238"/>
<path d="M22.0251 4.85584C22.0424 4.86212 22.0611 4.86364 22.0792 4.86025C22.0972 4.85686 22.1141 4.84868 22.1279 4.83655C22.2389 4.74417 22.3699 4.67893 22.5105 4.64602C22.6511 4.6131 22.7974 4.61342 22.9378 4.64694C22.952 4.65158 22.9669 4.65339 22.9817 4.65227C22.9966 4.65115 23.011 4.64712 23.0243 4.6404C23.0376 4.63369 23.0494 4.62442 23.0591 4.61314C23.0688 4.60185 23.0762 4.58876 23.0809 4.57462C23.0855 4.56049 23.0873 4.54557 23.0862 4.53073C23.0851 4.51589 23.081 4.50142 23.0743 4.48814C23.0676 4.47486 23.0583 4.46303 23.047 4.45333C23.0358 4.44363 23.0227 4.43625 23.0085 4.43161C22.8326 4.38815 22.6491 4.38615 22.4723 4.42574C22.2955 4.46534 22.1303 4.54546 21.9897 4.65979C21.9664 4.67816 21.9512 4.70504 21.9476 4.73455C21.944 4.76406 21.9522 4.7938 21.9705 4.81727C21.9835 4.83623 22.0029 4.84991 22.0251 4.85584Z" fill="#263238"/>
<path d="M31.3287 16.1107L31.5954 16.4739L31.8365 16.8146C31.9972 17.0427 32.1418 17.2709 32.2929 17.4991C32.5853 17.9587 32.8617 18.4247 33.1285 18.8939C33.6631 19.8319 34.148 20.7974 34.5811 21.7864C34.8061 22.2749 34.9989 22.7827 35.2046 23.2808C35.4103 23.779 35.5838 24.2964 35.7413 24.8171C36.08 25.8533 36.359 26.9081 36.5769 27.9763L36.6026 28.0984C36.6498 28.3141 36.6539 28.537 36.6148 28.7543C36.5756 28.9716 36.4939 29.179 36.3745 29.3647C35.9604 30.0002 35.4692 30.5821 34.9121 31.0969C34.3392 31.6219 33.6888 32.0555 32.9838 32.3825C32.2879 32.7068 31.5428 32.9132 30.7791 32.9931C30.4054 33.0316 30.0291 33.0381 29.6543 33.0124C29.4679 33.0124 29.2815 32.977 29.0951 32.9481L28.8122 32.8935L28.4909 32.8131C28.4531 32.804 28.4204 32.7803 28.3999 32.7472C28.3795 32.7141 28.3729 32.6743 28.3816 32.6364L28.8251 30.7723C28.8251 30.7563 28.9087 30.7531 28.9601 30.7402L29.1368 30.7049C29.259 30.6791 29.3779 30.6502 29.5 30.6181C29.7381 30.5536 29.9712 30.472 30.1974 30.3738C30.6354 30.194 31.0456 29.9527 31.4155 29.6571C32.1392 29.0615 32.7174 28.3086 33.106 27.4556L32.9035 28.844C32.6271 27.9345 32.3346 27.0346 31.9811 26.1444C31.6276 25.2541 31.2419 24.38 30.8209 23.5187C30.3999 22.6574 29.95 21.8057 29.4647 20.9765C29.2268 20.5619 28.9762 20.1538 28.7255 19.7488L28.343 19.151L28.1534 18.8618L27.9766 18.6047L27.9124 18.5083C27.5944 18.0552 27.4695 17.4945 27.565 16.9493C27.6606 16.4041 27.9687 15.9193 28.4218 15.6013C28.8748 15.2834 29.4356 15.1585 29.9807 15.254C30.5259 15.3495 31.0108 15.6577 31.3287 16.1107Z" fill="#263238"/>
<path d="M27.0801 32.6264L26.3892 33.7576L29.3877 33.6387C29.3877 33.6387 30.1751 31.6204 29.1017 31.3022L28.6839 31.4147C28.0156 31.6019 27.4428 32.0347 27.0801 32.6264Z" fill="#FF8B7B"/>
<path d="M28.3144 31.0419C28.0984 31.188 27.9128 31.3746 27.7681 31.5915C28.5844 32.035 29.7221 33.5455 29.7221 33.5455L29.9856 32.7164C30.0191 32.6094 30.0287 32.4964 30.0137 32.3853C29.9987 32.2743 29.9595 32.1678 29.8988 32.0736L29.4007 31.2701C29.3463 31.1817 29.2744 31.1053 29.1894 31.0455C29.1045 30.9858 29.0082 30.9439 28.9066 30.9226C28.805 30.9012 28.7 30.9008 28.5982 30.9213C28.4964 30.9418 28.3999 30.9829 28.3144 31.0419Z" fill="#0055B1"/>
<path d="M26.6527 35.5L29.1242 35.2814L29.3877 33.6392L26.3892 33.7581L26.6527 35.5Z" fill="#FF8B7B"/>
</svg>
