<svg width="17" height="21" viewBox="0 0 17 21" fill="none" xmlns="http://www.w3.org/2000/svg">
<path fill-rule="evenodd" clip-rule="evenodd" d="M0 0H4V1.86385V3.34435V13.3113V13.655V20L0 17.8586V0Z" fill="#1E398D"/>
<path fill-rule="evenodd" clip-rule="evenodd" d="M9.16446 4C11.1956 4.15951 13.1019 5.04436 14.5363 6.49339C15.9707 7.94242 16.8377 9.85919 16.9794 11.8947C17.1211 13.9302 16.5282 15.949 15.3085 17.5834C14.0888 19.2178 12.3235 20.3591 10.3342 20.7994C8.34487 21.2397 6.26378 20.9498 4.46998 19.9824C2.67619 19.015 1.28902 17.4344 0.561086 15.5287C-0.166851 13.6229 -0.187118 11.5186 0.503985 9.59918C1.19509 7.67971 2.55158 6.07268 4.32641 5.0708V11.5091C4.25717 11.8347 4.22132 12.1667 4.21947 12.4997C4.21883 13.3242 4.45445 14.1316 4.89824 14.8261C5.34202 15.5207 5.9754 16.0732 6.72325 16.418C7.4711 16.7629 8.30197 16.8856 9.11739 16.7717C9.93281 16.6578 10.6985 16.312 11.3236 15.7754C11.9487 15.2388 12.407 14.5338 12.6441 13.7442C12.8812 12.9545 12.8872 12.1134 12.6613 11.3205C12.4354 10.5275 11.9871 9.81613 11.3697 9.27068C10.7522 8.72522 9.99156 8.36857 9.17784 8.24309V4H9.16446Z" fill="#1E398D"/>
<path fill-rule="evenodd" clip-rule="evenodd" d="M0 11.9971C0.00294525 9.95407 0.83234 7.98905 2.31897 6.50297C3.8056 5.01689 5.83744 4.12168 8 4V7.97341C6.97071 8.10878 6.03002 8.59591 5.35653 9.34232C4.68303 10.0887 4.32365 11.0424 4.34668 12.0222V21H0V11.9971Z" fill="#ED1C24"/>
</svg>
