<svg width="84" height="85" viewBox="0 0 84 85" fill="none" xmlns="http://www.w3.org/2000/svg">
<g filter="url(#filter0_d_48_14)">
<circle cx="41.965" cy="22.3248" r="21.7677" fill="white"/>
<circle cx="41.965" cy="22.3248" r="20.2677" stroke="#4285F8" stroke-width="3"/>
</g>
<path d="M43.7439 32.9272L36.0392 24.9075V22.6162H40.0491C41.0611 22.6162 41.9348 22.2866 42.6704 21.6275C43.4051 20.9691 43.8489 20.153 44.0016 19.1792H34.8936V16.8879H43.6579C43.3333 16.2195 42.8514 15.6704 42.2121 15.2404C41.572 14.8111 40.851 14.5965 40.0491 14.5965H34.8936V12.3052H48.6416V14.5965H44.9182C45.1855 14.9211 45.4242 15.2744 45.6342 15.6563C45.8442 16.0381 46.0065 16.4487 46.1211 16.8879H48.6416V19.1792H46.3216C46.1689 20.8022 45.5005 22.1625 44.3167 23.2601C43.1328 24.3584 41.7103 24.9075 40.0491 24.9075H39.2185L46.9231 32.9272H43.7439Z" fill="#4285F8"/>
<defs>
<filter id="filter0_d_48_14" x="0.197266" y="0.557129" width="83.5354" height="83.5356" filterUnits="userSpaceOnUse" color-interpolation-filters="sRGB">
<feFlood flood-opacity="0" result="BackgroundImageFix"/>
<feColorMatrix in="SourceAlpha" type="matrix" values="0 0 0 0 0 0 0 0 0 0 0 0 0 0 0 0 0 0 127 0" result="hardAlpha"/>
<feMorphology radius="5" operator="erode" in="SourceAlpha" result="effect1_dropShadow_48_14"/>
<feOffset dy="20"/>
<feGaussianBlur stdDeviation="12.5"/>
<feColorMatrix type="matrix" values="0 0 0 0 0 0 0 0 0 0 0 0 0 0 0 0 0 0 0.1 0"/>
<feBlend mode="normal" in2="BackgroundImageFix" result="effect1_dropShadow_48_14"/>
<feBlend mode="normal" in="SourceGraphic" in2="effect1_dropShadow_48_14" result="shape"/>
</filter>
</defs>
</svg>
