<svg width="15" height="24" viewBox="0 0 15 24" fill="none" xmlns="http://www.w3.org/2000/svg">
<path d="M9.61358 23.2499L1.36363 14.3905V12.5273H5.45452C6.84087 12.5273 8.09632 12.082 9.22086 11.1913C10.3463 10.3007 10.9204 9.02339 10.9431 7.35934H0V5.9531H10.8068C10.5113 4.8281 9.87494 3.91405 8.89768 3.21092C7.92041 2.5078 6.77269 2.15624 5.45452 2.15624H0V0.75H14.9999V2.15624H9.61358C10.2727 2.55468 10.8408 3.09374 11.3181 3.77342C11.7954 4.4531 12.0908 5.17966 12.2045 5.9531H14.9999V7.35934H12.3068C12.3068 9.35151 11.619 10.9453 10.2436 12.1406C8.86904 13.3359 7.27269 13.9335 5.45452 13.9335H2.86362L11.5227 23.2499H9.61358Z" fill="#4285F8"/>
</svg>
