<svg width="15" height="19" viewBox="0 0 15 19" fill="none" xmlns="http://www.w3.org/2000/svg">
<path d="M7.53809 18.3198C5.50365 17.8076 3.82429 16.6402 2.5 14.8177C1.17513 12.9957 0.512695 10.9724 0.512695 8.74773V3.39087L7.53809 0.756348L14.5635 3.39087V8.74773C14.5635 10.9724 13.9013 12.9957 12.577 14.8177C11.2522 16.6402 9.57252 17.8076 7.53809 18.3198ZM7.53809 16.4757C8.9578 16.0366 10.1433 15.1695 11.0947 13.8745C12.046 12.5789 12.6022 11.1334 12.7632 9.53809H7.53809V2.62247L2.26904 4.59836V9.14291C2.26904 9.24536 2.28368 9.37709 2.31295 9.53809H7.53809V16.4757Z" fill="url(#paint0_linear_201_131)"/>
<defs>
<linearGradient id="paint0_linear_201_131" x1="16.5534" y1="19.7634" x2="0.958519" y2="19.6438" gradientUnits="userSpaceOnUse">
<stop stop-color="#4285F8"/>
<stop offset="1" stop-color="#0055B1"/>
</linearGradient>
</defs>
</svg>
