<svg width="16" height="16" viewBox="0 0 16 16" fill="none" xmlns="http://www.w3.org/2000/svg">
<path d="M1.625 15H10V10H15V1.625C15 1.44167 14.9417 1.29167 14.825 1.175C14.7083 1.05833 14.5583 1 14.375 1H1.625C1.44167 1 1.29167 1.05833 1.175 1.175C1.05833 1.29167 1 1.44167 1 1.625V14.375C1 14.5583 1.05833 14.7083 1.175 14.825C1.29167 14.9417 1.44167 15 1.625 15ZM1.625 16C1.175 16 0.791667 15.8417 0.475 15.525C0.158333 15.2083 0 14.825 0 14.375V1.625C0 1.175 0.158333 0.791667 0.475 0.475C0.791667 0.158333 1.175 0 1.625 0H14.375C14.825 0 15.2083 0.158333 15.525 0.475C15.8417 0.791667 16 1.175 16 1.625V10.3L10.3 16H1.625ZM3.875 9.45V8.45H8V9.45H3.875ZM3.875 5.5V4.5H12.125V5.5H3.875ZM1 15V1.625V14.375C1 14.5583 1 14.7083 1 14.825C1 14.9417 1 15 1 15Z" fill="#1C1B1F"/>
</svg>
