<svg width="77" height="57" viewBox="0 0 77 57" fill="none" xmlns="http://www.w3.org/2000/svg">
<path d="M76.3623 50.002H0V50.0401H76.3623V50.002Z" fill="#EBEBEB"/>
<path d="M68.7106 52.4594H63.6523V52.4975H68.7106V52.4594Z" fill="#EBEBEB"/>
<path d="M41.7274 51.9813H39.7588V52.0195H41.7274V51.9813Z" fill="#EBEBEB"/>
<path d="M53.4028 52.1432H49.2578V52.1814H53.4028V52.1432Z" fill="#EBEBEB"/>
<path d="M63.5 51.0421H54.9307V51.0803H63.5V51.0421Z" fill="#EBEBEB"/>
<path d="M12.0635 52.8091H8.01172V52.8473H12.0635V52.8091Z" fill="#EBEBEB"/>
<path d="M16.9355 52.8091H13.4229V52.8473H16.9355V52.8091Z" fill="#EBEBEB"/>
<path d="M29.294 51.963H20.0068V52.0012H29.294V51.963Z" fill="#EBEBEB"/>
<path d="M36.1961 43.1905H6.70647C6.47545 43.1901 6.25403 43.0981 6.09082 42.9346C5.9276 42.7711 5.83594 42.5495 5.83594 42.3185V0.864421C5.83795 0.634727 5.9305 0.415102 6.0935 0.253251C6.25649 0.0913993 6.47677 0.000393478 6.70647 0H36.1961C36.4273 0 36.6492 0.0918773 36.8127 0.25542C36.9762 0.418962 37.0681 0.640773 37.0681 0.872057V42.3185C37.0681 42.5497 36.9762 42.7716 36.8127 42.9351C36.6492 43.0986 36.4273 43.1905 36.1961 43.1905ZM6.70647 0.030545C6.48557 0.0309496 6.27387 0.118982 6.11782 0.275321C5.96176 0.431659 5.87412 0.643528 5.87412 0.864421V42.3185C5.87412 42.5394 5.96176 42.7512 6.11782 42.9076C6.27387 43.0639 6.48557 43.1519 6.70647 43.1523H36.1961C36.4171 43.1519 36.629 43.0639 36.7853 42.9076C36.9416 42.7514 37.0295 42.5395 37.0299 42.3185V0.864421C37.0295 0.643387 36.9416 0.431522 36.7853 0.275227C36.629 0.118933 36.4171 0.0309488 36.1961 0.030545H6.70647Z" fill="#EBEBEB"/>
<path d="M69.2313 43.1905H39.7402C39.5091 43.1901 39.2875 43.0981 39.124 42.9347C38.9606 42.7712 38.8686 42.5496 38.8682 42.3185V0.864421C38.8706 0.634588 38.9635 0.414964 39.1267 0.253155C39.2899 0.0913459 39.5104 0.000389187 39.7402 0H69.2313C69.4608 0.000794855 69.6807 0.0919783 69.8433 0.253787C70.006 0.415595 70.0983 0.634991 70.1003 0.864421V42.3185C70.1003 42.5492 70.0089 42.7706 69.846 42.934C69.6831 43.0975 69.4621 43.1897 69.2313 43.1905ZM39.7402 0.030545C39.5192 0.0309488 39.3073 0.118933 39.151 0.275227C38.9947 0.431522 38.9067 0.643387 38.9063 0.864421V42.3185C38.9067 42.5395 38.9947 42.7514 39.151 42.9076C39.3073 43.0639 39.5192 43.1519 39.7402 43.1523H69.2313C69.4524 43.1519 69.6642 43.0639 69.8205 42.9076C69.9768 42.7514 70.0648 42.5395 70.0652 42.3185V0.864421C70.0648 0.643387 69.9768 0.431522 69.8205 0.275227C69.6642 0.118933 69.4524 0.0309488 69.2313 0.030545H39.7402Z" fill="#EBEBEB"/>
<path d="M9.8983 50.002H11.001L11.001 3.05442H9.8983L9.8983 50.002Z" fill="#E0E0E0"/>
<path d="M10.4489 50.002L39.4727 50.002L39.4727 4.61526L10.4489 4.61526L10.4489 50.002Z" fill="#F5F5F5"/>
<path d="M13.6602 32.2936H25.9545V13.0671L13.848 12.9938L13.6602 32.2936Z" fill="#E0E0E0"/>
<path d="M13.8463 32.1576H26.1406L26.1406 12.9326H13.8463L13.8463 32.1576Z" fill="white"/>
<path d="M19.9948 22.7697C21.9702 22.7697 23.5716 21.1683 23.5716 19.1929C23.5716 17.2175 21.9702 15.6161 19.9948 15.6161C18.0194 15.6161 16.418 17.2175 16.418 19.1929C16.418 21.1683 18.0194 22.7697 19.9948 22.7697Z" fill="#F5F5F5"/>
<path d="M20.8221 28.2523C21.9255 27.7953 22.4495 26.5302 21.9925 25.4268C21.5354 24.3233 20.2704 23.7993 19.1669 24.2564C18.0635 24.7135 17.5395 25.9785 17.9965 27.0819C18.4536 28.1854 19.7186 28.7094 20.8221 28.2523Z" fill="#F5F5F5"/>
<path d="M65.4139 50.002H66.5166V3.05442H65.4139V50.002Z" fill="#E0E0E0"/>
<path d="M59.2359 3.66528H9.35449V10.7242H59.2359V3.66528Z" fill="#F0F0F0"/>
<path d="M57.1831 5.49805H33.7139V8.89159H57.1831V5.49805Z" fill="white"/>
<path d="M11.4089 8.8916L31.7793 8.8916V5.49806L11.4089 5.49806V8.8916Z" fill="white"/>
<path d="M59.2357 10.7242L67.0078 10.7242V3.66531L59.2357 3.66531V10.7242Z" fill="#E0E0E0"/>
<path d="M66.2737 5.49805H62.958V8.89159H66.2737V5.49805Z" fill="white"/>
<path d="M60.3906 8.8916H62.6846V5.49806H60.3906V8.8916Z" fill="white"/>
<path d="M59.8265 50.002H33.3975V29.0375C33.3975 28.6324 33.5584 28.2439 33.8448 27.9575C34.1312 27.6711 34.5197 27.5102 34.9247 27.5102L58.3038 27.5102C58.7089 27.5102 59.0973 27.6711 59.3837 27.9575C59.6701 28.2439 59.8311 28.6324 59.8311 29.0375V50.002H59.8265Z" fill="#E0E0E0"/>
<path d="M56.762 50.002H30.3315L30.3315 29.0375C30.3315 28.6324 30.4924 28.2439 30.7788 27.9575C31.0652 27.6711 31.4537 27.5102 31.8587 27.5102L55.2394 27.5102C55.6444 27.5102 56.0329 27.6711 56.3193 27.9575C56.6057 28.2439 56.7666 28.6324 56.7666 29.0375V50.002H56.762Z" fill="#E0E0E0"/>
<path opacity="0.3" d="M56.2549 29.0375V50.002H30.8385V29.0375C30.8385 28.7681 30.9455 28.5098 31.1359 28.3193C31.3264 28.1289 31.5847 28.0219 31.8541 28.0219H55.2393C55.5086 28.0219 55.7669 28.1289 55.9574 28.3193C56.1479 28.5098 56.2549 28.7681 56.2549 29.0375Z" fill="white"/>
<path opacity="0.9" d="M56.2529 29.0375L56.2529 50.0066H31.1083V29.0375C31.1083 28.7681 31.2154 28.5098 31.4058 28.3193C31.5963 28.1289 31.8546 28.0219 32.124 28.0219H55.2388C55.5079 28.0223 55.7659 28.1294 55.956 28.3199C56.1461 28.5103 56.2529 28.7684 56.2529 29.0375Z" fill="white"/>
<path d="M51.415 27.5148H49.483L48.9072 24.5168H50.8392L51.415 27.5148Z" fill="#E0E0E0"/>
<path d="M52.5285 20.795H49.9322C49.837 20.7972 49.745 20.8298 49.6697 20.8881C49.5944 20.9463 49.5398 21.0272 49.5137 21.1187L48.3973 25.9296C48.3861 25.9694 48.3847 26.0113 48.3932 26.0517C48.4016 26.0922 48.4198 26.13 48.446 26.162C48.4723 26.1939 48.5059 26.219 48.5439 26.2352C48.582 26.2514 48.6233 26.2581 48.6646 26.2549H51.2609C51.3563 26.2525 51.4484 26.2197 51.5237 26.1611C51.599 26.1026 51.6536 26.0214 51.6793 25.9296L52.7958 21.1187C52.8067 21.079 52.8079 21.0373 52.7992 20.997C52.7906 20.9568 52.7724 20.9192 52.7462 20.8874C52.72 20.8557 52.6865 20.8307 52.6487 20.8146C52.6108 20.7985 52.5695 20.7918 52.5285 20.795Z" fill="#E6E6E6"/>
<path d="M51.3394 25.6867H48.847C48.8252 25.6884 48.8034 25.6849 48.7833 25.6764C48.7632 25.668 48.7455 25.6548 48.7315 25.638C48.7176 25.6212 48.7079 25.6014 48.7033 25.5801C48.6987 25.5588 48.6992 25.5367 48.7049 25.5156L49.7205 21.1416C49.7343 21.0931 49.7632 21.0503 49.8031 21.0195C49.8429 20.9887 49.8916 20.9716 49.942 20.9705H52.4345C52.4562 20.9688 52.478 20.9723 52.4981 20.9808C52.5182 20.9892 52.536 21.0024 52.5499 21.0192C52.5638 21.036 52.5735 21.0558 52.5781 21.0771C52.5828 21.0984 52.5822 21.1205 52.5765 21.1416L51.5609 25.5156C51.5471 25.5641 51.5182 25.6069 51.4784 25.6377C51.4385 25.6684 51.3898 25.6856 51.3394 25.6867Z" fill="white"/>
<path d="M46.1899 27.5148H44.2564L43.6807 24.5168H45.6126L46.1899 27.5148Z" fill="#E0E0E0"/>
<path d="M47.8394 20.2192H44.568C44.4729 20.2214 44.3809 20.254 44.3056 20.3123C44.2303 20.3705 44.1756 20.4514 44.1496 20.5429L42.8988 25.9295C42.8879 25.9694 42.8867 26.0114 42.8954 26.0518C42.9041 26.0923 42.9224 26.13 42.9488 26.1619C42.9751 26.1938 43.0088 26.2189 43.0468 26.235C43.0849 26.2512 43.1263 26.258 43.1675 26.2548H46.4374C46.5328 26.2525 46.6249 26.2196 46.7002 26.1611C46.7755 26.1025 46.8301 26.0214 46.8558 25.9295L48.1082 20.5429C48.1192 20.5031 48.1203 20.4612 48.1116 20.4208C48.1029 20.3804 48.0846 20.3427 48.0582 20.3109C48.0318 20.2792 47.9982 20.2542 47.9601 20.2382C47.922 20.2223 47.8806 20.2157 47.8394 20.2192Z" fill="#E6E6E6"/>
<path d="M46.5168 25.6867H43.3508C43.3291 25.6885 43.3073 25.6851 43.2872 25.6766C43.2672 25.6681 43.2494 25.6549 43.2356 25.6381C43.2218 25.6213 43.2123 25.6013 43.2079 25.58C43.2035 25.5587 43.2043 25.5366 43.2103 25.5156L44.3588 20.5658C44.3725 20.5174 44.4015 20.4746 44.4413 20.4438C44.4812 20.413 44.5299 20.3958 44.5802 20.3948H47.7447C47.7665 20.3927 47.7885 20.3959 47.8088 20.4043C47.8291 20.4127 47.847 20.4258 47.861 20.4427C47.875 20.4596 47.8847 20.4796 47.8892 20.5011C47.8937 20.5225 47.8928 20.5448 47.8867 20.5658L46.7337 25.5156C46.7202 25.5634 46.6919 25.6056 46.653 25.6364C46.614 25.6671 46.5664 25.6847 46.5168 25.6867Z" fill="white"/>
<path d="M40.246 27.5148H38.3141L37.7383 24.5168H39.6702L40.246 27.5148Z" fill="#E0E0E0"/>
<path d="M42.3425 19.4983H38.1716C38.0764 19.5005 37.9844 19.5332 37.9091 19.5914C37.8338 19.6497 37.7792 19.7305 37.7531 19.8221L36.3343 25.9311C36.3234 25.971 36.3223 26.0129 36.331 26.0533C36.3397 26.0938 36.358 26.1315 36.3843 26.1634C36.4107 26.1953 36.4443 26.2204 36.4824 26.2366C36.5205 26.2528 36.5619 26.2595 36.6031 26.2564H40.7771C40.8724 26.254 40.9645 26.2212 41.0399 26.1626C41.1152 26.1041 41.1697 26.0229 41.1955 25.9311L42.6128 19.8221C42.6242 19.7821 42.6257 19.7399 42.617 19.6992C42.6084 19.6585 42.59 19.6206 42.5633 19.5887C42.5367 19.5567 42.5026 19.5318 42.4641 19.5161C42.4256 19.5003 42.3839 19.4942 42.3425 19.4983Z" fill="#E6E6E6"/>
<path d="M40.8535 25.6867H36.7879C36.7661 25.6888 36.7441 25.6855 36.7238 25.6772C36.7036 25.6688 36.6856 25.6557 36.6716 25.6388C36.6576 25.6219 36.648 25.6019 36.6435 25.5804C36.639 25.559 36.6398 25.5367 36.6459 25.5157L37.9624 19.845C37.9761 19.7965 38.005 19.7537 38.0449 19.723C38.0848 19.6922 38.1335 19.675 38.1838 19.6739H42.2494C42.2711 19.6721 42.2929 19.6756 42.313 19.684C42.333 19.6925 42.3507 19.7057 42.3646 19.7226C42.3784 19.7394 42.3879 19.7593 42.3923 19.7806C42.3967 19.802 42.3959 19.8241 42.3899 19.845L41.0825 25.5157C41.0682 25.5652 41.0381 25.6088 40.9967 25.6397C40.9554 25.6706 40.9051 25.6871 40.8535 25.6867Z" fill="white"/>
<path d="M51.4147 32.2753H32.5762V33.8025H51.4147V32.2753Z" fill="#F0F0F0"/>
<path d="M44.9346 35.5222H32.5762V37.0495H44.9346V35.5222Z" fill="#F0F0F0"/>
<path d="M48.7008 38.769H32.5762V40.2963H48.7008V38.769Z" fill="#F0F0F0"/>
<path d="M38.1811 56.8991C54.5352 56.8991 67.7929 56.1251 67.7929 55.1702C67.7929 54.2154 54.5352 53.4414 38.1811 53.4414C21.827 53.4414 8.56934 54.2154 8.56934 55.1702C8.56934 56.1251 21.827 56.8991 38.1811 56.8991Z" fill="#F5F5F5"/>
<path d="M24.0466 53.4246L25.2211 53.1527L24.7629 50.4037L23.5869 50.6771L24.0466 53.4246Z" fill="#CE7A63"/>
<path d="M25.2535 52.9954L23.9324 53.3009C23.91 53.3053 23.8903 53.3184 23.8774 53.3372C23.8646 53.3561 23.8596 53.3792 23.8637 53.4017L24.0347 54.457C24.0407 54.4841 24.052 54.5098 24.0679 54.5325C24.0838 54.5552 24.104 54.5746 24.1274 54.5895C24.1508 54.6044 24.177 54.6145 24.2043 54.6193C24.2316 54.6241 24.2596 54.6234 24.2867 54.6174C24.7449 54.5028 24.9587 54.4249 25.5391 54.2905C25.8964 54.2081 27.4222 53.8919 27.9155 53.7774C28.4088 53.6628 28.2851 53.1802 28.0682 53.1848C27.0862 53.2047 25.8628 53.2016 25.4719 53.0199C25.4038 52.9878 25.327 52.9792 25.2535 52.9954Z" fill="#263238"/>
<path opacity="0.2" d="M23.5869 50.6785L24.7629 50.4052L24.9996 51.8209L23.8236 52.0943L23.5869 50.6785Z" fill="black"/>
<path d="M21.8232 23.3912C21.8232 23.3912 23.3672 33.187 23.8254 36.6034C24.3233 40.3467 25.374 51.291 25.374 51.291L23.2451 51.8774C23.2451 51.8774 21.2291 41.2722 20.3983 37.6343C19.4957 33.6864 17.5225 23.3912 17.5225 23.3912H21.8232Z" fill="#407BFF"/>
<path opacity="0.5" d="M21.8232 23.3912C21.8232 23.3912 23.3672 33.187 23.8254 36.6034C24.3233 40.3467 25.374 51.291 25.374 51.291L23.2451 51.8774C23.2451 51.8774 21.2291 41.2722 20.3983 37.6343C19.4957 33.6864 17.5225 23.3912 17.5225 23.3912H21.8232Z" fill="white"/>
<path opacity="0.3" d="M19.297 26.8321C20.1111 28.9076 20.0607 33.0144 19.714 34.4607C19.2237 32.0858 18.6617 29.2436 18.2295 27.0352C18.3944 26.4686 18.8022 25.5691 19.297 26.8321Z" fill="black"/>
<path d="M23.1925 51.9202L25.4727 51.2925L25.436 50.3655L22.8672 51.2513L23.1925 51.9202Z" fill="#407BFF"/>
<path d="M25.7146 53.11C25.6085 53.1313 25.5005 53.1416 25.3923 53.1405C25.387 53.1408 25.3817 53.1393 25.3773 53.1363C25.3729 53.1332 25.3696 53.1288 25.3679 53.1237C25.3649 53.1192 25.3633 53.1139 25.3633 53.1085C25.3633 53.103 25.3649 53.0977 25.3679 53.0932C25.4 53.0596 25.681 52.7557 25.8368 52.7786C25.8545 52.7807 25.8713 52.7875 25.8855 52.7982C25.8997 52.8089 25.9108 52.8232 25.9177 52.8397C25.9311 52.8629 25.9382 52.8892 25.9382 52.916C25.9382 52.9428 25.9311 52.9692 25.9177 52.9924C25.8664 53.0548 25.7943 53.0966 25.7146 53.11ZM25.4595 53.084C25.6779 53.0764 25.8322 53.0336 25.875 52.9664C25.8839 52.9509 25.8887 52.9332 25.8887 52.9153C25.8887 52.8973 25.8839 52.8797 25.875 52.8641C25.872 52.856 25.8668 52.8489 25.8601 52.8435C25.8534 52.8381 25.8453 52.8347 25.8368 52.8336C25.7497 52.8213 25.5756 52.9649 25.4595 53.084Z" fill="#407BFF"/>
<path d="M25.3984 53.1389H25.3862C25.3816 53.1378 25.3773 53.1356 25.3738 53.1324C25.3704 53.1292 25.3678 53.1251 25.3663 53.1206C25.3663 53.1069 25.2594 52.7754 25.3526 52.6349C25.3643 52.6166 25.38 52.6012 25.3985 52.5898C25.417 52.5784 25.4379 52.5714 25.4595 52.5693C25.4829 52.5643 25.5074 52.5676 25.5287 52.5784C25.5501 52.5892 25.5672 52.607 25.5771 52.6288C25.6336 52.751 25.5129 53.0351 25.4121 53.1328C25.4085 53.1366 25.4036 53.1388 25.3984 53.1389ZM25.4518 52.6273C25.43 52.6332 25.4111 52.6468 25.3984 52.6655C25.3566 52.7919 25.3566 52.9285 25.3984 53.0549C25.4882 52.9413 25.5314 52.7976 25.519 52.6533C25.519 52.638 25.4992 52.6212 25.458 52.6258L25.4518 52.6273Z" fill="#407BFF"/>
<path d="M22.2493 14.2186C22.3654 14.5393 22.4891 14.8891 22.6189 15.2205C22.7487 15.5519 22.8785 15.8894 23.0175 16.2178C23.2782 16.8628 23.5844 17.4886 23.9339 18.0902L24.0637 18.2933L24.1141 18.3712C24.1228 18.3869 24.133 18.4018 24.1446 18.4155C24.1646 18.4448 24.1877 18.4719 24.2133 18.4964C24.2728 18.5216 24.339 18.5259 24.4012 18.5087C24.525 18.4867 24.6449 18.4465 24.757 18.3895C25.2885 18.1375 25.8582 17.6503 26.3606 17.183L27.0891 17.7191C26.8919 18.0703 26.6634 18.4031 26.4065 18.7133C26.138 19.0441 25.8274 19.3383 25.4825 19.5884C25.2805 19.7326 25.0601 19.8492 24.8273 19.9351C24.5345 20.0424 24.2192 20.074 23.9109 20.0267C23.5739 19.9703 23.261 19.8157 23.0114 19.5823C22.9575 19.5313 22.9065 19.4772 22.8587 19.4204L22.7884 19.3395L22.7411 19.2769L22.5471 19.0249C22.0862 18.3731 21.6878 17.6791 21.3574 16.9524C21.1955 16.5981 21.0397 16.2438 20.8992 15.8833C20.7587 15.5229 20.6274 15.1701 20.5098 14.7837L22.2493 14.2186Z" fill="#CE7A63"/>
<path d="M21.4332 12.9815C20.2389 12.7035 19.5135 13.4656 19.8724 14.9669C20.0945 15.8227 20.3668 16.6646 20.6879 17.4884C20.7582 17.6732 20.8223 17.8381 20.8758 17.971L23.5897 16.459C23.2904 15.2724 22.2335 13.1694 21.4332 12.9815Z" fill="#263238"/>
<path opacity="0.3" d="M21.486 14.4004C20.7652 13.7574 21.5028 16.3659 21.8052 17.4549L22.6024 17.0104C22.523 16.2544 22.0404 14.8937 21.486 14.4004Z" fill="black"/>
<path d="M15.1387 53.9408H16.3421L16.5208 51.1536H15.3158L15.1387 53.9408Z" fill="#CE7A63"/>
<path d="M16.4062 53.8018H15.0546C15.0433 53.8011 15.0319 53.8028 15.0212 53.8066C15.0105 53.8105 15.0006 53.8164 14.9922 53.8241C14.9838 53.8318 14.9771 53.841 14.9723 53.8514C14.9675 53.8617 14.9649 53.8729 14.9645 53.8842L14.8897 54.9533C14.8893 54.9811 14.8944 55.0087 14.9047 55.0345C14.915 55.0604 14.9303 55.0839 14.9498 55.1038C14.9692 55.1236 14.9924 55.1395 15.018 55.1503C15.0436 55.1612 15.0711 55.1669 15.0989 55.1671C15.5693 55.1595 15.7953 55.132 16.3894 55.132C16.756 55.132 18.3107 55.1702 18.8147 55.1702C19.3187 55.1702 19.3095 54.6708 19.0957 54.6249C18.1381 54.4218 16.9576 54.1423 16.6124 53.8751C16.5536 53.8286 16.4811 53.8029 16.4062 53.8018Z" fill="#263238"/>
<path opacity="0.2" d="M15.3153 51.155H16.5203L16.4271 52.5922H15.2236L15.3153 51.155Z" fill="black"/>
<path d="M19.473 23.3912C19.473 23.3912 19.5158 32.5257 19.2928 35.9712C19.05 39.745 16.9531 52.244 16.9531 52.244H14.7432C14.7432 52.244 15.8382 40.0489 15.7343 36.3133C15.6229 32.2584 15.3877 23.3912 15.3877 23.3912H19.473Z" fill="#407BFF"/>
<path opacity="0.5" d="M19.473 23.3912C19.473 23.3912 19.5158 32.5257 19.2928 35.9712C19.05 39.745 16.9531 52.244 16.9531 52.244H14.7432C14.7432 52.244 15.8382 40.0489 15.7343 36.3133C15.6229 32.2584 15.3877 23.3912 15.3877 23.3912H19.473Z" fill="white"/>
<path d="M14.6524 52.244H17.0349L17.1739 51.4086L14.5439 51.5384L14.6524 52.244Z" fill="#407BFF"/>
<path d="M16.8303 54.011C16.7222 54.0082 16.6146 53.9938 16.5096 53.9683C16.5045 53.9671 16.4999 53.9644 16.4963 53.9606C16.4928 53.9568 16.4905 53.952 16.4897 53.9469C16.4862 53.9414 16.4847 53.9349 16.4856 53.9285C16.4864 53.9221 16.4895 53.9161 16.4943 53.9118C16.534 53.8858 16.8761 53.6521 17.0227 53.7102C17.0393 53.7167 17.054 53.7275 17.0652 53.7414C17.0765 53.7554 17.0839 53.7719 17.0869 53.7896C17.0952 53.816 17.0961 53.8441 17.0897 53.871C17.0832 53.8979 17.0696 53.9225 17.0502 53.9423C16.9877 53.9913 16.9095 54.0157 16.8303 54.011ZM16.5874 53.927C16.8028 53.9713 16.9616 53.9637 17.0181 53.9087C17.0298 53.895 17.0377 53.8785 17.0412 53.8609C17.0446 53.8432 17.0436 53.825 17.038 53.8079C17.037 53.7991 17.0336 53.7908 17.0282 53.7838C17.0228 53.7768 17.0156 53.7714 17.0074 53.7682C16.928 53.7376 16.728 53.8384 16.5874 53.927Z" fill="#407BFF"/>
<path d="M16.5158 53.9697H16.5036C16.4994 53.9673 16.4959 53.964 16.4932 53.9601C16.4906 53.9561 16.4889 53.9515 16.4883 53.9468C16.4883 53.9315 16.4639 53.5848 16.5861 53.4688C16.6016 53.4535 16.6203 53.4419 16.641 53.435C16.6617 53.4281 16.6836 53.4261 16.7052 53.429C16.7291 53.4299 16.7521 53.4389 16.7704 53.4544C16.7887 53.4699 16.8012 53.4911 16.806 53.5146C16.832 53.6459 16.6533 53.8964 16.5311 53.9727C16.5258 53.9733 16.5205 53.9723 16.5158 53.9697ZM16.6853 53.481C16.674 53.4806 16.6628 53.4826 16.6523 53.4868C16.6417 53.491 16.6322 53.4974 16.6242 53.5054C16.557 53.6213 16.5282 53.7555 16.5418 53.8888C16.6472 53.8002 16.7693 53.6093 16.751 53.5222C16.751 53.5069 16.7388 53.4871 16.6976 53.4825L16.6853 53.481Z" fill="#407BFF"/>
<path d="M21.8235 23.3912H15.3877C15.3465 22.8154 15.4946 20.9476 15.4137 18.5651C15.3665 16.8008 15.1662 15.044 14.815 13.3144C14.7875 13.1846 14.7585 13.0563 14.7295 12.9265C14.7295 12.9265 15.0563 12.8608 15.5237 12.7921C15.9131 12.7356 16.4003 12.676 16.8768 12.6547C17.7878 12.6019 18.7011 12.6019 19.6121 12.6547C20.0321 12.6928 20.4429 12.7631 20.7698 12.8257C21.1882 12.9097 21.4341 12.9784 21.4341 12.9784C21.4341 12.9784 22.9919 16.6224 21.8235 23.3912Z" fill="#263238"/>
<path d="M19.456 16.5447C19.4402 16.5446 19.4247 16.5398 19.4117 16.5309C19.3857 16.5126 16.7451 14.6234 15.8089 12.7785C15.7998 12.7604 15.7983 12.7395 15.8046 12.7204C15.8109 12.7012 15.8245 12.6853 15.8425 12.6761C15.8514 12.6714 15.8611 12.6686 15.8712 12.6677C15.8812 12.6669 15.8913 12.6681 15.9008 12.6712C15.9104 12.6744 15.9192 12.6794 15.9267 12.686C15.9343 12.6926 15.9405 12.7007 15.9448 12.7097C16.8612 14.5211 19.4743 16.3873 19.5003 16.4072C19.5165 16.4189 19.5275 16.4364 19.531 16.4561C19.5344 16.4759 19.5299 16.4961 19.5186 16.5126C19.5114 16.5225 19.502 16.5305 19.4911 16.5361C19.4802 16.5417 19.4682 16.5446 19.456 16.5447Z" fill="#407BFF"/>
<path d="M19.4556 16.5446C19.4398 16.5445 19.4244 16.5398 19.4113 16.5309C19.4031 16.5252 19.3961 16.518 19.3907 16.5096C19.3854 16.5012 19.3817 16.4919 19.38 16.482C19.3783 16.4722 19.3786 16.4622 19.3808 16.4525C19.383 16.4427 19.3872 16.4336 19.393 16.4255C20.0503 15.3158 20.3134 14.0167 20.1398 12.7387C20.1376 12.7188 20.1432 12.6987 20.1555 12.6828C20.1677 12.6668 20.1856 12.6562 20.2055 12.6532C20.2155 12.6519 20.2257 12.6527 20.2355 12.6553C20.2452 12.658 20.2544 12.6627 20.2623 12.6689C20.2703 12.6752 20.2769 12.6829 20.2818 12.6918C20.2868 12.7006 20.2899 12.7103 20.291 12.7204C20.4695 14.0355 20.1971 15.3722 19.5182 16.5125C19.5112 16.5226 19.5019 16.5308 19.4909 16.5364C19.48 16.542 19.4679 16.5448 19.4556 16.5446Z" fill="#407BFF"/>
<path d="M20.5223 18.8294H18.74L18.5537 16.2667H20.336L20.5223 18.8294Z" fill="#407BFF"/>
<path d="M20.4411 18.6873H18.8619L18.6924 16.3583H20.2731L20.4411 18.6873Z" fill="white"/>
<path d="M19.5569 17.5342H18.8956L18.833 16.6912H19.4958L19.5569 17.5342Z" fill="#407BFF"/>
<path d="M20.2037 17.8855H18.9193L18.9102 17.7542H20.1946L20.2037 17.8855Z" fill="#407BFF"/>
<path d="M20.2252 18.1802H18.9408L18.9316 18.0504H20.2161L20.2252 18.1802Z" fill="#407BFF"/>
<path d="M20.1276 18.4766H18.9623L18.9531 18.3468H20.1184L20.1276 18.4766Z" fill="#407BFF"/>
<path opacity="0.3" d="M15.4131 18.5651C15.366 16.8014 15.1657 15.045 14.8145 13.316C15.2451 13.2778 15.9797 13.316 16.0973 14.0155C16.2226 14.7623 16.0362 16.5186 15.4131 18.5651Z" fill="black"/>
<path d="M15.9872 14.4538L15.3427 16.6729L15.0189 17.7832L14.7134 18.8904L14.6936 18.9592L14.6844 18.9928V19.0111C14.6869 18.9959 14.6869 18.9804 14.6844 18.9653C14.6844 18.9408 14.6722 18.9439 14.6844 18.9653C14.7166 19.0634 14.7686 19.1538 14.8371 19.231C15.0561 19.4822 15.3019 19.7085 15.5702 19.9061C16.1708 20.3535 16.7959 20.767 17.4426 21.1446L17.1005 21.9816C16.7071 21.8736 16.3201 21.7436 15.9413 21.5921C15.5571 21.4393 15.1823 21.2639 14.8188 21.0668C14.4213 20.8552 14.0524 20.594 13.7207 20.2894C13.5099 20.0929 13.336 19.8601 13.2076 19.6021C13.1219 19.4255 13.0701 19.2343 13.0548 19.0386C13.0476 18.9258 13.0532 18.8126 13.0716 18.7011L13.1037 18.53C13.2442 17.7435 13.4092 16.9707 13.6077 16.204C13.8062 15.4373 14.0124 14.6768 14.2568 13.9208L15.9872 14.4538Z" fill="#CE7A63"/>
<path d="M14.729 12.9265C13.9272 13.1128 13.0277 15.225 12.71 16.4132C12.6581 16.6148 12.6153 16.7889 12.5832 16.9218C12.5405 17.0974 12.5176 17.2028 12.5176 17.2028L15.2086 17.9664C15.2636 17.8336 15.3308 17.661 15.4025 17.4838C15.7369 16.6623 16.023 15.8219 16.2593 14.9669C16.6473 13.4672 15.9279 12.6486 14.729 12.9265Z" fill="#263238"/>
<path d="M19.4814 12.6441C18.6887 12.4562 18.5528 11.9645 18.6108 11.4223C18.6241 11.2866 18.6461 11.152 18.6765 11.0191L17.6869 10.1913L16.9599 9.58044C17.1554 10.4617 17.3707 12.0668 16.7705 12.6548C17.0095 13.0073 17.3354 13.2922 17.7166 13.4821C18.0978 13.6721 18.5215 13.7606 18.9468 13.7391C19.631 12.9984 19.4814 12.6441 19.4814 12.6441Z" fill="#CE7A63"/>
<path d="M16.2871 12.6501C16.4578 12.6106 16.6307 12.581 16.8048 12.5615C17.0935 13.0533 18.3321 13.7482 18.7521 13.7482C18.7521 13.7482 18.3321 13.9315 18.2267 14.5943C17.5822 14.2323 16.3421 13.3053 16.2871 12.6501Z" fill="white"/>
<path d="M19.7816 12.6547C19.6609 12.6185 19.5345 12.605 19.4089 12.615C19.4181 13.0961 19.2669 13.3191 19.0332 13.6489C19.2 13.7072 19.3464 13.8124 19.4548 13.952C19.5632 14.0915 19.6289 14.2594 19.6441 14.4355C20.1221 13.93 19.9618 13.0167 19.7816 12.6547Z" fill="white"/>
<path opacity="0.2" d="M18.6766 11.0205C18.6462 11.1534 18.6242 11.2881 18.6109 11.4237C18.2398 11.3489 17.6793 11.0175 17.6289 10.599C17.6316 10.4617 17.6511 10.3253 17.6869 10.1927L18.6766 11.0205Z" fill="black"/>
<path d="M16.4946 8.2471C16.6839 9.43072 16.7359 10.1317 17.3956 10.6999C18.3868 11.5536 19.7995 10.906 19.966 9.69951C20.1187 8.61364 19.7812 6.86036 18.5731 6.46939C18.3119 6.37903 18.0315 6.35857 17.7598 6.41005C17.4882 6.46152 17.2347 6.58315 17.0246 6.76285C16.8145 6.94254 16.6551 7.17407 16.5621 7.43443C16.4691 7.6948 16.4458 7.97496 16.4946 8.2471Z" fill="#CE7A63"/>
<path d="M16.9202 9.55595C17.3356 8.81066 17.5815 7.92027 17.1477 7.52624C17.7327 7.52624 18.4245 7.30479 18.675 7.08487C19.1332 7.29716 19.6478 7.26814 19.8586 6.77942C20.0358 6.3747 19.7792 5.82947 19.0812 5.87223C17.9694 4.98949 16.0267 5.17581 16.6376 5.9318C15.0386 5.81267 14.8599 6.69542 15.4693 7.00087C14.5087 7.5858 14.7133 9.06112 16.9202 9.55595Z" fill="#263238"/>
<path d="M16.1645 9.41093C16.34 9.64849 16.5927 9.81752 16.8793 9.88896C17.2443 9.9699 17.3375 9.63085 17.1847 9.2918C17.032 8.98635 16.6594 8.57552 16.3264 8.64731C15.9935 8.71909 15.9416 9.11159 16.1645 9.41093Z" fill="#CE7A63"/>
<path d="M18.3271 8.44872C18.3363 8.54647 18.3959 8.6213 18.4585 8.61672C18.5211 8.61214 18.5654 8.52967 18.5562 8.43345C18.5471 8.33724 18.4875 8.26087 18.4234 8.26545C18.3592 8.27004 18.3271 8.35251 18.3271 8.44872Z" fill="#263238"/>
<path d="M19.425 8.37232C19.4357 8.46853 19.4938 8.54337 19.5564 8.53879C19.619 8.5342 19.6633 8.45326 19.6541 8.35552C19.645 8.25777 19.5854 8.18446 19.5228 8.18905C19.4602 8.19363 19.4159 8.2761 19.425 8.37232Z" fill="#263238"/>
<path d="M19.0908 8.44409C19.2355 8.73252 19.4184 9.00016 19.6345 9.23979C19.5719 9.29261 19.4982 9.33073 19.419 9.35135C19.3397 9.37196 19.2568 9.37455 19.1763 9.35891L19.0908 8.44409Z" fill="#BA4D3C"/>
<path d="M18.8042 9.64761C18.6922 9.64384 18.5821 9.61725 18.4807 9.56946C18.3794 9.52166 18.2888 9.45367 18.2147 9.36965C18.2119 9.36695 18.2098 9.36374 18.2083 9.3602C18.2068 9.35666 18.2061 9.35286 18.2061 9.34903C18.2061 9.3452 18.2068 9.3414 18.2083 9.33786C18.2098 9.33432 18.2119 9.33111 18.2147 9.32841C18.22 9.32337 18.2271 9.32056 18.2345 9.32056C18.2419 9.32056 18.249 9.32337 18.2544 9.32841C18.3359 9.41899 18.4374 9.48933 18.5509 9.53387C18.6644 9.5784 18.7866 9.5959 18.908 9.58499C18.9119 9.58456 18.9158 9.58495 18.9195 9.58614C18.9232 9.58732 18.9266 9.58928 18.9295 9.59188C18.9324 9.59447 18.9347 9.59765 18.9362 9.6012C18.9378 9.60475 18.9386 9.6086 18.9386 9.61248C18.939 9.61614 18.9387 9.61984 18.9375 9.62336C18.9364 9.62687 18.9346 9.6301 18.9321 9.63285C18.9297 9.63559 18.9267 9.63778 18.9233 9.63927C18.9199 9.64077 18.9163 9.64152 18.9126 9.6415C18.8766 9.64562 18.8404 9.64766 18.8042 9.64761Z" fill="#263238"/>
<path d="M17.9606 8.12037C17.9508 8.11941 17.9414 8.11628 17.9331 8.11121C17.9268 8.10731 17.9213 8.10219 17.9169 8.09616C17.9126 8.09013 17.9095 8.0833 17.9078 8.07607C17.906 8.06883 17.9058 8.06133 17.907 8.054C17.9082 8.04666 17.9108 8.03964 17.9148 8.03332C17.9609 7.95596 18.0252 7.89103 18.1021 7.84418C18.179 7.79733 18.2662 7.76999 18.3561 7.76453C18.3711 7.76453 18.3855 7.77048 18.3961 7.78108C18.4067 7.79168 18.4126 7.80605 18.4126 7.82103C18.4126 7.83643 18.4065 7.85119 18.3956 7.86207C18.3847 7.87296 18.37 7.87907 18.3546 7.87907C18.2844 7.88447 18.2164 7.90672 18.1566 7.94394C18.0968 7.98116 18.0468 8.03225 18.011 8.09288C18.0057 8.10144 17.9982 8.10848 17.9894 8.1133C17.9806 8.11812 17.9706 8.12056 17.9606 8.12037Z" fill="#263238"/>
<path d="M19.8544 7.96307C19.845 7.96262 19.836 7.95988 19.828 7.95508C19.82 7.95029 19.8133 7.94359 19.8085 7.93558C19.7728 7.87233 19.7229 7.8182 19.6627 7.7774C19.6026 7.73661 19.5338 7.71025 19.4618 7.70038C19.4543 7.7 19.4469 7.6981 19.4401 7.6948C19.4333 7.6915 19.4272 7.68686 19.4222 7.68116C19.4172 7.67546 19.4134 7.66882 19.411 7.66163C19.4087 7.65444 19.4078 7.64684 19.4084 7.63929C19.4096 7.62444 19.4164 7.61061 19.4275 7.60066C19.4386 7.59071 19.4531 7.5854 19.468 7.58584C19.5586 7.59654 19.6455 7.62837 19.7217 7.67876C19.7978 7.72916 19.861 7.79673 19.9063 7.87602C19.9101 7.88242 19.9127 7.88953 19.9138 7.89693C19.9149 7.90432 19.9145 7.91186 19.9126 7.91911C19.9108 7.92635 19.9075 7.93316 19.903 7.93913C19.8985 7.94511 19.8929 7.95013 19.8864 7.95391C19.8767 7.95974 19.8657 7.9629 19.8544 7.96307Z" fill="#263238"/>
<path d="M17.1206 21.0836L18.5608 20.9309L17.8064 22.2489C17.8064 22.2489 16.7159 22.139 16.8228 21.5846L17.1206 21.0836Z" fill="#CE7A63"/>
<path d="M19.6041 21.2836L18.8909 22.423L17.8096 22.2443L18.564 20.9263L19.6041 21.2836Z" fill="#CE7A63"/>
<path d="M26.7642 17.8977L27.9341 17.6488L27.0773 16.6271C27.0773 16.6271 26.0082 17.0639 26.3137 17.5434L26.7642 17.8977Z" fill="#CE7A63"/>
<path d="M28.5983 17.0441L27.8316 15.9827L27.0771 16.6272L27.9339 17.6489L28.5983 17.0441Z" fill="#CE7A63"/>
<path d="M19.5727 27.1086H36.8841C37.388 27.1086 37.8712 27.3088 38.2275 27.6651C38.5838 28.0214 38.784 28.5047 38.784 29.0085V55.1703H17.6729V29.0085C17.6729 28.5047 17.873 28.0214 18.2293 27.6651C18.5856 27.3088 19.0689 27.1086 19.5727 27.1086Z" fill="#407BFF"/>
<path d="M43.1439 29.0085H42.9912V32.5136H43.1439V29.0085Z" fill="#407BFF"/>
<path d="M43.1439 33.3962H42.9912V34.4485H43.1439V33.3962Z" fill="#407BFF"/>
<path d="M23.3999 27.1086H40.7097C41.2136 27.1086 41.6968 27.3088 42.0531 27.6651C42.4094 28.0214 42.6096 28.5047 42.6096 29.0085V55.1703H21.5V29.0085C21.5 28.5047 21.7002 28.0214 22.0565 27.6651C22.4128 27.3088 22.896 27.1086 23.3999 27.1086Z" fill="#407BFF"/>
<path opacity="0.3" d="M41.9756 29.0069V55.1687H22.1321V29.0069C22.1321 28.6711 22.2655 28.3491 22.5029 28.1117C22.7403 27.8742 23.0624 27.7408 23.3982 27.7408H40.7095C41.0453 27.7408 41.3673 27.8742 41.6048 28.1117C41.8422 28.3491 41.9756 28.6711 41.9756 29.0069Z" fill="white"/>
<path opacity="0.9" d="M41.6396 29.0085V55.1702H22.1321V29.0085C22.1323 28.8421 22.1653 28.6773 22.2292 28.5237C22.2931 28.3701 22.3867 28.2306 22.5046 28.1131C22.6225 27.9957 22.7623 27.9026 22.9162 27.8393C23.07 27.7759 23.2349 27.7435 23.4013 27.7439H40.3736C40.7091 27.7439 41.0309 27.8771 41.2683 28.1142C41.5057 28.3513 41.6392 28.6729 41.6396 29.0085Z" fill="white"/>
<path d="M29.9973 23.1622H23.7891C23.1683 23.1622 22.665 23.6655 22.665 24.2863V25.9846C22.665 26.6054 23.1683 27.1086 23.7891 27.1086H29.9973C30.6181 27.1086 31.1214 26.6054 31.1214 25.9846V24.2863C31.1214 23.6655 30.6181 23.1622 29.9973 23.1622Z" fill="#407BFF"/>
<path d="M29.8329 23.3851H25.5993C25.0553 23.3851 24.6143 23.8262 24.6143 24.3702V25.9005C24.6143 26.4445 25.0553 26.8856 25.5993 26.8856H29.8329C30.3769 26.8856 30.8179 26.4445 30.8179 25.9005V24.3702C30.8179 23.8262 30.3769 23.3851 29.8329 23.3851Z" fill="#263238"/>
<path d="M23.3943 24.3686C23.3943 24.4185 23.3745 24.4662 23.3392 24.5015C23.304 24.5367 23.2562 24.5565 23.2064 24.5565C23.1566 24.5565 23.1088 24.5367 23.0736 24.5015C23.0383 24.4662 23.0186 24.4185 23.0186 24.3686C23.0186 24.3188 23.0383 24.271 23.0736 24.2358C23.1088 24.2006 23.1566 24.1808 23.2064 24.1808C23.2562 24.1808 23.304 24.2006 23.3392 24.2358C23.3745 24.271 23.3943 24.3188 23.3943 24.3686Z" fill="white"/>
<path d="M23.3943 24.9674C23.3943 25.0045 23.3832 25.0409 23.3626 25.0718C23.342 25.1026 23.3126 25.1267 23.2783 25.1409C23.244 25.1552 23.2062 25.1589 23.1698 25.1516C23.1333 25.1444 23.0998 25.1265 23.0736 25.1002C23.0473 25.074 23.0294 25.0405 23.0222 25.004C23.0149 24.9676 23.0186 24.9298 23.0329 24.8955C23.0471 24.8612 23.0711 24.8318 23.102 24.8112C23.1329 24.7906 23.1693 24.7795 23.2064 24.7795C23.2561 24.7799 23.3037 24.7999 23.3388 24.835C23.3739 24.8701 23.3939 24.9177 23.3943 24.9674Z" fill="white"/>
<path opacity="0.2" d="M36.4645 20.8545H33.5459L34.0361 27.1086H36.9547L36.4645 20.8545Z" fill="#407BFF"/>
<path d="M36.6422 20.3185H33.7236L34.2139 26.5726H37.1324L36.6422 20.3185Z" fill="#407BFF"/>
<path opacity="0.6" d="M36.7162 24.3092H34.2772L33.9824 20.5568H36.4214L36.7162 24.3092Z" fill="white"/>
<path opacity="0.6" d="M36.8748 26.3343H34.4343L34.3213 24.8956H36.7618L36.8748 26.3343Z" fill="white"/>
<path d="M36.7389 20.2833L33.8203 20.2772L34.2983 26.5695L37.2169 26.5756L36.7389 20.2833Z" fill="#407BFF"/>
<path opacity="0.6" d="M36.8027 24.2985L34.3637 24.2924L34.0781 20.5186L36.5171 20.5231L36.8027 24.2985Z" fill="white"/>
<path opacity="0.6" d="M36.9587 26.3358L34.5182 26.3313L34.4082 24.8834L36.8487 24.888L36.9587 26.3358Z" fill="white"/>
<path d="M36.818 20.2039L33.8994 20.1978L34.3774 26.5664L37.296 26.5725L36.818 20.2039Z" fill="#407BFF"/>
<path opacity="0.6" d="M36.8843 24.268L34.4438 24.2618L34.1582 20.4407L36.5987 20.4468L36.8843 24.268Z" fill="white"/>
<path opacity="0.6" d="M37.0393 26.3296L34.5973 26.3235L34.4873 24.8589L36.9294 24.8635L37.0393 26.3296Z" fill="white"/>
<path opacity="0.4" d="M33.2998 20.8545H33.5457L34.0359 27.1086H33.7916L33.2998 20.8545Z" fill="#407BFF"/>
<path d="M58.613 16.5784C58.6848 16.7448 58.7383 16.8838 58.7917 17.0365C58.8452 17.1893 58.8956 17.3298 58.9444 17.4764C59.0422 17.7696 59.1277 18.0644 59.2086 18.3591C59.3614 18.9517 59.4973 19.5473 59.6027 20.1475L59.6424 20.372L59.6515 20.4286L59.6622 20.4973C59.6722 20.5594 59.6779 20.6222 59.679 20.6851C59.6831 20.9077 59.6448 21.129 59.566 21.3373C59.4361 21.672 59.2496 21.982 59.0147 22.2536C58.5987 22.7395 58.1116 23.1597 57.5699 23.4998L57.1377 22.9684C57.5138 22.5539 57.8522 22.1067 58.1487 21.632C58.2754 21.43 58.3712 21.2102 58.4328 20.9799C58.4511 20.9055 58.4553 20.8283 58.445 20.7523L58.358 20.4148C58.2052 19.8497 58.0525 19.2892 57.8845 18.7348C57.802 18.4584 57.7104 18.1835 57.6218 17.9117C57.5775 17.7757 57.5302 17.6398 57.4829 17.5069L57.3408 17.1251L58.613 16.5784Z" fill="#B55B52"/>
<path d="M57.7215 23.2875L58.1385 24.184L57.5658 24.5185C57.5658 24.5185 56.4432 22.8797 57.2893 22.8263L57.7215 23.2875Z" fill="#B55B52"/>
<path d="M55.415 53.8675C55.5355 53.8651 55.6554 53.8492 55.7724 53.8202C55.7786 53.8188 55.7842 53.8155 55.7885 53.8109C55.7929 53.8063 55.7958 53.8005 55.7968 53.7942C55.7979 53.7881 55.7971 53.7818 55.7947 53.7762C55.7922 53.7705 55.7882 53.7656 55.7831 53.7621C55.7372 53.7316 55.3249 53.4659 55.1722 53.5376C55.1546 53.5456 55.1394 53.5582 55.1284 53.5741C55.1174 53.5899 55.1109 53.6085 55.1095 53.6278C55.103 53.6581 55.1043 53.6896 55.1134 53.7193C55.1225 53.7489 55.1391 53.7758 55.1615 53.7973C55.2351 53.8497 55.3249 53.8746 55.415 53.8675ZM55.6823 53.7744C55.4471 53.8202 55.2699 53.8125 55.2012 53.7499C55.1865 53.7355 55.1757 53.7175 55.1699 53.6977C55.164 53.678 55.1632 53.6571 55.1676 53.6369C55.1679 53.6282 55.1707 53.6197 55.1755 53.6124C55.1804 53.6051 55.1871 53.5993 55.1951 53.5957C55.2775 53.559 55.5143 53.672 55.6823 53.7744Z" fill="#407BFF"/>
<path d="M55.7651 53.8202C55.7706 53.8217 55.7764 53.8217 55.7819 53.8202C55.7867 53.8174 55.7906 53.8134 55.7933 53.8085C55.796 53.8037 55.7973 53.7982 55.7971 53.7927C55.7971 53.7759 55.7971 53.3864 55.6444 53.2566C55.6263 53.2399 55.6048 53.2274 55.5813 53.22C55.5578 53.2126 55.5329 53.2105 55.5085 53.2138C55.4829 53.2144 55.4582 53.2236 55.4385 53.2399C55.4188 53.2563 55.4053 53.2789 55.4001 53.304C55.3695 53.4567 55.6154 53.7484 55.7452 53.8217L55.7651 53.8202ZM55.536 53.2719C55.549 53.2719 55.5619 53.2744 55.574 53.2794C55.5861 53.2844 55.597 53.2917 55.6062 53.3009C55.6933 53.3773 55.7238 53.5972 55.7315 53.727C55.6032 53.6232 55.4489 53.4048 55.4688 53.3116C55.4688 53.2963 55.4795 53.278 55.5207 53.2734L55.536 53.2719Z" fill="#407BFF"/>
<path d="M55.5062 11.9126C55.3535 12.7159 55.0175 14.3424 55.578 14.877C55.578 14.877 55.3596 15.6925 53.8675 15.6925C52.2272 15.6925 53.084 14.877 53.084 14.877C53.979 14.6632 53.9561 13.9988 53.8003 13.3757L55.5062 11.9126Z" fill="#B55B52"/>
<path d="M52.576 15.5077C52.35 15.5368 52.8815 14.8174 52.9716 14.7441C53.1823 14.5746 55.9329 14.431 55.9192 14.851C55.91 15.0312 55.8443 15.3825 55.7252 15.4971C55.6061 15.6116 54.5523 15.2115 52.576 15.5077Z" fill="#263238"/>
<path d="M52.8632 9.973C52.8531 9.97203 52.8434 9.9686 52.8348 9.96301C52.8263 9.95742 52.8193 9.94984 52.8144 9.94092C52.7769 9.86989 52.7232 9.80868 52.6577 9.76225C52.5921 9.71582 52.5166 9.68547 52.4371 9.67365C52.4287 9.67326 52.4205 9.67121 52.4128 9.66762C52.4052 9.66403 52.3983 9.65897 52.3927 9.65273C52.387 9.64649 52.3826 9.63919 52.3797 9.63125C52.3769 9.62331 52.3756 9.61488 52.3761 9.60646C52.3772 9.5893 52.3851 9.5733 52.3979 9.56188C52.4108 9.55045 52.4276 9.54453 52.4448 9.54537C52.5456 9.55874 52.6418 9.5959 52.7255 9.65379C52.8091 9.71168 52.8778 9.78864 52.9259 9.87831C52.9302 9.88558 52.9329 9.89365 52.934 9.90203C52.9351 9.9104 52.9345 9.91891 52.9322 9.92705C52.9299 9.93518 52.926 9.94277 52.9207 9.94935C52.9154 9.95593 52.9089 9.96138 52.9014 9.96536C52.89 9.97223 52.8765 9.97492 52.8632 9.973Z" fill="#263238"/>
<path d="M52.4184 10.6985C52.3025 10.9393 52.1546 11.1633 51.9785 11.3644C52.031 11.4078 52.0924 11.4394 52.1583 11.4568C52.2243 11.4742 52.2932 11.477 52.3603 11.4652L52.4184 10.6985Z" fill="#A02724"/>
<path d="M52.5382 10.5183C52.5305 10.6267 52.4664 10.7107 52.3946 10.7061C52.3228 10.7015 52.2724 10.6084 52.2801 10.4999C52.2877 10.3915 52.3534 10.306 52.4236 10.3121C52.4939 10.3182 52.5382 10.4098 52.5382 10.5183Z" fill="#263238"/>
<path d="M52.448 10.3197L52.1914 10.225C52.1914 10.225 52.3105 10.4388 52.448 10.3197Z" fill="#263238"/>
<path d="M57.3395 53.7881H55.9863L56.0917 50.6558H57.4449L57.3395 53.7881Z" fill="#B55B52"/>
<path d="M55.878 53.6324H57.4053C57.4313 53.6318 57.4566 53.6408 57.4763 53.6577C57.496 53.6746 57.5088 53.6982 57.5122 53.724L57.6863 54.9275C57.6895 54.9578 57.6863 54.9885 57.6769 55.0175C57.6674 55.0465 57.6519 55.0732 57.6315 55.0958C57.611 55.1185 57.586 55.1365 57.5581 55.1488C57.5301 55.1611 57.4999 55.1674 57.4694 55.1672C56.9395 55.1581 56.6844 55.1275 56.0155 55.1275C55.6047 55.1275 55.0029 55.1703 54.4348 55.1703C53.8667 55.1703 53.8376 54.6083 54.0744 54.5594C55.1343 54.3318 55.2962 54.0172 55.6581 53.7163C55.7199 53.6644 55.7974 53.6348 55.878 53.6324Z" fill="#263238"/>
<g opacity="0.2">
<path d="M57.4445 50.6558H56.0914L56.0303 52.4717H57.3834L57.4445 50.6558Z" fill="black"/>
</g>
<path d="M51.4686 17.0105C51.1998 17.6856 50.9112 18.3285 50.5859 18.97C50.2663 19.6233 49.904 20.2549 49.5015 20.8607C49.3931 21.0134 49.2862 21.1662 49.164 21.3189C49.0998 21.3968 49.0464 21.4716 48.9731 21.5495C48.8871 21.6446 48.7926 21.7315 48.6905 21.8091C48.4911 21.9554 48.2664 22.0636 48.0277 22.1283C47.8118 22.1878 47.5888 22.2171 47.3649 22.2154C46.9637 22.2109 46.5658 22.1428 46.1859 22.0138C46.0058 21.9556 45.8294 21.8867 45.6574 21.8076C45.4834 21.7301 45.3141 21.6424 45.1504 21.5449L45.439 20.9233C46.0576 21.0883 46.7479 21.1998 47.2992 21.1204C47.5312 21.0988 47.7506 21.0054 47.9269 20.8531C47.9604 20.8196 47.9915 20.7839 48.0201 20.7462L48.1514 20.5614C48.2415 20.4346 48.3271 20.2941 48.4111 20.1567C48.5806 19.8756 48.7425 19.5824 48.8967 19.2815C49.051 18.9807 49.2022 18.6706 49.3549 18.3652C49.6435 17.7543 49.9276 17.1129 50.1903 16.4928L51.4686 17.0105Z" fill="#B55B52"/>
<path d="M50.9373 15.1672C50.2653 15.3307 49.4375 17.1771 49.4375 17.1771L51.0381 19.2267C51.0381 19.2267 52.6905 16.8884 52.4706 16.1722C52.24 15.4253 51.7528 14.9672 50.9373 15.1672Z" fill="#407BFF"/>
<path d="M45.7522 21.0196L44.7488 20.7035L44.5273 21.7573C44.5273 21.7573 45.5139 21.9497 45.9019 21.519L45.7522 21.0196Z" fill="#B55B52"/>
<path d="M43.8125 20.8241L44.0034 21.6259L44.5242 21.7573L44.7456 20.7035L43.8125 20.8241Z" fill="#B55B52"/>
<path d="M56.2164 10.419C56.0347 11.7492 55.9858 12.3158 55.2589 12.9511C54.1669 13.9072 52.5724 13.3925 52.3571 12.0348C52.1601 10.813 52.49 8.84285 53.8385 8.40911C54.135 8.31308 54.4511 8.29425 54.757 8.35441C55.0628 8.41458 55.3482 8.55174 55.5862 8.75294C55.8243 8.95414 56.0071 9.21272 56.1174 9.50424C56.2276 9.79576 56.2617 10.1106 56.2164 10.419Z" fill="#B55B52"/>
<path d="M53.2128 11.1749C54.2681 13.0198 54.8027 13.2703 55.6182 13.5757C55.6182 13.5757 55.9939 12.441 56.8079 11.7339C57.9045 10.7839 57.2661 8.9726 56.5972 8.75574C56.9301 7.68666 53.0173 7.38121 52.6004 8.97719C52.301 10.1226 53.2128 11.1749 53.2128 11.1749Z" fill="#263238"/>
<path d="M53.8271 10.8176C53.7647 11.1135 53.603 11.3791 53.3689 11.5705C53.0543 11.8302 52.7824 11.627 52.7718 11.2773C52.7641 10.9627 52.9168 10.448 53.2788 10.3212C53.6408 10.1945 53.8912 10.4694 53.8271 10.8176Z" fill="#B55B52"/>
<path d="M53.0342 23.3318C53.0342 23.3318 53.8192 32.6174 54.6347 37.8513C55.293 42.0787 55.8107 51.9585 55.8107 51.9585H57.6556C57.6556 51.9585 58.5353 42.4162 58.2009 38.2362C57.3563 27.6569 58.8392 25.7845 57.0783 23.3318H53.0342Z" fill="#263238"/>
<path opacity="0.2" d="M53.6064 29.3231C53.8554 31.7667 54.1654 34.5479 54.4892 36.8173C55.01 35.5955 55.5583 33.9232 55.6636 30.467C55.7217 28.1365 54.4357 27.6814 53.6064 29.3231Z" fill="black"/>
<path d="M48.7406 53.2872C48.7461 53.2874 48.7516 53.2861 48.7565 53.2834C48.7613 53.2807 48.7653 53.2767 48.7681 53.2719C48.7723 53.2668 48.7746 53.2603 48.7746 53.2536C48.7746 53.2469 48.7723 53.2405 48.7681 53.2353C48.7223 53.1834 48.3221 52.7298 48.1343 52.7527C48.1167 52.755 48.0999 52.7616 48.0855 52.772C48.0711 52.7824 48.0595 52.7962 48.0518 52.8122C48.0383 52.8379 48.0312 52.8665 48.0312 52.8955C48.0312 52.9245 48.0383 52.953 48.0518 52.9787C48.1404 53.1543 48.5222 53.2475 48.7406 53.2842V53.2872ZM48.1465 52.8168C48.2519 52.8168 48.4886 53.0306 48.652 53.2063C48.3557 53.1421 48.1526 53.0535 48.1037 52.9497C48.0944 52.9332 48.0895 52.9145 48.0895 52.8955C48.0895 52.8765 48.0944 52.8578 48.1037 52.8412C48.1063 52.8346 48.1106 52.8288 48.1163 52.8245C48.122 52.8201 48.1287 52.8175 48.1358 52.8168H48.1465Z" fill="#407BFF"/>
<path d="M48.7407 53.2872H48.7483C48.7538 53.2857 48.7588 53.2829 48.7629 53.2788C48.7669 53.2748 48.7698 53.2698 48.7712 53.2643C48.7712 53.2505 48.8796 52.8993 48.7712 52.7053C48.7566 52.6771 48.7362 52.6522 48.7115 52.6323C48.6868 52.6123 48.6583 52.5976 48.6276 52.5892C48.5406 52.5648 48.5009 52.5984 48.4749 52.6289C48.3955 52.7633 48.5849 53.1512 48.7086 53.278C48.7127 53.2822 48.7178 53.2852 48.7234 53.2869C48.729 53.2885 48.735 53.2886 48.7407 53.2872ZM48.5727 52.6457C48.5853 52.6437 48.5982 52.6437 48.6108 52.6457C48.6336 52.6519 48.6548 52.6626 48.6732 52.6773C48.6916 52.692 48.7068 52.7104 48.7177 52.7313C48.7679 52.8795 48.7706 53.0396 48.7254 53.1894C48.6078 53.0367 48.4902 52.7435 48.5391 52.6641C48.5406 52.6579 48.5482 52.6457 48.5666 52.6457H48.5727Z" fill="#407BFF"/>
<path d="M50.1005 54.2127L48.8359 53.666L49.1933 52.0486L49.5553 50.4206L49.5965 50.2312L50.9084 50.5626L50.8626 50.7764L50.5129 52.3525L50.1005 54.2127Z" fill="#B55B52"/>
<path opacity="0.2" d="M50.5129 52.3525L49.1689 52.1616L49.5553 50.4205L50.8627 50.7764L50.5129 52.3525Z" fill="black"/>
<path d="M51.5831 23.3318C51.5831 23.3318 50.6668 33.3322 50.3247 38.0697C50.0192 42.346 49.083 51.3247 49.083 51.3247L50.9081 51.5965C50.9081 51.5965 53.3517 41.4877 53.7335 38.563C54.8285 30.1632 56.9728 27.5668 56.4489 23.3318H51.5831Z" fill="#263238"/>
<path d="M48.8798 53.1483L50.2956 53.7042C50.3201 53.7132 50.3404 53.731 50.3525 53.7542C50.3647 53.7773 50.3678 53.8042 50.3612 53.8295L50.0833 55.0115C50.0753 55.0412 50.0612 55.0687 50.0418 55.0925C50.0224 55.1162 49.9982 55.1356 49.9708 55.1493C49.9434 55.163 49.9134 55.1708 49.8827 55.172C49.8521 55.1733 49.8216 55.168 49.7931 55.1566C49.3029 54.955 49.0768 54.8329 48.4552 54.5885C48.0719 54.4358 47.2655 54.1654 46.7371 53.9577C46.2087 53.75 46.3858 53.217 46.6241 53.2567C47.6931 53.4324 48.1971 53.2919 48.64 53.1437C48.718 53.1169 48.8029 53.1186 48.8798 53.1483Z" fill="#263238"/>
<path d="M48.7734 51.7142L51.0887 52.1128L51.3545 51.2392L48.8758 50.8101L48.7734 51.7142Z" fill="#407BFF"/>
<path d="M55.5587 51.9951H57.9091L58.0328 51.1704L55.5449 51.0864L55.5587 51.9951Z" fill="#407BFF"/>
<path d="M59.2151 17.2733L57.8573 18.3546L57.0418 19.0052C57.0418 19.0052 56.9563 18.7776 56.8524 18.4523C56.6554 17.8215 56.3942 16.8243 56.576 16.3646C56.8555 15.6376 57.3885 14.9824 58.0528 15.1275C58.6149 15.2512 59.2151 17.2733 59.2151 17.2733Z" fill="#407BFF"/>
<path opacity="0.2" d="M57.665 18.5088L57.0419 19.0051C57.0419 19.0051 56.9564 18.7776 56.8525 18.4523L57.3367 16.053L57.665 18.5088Z" fill="black"/>
<path d="M50.9373 15.1672C50.9373 15.1672 50.2928 15.3932 51.5833 23.3318H57.0814C56.9898 21.096 56.9867 19.7169 58.0558 15.1275C57.2864 14.9692 56.5064 14.8671 55.7222 14.822C54.8914 14.7616 54.0574 14.7616 53.2266 14.822C52.153 14.9182 50.9373 15.1672 50.9373 15.1672Z" fill="#407BFF"/>
<path d="M55.7768 13.4399L55.253 13.4292C54.3442 14.6831 55.3904 14.7365 55.3889 15.8148C55.3874 16.893 54.219 17.5283 55.6592 18.2874C54.5993 17.174 57.5652 16.5265 55.7768 13.4399Z" fill="#263238"/>
<path d="M54.6756 13.0428C54.7126 13.2345 54.7371 13.4283 54.7489 13.6232C54.7489 13.6637 54.765 13.7025 54.7936 13.7312C54.8223 13.7598 54.8611 13.7759 54.9016 13.7759C55.1658 13.7759 55.6927 13.7759 55.9462 13.7759C55.9858 13.7731 56.023 13.7561 56.0511 13.728C56.0791 13.7 56.0961 13.6627 56.099 13.6232C56.1206 13.3999 56.1303 13.1755 56.128 12.9512C56.128 12.9107 56.1119 12.8718 56.0833 12.8432C56.0546 12.8146 56.0158 12.7985 55.9753 12.7985C55.5736 12.7985 55.0757 12.8244 54.813 12.8428C54.7684 12.8513 54.7289 12.8771 54.7032 12.9145C54.6775 12.952 54.6675 12.9981 54.6756 13.0428Z" fill="#407BFF"/>
<path d="M57.1611 23.0096L57.4085 23.5014C57.4284 23.5396 57.3825 23.5793 57.3199 23.5793H51.5561C51.5072 23.5793 51.466 23.5548 51.4629 23.5228L51.4141 23.031C51.4141 22.9974 51.4522 22.9684 51.5072 22.9684H57.071C57.0883 22.9669 57.1057 22.9699 57.1215 22.9772C57.1372 22.9844 57.1509 22.9956 57.1611 23.0096Z" fill="#407BFF"/>
<path opacity="0.5" d="M57.1611 23.0096L57.4085 23.5014C57.4284 23.5396 57.3825 23.5793 57.3199 23.5793H51.5561C51.5072 23.5793 51.466 23.5548 51.4629 23.5228L51.4141 23.031C51.4141 22.9974 51.4522 22.9684 51.5072 22.9684H57.071C57.0883 22.9669 57.1057 22.9699 57.1215 22.9772C57.1372 22.9844 57.1509 22.9956 57.1611 23.0096Z" fill="white"/>
<path d="M56.4139 23.6312H56.5667C56.5972 23.6312 56.6186 23.6159 56.6171 23.5976L56.5468 22.9592C56.5468 22.9409 56.5193 22.9241 56.4903 22.9241H56.3376C56.3086 22.9241 56.2857 22.9409 56.2872 22.9592L56.3574 23.5976C56.3559 23.6159 56.3834 23.6312 56.4139 23.6312Z" fill="#263238"/>
<path d="M52.8002 23.6312H52.953C52.982 23.6312 53.0049 23.6159 53.0034 23.5976L52.9331 22.9592C52.9331 22.9409 52.9056 22.9241 52.8751 22.9241H52.7223C52.6918 22.9241 52.6704 22.9409 52.672 22.9592L52.7422 23.5976C52.7453 23.6159 52.7712 23.6312 52.8002 23.6312Z" fill="#263238"/>
</svg>
