<svg width="20" height="26" viewBox="0 0 20 26" fill="none" xmlns="http://www.w3.org/2000/svg">
<path d="M8.6875 17.3747L15.75 10.335L13.9688 8.55952L8.6875 13.8237L6.0625 11.2072L4.28125 12.9827L8.6875 17.3747ZM10 25.4111C7.10417 24.6843 4.71375 23.028 2.82875 20.4422C0.942917 17.8573 0 14.9866 0 11.8302V4.22981L10 0.491943L20 4.22981V11.8302C20 14.9866 19.0575 17.8573 17.1725 20.4422C15.2867 23.028 12.8958 24.6843 10 25.4111ZM10 22.7946C12.1667 22.1093 13.9583 20.7387 15.375 18.6829C16.7917 16.6271 17.5 14.3428 17.5 11.8302V5.94301L10 3.1396L2.5 5.94301V11.8302C2.5 14.3428 3.20833 16.6271 4.625 18.6829C6.04167 20.7387 7.83333 22.1093 10 22.7946Z" fill="#4BB543"/>
</svg>
