<svg width="25" height="26" viewBox="0 0 25 26" fill="none" xmlns="http://www.w3.org/2000/svg">
<path d="M17.3333 15.4998C17.9753 15.4998 18.5062 15.2637 18.9259 14.7915C19.3457 14.3193 19.5556 13.7221 19.5556 12.9998C19.5556 12.2776 19.3457 11.6804 18.9259 11.2082C18.5062 10.7359 17.9753 10.4998 17.3333 10.4998C16.6914 10.4998 16.1605 10.7359 15.7407 11.2082C15.321 11.6804 15.1111 12.2776 15.1111 12.9998C15.1111 13.7221 15.321 14.3193 15.7407 14.7915C16.1605 15.2637 16.6914 15.4998 17.3333 15.4998ZM1.03704 20.3332V23.3332V2.6665V5.6665C1.03704 5.6665 1.03704 5.99262 1.03704 6.64484C1.03704 7.29817 1.03704 8.19428 1.03704 9.33317V16.6665C1.03704 17.8054 1.03704 18.7009 1.03704 19.3532C1.03704 20.0065 1.03704 20.3332 1.03704 20.3332ZM2.22222 25.8332C1.58025 25.8332 1.04938 25.5971 0.629629 25.1248C0.209876 24.6526 0 24.0554 0 23.3332V2.6665C0 1.94428 0.209876 1.34706 0.629629 0.874837C1.04938 0.402615 1.58025 0.166504 2.22222 0.166504H20.5926C21.2346 0.166504 21.7654 0.402615 22.1852 0.874837C22.6049 1.34706 22.8148 1.94428 22.8148 2.6665V7.7915H21.7778V2.6665C21.7778 2.27762 21.6667 1.95817 21.4444 1.70817C21.2222 1.45817 20.9383 1.33317 20.5926 1.33317H2.22222C1.87654 1.33317 1.59259 1.45817 1.37037 1.70817C1.14815 1.95817 1.03704 2.27762 1.03704 2.6665V23.3332C1.03704 23.7221 1.14815 24.0415 1.37037 24.2915C1.59259 24.5415 1.87654 24.6665 2.22222 24.6665H20.5926C20.9383 24.6665 21.2222 24.5415 21.4444 24.2915C21.6667 24.0415 21.7778 23.7221 21.7778 23.3332V18.2082H22.8148V23.3332C22.8148 24.0554 22.6049 24.6526 22.1852 25.1248C21.7654 25.5971 21.2346 25.8332 20.5926 25.8332H2.22222ZM14.0741 19.1665C13.4321 19.1665 12.9012 18.9304 12.4815 18.4582C12.0617 17.9859 11.8519 17.3887 11.8519 16.6665V9.33317C11.8519 8.61095 12.0617 8.01373 12.4815 7.5415C12.9012 7.06928 13.4321 6.83317 14.0741 6.83317H22.0741C22.7161 6.83317 23.2469 7.06928 23.6667 7.5415C24.0864 8.01373 24.2963 8.61095 24.2963 9.33317V16.6665C24.2963 17.3887 24.0864 17.9859 23.6667 18.4582C23.2469 18.9304 22.7161 19.1665 22.0741 19.1665H14.0741ZM22.0741 17.9998C22.4198 17.9998 22.7037 17.8748 22.9259 17.6248C23.1481 17.3748 23.2593 17.0554 23.2593 16.6665V9.33317C23.2593 8.94428 23.1481 8.62484 22.9259 8.37484C22.7037 8.12484 22.4198 7.99984 22.0741 7.99984H14.0741C13.7284 7.99984 13.4444 8.12484 13.2222 8.37484C13 8.62484 12.8889 8.94428 12.8889 9.33317V16.6665C12.8889 17.0554 13 17.3748 13.2222 17.6248C13.4444 17.8748 13.7284 17.9998 14.0741 17.9998H22.0741Z" fill="#4285F8"/>
</svg>
