<svg width="55" height="54" viewBox="0 0 55 54" fill="none" xmlns="http://www.w3.org/2000/svg">
<g filter="url(#filter0_d_272_947)">
<circle cx="27.7834" cy="26.9646" r="22.9646" fill="white"/>
</g>
<path d="M31.1175 13.3703C31.2124 13.043 31.6586 12.9998 31.8145 13.3029L38.4408 26.1838C38.5708 26.4365 38.5148 26.7451 38.3043 26.9361L24.2025 39.7334C23.9212 39.9887 23.4816 39.7143 23.5874 39.3494L31.1175 13.3703Z" fill="#008C3C"/>
<path d="M26.015 13.3703C26.1099 13.043 26.5561 12.9998 26.712 13.3029L33.3382 26.1838C33.4682 26.4365 33.4123 26.7451 33.2018 26.9361L19.1 39.7334C18.8186 39.9887 18.3791 39.7143 18.4848 39.3494L26.015 13.3703Z" fill="#FF7A08"/>
<defs>
<filter id="filter0_d_272_947" x="0.818848" y="0" width="53.9292" height="53.9291" filterUnits="userSpaceOnUse" color-interpolation-filters="sRGB">
<feFlood flood-opacity="0" result="BackgroundImageFix"/>
<feColorMatrix in="SourceAlpha" type="matrix" values="0 0 0 0 0 0 0 0 0 0 0 0 0 0 0 0 0 0 127 0" result="hardAlpha"/>
<feOffset/>
<feGaussianBlur stdDeviation="2"/>
<feComposite in2="hardAlpha" operator="out"/>
<feColorMatrix type="matrix" values="0 0 0 0 0 0 0 0 0 0 0 0 0 0 0 0 0 0 0.25 0"/>
<feBlend mode="normal" in2="BackgroundImageFix" result="effect1_dropShadow_272_947"/>
<feBlend mode="normal" in="SourceGraphic" in2="effect1_dropShadow_272_947" result="shape"/>
</filter>
</defs>
</svg>
