<svg width="26" height="20" viewBox="0 0 26 20" fill="none" xmlns="http://www.w3.org/2000/svg">
<path d="M25.3248 2.63336V17.3667C25.3248 17.9806 25.1241 18.4882 24.7227 18.8896C24.3213 19.291 23.8137 19.4917 23.1998 19.4917H2.7998C2.18592 19.4917 1.67828 19.291 1.27689 18.8896C0.875499 18.4882 0.674805 17.9806 0.674805 17.3667V2.63336C0.674805 2.01947 0.875499 1.51183 1.27689 1.11044C1.67828 0.709056 2.18592 0.508362 2.7998 0.508362H23.1998C23.8137 0.508362 24.3213 0.709056 24.7227 1.11044C25.1241 1.51183 25.3248 2.01947 25.3248 2.63336ZM1.66647 5.82086H24.3331V2.63336C24.3331 2.35003 24.2151 2.09031 23.979 1.85419C23.7429 1.61808 23.4831 1.50003 23.1998 1.50003H2.7998C2.51647 1.50003 2.25675 1.61808 2.02064 1.85419C1.78453 2.09031 1.66647 2.35003 1.66647 2.63336V5.82086ZM1.66647 8.51253V17.3667C1.66647 17.65 1.78453 17.9097 2.02064 18.1459C2.25675 18.382 2.51647 18.5 2.7998 18.5H23.1998C23.4831 18.5 23.7429 18.382 23.979 18.1459C24.2151 17.9097 24.3331 17.65 24.3331 17.3667V8.51253H1.66647Z" fill="#4285F8"/>
</svg>
