<svg width="27" height="27" viewBox="0 0 27 27" fill="none" xmlns="http://www.w3.org/2000/svg">
<path d="M3.25 26.6251C2.5625 26.6251 1.97375 26.3801 1.48375 25.8901C0.994583 25.4009 0.75 24.8126 0.75 24.1251V6.62506C0.75 5.93756 0.994583 5.34881 1.48375 4.85881C1.97375 4.36964 2.5625 4.12506 3.25 4.12506H14.4062L11.9062 6.62506H3.25V24.1251H20.75V15.4376L23.25 12.9376V24.1251C23.25 24.8126 23.0054 25.4009 22.5163 25.8901C22.0263 26.3801 21.4375 26.6251 20.75 26.6251H3.25ZM17.2188 4.84381L19 6.59381L10.75 14.8438V16.6251H12.5L20.7812 8.34381L22.5625 10.0938L13.5625 19.1251H8.25V13.8126L17.2188 4.84381ZM22.5625 10.0938L17.2188 4.84381L20.3438 1.71881C20.8438 1.21881 21.4429 0.968811 22.1413 0.968811C22.8388 0.968811 23.4271 1.21881 23.9062 1.71881L25.6562 3.50006C26.1354 3.97923 26.375 4.56256 26.375 5.25006C26.375 5.93756 26.1354 6.52089 25.6562 7.00006L22.5625 10.0938Z" fill="url(#paint0_linear_32_2045)"/>
<defs>
<linearGradient id="paint0_linear_32_2045" x1="30.0042" y1="28.7338" x2="1.564" y2="28.4616" gradientUnits="userSpaceOnUse">
<stop stop-color="#4285F8"/>
<stop offset="1" stop-color="#0055B1"/>
</linearGradient>
</defs>
</svg>
