<svg width="79" height="58" viewBox="0 0 79 58" fill="none" xmlns="http://www.w3.org/2000/svg">
<path d="M78.079 50.5226H0.921875V50.5612H78.079V50.5226Z" fill="#E6E6E6"/>
<path d="M17.278 52.3527H8.89258V52.3912H17.278V52.3527Z" fill="#E6E6E6"/>
<path d="M39.6543 51.5148H36.4971V51.5533H39.6543V51.5148Z" fill="#E6E6E6"/>
<path d="M28.8956 51.5148H24.2754V51.5533H28.8956V51.5148Z" fill="#E6E6E6"/>
<path d="M67.1092 51.9592H57.335V51.9978H67.1092V51.9592Z" fill="#E6E6E6"/>
<path d="M37.837 51.9592H35.6318V51.9978H37.837V51.9592Z" fill="#E6E6E6"/>
<path d="M20.8285 52.3527H18.7715V52.3912H20.8285V52.3527Z" fill="#E6E6E6"/>
<path d="M69.6833 51.9592H68.3701V51.9978H69.6833V51.9592Z" fill="#E6E6E6"/>
<path d="M37.4945 43.6401H7.69795C7.46453 43.6397 7.2408 43.5467 7.07589 43.3815C6.91098 43.2163 6.81836 42.9924 6.81836 42.759V0.873419C6.82039 0.641334 6.91391 0.419423 7.0786 0.255887C7.24329 0.0923507 7.46586 0.000397574 7.69795 0H37.4945C37.7282 0 37.9523 0.0928336 38.1176 0.258078C38.2828 0.423323 38.3756 0.647443 38.3756 0.881135V42.759C38.3756 42.9927 38.2828 43.2168 38.1176 43.382C37.9523 43.5473 37.7282 43.6401 37.4945 43.6401V43.6401ZM7.69795 0.030863C7.47476 0.0312718 7.26085 0.120221 7.10317 0.278187C6.9455 0.436152 6.85694 0.650226 6.85694 0.873419V42.759C6.85694 42.9822 6.9455 43.1962 7.10317 43.3542C7.26085 43.5122 7.47476 43.6011 7.69795 43.6015H37.4945C37.7178 43.6011 37.9319 43.5122 38.0898 43.3543C38.2478 43.1964 38.3367 42.9823 38.3371 42.759V0.873419C38.3367 0.650085 38.2478 0.436014 38.0898 0.278092C37.9319 0.120171 37.7178 0.0312709 37.4945 0.030863H7.69795Z" fill="#E6E6E6"/>
<path d="M70.8745 43.6401H41.0764C40.8429 43.6397 40.619 43.5467 40.4538 43.3816C40.2887 43.2164 40.1957 42.9925 40.1953 42.759V0.873419C40.1977 0.641194 40.2916 0.419284 40.4565 0.25579C40.6215 0.0922967 40.8442 0.000393238 41.0764 0H70.8745C71.1064 0.000803128 71.3285 0.0929357 71.4929 0.256428C71.6573 0.419921 71.7506 0.641601 71.7526 0.873419V42.759C71.7526 42.9921 71.6602 43.2158 71.4956 43.3809C71.331 43.5461 71.1077 43.6393 70.8745 43.6401V43.6401ZM41.0764 0.030863C40.8531 0.0312709 40.639 0.120171 40.4811 0.278092C40.3232 0.436014 40.2343 0.650085 40.2339 0.873419V42.759C40.2343 42.9823 40.3232 43.1964 40.4811 43.3543C40.639 43.5122 40.8531 43.6011 41.0764 43.6015H70.8745C71.0979 43.6011 71.312 43.5122 71.4699 43.3543C71.6278 43.1964 71.7167 42.9823 71.7171 42.759V0.873419C71.7167 0.650085 71.6278 0.436014 71.4699 0.278092C71.312 0.120171 71.0979 0.0312709 70.8745 0.030863H41.0764Z" fill="#E6E6E6"/>
<path d="M64.524 4.71582H30.1289V24.7088H64.524V4.71582Z" fill="#E6E6E6"/>
<path d="M64.9889 4.71582H30.5938V24.7088H64.9889V4.71582Z" fill="#F5F5F5"/>
<path d="M64.1533 23.7706V5.65405L31.4279 5.65405V23.7706L64.1533 23.7706Z" fill="white"/>
<path d="M64.1553 23.7706V5.65405H63.8034V23.7706H64.1553Z" fill="#E6E6E6"/>
<path d="M64.6448 18.1396H30.9395V19.3989H64.6448V18.1396Z" fill="#F5F5F5"/>
<path d="M39.9633 37.2067H34.3154V49.7293H39.9633V37.2067Z" fill="#E6E6E6"/>
<path d="M60.2625 49.7294H35.3994V50.5225H60.2625V49.7294Z" fill="#E6E6E6"/>
<path d="M39.9618 49.7294H61.3467V37.2068H39.9618V49.7294Z" fill="#F5F5F5"/>
<path d="M42.1842 42.8546H59.1279V38.7483H42.1842V42.8546Z" fill="#E6E6E6"/>
<path d="M42.1842 48.1863H59.1279V44.08H42.1842V48.1863Z" fill="#E6E6E6"/>
<path d="M53.1957 40.5199H48.1156C47.9784 40.5199 47.8672 40.6311 47.8672 40.7683V40.8347C47.8672 40.9719 47.9784 41.0831 48.1156 41.0831H53.1957C53.3329 41.0831 53.4441 40.9719 53.4441 40.8347V40.7683C53.4441 40.6311 53.3329 40.5199 53.1957 40.5199Z" fill="#F5F5F5"/>
<path d="M53.1957 45.8529H48.1156C47.9784 45.8529 47.8672 45.9641 47.8672 46.1013V46.1677C47.8672 46.3049 47.9784 46.4162 48.1156 46.4162H53.1957C53.3329 46.4162 53.4441 46.3049 53.4441 46.1677V46.1013C53.4441 45.9641 53.3329 45.8529 53.1957 45.8529Z" fill="#F5F5F5"/>
<path d="M23.0472 50.5226H11.0153L9.35645 10.6061H21.3883L23.0472 50.5226Z" fill="#E6E6E6"/>
<path d="M24.7894 50.5226H11.3239L9.66504 10.6061H23.1305L24.7894 50.5226Z" fill="#F5F5F5"/>
<path d="M12.6545 49.1338L11.1113 11.995H21.7991L23.3438 49.1338H12.6545Z" fill="white"/>
<path d="M44.8902 35.2747C45.0445 31.0588 45.1988 25.218 44.8732 23.1039L44.3408 22.6919C44.3408 22.6919 44.4566 23.0854 44.5183 29.545C44.58 36.0046 44.6556 34.3148 44.5908 35.2747H44.8902Z" fill="#E0E0E0"/>
<path d="M45.8807 21.3093C46.8652 19.9744 48.9377 19.0254 51.0842 19.03C51.9267 19.03 48.575 20.5824 47.2186 22.2938C46.1646 23.6224 45.0027 25.8585 44.623 27.0991C44.8051 24.4881 44.9008 22.6425 45.8807 21.3093Z" fill="#E0E0E0"/>
<path d="M43.906 24.7861C43.0017 23.3973 40.9879 22.3279 38.846 22.2075C38.005 22.1597 41.2595 23.905 42.5141 25.6904C43.4878 27.0792 44.5201 29.3785 44.8288 30.6408C44.7948 28.0236 44.8118 26.1765 43.906 24.7861Z" fill="#E0E0E0"/>
<path d="M44.3104 19.0811C43.4864 17.4608 41.5636 15.8976 39.4727 15.2618C38.6502 15.0118 42.0559 17.8636 43.0296 20.0456C43.7857 21.743 44.7024 23.8757 44.9431 25.2228C45.0326 22.5655 45.1329 20.703 44.3104 19.0811Z" fill="#E0E0E0"/>
<path d="M44.692 37.2067C45.1931 37.2067 45.6751 37.0148 46.039 36.6704C46.4029 36.326 46.6211 35.8552 46.6487 35.355L46.8216 32.3458H42.5625L42.7369 35.355C42.7641 35.8551 42.982 36.3258 43.3456 36.6703C43.7093 37.0147 44.1911 37.2067 44.692 37.2067V37.2067Z" fill="#F0F0F0"/>
<path d="M42.2873 33.0326H47.0973L47.2346 31.7842H42.1484L42.2873 33.0326Z" fill="#EBEBEB"/>
<path d="M62.7358 12.3699H65.9209V3.72827H62.7358V12.3699Z" fill="#E6E6E6"/>
<path d="M62.7359 3.72974H61.1572V11.6769H62.7359V3.72974Z" fill="#F5F5F5"/>
<path d="M57.9722 12.3699H61.1572V3.72827H57.9722V12.3699Z" fill="#E6E6E6"/>
<path d="M57.9722 3.72974H56.3936V11.6769H57.9722V3.72974Z" fill="#F5F5F5"/>
<path d="M53.2085 12.3699H56.3936V3.72827H53.2085V12.3699Z" fill="#E6E6E6"/>
<path d="M53.2085 3.72974H51.6299V11.6769H53.2085V3.72974Z" fill="#F5F5F5"/>
<path d="M48.4429 12.3699H51.6279V3.72827H48.4429V12.3699Z" fill="#E6E6E6"/>
<path d="M48.4429 3.72974H46.8643V11.6769H48.4429V3.72974Z" fill="#F5F5F5"/>
<path d="M43.6812 12.3699H46.8662V3.72827H43.6812V12.3699Z" fill="#E6E6E6"/>
<path d="M43.6792 3.72974H42.1006V11.6769H43.6792V3.72974Z" fill="#F5F5F5"/>
<path d="M38.9155 12.3699H42.1006V3.72827H38.9155V12.3699Z" fill="#E6E6E6"/>
<path d="M38.9156 3.72974H37.3369V11.6769H38.9156V3.72974Z" fill="#F5F5F5"/>
<path d="M34.1519 12.3699H37.3369V3.72827H34.1519V12.3699Z" fill="#E6E6E6"/>
<path d="M34.1519 3.72974H32.5732V11.6769H34.1519V3.72974Z" fill="#F5F5F5"/>
<path d="M29.3882 12.3699H32.5732V3.72827H29.3882V12.3699Z" fill="#E6E6E6"/>
<path d="M39.5011 57.4914C56.0254 57.4914 69.4211 56.7093 69.4211 55.7445C69.4211 54.7798 56.0254 53.9977 39.5011 53.9977C22.9767 53.9977 9.58105 54.7798 9.58105 55.7445C9.58105 56.7093 22.9767 57.4914 39.5011 57.4914Z" fill="#F5F5F5"/>
<path d="M55.3057 25.3892L55.9615 26.3922L56.9368 26.1901L56.2007 24.9432L55.3057 25.3892Z" fill="#9F5B53"/>
<path d="M57.1648 16.7925C57.3037 16.9607 57.4194 17.1104 57.5382 17.2739C57.6571 17.4375 57.7713 17.5949 57.8839 17.7585C58.1092 18.0841 58.3237 18.419 58.5243 18.7631C58.7249 19.1072 58.9194 19.459 59.0891 19.8278C59.1801 20.0084 59.2573 20.1997 59.3406 20.3865C59.424 20.5732 59.4949 20.7692 59.5551 20.9713L59.6045 21.1256L59.6292 21.2012C59.6431 21.246 59.657 21.2938 59.6662 21.3386C59.7002 21.4988 59.7116 21.6629 59.7002 21.8262C59.6798 22.0821 59.6242 22.3339 59.5351 22.5746C59.384 22.9758 59.1905 23.3596 58.9579 23.7197C58.5245 24.388 58.0218 25.0087 57.458 25.5714L56.7836 25.0437C57.1545 24.4109 57.4934 23.7599 57.799 23.0931C57.9394 22.7888 58.0515 22.4721 58.1339 22.1472C58.1646 22.0252 58.1787 21.8995 58.1756 21.7737C58.1754 21.7471 58.1696 21.7208 58.1586 21.6966L58.1339 21.6379L58.083 21.5207C57.7941 20.8715 57.4535 20.2466 57.0645 19.6519C56.8701 19.3433 56.6648 19.0455 56.458 18.7446C56.2513 18.4436 56.026 18.1427 55.8223 17.8696L57.1648 16.7925Z" fill="#9F5B53"/>
<path d="M56.7838 16.0333C57.8471 16.2771 59.0661 19.1736 59.0661 19.1736L56.9381 20.6365C56.4069 19.8752 55.9353 19.074 55.5277 18.24C54.8966 16.9144 55.7036 15.7848 56.7838 16.0333Z" fill="#407BFF"/>
<path opacity="0.8" d="M56.7838 16.0333C57.8471 16.2771 59.0661 19.1736 59.0661 19.1736L56.9381 20.6365C56.4069 19.8752 55.9353 19.074 55.5277 18.24C54.8966 16.9144 55.7036 15.7848 56.7838 16.0333Z" fill="white"/>
<path d="M56.0273 17.8804L57.0366 20.567L56.9363 20.6364C56.9363 20.6364 56.4995 20.0192 56.0273 19.1967V17.8804Z" fill="#407BFF"/>
<path opacity="0.6" d="M56.0273 17.8804L57.0366 20.567L56.9363 20.6364C56.9363 20.6364 56.4995 20.0192 56.0273 19.1967V17.8804Z" fill="white"/>
<path d="M53.3338 54.7261H52.1996L52.0869 52.1012H53.2211L53.3338 54.7261Z" fill="#9F5B53"/>
<path d="M60.1402 54.7261H59.0059L58.4365 52.1012H59.5692L60.1402 54.7261Z" fill="#9F5B53"/>
<path d="M52.0869 52.1028L52.1456 53.4546H53.2798L53.2211 52.1028H52.0869Z" fill="#8A4743"/>
<path d="M59.5707 52.1028H58.4365L58.7297 53.4546H59.8639L59.5707 52.1028Z" fill="#8A4743"/>
<path d="M52.5215 25.8909C52.5215 25.8909 53.8085 34.5541 54.5137 37.7994C55.2853 41.3486 58.2018 53.1938 58.2018 53.1938H60.2789C60.2789 53.1938 58.3561 41.6403 57.9148 38.1157C57.4364 34.2964 56.4349 25.8848 56.4349 25.8848L52.5215 25.8909Z" fill="#407BFF"/>
<path opacity="0.5" d="M52.5215 25.8909C52.5215 25.8909 53.8085 34.5541 54.5137 37.7994C55.2853 41.3486 58.2018 53.1938 58.2018 53.1938H60.2789C60.2789 53.1938 58.3561 41.6403 57.9148 38.1157C57.4364 34.2964 56.4349 25.8848 56.4349 25.8848L52.5215 25.8909Z" fill="black"/>
<path opacity="0.4" d="M53.3349 28.9773C54.8224 29.2689 54.665 34.8165 54.486 37.6698C54.057 35.6529 53.429 31.7719 53 29.0174C53.1038 28.9662 53.2219 28.9521 53.3349 28.9773V28.9773Z" fill="black"/>
<path d="M50.3713 25.8909C50.3713 25.8909 50.217 34.3658 50.3389 37.824C50.467 41.4195 51.7277 53.1937 51.7277 53.1937H53.6474C53.6474 53.1937 53.7184 41.6294 53.8017 38.0987C53.8943 34.2485 54.3588 25.8909 54.3588 25.8909H50.3713Z" fill="#407BFF"/>
<path opacity="0.5" d="M50.3713 25.8909C50.3713 25.8909 50.217 34.3658 50.3389 37.824C50.467 41.4195 51.7277 53.1937 51.7277 53.1937H53.6474C53.6474 53.1937 53.7184 41.6294 53.8017 38.0987C53.8943 34.2485 54.3588 25.8909 54.3588 25.8909H50.3713Z" fill="black"/>
<path d="M57.0289 24.8015L56.2002 24.9435L56.9363 26.1903C56.9363 26.1903 57.5134 25.9126 57.6183 25.374L57.0289 24.8015Z" fill="#9F5B53"/>
<path d="M51.553 11.8205C51.553 11.9116 51.5051 11.9856 51.4449 11.9856C51.3847 11.9856 51.3369 11.9116 51.3369 11.8205C51.3369 11.7295 51.3847 11.6554 51.4449 11.6554C51.5051 11.6554 51.553 11.7279 51.553 11.8205Z" fill="#263238"/>
<path d="M51.5119 11.9856C51.4027 12.2651 51.2557 12.5283 51.0752 12.768C51.1376 12.8126 51.2091 12.8431 51.2845 12.8572C51.3599 12.8713 51.4376 12.8688 51.5119 12.8498V11.9856Z" fill="#892B29"/>
<path d="M51.8772 11.3143C51.866 11.3145 51.8551 11.3106 51.8464 11.3035C51.7927 11.2623 51.73 11.2344 51.6635 11.2224C51.5969 11.2103 51.5284 11.2143 51.4637 11.2341C51.4572 11.2365 51.4503 11.2377 51.4434 11.2375C51.4364 11.2373 51.4296 11.2357 51.4233 11.2328C51.417 11.2299 51.4113 11.2258 51.4066 11.2208C51.4019 11.2157 51.3982 11.2097 51.3958 11.2032C51.393 11.1967 51.3916 11.1898 51.3916 11.1827C51.3916 11.1757 51.393 11.1688 51.3957 11.1623C51.3985 11.1558 51.4025 11.1499 51.4075 11.145C51.4126 11.1401 51.4185 11.1363 51.4251 11.1338C51.5063 11.1076 51.5927 11.1014 51.6769 11.116C51.761 11.1305 51.8403 11.1652 51.9081 11.2171C51.914 11.2209 51.9191 11.226 51.9229 11.2319C51.9268 11.2378 51.9294 11.2445 51.9306 11.2514C51.9317 11.2584 51.9314 11.2655 51.9297 11.2724C51.9279 11.2792 51.9248 11.2856 51.9205 11.2912C51.9159 11.2985 51.9095 11.3044 51.9019 11.3085C51.8943 11.3125 51.8858 11.3146 51.8772 11.3143V11.3143Z" fill="#263238"/>
<path d="M54.5042 12.8744C54.3407 13.7046 54.1786 15.2231 54.7589 15.777C54.7589 15.777 54.532 16.6181 52.9904 16.6181C51.293 16.6181 52.1818 15.777 52.1818 15.777C53.1077 15.5564 53.083 14.8697 52.921 14.2262L54.5042 12.8744Z" fill="#9F5B53"/>
<path d="M54.9812 16.0657C55.1031 15.8003 55.2358 15.4948 54.9596 15.3991C54.6509 15.2941 52.989 15.1877 52.4149 15.3837C52.3392 15.4046 52.2684 15.4404 52.2066 15.489C52.1448 15.5375 52.0932 15.5979 52.0549 15.6665C52.0166 15.7351 51.9923 15.8106 51.9833 15.8887C51.9744 15.9667 51.9811 16.0458 52.0029 16.1213L54.9812 16.0657Z" fill="#407BFF"/>
<path d="M58.5514 54.7816C58.5035 54.788 58.4548 54.7847 58.4081 54.772C58.3615 54.7593 58.3179 54.7373 58.2798 54.7075C58.2662 54.689 58.2588 54.6665 58.2588 54.6435C58.2588 54.6204 58.2662 54.598 58.2798 54.5794C58.2883 54.5635 58.3002 54.5496 58.3145 54.5387C58.3289 54.5277 58.3455 54.5201 58.3632 54.5162C58.5298 54.4791 58.8415 54.6921 58.8554 54.7013C58.8597 54.7045 58.8629 54.7087 58.8649 54.7137C58.8668 54.7186 58.8672 54.7239 58.8662 54.7291C58.8653 54.7341 58.8629 54.7387 58.8594 54.7423C58.8558 54.7459 58.8512 54.7483 58.8462 54.7492C58.7493 54.7701 58.6505 54.7809 58.5514 54.7816V54.7816ZM58.411 54.5655H58.377C58.3666 54.5677 58.3567 54.5721 58.3482 54.5785C58.3397 54.5849 58.3327 54.5932 58.3277 54.6026C58.303 54.6458 58.3184 54.6643 58.3277 54.6705C58.3755 54.7353 58.607 54.7353 58.7767 54.7075C58.6667 54.6345 58.5417 54.5871 58.411 54.5686V54.5655Z" fill="#407BFF"/>
<path d="M58.8408 54.754H58.8285C58.7112 54.6892 58.4844 54.4454 58.5075 54.3158C58.5114 54.2958 58.5222 54.2777 58.538 54.2648C58.5537 54.2518 58.5735 54.2448 58.5939 54.2448C58.6143 54.2426 58.6348 54.2445 58.6544 54.2503C58.674 54.2561 58.6923 54.2658 58.7081 54.2787C58.8393 54.3868 58.8624 54.7139 58.8624 54.7278C58.8631 54.7327 58.8622 54.7376 58.86 54.742C58.8578 54.7464 58.8544 54.7501 58.8501 54.7525C58.8471 54.7537 58.844 54.7542 58.8408 54.754ZM58.6124 54.2911H58.6001C58.5646 54.2911 58.5615 54.3127 58.56 54.3189C58.5461 54.3945 58.6911 54.5812 58.8069 54.6691C58.7988 54.5403 58.7526 54.4168 58.6742 54.3142C58.6564 54.3008 58.6347 54.2937 58.6124 54.2942V54.2911Z" fill="#407BFF"/>
<path d="M51.7441 54.7817C51.5991 54.7817 51.4586 54.7616 51.4108 54.6968C51.3989 54.6796 51.3926 54.6591 51.3926 54.6382C51.3926 54.6172 51.3989 54.5968 51.4108 54.5795C51.4197 54.5636 51.4319 54.5498 51.4465 54.5388C51.4611 54.5279 51.4779 54.5203 51.4957 54.5163C51.6824 54.4653 52.0805 54.6906 52.0975 54.6999C52.102 54.7028 52.1056 54.707 52.1078 54.712C52.11 54.7169 52.1107 54.7224 52.1099 54.7277C52.1092 54.7332 52.1067 54.7383 52.1028 54.7422C52.0989 54.7461 52.0938 54.7486 52.0883 54.7493C51.9748 54.7707 51.8596 54.7816 51.7441 54.7817V54.7817ZM51.5636 54.5626C51.5467 54.5601 51.5295 54.5601 51.5127 54.5626C51.5018 54.5647 51.4915 54.5691 51.4825 54.5755C51.4734 54.5819 51.4658 54.5901 51.4602 54.5996C51.4417 54.6336 51.4478 54.649 51.4602 54.6582C51.5127 54.7292 51.7981 54.7339 52.0111 54.7045C51.8724 54.6296 51.7204 54.5825 51.5636 54.5657V54.5626Z" fill="#407BFF"/>
<path d="M52.0867 54.7539H52.0759C51.9385 54.6937 51.6685 54.4453 51.6886 54.3203C51.6886 54.2894 51.7148 54.2524 51.7889 54.2447C51.8164 54.2405 51.8445 54.2425 51.8712 54.2505C51.8979 54.2585 51.9225 54.2723 51.9432 54.291C52.0882 54.4083 52.1175 54.7138 52.1191 54.7277C52.1197 54.7324 52.119 54.7372 52.1171 54.7415C52.1152 54.7459 52.1122 54.7496 52.1083 54.7524C52.105 54.7542 52.1014 54.7552 52.0977 54.7555C52.0939 54.7558 52.0902 54.7552 52.0867 54.7539ZM51.8105 54.291H51.7935C51.7457 54.291 51.7426 54.3157 51.741 54.3218C51.7287 54.399 51.9139 54.5919 52.0497 54.6752C52.0363 54.5456 51.9823 54.4235 51.8953 54.3265C51.8717 54.3061 51.8417 54.2947 51.8105 54.2941V54.291Z" fill="#407BFF"/>
<path d="M58.9255 54.595H60.1986C60.2214 54.5951 60.2434 54.603 60.261 54.6173C60.2787 54.6316 60.291 54.6515 60.2959 54.6737L60.5196 55.6813C60.5247 55.7059 60.5242 55.7313 60.5182 55.7556C60.5121 55.7799 60.5007 55.8026 60.4846 55.8218C60.4686 55.8411 60.4485 55.8565 60.4257 55.8669C60.4029 55.8773 60.378 55.8825 60.3529 55.882C59.9085 55.8742 59.6925 55.848 59.1323 55.848C58.7882 55.848 58.0784 55.885 57.6015 55.885C57.1247 55.885 57.0645 55.4221 57.2589 55.3712C58.1324 55.1798 58.4611 54.9159 58.7419 54.666C58.7919 54.6199 58.8576 54.5945 58.9255 54.595V54.595Z" fill="#263238"/>
<path d="M52.2069 54.595H53.4415C53.4642 54.5951 53.4862 54.603 53.5038 54.6173C53.5215 54.6316 53.5338 54.6515 53.5387 54.6737L53.7624 55.6813C53.7678 55.7057 53.7676 55.7309 53.7618 55.7551C53.756 55.7793 53.7449 55.8019 53.7291 55.8212C53.7134 55.8405 53.6935 55.856 53.671 55.8665C53.6484 55.877 53.6237 55.8823 53.5989 55.882C53.1529 55.8742 52.5079 55.848 51.9462 55.848C51.2903 55.848 50.7224 55.885 49.9524 55.885C49.4895 55.885 49.3583 55.4221 49.5527 55.3712C50.44 55.1767 51.1638 55.1567 51.9307 54.6845C52.0124 54.6289 52.1082 54.5979 52.2069 54.595V54.595Z" fill="#263238"/>
<path d="M50.5881 18.3527C50.139 19.0162 49.6745 19.635 49.173 20.2492C48.6721 20.8697 48.1363 21.4611 47.5682 22.0207L47.3459 22.2306L47.2888 22.283L47.2503 22.3185L47.1932 22.3679C47.1199 22.4257 47.0419 22.4773 46.9602 22.5222C46.6997 22.6593 46.413 22.7392 46.1191 22.7568C45.6707 22.7847 45.2207 22.7478 44.7828 22.6472C43.9894 22.4715 43.22 22.2011 42.4912 21.8417L42.7736 21.0393C43.4968 21.1831 44.228 21.2826 44.9633 21.3371C45.2863 21.3634 45.6112 21.3499 45.9309 21.297C46.0226 21.2837 46.1101 21.25 46.187 21.1982C46.187 21.1982 46.187 21.1874 46.187 21.1874L46.1978 21.1751L46.2441 21.1241L46.4262 20.9235C46.9092 20.3726 47.3768 19.7878 47.8305 19.1875C48.2842 18.5872 48.7379 17.9761 49.1715 17.3759L50.5881 18.3527Z" fill="#9F5B53"/>
<path d="M51.1119 18.5302C50.9541 19.4875 50.5403 20.3844 49.9144 21.1257C49.8897 20.5825 49.8805 20.0949 49.882 19.6582L51.1119 18.5302Z" fill="#BED3FC"/>
<path d="M54.602 11.6262C54.5341 12.7496 54.5511 13.41 53.9847 13.9872C53.1314 14.8544 51.7456 14.339 51.4771 13.2156C51.2364 12.2064 51.3892 10.5398 52.4894 10.0923C52.7314 9.99284 52.9949 9.95695 53.2546 9.98803C53.5144 10.0191 53.762 10.1161 53.9737 10.2698C54.1854 10.4236 54.3543 10.6289 54.4642 10.8663C54.5742 11.1037 54.6216 11.3653 54.602 11.6262V11.6262Z" fill="#9F5B53"/>
<path d="M52.4201 10.8792C52.4293 12.2002 52.8583 13.8205 54.136 13.7078C54.9848 13.6337 55.6298 12.086 55.7177 11.4301C55.852 10.4271 55.8721 10.2357 55.3073 10.12C55.5542 9.98574 55.6437 9.34843 55.0665 9.19411C54.2641 8.9827 52.7518 8.77592 53.2271 8.28674C52.2796 8.45803 52.042 8.83765 52.2148 9.29905C51.6608 9.25584 51.3198 8.96573 51.3368 8.52747C50.4186 8.89937 49.8229 11.0027 52.4201 10.8792Z" fill="#263238"/>
<path d="M53.0804 11.9532C53.0178 12.2257 52.867 12.4698 52.6514 12.6477C52.3659 12.8791 52.1375 12.6724 52.1437 12.339C52.1437 12.0381 52.3073 11.5551 52.6282 11.4533C52.9492 11.3514 53.1591 11.6246 53.0804 11.9532Z" fill="#9F5B53"/>
<path d="M56.1667 10.35C56.0156 10.2538 55.843 10.1967 55.6645 10.1838C55.4859 10.1708 55.3069 10.2025 55.1436 10.2759C55.1436 10.2759 55.7855 9.4133 56.1667 10.35Z" fill="#263238"/>
<path d="M57.8645 52.4283C57.8553 52.4283 58.079 53.2262 58.079 53.2262H60.4154L60.3721 52.5148L57.8645 52.4283Z" fill="#407BFF"/>
<path d="M51.354 52.4283C51.3448 52.4283 51.4621 53.2262 51.4621 53.2262H53.7984L53.8616 52.5148L51.354 52.4283Z" fill="#407BFF"/>
<path d="M52.1225 51.8143C52.1179 51.8143 52.1134 51.8125 52.1099 51.8094C52.1065 51.8062 52.1044 51.8019 52.104 51.7973C51.7645 48.5382 50.9667 40.6527 50.8695 37.8241C50.7661 34.9369 50.8602 28.4588 50.8911 26.5422C50.8911 26.5314 50.9003 26.5252 50.9111 26.5237C50.9159 26.524 50.9204 26.5261 50.9238 26.5295C50.9272 26.5329 50.9293 26.5374 50.9297 26.5422C50.8988 28.4588 50.8047 34.9369 50.9081 37.8226C51.0084 40.6512 51.8062 48.5335 52.1426 51.7927C52.1426 51.7979 52.1408 51.803 52.1374 51.8069C52.134 51.8109 52.1292 51.8135 52.124 51.8143H52.1225Z" fill="#407BFF"/>
<path opacity="0.3" d="M52.1225 51.8143C52.1179 51.8143 52.1134 51.8125 52.1099 51.8094C52.1065 51.8062 52.1044 51.8019 52.104 51.7973C51.7645 48.5382 50.9667 40.6527 50.8695 37.8241C50.7661 34.9369 50.8602 28.4588 50.8911 26.5422C50.8911 26.5314 50.9003 26.5252 50.9111 26.5237C50.9159 26.524 50.9204 26.5261 50.9238 26.5295C50.9272 26.5329 50.9293 26.5374 50.9297 26.5422C50.8988 28.4588 50.8047 34.9369 50.9081 37.8226C51.0084 40.6512 51.8062 48.5335 52.1426 51.7927C52.1426 51.7979 52.1408 51.803 52.1374 51.8069C52.134 51.8109 52.1292 51.8135 52.124 51.8143H52.1225Z" fill="black"/>
<path d="M51.6348 17.0101C51.7891 18.0903 49.6689 20.8263 49.6689 20.8263L47.5439 19.3634C47.5439 19.3634 48.1334 17.8526 49.1257 16.862C50.2583 15.7401 51.4712 15.8419 51.6348 17.0101Z" fill="#407BFF"/>
<path opacity="0.8" d="M51.6348 17.0101C51.7891 18.0903 49.6689 20.8263 49.6689 20.8263L47.5439 19.3634C47.5439 19.3634 48.1334 17.8526 49.1257 16.862C50.2583 15.7401 51.4712 15.8419 51.6348 17.0101Z" fill="white"/>
<path d="M50.4389 16.092C50.4389 16.092 49.2321 17.4546 50.371 25.8909H56.4355C56.4772 24.965 55.8923 20.4189 56.7889 16.0333C56.1187 15.9043 55.4409 15.8187 54.7597 15.7772C53.9014 15.7278 53.0409 15.7278 52.1826 15.7772C51.594 15.8365 51.011 15.9417 50.4389 16.092V16.092Z" fill="#407BFF"/>
<path opacity="0.8" d="M50.4389 16.092C50.4389 16.092 49.2321 17.4546 50.371 25.8909H56.4355C56.4772 24.965 55.8923 20.4189 56.7889 16.0333C56.1187 15.9043 55.4409 15.8187 54.7597 15.7772C53.9014 15.7278 53.0409 15.7278 52.1826 15.7772C51.594 15.8365 51.011 15.9417 50.4389 16.092V16.092Z" fill="white"/>
<path d="M32.596 9.89835C33.0803 7.7649 31.7435 5.64277 29.61 5.15846C27.4765 4.67414 25.3544 6.01103 24.8701 8.14448C24.3858 10.2779 25.7227 12.4001 27.8561 12.8844C29.9896 13.3687 32.1117 12.0318 32.596 9.89835Z" fill="#407BFF"/>
<path opacity="0.2" d="M32.596 9.89835C33.0803 7.7649 31.7435 5.64277 29.61 5.15846C27.4765 4.67414 25.3544 6.01103 24.8701 8.14448C24.3858 10.2779 25.7227 12.4001 27.8561 12.8844C29.9896 13.3687 32.1117 12.0318 32.596 9.89835Z" fill="white"/>
<path d="M28.3257 14.1583C27.3011 14.0792 26.3239 13.6941 25.5208 13.053C24.7176 12.4119 24.1255 11.5443 23.8213 10.5628L23.9679 10.5165C24.2632 11.4686 24.8377 12.3101 25.6169 12.932C26.3961 13.5538 27.3441 13.9273 28.3381 14.004L28.3257 14.1583Z" fill="#407BFF"/>
<path opacity="0.2" d="M28.3257 14.1583C27.3011 14.0792 26.3239 13.6941 25.5208 13.053C24.7176 12.4119 24.1255 11.5443 23.8213 10.5628L23.9679 10.5165C24.2632 11.4686 24.8377 12.3101 25.6169 12.932C26.3961 13.5538 27.3441 13.9273 28.3381 14.004L28.3257 14.1583Z" fill="white"/>
<path d="M23.9463 7.5953L23.792 7.5521C23.9909 6.88744 24.322 6.26982 24.7655 5.73629C25.209 5.20276 25.7557 4.76432 26.3728 4.44727C26.9899 4.13021 27.6647 3.94109 28.3567 3.89124C29.0486 3.8414 29.7436 3.93185 30.3997 4.15718L30.3504 4.30378C29.7134 4.08542 29.0389 3.99797 28.3673 4.04667C27.6958 4.09536 27.041 4.27921 26.4422 4.58717C25.8434 4.89514 25.313 5.32087 24.8828 5.83884C24.4526 6.35681 24.1314 6.95635 23.9386 7.60148L23.9463 7.5953Z" fill="#407BFF"/>
<path opacity="0.2" d="M23.9463 7.5953L23.792 7.5521C23.9909 6.88744 24.322 6.26982 24.7655 5.73629C25.209 5.20276 25.7557 4.76432 26.3728 4.44727C26.9899 4.13021 27.6647 3.94109 28.3567 3.89124C29.0486 3.8414 29.7436 3.93185 30.3997 4.15718L30.3504 4.30378C29.7134 4.08542 29.0389 3.99797 28.3673 4.04667C27.6958 4.09536 27.041 4.27921 26.4422 4.58717C25.8434 4.89514 25.313 5.32087 24.8828 5.83884C24.4526 6.35681 24.1314 6.95635 23.9386 7.60148L23.9463 7.5953Z" fill="white"/>
<path d="M33.5032 7.52884C33.1424 6.37509 32.3746 5.39177 31.3428 4.76198L31.423 4.62927C32.4857 5.27966 33.2763 6.29346 33.6482 7.48254L33.5032 7.52884Z" fill="#407BFF"/>
<path opacity="0.2" d="M33.5032 7.52884C33.1424 6.37509 32.3746 5.39177 31.3428 4.76198L31.423 4.62927C32.4857 5.27966 33.2763 6.29346 33.6482 7.48254L33.5032 7.52884Z" fill="white"/>
<path d="M32.598 20.833C33.0823 18.6996 31.7454 16.5775 29.6119 16.0931C27.4785 15.6088 25.3564 16.9457 24.8721 19.0792C24.3877 21.2126 25.7246 23.3348 27.8581 23.8191C29.9915 24.3034 32.1137 22.9665 32.598 20.833Z" fill="#407BFF"/>
<path opacity="0.6" d="M32.598 20.833C33.0823 18.6996 31.7454 16.5775 29.6119 16.0931C27.4785 15.6088 25.3564 16.9457 24.8721 19.0792C24.3877 21.2126 25.7246 23.3348 27.8581 23.8191C29.9915 24.3034 32.1137 22.9665 32.598 20.833Z" fill="white"/>
<path d="M32.596 31.7672C33.0803 29.6338 31.7435 27.5117 29.61 27.0274C27.4765 26.543 25.3544 27.8799 24.8701 30.0134C24.3858 32.1468 25.7227 34.269 27.8561 34.7533C29.9896 35.2376 32.1117 33.9007 32.596 31.7672Z" fill="#407BFF"/>
<path opacity="0.6" d="M32.596 31.7672C33.0803 29.6338 31.7435 27.5117 29.61 27.0274C27.4765 26.543 25.3544 27.8799 24.8701 30.0134C24.3858 32.1468 25.7227 34.269 27.8561 34.7533C29.9896 35.2376 32.1117 33.9007 32.596 31.7672Z" fill="white"/>
<path d="M32.597 42.7034C33.0813 40.57 31.7444 38.4478 29.611 37.9635C27.4775 37.4792 25.3554 38.8161 24.8711 40.9495C24.3868 43.083 25.7236 45.2051 27.8571 45.6894C29.9906 46.1738 32.1127 44.8369 32.597 42.7034Z" fill="#407BFF"/>
<path opacity="0.6" d="M32.597 42.7034C33.0813 40.57 31.7444 38.4478 29.611 37.9635C27.4775 37.4792 25.3554 38.8161 24.8711 40.9495C24.3868 43.083 25.7236 45.2051 27.8571 45.6894C29.9906 46.1738 32.1127 44.8369 32.597 42.7034Z" fill="white"/>
<path d="M21.6615 9.89713C22.1458 7.76368 20.8089 5.64155 18.6754 5.15723C16.542 4.67292 14.4198 6.00981 13.9355 8.14326C13.4512 10.2767 14.7881 12.3988 16.9216 12.8832C19.055 13.3675 21.1771 12.0306 21.6615 9.89713Z" fill="#407BFF"/>
<path opacity="0.6" d="M21.6615 9.89713C22.1458 7.76368 20.8089 5.64155 18.6754 5.15723C16.542 4.67292 14.4198 6.00981 13.9355 8.14326C13.4512 10.2767 14.7881 12.3988 16.9216 12.8832C19.055 13.3675 21.1771 12.0306 21.6615 9.89713Z" fill="white"/>
<path d="M21.6634 20.8332C22.1477 18.6997 20.8108 16.5776 18.6774 16.0933C16.5439 15.609 14.4218 16.9458 13.9375 19.0793C13.4532 21.2128 14.7901 23.3349 16.9235 23.8192C19.057 24.3035 21.1791 22.9666 21.6634 20.8332Z" fill="#407BFF"/>
<path opacity="0.6" d="M21.6634 20.8332C22.1477 18.6997 20.8108 16.5776 18.6774 16.0933C16.5439 15.609 14.4218 16.9458 13.9375 19.0793C13.4532 21.2128 14.7901 23.3349 16.9235 23.8192C19.057 24.3035 21.1791 22.9666 21.6634 20.8332Z" fill="white"/>
<path d="M21.6624 31.7676C22.1467 29.6342 20.8099 27.512 18.6764 27.0277C16.5429 26.5434 14.4208 27.8803 13.9365 30.0137C13.4522 32.1472 14.7891 34.2693 16.9225 34.7536C19.056 35.238 21.1781 33.9011 21.6624 31.7676Z" fill="#407BFF"/>
<path opacity="0.6" d="M21.6624 31.7676C22.1467 29.6342 20.8099 27.512 18.6764 27.0277C16.5429 26.5434 14.4208 27.8803 13.9365 30.0137C13.4522 32.1472 14.7891 34.2693 16.9225 34.7536C19.056 35.238 21.1781 33.9011 21.6624 31.7676Z" fill="white"/>
<path d="M21.6624 42.7021C22.1467 40.5686 20.8099 38.4465 18.6764 37.9622C16.5429 37.4778 14.4208 38.8147 13.9365 40.9482C13.4522 43.0817 14.7891 45.2038 16.9225 45.6881C19.056 46.1724 21.1781 44.8355 21.6624 42.7021Z" fill="#407BFF"/>
<path opacity="0.6" d="M21.6624 42.7021C22.1467 40.5686 20.8099 38.4465 18.6764 37.9622C16.5429 37.4778 14.4208 38.8147 13.9365 40.9482C13.4522 43.0817 14.7891 45.2038 16.9225 45.6881C19.056 46.1724 21.1781 44.8355 21.6624 42.7021Z" fill="white"/>
<path d="M42.9261 21.1224L42.0943 20.2614L41.207 21.4064C41.207 21.4064 41.8829 22.0576 42.6869 21.8693L42.9261 21.1224Z" fill="#9F5B53"/>
<path d="M40.9509 19.7892L40.5713 20.9898L41.2071 21.4064L42.0944 20.2614L40.9509 19.7892Z" fill="#9F5B53"/>
<path d="M29.6251 19.854C29.6939 19.6496 29.8061 19.4626 29.954 19.3057C30.102 19.1488 30.2822 19.0258 30.4821 18.9452C30.6821 18.8645 30.8972 18.8281 31.1126 18.8385C31.328 18.8489 31.5386 18.9058 31.7299 19.0053L30.804 18.5238C30.4613 18.3506 30.1963 18.0547 30.0619 17.6949C29.9275 17.3352 29.9335 16.938 30.0787 16.5825C30.1609 16.3951 30.2807 16.2265 30.4306 16.0872C30.5805 15.9479 30.7574 15.8408 30.9503 15.7725C31.1432 15.7043 31.3481 15.6763 31.5523 15.6903C31.7564 15.7044 31.9555 15.7601 32.1373 15.8542L31.2114 15.3742C30.8683 15.201 30.6031 14.9048 30.4686 14.5447C30.3342 14.1846 30.3405 13.7871 30.4861 13.4314C30.5681 13.2424 30.6883 13.0723 30.8392 12.9319C30.9901 12.7915 31.1683 12.6838 31.3628 12.6155C31.5572 12.5473 31.7637 12.5199 31.9692 12.5353C32.1747 12.5506 32.3749 12.6083 32.557 12.7046L28.1606 10.4053C27.8372 10.2436 27.5818 9.97205 27.4405 9.63922C27.2991 9.3064 27.2808 8.93409 27.389 8.58904C27.4582 8.38478 27.5708 8.19788 27.7189 8.04115C27.867 7.88441 28.0473 7.76154 28.2473 7.68094C28.4474 7.60034 28.6625 7.56391 28.8779 7.57416C29.0933 7.58441 29.304 7.64109 29.4954 7.74031L38.7543 12.5812L37.8037 8.68008C37.7101 8.28817 37.7686 7.87532 37.9676 7.5249C38.1665 7.17448 38.491 6.9126 38.8755 6.79213C39.26 6.67166 39.6759 6.70158 40.0392 6.87585C40.4025 7.05013 40.6862 7.35576 40.8329 7.73105L43.8698 15.6196C44.1299 16.2938 44.6262 16.8505 45.2664 17.1859L45.7957 17.4621C45.8768 17.5044 45.9487 17.5623 46.0074 17.6325C46.0661 17.7027 46.1103 17.7837 46.1376 17.8711C46.1648 17.9584 46.1745 18.0502 46.1662 18.1413C46.1578 18.2324 46.1315 18.321 46.0889 18.4019L42.3853 25.4772C42.2996 25.6407 42.1525 25.7635 41.9763 25.8188C41.8002 25.874 41.6093 25.8572 41.4455 25.7719L40.1462 25.093C39.6541 24.8404 39.1026 24.7263 38.5506 24.7627C37.216 24.8373 35.8862 24.5494 34.702 23.9294L30.3812 21.6703C30.0605 21.506 29.8086 21.2334 29.6701 20.9008C29.5316 20.5682 29.5157 20.1972 29.6251 19.854V19.854Z" fill="#407BFF"/>
<path d="M41.7754 26.079C41.626 26.0791 41.4788 26.0431 41.3464 25.9741L40.047 25.2951C39.5918 25.062 39.0823 24.9554 38.5718 24.9865C37.1956 25.0636 35.8242 24.7672 34.6028 24.1285L30.282 21.8693C29.9119 21.6799 29.6209 21.3655 29.4607 20.9818C29.3005 20.5981 29.2815 20.1701 29.4071 19.7737C29.4864 19.5373 29.6162 19.3209 29.7875 19.1397C29.9589 18.9585 30.1676 18.8168 30.3993 18.7244C30.4621 18.6984 30.5265 18.6768 30.5922 18.6596C30.2314 18.4433 29.9604 18.1046 29.8284 17.7053C29.6964 17.3059 29.7122 16.8724 29.8731 16.4837C29.9664 16.2659 30.1042 16.0701 30.2778 15.9087C30.4513 15.7474 30.6567 15.6242 30.8808 15.547C30.9224 15.5332 30.9641 15.5193 31.0058 15.5085C30.6448 15.2924 30.3735 14.9538 30.2415 14.5543C30.1094 14.1549 30.1255 13.7212 30.2867 13.3326C30.3801 13.1151 30.518 12.9195 30.6916 12.7585C30.8651 12.5974 31.0704 12.4745 31.2943 12.3975C31.3329 12.3836 31.373 12.3713 31.4116 12.3605L28.0537 10.6044C27.6836 10.415 27.3926 10.1005 27.2324 9.71684C27.0722 9.33317 27.0532 8.90513 27.1788 8.50877C27.2587 8.27295 27.3886 8.05718 27.5596 7.87623C27.7307 7.69527 27.9388 7.55341 28.1697 7.46036C28.4007 7.36731 28.649 7.32525 28.8977 7.33708C29.1465 7.3489 29.3897 7.41433 29.6108 7.52888L38.4206 12.1398L37.5888 8.73407C37.4821 8.28522 37.5498 7.8126 37.7781 7.41171C38.0065 7.01083 38.3785 6.71157 38.819 6.57441C39.2595 6.43724 39.7356 6.4724 40.1512 6.67277C40.5668 6.87314 40.8908 7.22379 41.0578 7.65387L44.0947 15.5424C44.3346 16.1644 44.7926 16.6777 45.3832 16.9868L45.911 17.263C46.019 17.3193 46.1149 17.3964 46.1931 17.4898C46.2713 17.5832 46.3303 17.6912 46.3667 17.8074C46.4031 17.9237 46.4162 18.046 46.4053 18.1673C46.3944 18.2887 46.3596 18.4066 46.3029 18.5145L42.5994 25.5914C42.5195 25.74 42.4005 25.864 42.2553 25.95C42.1101 26.0359 41.9441 26.0805 41.7754 26.079V26.079ZM38.7462 24.522C39.2731 24.5191 39.793 24.6435 40.2615 24.8846L41.5609 25.5636C41.6149 25.5923 41.6741 25.61 41.735 25.6156C41.7959 25.6213 41.8574 25.6148 41.9158 25.5966C41.9742 25.5784 42.0284 25.5487 42.0753 25.5094C42.1222 25.4701 42.1608 25.4219 42.1889 25.3676L45.8925 18.2908C45.9208 18.2367 45.9382 18.1776 45.9437 18.1167C45.9491 18.0559 45.9424 17.9946 45.9241 17.9364C45.9057 17.8782 45.876 17.8241 45.8367 17.7774C45.7974 17.7307 45.7492 17.6923 45.6949 17.6642L45.1672 17.388C44.4791 17.0272 43.9459 16.4282 43.6673 15.7029L40.6288 7.81436C40.5068 7.48947 40.265 7.22362 39.9532 7.0714C39.6413 6.91917 39.283 6.89212 38.9518 6.99581C38.6206 7.09949 38.3417 7.32603 38.1723 7.62892C38.0029 7.9318 37.9559 8.28805 38.041 8.62451L38.9946 12.5271C39.0052 12.5702 39.0031 12.6154 38.9886 12.6572C38.9741 12.6991 38.9478 12.7359 38.9128 12.7632C38.878 12.7911 38.8357 12.8081 38.7913 12.8122C38.7469 12.8163 38.7022 12.8073 38.6628 12.7864L29.404 7.94552C29.2426 7.86163 29.065 7.81364 28.8833 7.80485C28.7017 7.79606 28.5203 7.82668 28.3516 7.8946C28.1807 7.96116 28.0268 8.06495 27.9011 8.19841C27.7754 8.33187 27.681 8.49166 27.6247 8.66617C27.5326 8.95883 27.5475 9.27473 27.6667 9.55742C27.786 9.84011 28.002 10.0712 28.2759 10.2093L32.6739 12.5086C32.7283 12.537 32.7692 12.5859 32.7876 12.6445C32.806 12.7032 32.8003 12.7667 32.7719 12.8211C32.7578 12.848 32.7386 12.872 32.7152 12.8915C32.6919 12.911 32.665 12.9257 32.6359 12.9348C32.5773 12.9532 32.5138 12.9475 32.4594 12.9191C32.3059 12.8394 32.1376 12.7921 31.9651 12.7802C31.7925 12.7682 31.6194 12.7919 31.4564 12.8496C31.2926 12.906 31.1425 12.996 31.0155 13.1137C30.8885 13.2314 30.7874 13.3743 30.7187 13.5332C30.5959 13.8348 30.5912 14.1716 30.7056 14.4765C30.82 14.7813 31.0451 15.0319 31.336 15.1782L32.2619 15.6597C32.3117 15.6905 32.3479 15.739 32.3634 15.7955C32.3788 15.852 32.3723 15.9122 32.3451 15.964C32.3179 16.0159 32.272 16.0555 32.2168 16.0749C32.1616 16.0943 32.101 16.0921 32.0474 16.0686V16.0686C31.894 15.9893 31.7261 15.9421 31.5538 15.9302C31.3816 15.9183 31.2087 15.9417 31.0459 15.9992C30.8821 16.0559 30.7319 16.1462 30.6049 16.2641C30.478 16.3821 30.3769 16.5252 30.3083 16.6843C30.1859 16.9857 30.1814 17.3221 30.2958 17.6267C30.4102 17.9312 30.635 18.1815 30.9255 18.3278L31.8514 18.8093C31.9058 18.8377 31.9467 18.8866 31.9651 18.9452C31.9835 19.0038 31.9778 19.0673 31.9494 19.1217C31.921 19.1762 31.872 19.2171 31.8134 19.2355C31.7548 19.2538 31.6913 19.2482 31.6369 19.2197V19.2197C31.4753 19.1365 31.2977 19.089 31.1161 19.0805C30.9345 19.0719 30.7532 19.1026 30.5845 19.1703C30.4143 19.2377 30.261 19.3417 30.1356 19.4751C30.0103 19.6085 29.9159 19.7679 29.8592 19.9419V19.9419C29.7667 20.2346 29.7814 20.5506 29.9008 20.8334C30.0201 21.1161 30.2362 21.3472 30.5104 21.4851L34.8312 23.7442C35.9761 24.336 37.2589 24.6094 38.5456 24.5359C38.6135 24.5359 38.6798 24.5251 38.7462 24.5251V24.522Z" fill="#407BFF"/>
<path d="M32.8848 19.8402C32.8471 19.8405 32.81 19.8315 32.7767 19.814L31.6302 19.2106C31.6032 19.1965 31.5793 19.1773 31.5598 19.1539C31.5403 19.1306 31.5256 19.1037 31.5165 19.0747C31.5074 19.0456 31.5041 19.0151 31.5068 18.9848C31.5095 18.9545 31.5181 18.9251 31.5322 18.8981C31.5463 18.8712 31.5655 18.8473 31.5889 18.8278C31.6122 18.8082 31.6391 18.7935 31.6681 18.7844C31.6972 18.7753 31.7277 18.772 31.758 18.7747C31.7883 18.7774 31.8177 18.7861 31.8447 18.8001L32.9974 19.4035C33.0433 19.4274 33.0798 19.4661 33.1012 19.5132C33.1226 19.5603 33.1275 19.6133 33.1153 19.6636C33.103 19.7139 33.0742 19.7586 33.0336 19.7906C32.9929 19.8226 32.9427 19.8401 32.8909 19.8402H32.8848Z" fill="#407BFF"/>
<path d="M33.2989 16.689C33.2613 16.6895 33.2242 16.6805 33.1909 16.6628L32.0382 16.0594C32.0091 16.0467 31.9829 16.0281 31.9613 16.0048C31.9396 15.9815 31.923 15.954 31.9125 15.924C31.902 15.8941 31.8977 15.8622 31.9 15.8305C31.9023 15.7988 31.9111 15.7679 31.9259 15.7398C31.9407 15.7117 31.9611 15.6868 31.9858 15.6669C32.0106 15.647 32.0392 15.6324 32.0699 15.624C32.1005 15.6157 32.1326 15.6137 32.164 15.6182C32.1955 15.6228 32.2257 15.6338 32.2527 15.6505L33.4054 16.2523C33.4513 16.2762 33.4879 16.3149 33.5092 16.362C33.5306 16.4092 33.5355 16.4621 33.5233 16.5124C33.511 16.5627 33.4823 16.6074 33.4416 16.6394C33.4009 16.6714 33.3507 16.6889 33.2989 16.689V16.689Z" fill="#407BFF"/>
<path d="M33.7107 13.5394C33.6736 13.539 33.6372 13.53 33.6042 13.5132L32.4515 12.9098C32.4245 12.8957 32.4006 12.8765 32.3811 12.8532C32.3616 12.8298 32.3469 12.8029 32.3378 12.7739C32.3287 12.7449 32.3254 12.7143 32.3281 12.684C32.3308 12.6538 32.3394 12.6243 32.3535 12.5973C32.3676 12.5704 32.3868 12.5465 32.4101 12.527C32.4335 12.5075 32.4604 12.4927 32.4894 12.4836C32.5184 12.4745 32.549 12.4712 32.5793 12.4739C32.6096 12.4766 32.639 12.4853 32.666 12.4994L33.8187 13.1027C33.8647 13.1267 33.9013 13.1655 33.9227 13.2128C33.944 13.2601 33.9488 13.3132 33.9364 13.3635C33.9239 13.4139 33.8949 13.4586 33.854 13.4905C33.813 13.5224 33.7626 13.5397 33.7107 13.5394V13.5394Z" fill="#407BFF"/>
<path opacity="0.3" d="M41.7754 26.079C41.626 26.0791 41.4788 26.0431 41.3464 25.9741L40.047 25.2951C39.5918 25.062 39.0823 24.9554 38.5718 24.9865C37.1956 25.0636 35.8242 24.7672 34.6028 24.1285L30.282 21.8693C29.9119 21.6799 29.6209 21.3655 29.4607 20.9818C29.3005 20.5981 29.2815 20.1701 29.4071 19.7737C29.4864 19.5373 29.6162 19.3209 29.7875 19.1397C29.9589 18.9585 30.1676 18.8168 30.3993 18.7244C30.4621 18.6984 30.5265 18.6768 30.5922 18.6596C30.2314 18.4433 29.9604 18.1046 29.8284 17.7053C29.6964 17.3059 29.7122 16.8724 29.8731 16.4837C29.9664 16.2659 30.1042 16.0701 30.2778 15.9087C30.4513 15.7474 30.6567 15.6242 30.8808 15.547C30.9224 15.5332 30.9641 15.5193 31.0058 15.5085C30.6448 15.2924 30.3735 14.9538 30.2415 14.5543C30.1094 14.1549 30.1255 13.7212 30.2867 13.3326C30.3801 13.1151 30.518 12.9195 30.6916 12.7585C30.8651 12.5974 31.0704 12.4745 31.2943 12.3975C31.3329 12.3836 31.373 12.3713 31.4116 12.3605L28.0537 10.6044C27.6836 10.415 27.3926 10.1005 27.2324 9.71684C27.0722 9.33317 27.0532 8.90513 27.1788 8.50877C27.2587 8.27295 27.3886 8.05718 27.5596 7.87623C27.7307 7.69527 27.9388 7.55341 28.1697 7.46036C28.4007 7.36731 28.649 7.32525 28.8977 7.33708C29.1465 7.3489 29.3897 7.41433 29.6108 7.52888L38.4206 12.1398L37.5888 8.73407C37.4821 8.28522 37.5498 7.8126 37.7781 7.41171C38.0065 7.01083 38.3785 6.71157 38.819 6.57441C39.2595 6.43724 39.7356 6.4724 40.1512 6.67277C40.5668 6.87314 40.8908 7.22379 41.0578 7.65387L44.0947 15.5424C44.3346 16.1644 44.7926 16.6777 45.3832 16.9868L45.911 17.263C46.019 17.3193 46.1149 17.3964 46.1931 17.4898C46.2713 17.5832 46.3303 17.6912 46.3667 17.8074C46.4031 17.9237 46.4162 18.046 46.4053 18.1673C46.3944 18.2887 46.3596 18.4066 46.3029 18.5145L42.5994 25.5914C42.5195 25.74 42.4005 25.864 42.2553 25.95C42.1101 26.0359 41.9441 26.0805 41.7754 26.079V26.079ZM38.7462 24.522C39.2731 24.5191 39.793 24.6435 40.2615 24.8846L41.5609 25.5636C41.6149 25.5923 41.6741 25.61 41.735 25.6156C41.7959 25.6213 41.8574 25.6148 41.9158 25.5966C41.9742 25.5784 42.0284 25.5487 42.0753 25.5094C42.1222 25.4701 42.1608 25.4219 42.1889 25.3676L45.8925 18.2908C45.9208 18.2367 45.9382 18.1776 45.9437 18.1167C45.9491 18.0559 45.9424 17.9946 45.9241 17.9364C45.9057 17.8782 45.876 17.8241 45.8367 17.7774C45.7974 17.7307 45.7492 17.6923 45.6949 17.6642L45.1672 17.388C44.4791 17.0272 43.9459 16.4282 43.6673 15.7029L40.6288 7.81436C40.5068 7.48947 40.265 7.22362 39.9532 7.0714C39.6413 6.91917 39.283 6.89212 38.9518 6.99581C38.6206 7.09949 38.3417 7.32603 38.1723 7.62892C38.0029 7.9318 37.9559 8.28805 38.041 8.62451L38.9946 12.5271C39.0052 12.5702 39.0031 12.6154 38.9886 12.6572C38.9741 12.6991 38.9478 12.7359 38.9128 12.7632C38.878 12.7911 38.8357 12.8081 38.7913 12.8122C38.7469 12.8163 38.7022 12.8073 38.6628 12.7864L29.404 7.94552C29.2426 7.86163 29.065 7.81364 28.8833 7.80485C28.7017 7.79606 28.5203 7.82668 28.3516 7.8946C28.1807 7.96116 28.0268 8.06495 27.9011 8.19841C27.7754 8.33187 27.681 8.49166 27.6247 8.66617C27.5326 8.95883 27.5475 9.27473 27.6667 9.55742C27.786 9.84011 28.002 10.0712 28.2759 10.2093L32.6739 12.5086C32.7283 12.537 32.7692 12.5859 32.7876 12.6445C32.806 12.7032 32.8003 12.7667 32.7719 12.8211C32.7578 12.848 32.7386 12.872 32.7152 12.8915C32.6919 12.911 32.665 12.9257 32.6359 12.9348C32.5773 12.9532 32.5138 12.9475 32.4594 12.9191C32.3059 12.8394 32.1376 12.7921 31.9651 12.7802C31.7925 12.7682 31.6194 12.7919 31.4564 12.8496C31.2926 12.906 31.1425 12.996 31.0155 13.1137C30.8885 13.2314 30.7874 13.3743 30.7187 13.5332C30.5959 13.8348 30.5912 14.1716 30.7056 14.4765C30.82 14.7813 31.0451 15.0319 31.336 15.1782L32.2619 15.6597C32.3117 15.6905 32.3479 15.739 32.3634 15.7955C32.3788 15.852 32.3723 15.9122 32.3451 15.964C32.3179 16.0159 32.272 16.0555 32.2168 16.0749C32.1616 16.0943 32.101 16.0921 32.0474 16.0686V16.0686C31.894 15.9893 31.7261 15.9421 31.5538 15.9302C31.3816 15.9183 31.2087 15.9417 31.0459 15.9992C30.8821 16.0559 30.7319 16.1462 30.6049 16.2641C30.478 16.3821 30.3769 16.5252 30.3083 16.6843C30.1859 16.9857 30.1814 17.3221 30.2958 17.6267C30.4102 17.9312 30.635 18.1815 30.9255 18.3278L31.8514 18.8093C31.9058 18.8377 31.9467 18.8866 31.9651 18.9452C31.9835 19.0038 31.9778 19.0673 31.9494 19.1217C31.921 19.1762 31.872 19.2171 31.8134 19.2355C31.7548 19.2538 31.6913 19.2482 31.6369 19.2197V19.2197C31.4753 19.1365 31.2977 19.089 31.1161 19.0805C30.9345 19.0719 30.7532 19.1026 30.5845 19.1703C30.4143 19.2377 30.261 19.3417 30.1356 19.4751C30.0103 19.6085 29.9159 19.7679 29.8592 19.9419V19.9419C29.7667 20.2346 29.7814 20.5506 29.9008 20.8334C30.0201 21.1161 30.2362 21.3472 30.5104 21.4851L34.8312 23.7442C35.9761 24.336 37.2589 24.6094 38.5456 24.5359C38.6135 24.5359 38.6798 24.5251 38.7462 24.5251V24.522Z" fill="black"/>
</svg>
