<svg width="27" height="20" viewBox="0 0 27 20" fill="none" xmlns="http://www.w3.org/2000/svg">
<path d="M1.875 19.375C1.35417 19.375 0.911667 19.1925 0.5475 18.8275C0.1825 18.4633 0 18.0208 0 17.5C0 16.9792 0.1825 16.5367 0.5475 16.1725C0.911667 15.8075 1.35417 15.625 1.875 15.625C2.04167 15.625 2.1875 15.6354 2.3125 15.6562C2.4375 15.6771 2.5625 15.7396 2.6875 15.8437L8.96875 9.5625C8.86458 9.4375 8.80208 9.3125 8.78125 9.1875C8.76042 9.0625 8.75 8.91667 8.75 8.75C8.75 8.22917 8.9325 7.78667 9.2975 7.4225C9.66167 7.0575 10.1042 6.875 10.625 6.875C11.1458 6.875 11.5883 7.0575 11.9525 7.4225C12.3175 7.78667 12.5 8.22917 12.5 8.75C12.5 8.85417 12.4479 9.11458 12.3438 9.53125L16.0938 13.2812C16.2188 13.2188 16.3388 13.1771 16.4538 13.1562C16.5679 13.1354 16.7083 13.125 16.875 13.125C17.0417 13.125 17.1875 13.1354 17.3125 13.1562C17.4375 13.1771 17.5521 13.2396 17.6562 13.3438L22.7188 8.28125C22.6146 8.17708 22.5521 8.0625 22.5312 7.9375C22.5104 7.8125 22.5 7.66667 22.5 7.5C22.5 6.97917 22.6825 6.53667 23.0475 6.1725C23.4117 5.8075 23.8542 5.625 24.375 5.625C24.8958 5.625 25.3383 5.8075 25.7025 6.1725C26.0675 6.53667 26.25 6.97917 26.25 7.5C26.25 8.02083 26.0675 8.46333 25.7025 8.8275C25.3383 9.1925 24.8958 9.375 24.375 9.375C24.2083 9.375 24.0625 9.36458 23.9375 9.34375C23.8125 9.32292 23.6979 9.26042 23.5938 9.15625L18.5312 14.2188C18.6354 14.3229 18.6979 14.4375 18.7188 14.5625C18.7396 14.6875 18.75 14.8333 18.75 15C18.75 15.5208 18.5675 15.9633 18.2025 16.3275C17.8383 16.6925 17.3958 16.875 16.875 16.875C16.3542 16.875 15.9117 16.6925 15.5475 16.3275C15.1825 15.9633 15 15.5208 15 15C15 14.8333 15.0104 14.6875 15.0312 14.5625C15.0521 14.4375 15.1146 14.3125 15.2188 14.1875L11.4375 10.4062C11.3125 10.5104 11.1875 10.5729 11.0625 10.5938C10.9375 10.6146 10.7917 10.625 10.625 10.625C10.5208 10.625 10.2604 10.5729 9.84375 10.4688L3.59375 16.7188C3.65625 16.8438 3.69792 16.9638 3.71875 17.0788C3.73958 17.1929 3.75 17.3333 3.75 17.5C3.75 18.0208 3.5675 18.4633 3.2025 18.8275C2.83833 19.1925 2.39583 19.375 1.875 19.375ZM16.875 4.75L16.1562 3.21875L14.625 2.5L16.1562 1.78125L16.875 0.25L17.5938 1.78125L19.125 2.5L17.5938 3.21875L16.875 4.75ZM3.125 6.46875L2.65625 5.46875L1.65625 5L2.65625 4.53125L3.125 3.53125L3.59375 4.53125L4.59375 5L3.59375 5.46875L3.125 6.46875Z" fill="#4285F8"/>
</svg>
