<svg width="44" height="44" viewBox="0 0 44 44" fill="none" xmlns="http://www.w3.org/2000/svg">
<circle cx="21.7677" cy="21.7677" r="20.7677" fill="white" stroke="#4285F8" stroke-width="2"/>
<path d="M23.715 22.9852C22.8494 22.9852 22.1178 22.6863 21.5201 22.0887C20.9224 21.491 20.6236 20.7594 20.6236 19.8938C20.6236 19.0488 20.9224 18.3225 21.5201 17.715C22.1178 17.1066 22.8494 16.8024 23.715 16.8024C24.5806 16.8024 25.3122 17.1066 25.9099 17.715C26.5075 18.3225 26.8064 19.0488 26.8064 19.8938C26.8064 20.7594 26.5075 21.491 25.9099 22.0887C25.3122 22.6863 24.5806 22.9852 23.715 22.9852ZM13.3279 26.8185V13H34.102V26.8185H13.3279ZM17.4086 24.9637H30.0214C30.0214 24.3454 30.2378 23.8198 30.6706 23.387C31.1034 22.9543 31.6289 22.7379 32.2472 22.7379V17.0806C31.6289 17.0806 31.1034 16.8589 30.6706 16.4154C30.2378 15.9727 30.0214 15.4525 30.0214 14.8548H17.4086C17.4086 15.4731 17.1922 15.9986 16.7594 16.4314C16.3266 16.8642 15.801 17.0806 15.1828 17.0806V22.7379C15.801 22.7379 16.3266 22.9543 16.7594 23.387C17.1922 23.8198 17.4086 24.3454 17.4086 24.9637ZM9 31.1464V16.6787H10.8548V29.2916H30.4233V31.1464H9Z" fill="#2F80ED"/>
</svg>
