<svg width="16" height="19" viewBox="0 0 16 19" fill="none" xmlns="http://www.w3.org/2000/svg">
<path d="M8 18.575L5.425 16H1.625C1.15833 16 0.771 15.846 0.463 15.538C0.154333 15.2293 0 14.8417 0 14.375V1.625C0 1.15833 0.154333 0.770667 0.463 0.462C0.771 0.154 1.15833 0 1.625 0H14.375C14.8417 0 15.2293 0.154 15.538 0.462C15.846 0.770667 16 1.15833 16 1.625V14.375C16 14.8417 15.846 15.2293 15.538 15.538C15.2293 15.846 14.8417 16 14.375 16H10.575L8 18.575ZM1 14.225C1.9 13.3417 2.946 12.6457 4.138 12.137C5.32933 11.629 6.61667 11.375 8 11.375C9.38333 11.375 10.671 11.629 11.863 12.137C13.0543 12.6457 14.1 13.3417 15 14.225V1.625C15 1.45833 14.9373 1.31267 14.812 1.188C14.6873 1.06267 14.5417 1 14.375 1H1.625C1.45833 1 1.31267 1.06267 1.188 1.188C1.06267 1.31267 1 1.45833 1 1.625V14.225ZM8 9.075C8.83333 9.075 9.54167 8.78333 10.125 8.2C10.7083 7.61667 11 6.90833 11 6.075C11 5.24167 10.7083 4.53333 10.125 3.95C9.54167 3.36667 8.83333 3.075 8 3.075C7.16667 3.075 6.45833 3.36667 5.875 3.95C5.29167 4.53333 5 5.24167 5 6.075C5 6.90833 5.29167 7.61667 5.875 8.2C6.45833 8.78333 7.16667 9.075 8 9.075ZM8 8.075C7.45 8.075 6.97933 7.879 6.588 7.487C6.196 7.09567 6 6.625 6 6.075C6 5.525 6.196 5.054 6.588 4.662C6.97933 4.27067 7.45 4.075 8 4.075C8.55 4.075 9.021 4.27067 9.413 4.662C9.80433 5.054 10 5.525 10 6.075C10 6.625 9.80433 7.09567 9.413 7.487C9.021 7.879 8.55 8.075 8 8.075ZM8 17.15L10.15 15H14.125C14.125 14.9667 14.125 14.9377 14.125 14.913C14.125 14.8877 14.125 14.8583 14.125 14.825C13.2417 13.9917 12.2833 13.375 11.25 12.975C10.2167 12.575 9.13333 12.375 8 12.375C6.9 12.375 5.82933 12.575 4.788 12.975C3.746 13.375 2.775 13.9833 1.875 14.8C1.875 14.8333 1.875 14.8667 1.875 14.9C1.875 14.9333 1.875 14.9667 1.875 15H5.85L8 17.15Z" fill="#1D1C1D"/>
</svg>
