<svg width="44" height="44" viewBox="0 0 44 44" fill="none" xmlns="http://www.w3.org/2000/svg">
<circle cx="21.7677" cy="21.7677" r="20.7677" fill="white" stroke="#4285F8" stroke-width="2"/>
<path d="M18.6413 32.7539C18.4641 32.9068 18.2704 32.9885 18.0603 32.999C17.8493 33.0103 17.6552 32.9286 17.4779 32.7539C17.3228 32.6011 17.2453 32.4263 17.2453 32.2298C17.2453 32.0332 17.3007 31.8476 17.4115 31.6729L22.5637 24.5971L13.9545 23.7782C13.4891 23.7345 13.1899 23.4999 13.057 23.0745C12.924 22.6482 13.0237 22.2822 13.3561 21.9764L24.3587 12.2472C24.5359 12.0944 24.7301 12.0122 24.941 12.0009C25.1511 11.9904 25.3448 12.0725 25.5221 12.2472C25.6772 12.4001 25.7547 12.5748 25.7547 12.7714C25.7547 12.9679 25.6993 13.1535 25.5885 13.3283L20.4363 20.404L29.0455 21.223C29.5109 21.2667 29.8101 21.5012 29.943 21.9267C30.076 22.353 29.9763 22.719 29.6439 23.0247L18.6413 32.7539Z" fill="#2F80ED"/>
</svg>
