<svg width="86" height="66" viewBox="0 0 86 66" fill="none" xmlns="http://www.w3.org/2000/svg">
<path d="M85.5998 58.33H0.678711V58.3724H85.5998V58.33Z" fill="#EBEBEB"/>
<path d="M77.091 61.0629H71.4658V61.1053H77.091V61.0629Z" fill="#EBEBEB"/>
<path d="M56.9339 61.5249H55.458V61.5674H56.9339V61.5249Z" fill="#EBEBEB"/>
<path d="M71.2954 59.4867H68.0361V59.5292H71.2954V59.4867Z" fill="#EBEBEB"/>
<path d="M16.9244 59.772H9.58887V59.8144H16.9244V59.772Z" fill="#EBEBEB"/>
<path d="M19.5126 59.772H18.4375V59.8144H19.5126V59.772Z" fill="#EBEBEB"/>
<path d="M38.9186 60.4888H23.0078V60.5312H38.9186V60.4888Z" fill="#EBEBEB"/>
<path d="M40.9309 50.755H8.13607C7.87916 50.7546 7.63292 50.6522 7.45142 50.4704C7.26991 50.2885 7.16797 50.0421 7.16797 49.7852V3.68494C7.17021 3.4295 7.27313 3.18526 7.4544 3.00527C7.63566 2.82528 7.88062 2.72407 8.13607 2.72363H40.9309C41.1881 2.72363 41.4348 2.82581 41.6167 3.00768C41.7985 3.18955 41.9007 3.43622 41.9007 3.69343V49.7852C41.9007 50.0424 41.7985 50.2891 41.6167 50.471C41.4348 50.6528 41.1881 50.755 40.9309 50.755ZM8.13607 2.7576C7.89042 2.75805 7.65498 2.85595 7.48144 3.02981C7.3079 3.20367 7.21043 3.43929 7.21043 3.68494V49.7852C7.21043 50.0309 7.3079 50.2665 7.48144 50.4403C7.65498 50.6142 7.89042 50.7121 8.13607 50.7125H40.9309C41.1767 50.7121 41.4123 50.6143 41.5861 50.4404C41.7599 50.2666 41.8578 50.031 41.8582 49.7852V3.68494C41.8578 3.43913 41.7599 3.20352 41.5861 3.02971C41.4123 2.8559 41.1767 2.75805 40.9309 2.7576H8.13607Z" fill="#EBEBEB"/>
<path d="M77.6696 50.755H44.8731C44.616 50.7546 44.3696 50.6522 44.1879 50.4705C44.0061 50.2887 43.9038 50.0423 43.9033 49.7852V3.68494C43.906 3.42935 44.0093 3.18511 44.1908 3.00516C44.3724 2.82522 44.6175 2.72407 44.8731 2.72363H77.6696C77.9248 2.72452 78.1693 2.82592 78.3502 3.00586C78.5311 3.18581 78.6338 3.42979 78.6361 3.68494V49.7852C78.6361 50.0418 78.5343 50.288 78.3532 50.4698C78.1721 50.6515 77.9263 50.7541 77.6696 50.755ZM44.8731 2.7576C44.6273 2.75805 44.3917 2.8559 44.2179 3.02971C44.0441 3.20352 43.9462 3.43913 43.9458 3.68494V49.7852C43.9462 50.031 44.0441 50.2666 44.2179 50.4404C44.3917 50.6143 44.6273 50.7121 44.8731 50.7125H77.6696C77.9155 50.7121 78.1511 50.6143 78.3249 50.4404C78.4987 50.2666 78.5965 50.031 78.597 49.7852V3.68494C78.5965 3.43913 78.4987 3.20352 78.3249 3.02971C78.1511 2.8559 77.9155 2.75805 77.6696 2.7576H44.8731Z" fill="#EBEBEB"/>
<path d="M44.5571 58.33H49.4639V40.8498H44.5571V58.33Z" fill="#E6E6E6"/>
<path d="M45.4881 58.3301H44.5557V56.7098H46.4647L45.4881 58.3301Z" fill="#F0F0F0"/>
<path d="M72.5522 58.33H77.459V40.8498H72.5522V58.33Z" fill="#E6E6E6"/>
<path d="M44.5576 57.9038H73.3662V40.8483H44.5576V57.9038Z" fill="#F0F0F0"/>
<path d="M63.8662 41.8622V56.9578H72.4059V41.8622H63.8662Z" fill="#E6E6E6"/>
<path d="M67.2929 42.7284H68.9811C69.357 42.7218 69.7267 42.6308 70.0627 42.462C70.3988 42.2933 70.6926 42.0511 70.9224 41.7535H65.3516C65.5816 42.0509 65.8755 42.2928 66.2115 42.4615C66.5474 42.6302 66.917 42.7215 67.2929 42.7284Z" fill="#F0F0F0"/>
<path d="M54.6904 41.8638V56.9594H63.2301V41.8638H54.6904Z" fill="#E6E6E6"/>
<path d="M58.0294 42.7284H59.7194C60.0939 42.7206 60.4619 42.6289 60.7963 42.4602C61.1308 42.2915 61.4232 42.05 61.6522 41.7535H56.0898C56.3195 42.0509 56.613 42.2929 56.9487 42.4617C57.2844 42.6304 57.6538 42.7216 58.0294 42.7284Z" fill="#F0F0F0"/>
<path d="M45.5137 41.8638V56.9594H54.0533V41.8638H45.5137Z" fill="#E6E6E6"/>
<path d="M48.8527 42.7284H50.5426C50.918 42.7213 51.287 42.63 51.6224 42.4613C51.9578 42.2926 52.251 42.0507 52.4805 41.7535H46.9131C47.1427 42.0509 47.4363 42.2929 47.772 42.4617C48.1077 42.6304 48.477 42.7216 48.8527 42.7284Z" fill="#F0F0F0"/>
<path d="M72.4334 58.3301H73.3641V56.7098H71.4551L72.4334 58.3301Z" fill="#F0F0F0"/>
<path d="M13.6967 36.3049L46.6172 36.3049V8.27587L13.6967 8.27587V36.3049Z" fill="#E6E6E6"/>
<path d="M12.9566 36.3049L46.2949 36.3049V8.27587L12.9566 8.27587V36.3049Z" fill="#F5F5F5"/>
<path d="M44.9648 34.9597V9.62097L14.2863 9.62097V34.9597H44.9648Z" fill="#FAFAFA"/>
<path d="M41.2012 34.9597L29.1271 9.62097H25.0254L37.0995 34.9597H41.2012Z" fill="white"/>
<path d="M35.9376 34.9597L23.8618 9.62097H21.0391L33.1131 34.9597H35.9376Z" fill="white"/>
<path d="M25.6797 34.958V9.61926H24.0934V34.958H25.6797Z" fill="#E6E6E6"/>
<path d="M36.2227 34.958V9.61926H34.6363V34.958H36.2227Z" fill="#E6E6E6"/>
<path d="M25.3926 35.8142V8.62073H23.3867V35.8142H25.3926Z" fill="#F5F5F5"/>
<path d="M35.9365 35.8142V8.62073H33.9307V35.8142H35.9365Z" fill="#F5F5F5"/>
<path d="M14.4277 34.9597L14.4277 9.62097H14.2868L14.2868 34.9597H14.4277Z" fill="#E6E6E6"/>
<path d="M12.3974 6.54504H48.0642C48.1093 6.54504 48.1525 6.56294 48.1843 6.59479C48.2162 6.62664 48.2341 6.66984 48.2341 6.71489C48.2341 6.75993 48.2162 6.80313 48.1843 6.83498C48.1525 6.86683 48.1093 6.88473 48.0642 6.88473H12.3974C12.3523 6.88473 12.3091 6.86683 12.2773 6.83498C12.2454 6.80313 12.2275 6.75993 12.2275 6.71489C12.2275 6.66984 12.2454 6.62664 12.2773 6.59479C12.3091 6.56294 12.3523 6.54504 12.3974 6.54504Z" fill="#E6E6E6"/>
<path d="M46.6175 7.6781C46.6789 7.67765 46.7376 7.65294 46.7809 7.60935C46.8242 7.56577 46.8484 7.50684 46.8484 7.44542V6.94778C46.8484 6.88652 46.8241 6.82777 46.7808 6.78445C46.7375 6.74113 46.6787 6.7168 46.6175 6.7168C46.556 6.7168 46.4971 6.74108 46.4535 6.78435C46.4099 6.82762 46.3852 6.88637 46.3848 6.94778V7.44542C46.3852 7.50699 46.4099 7.56592 46.4534 7.60946C46.497 7.653 46.5559 7.67766 46.6175 7.6781Z" fill="#E6E6E6"/>
<path d="M14.9839 7.6781C15.0455 7.67766 15.1044 7.653 15.148 7.60946C15.1915 7.56592 15.2162 7.50699 15.2166 7.44542V6.94778C15.2161 6.88637 15.1914 6.82762 15.1478 6.78435C15.1043 6.74108 15.0453 6.7168 14.9839 6.7168C14.9227 6.7168 14.8639 6.74113 14.8206 6.78445C14.7773 6.82777 14.7529 6.88652 14.7529 6.94778V7.44542C14.7529 7.50684 14.7772 7.56577 14.8205 7.60935C14.8637 7.65294 14.9225 7.67765 14.9839 7.6781Z" fill="#E6E6E6"/>
<path opacity="0.6" d="M12.452 20.6285L45.7666 20.6285V6.71677L12.452 6.71677V20.6285Z" fill="#E0E0E0"/>
<path d="M12.9086 58.33H13.7646L13.7646 44.2942H12.9086L12.9086 58.33Z" fill="#E6E6E6"/>
<path d="M32.9895 41.5615H28.3545V44.2926H32.9895V41.5615Z" fill="#E6E6E6"/>
<path d="M9.9453 44.2943H28.3545V41.5633H9.9453V44.2943Z" fill="#F5F5F5"/>
<path d="M32.9895 45.9911H28.3545V48.7221H32.9895V45.9911Z" fill="#E6E6E6"/>
<path d="M9.9453 48.7239H28.3545V45.9928H9.9453V48.7239Z" fill="#F5F5F5"/>
<path d="M32.9895 50.4222H28.3545V53.1533H32.9895V50.4222Z" fill="#E6E6E6"/>
<path d="M9.9453 53.1533H28.3545V50.4223H9.9453V53.1533Z" fill="#F5F5F5"/>
<path d="M31.3178 58.33H32.1738V44.2942H31.3178V58.33Z" fill="#E6E6E6"/>
<path d="M27.4985 58.33H28.3545V44.2942H27.4985V58.33Z" fill="#F5F5F5"/>
<path d="M9.94478 58.33H10.8008L10.8008 44.2942H9.94478L9.94478 58.33Z" fill="#F5F5F5"/>
<path d="M43.1397 66C61.3268 66 76.0704 65.1392 76.0704 64.0774C76.0704 63.0156 61.3268 62.1548 43.1397 62.1548C24.9526 62.1548 10.209 63.0156 10.209 64.0774C10.209 65.1392 24.9526 66 43.1397 66Z" fill="#F5F5F5"/>
<path d="M67.9365 56.3667H40.3541C40.083 56.3699 39.8142 56.3162 39.5652 56.209C39.3161 56.1018 39.0924 55.9435 38.9084 55.7443C38.7244 55.5451 38.5843 55.3095 38.4972 55.0528C38.4101 54.796 38.3779 54.5238 38.4026 54.2538L41.7808 9.96408C41.8334 9.39346 42.0947 8.86232 42.5147 8.47244C42.9347 8.08256 43.4837 7.86137 44.0567 7.85124H71.639C71.9102 7.8477 72.1791 7.90123 72.4283 8.00834C72.6775 8.11546 72.9013 8.27378 73.0854 8.47301C73.2694 8.67225 73.4095 8.90796 73.4965 9.16483C73.5835 9.42171 73.6156 9.69401 73.5905 9.96408L70.2124 54.2538C70.1594 54.8243 69.8979 55.3552 69.4781 55.745C69.0582 56.1348 68.5093 56.3562 67.9365 56.3667Z" fill="#407BFF"/>
<path opacity="0.5" d="M67.9365 56.3667H40.3541C40.083 56.3699 39.8142 56.3162 39.5652 56.209C39.3161 56.1018 39.0924 55.9435 38.9084 55.7443C38.7244 55.5451 38.5843 55.3095 38.4972 55.0528C38.4101 54.796 38.3779 54.5238 38.4026 54.2538L41.7808 9.96408C41.8334 9.39346 42.0947 8.86232 42.5147 8.47244C42.9347 8.08256 43.4837 7.86137 44.0567 7.85124H71.639C71.9102 7.8477 72.1791 7.90123 72.4283 8.00834C72.6775 8.11546 72.9013 8.27378 73.0854 8.47301C73.2694 8.67225 73.4095 8.90796 73.4965 9.16483C73.5835 9.42171 73.6156 9.69401 73.5905 9.96408L70.2124 54.2538C70.1594 54.8243 69.8979 55.3552 69.4781 55.745C69.0582 56.1348 68.5093 56.3562 67.9365 56.3667Z" fill="white"/>
<path d="M67.527 56.3667H39.943C39.6719 56.3699 39.4031 56.3162 39.154 56.209C38.905 56.1018 38.6812 55.9435 38.4973 55.7443C38.3133 55.5451 38.1732 55.3095 38.0861 55.0528C37.999 54.796 37.9667 54.5238 37.9915 54.2538L41.3713 9.96408C41.424 9.39317 41.6856 8.8618 42.1059 8.47188C42.5262 8.08196 43.0757 7.86095 43.6489 7.85124H71.2313C71.5025 7.8477 71.7714 7.90123 72.0206 8.00834C72.2697 8.11546 72.4936 8.27378 72.6776 8.47301C72.8616 8.67225 73.0017 8.90796 73.0887 9.16483C73.1758 9.42171 73.2078 9.69401 73.1828 9.96408L69.8046 54.2538C69.752 54.8247 69.4904 55.3561 69.0701 55.746C68.6498 56.1359 68.1003 56.357 67.527 56.3667Z" fill="#407BFF"/>
<path opacity="0.7" d="M67.527 56.3667H39.943C39.6719 56.3699 39.4031 56.3162 39.154 56.209C38.905 56.1018 38.6812 55.9435 38.4973 55.7443C38.3133 55.5451 38.1732 55.3095 38.0861 55.0528C37.999 54.796 37.9667 54.5238 37.9915 54.2538L41.3713 9.96408C41.424 9.39317 41.6856 8.8618 42.1059 8.47188C42.5262 8.08196 43.0757 7.86095 43.6489 7.85124H71.2313C71.5025 7.8477 71.7714 7.90123 72.0206 8.00834C72.2697 8.11546 72.4936 8.27378 72.6776 8.47301C72.8616 8.67225 73.0017 8.90796 73.0887 9.16483C73.1758 9.42171 73.2078 9.69401 73.1828 9.96408L69.8046 54.2538C69.752 54.8247 69.4904 55.3561 69.0701 55.746C68.6498 56.1359 68.1003 56.357 67.527 56.3667Z" fill="white"/>
<path d="M39.9981 55.6617C39.8172 55.6644 39.6378 55.6289 39.4716 55.5577C39.3054 55.4864 39.156 55.3809 39.0333 55.2481C38.9105 55.1152 38.8171 54.958 38.7592 54.7867C38.7013 54.6154 38.6801 54.4337 38.6971 54.2537L42.0311 10.5516C42.0654 10.171 42.2394 9.81665 42.5194 9.55669C42.7994 9.29673 43.1657 9.14958 43.5478 9.14358H71.1301C71.311 9.14087 71.4904 9.1763 71.6566 9.24756C71.8229 9.31882 71.9722 9.4243 72.095 9.55714C72.2177 9.68998 72.3111 9.84719 72.369 10.0185C72.4269 10.1899 72.4481 10.3715 72.4311 10.5516L69.0971 54.2537C69.0628 54.6339 68.8891 54.9881 68.6095 55.248C68.3298 55.5079 67.9639 55.6552 67.5821 55.6617H39.9981Z" fill="#407BFF"/>
<path opacity="0.2" d="M67.3865 16.4945H47.6475C47.5402 16.4959 47.4339 16.4747 47.3354 16.4324C47.2369 16.39 47.1484 16.3274 47.0756 16.2486C47.0029 16.1697 46.9476 16.0765 46.9133 15.9749C46.8789 15.8733 46.8664 15.7656 46.8764 15.6588C46.8976 15.4338 47.0009 15.2244 47.1666 15.0706C47.3323 14.9168 47.5488 14.8293 47.7749 14.8249H67.5139C67.6211 14.8233 67.7274 14.8442 67.8259 14.8864C67.9244 14.9285 68.0129 14.991 68.0857 15.0697C68.1584 15.1484 68.2138 15.2415 68.2481 15.343C68.2825 15.4445 68.295 15.5522 68.285 15.6588C68.2649 15.8845 68.162 16.0947 67.9961 16.249C67.8302 16.4033 67.6131 16.4907 67.3865 16.4945Z" fill="black"/>
<path opacity="0.3" d="M58.9658 8.71229H55.7779C55.7515 8.71264 55.7253 8.70743 55.7011 8.69702C55.6768 8.68661 55.655 8.67122 55.6371 8.65184C55.6192 8.63247 55.6055 8.60955 55.597 8.58456C55.5885 8.55957 55.5853 8.53307 55.5877 8.50678C55.5931 8.45148 55.6185 8.40005 55.6591 8.3622C55.6998 8.32434 55.7529 8.30267 55.8085 8.30127H58.9981C59.0244 8.30116 59.0504 8.30654 59.0744 8.31706C59.0985 8.32758 59.1201 8.34301 59.1378 8.36235C59.1556 8.3817 59.1691 8.40454 59.1775 8.42941C59.1859 8.45428 59.189 8.48063 59.1866 8.50678C59.182 8.56236 59.1568 8.61422 59.116 8.65222C59.0751 8.69022 59.0216 8.71164 58.9658 8.71229Z" fill="#407BFF"/>
<path d="M47.5551 15.6589C47.5833 15.3635 47.5489 15.0654 47.4541 14.7842C47.3593 14.5031 47.2062 14.245 47.0049 14.027C46.8036 13.809 46.5585 13.636 46.2857 13.5191C46.0129 13.4023 45.7186 13.3443 45.4219 13.349H65.4633C65.76 13.3443 66.0543 13.4023 66.3271 13.5191C66.5999 13.636 66.8449 13.809 67.0463 14.027C67.2476 14.245 67.4007 14.5031 67.4955 14.7842C67.5903 15.0654 67.6247 15.3635 67.5965 15.6589H47.5551Z" fill="#F0F0F0"/>
<path d="M45.4275 13.349C44.8007 13.3586 44.1996 13.6 43.7402 14.0265C43.2807 14.453 42.9955 15.0345 42.9393 15.6589L40.8859 42.5737C40.8302 43.198 40.5452 43.7794 40.0861 44.206C39.6269 44.6325 39.026 44.8739 38.3994 44.8836H58.4408C59.0676 44.874 59.6687 44.6326 60.1281 44.2061C60.5875 43.7796 60.8728 43.1981 60.929 42.5737L62.9824 15.6589C63.0381 15.0346 63.3231 14.4532 63.7822 14.0266C64.2414 13.6001 64.8422 13.3587 65.4689 13.349H45.4275Z" fill="white"/>
<path d="M56.3058 42.5739C56.2776 42.8693 56.312 43.1673 56.4068 43.4485C56.5016 43.7297 56.6547 43.9877 56.856 44.2057C57.0574 44.4237 57.3024 44.5968 57.5752 44.7136C57.848 44.8304 58.1423 44.8884 58.439 44.8837H38.3977C38.101 44.8884 37.8066 44.8304 37.5338 44.7136C37.261 44.5968 37.016 44.4237 36.8146 44.2057C36.6133 43.9877 36.4602 43.7297 36.3654 43.4485C36.2706 43.1673 36.2362 42.8693 36.2645 42.5739H56.3058Z" fill="#F0F0F0"/>
<path d="M44.5747 42.042C44.6512 41.0587 44.342 40.2638 43.3604 40.2638H58.7922C59.7739 40.2638 60.5127 41.1623 60.0083 42.042H44.5747Z" fill="#E0E0E0"/>
<path d="M56.306 42.5736C56.3606 41.9485 56.645 41.3658 57.1043 40.9382C57.5636 40.5106 58.1651 40.2685 58.7925 40.2587H38.7511C38.1245 40.2684 37.5237 40.5098 37.0645 40.9363C36.6053 41.3628 36.3204 41.9443 36.2646 42.5685L56.306 42.5736Z" fill="#F0F0F0"/>
<path d="M65.7808 49.2468H42.7757C42.6979 49.2478 42.6207 49.2325 42.5491 49.2017C42.4776 49.171 42.4133 49.1256 42.3604 49.0684C42.3076 49.0112 42.2673 48.9436 42.2423 48.8699C42.2173 48.7961 42.2081 48.718 42.2152 48.6404C42.2303 48.4768 42.3051 48.3245 42.4254 48.2126C42.5458 48.1007 42.7032 48.0372 42.8674 48.0341H65.8743C65.952 48.0333 66.029 48.0488 66.1003 48.0796C66.1717 48.1105 66.2357 48.1559 66.2884 48.2131C66.3411 48.2702 66.3812 48.3378 66.4061 48.4114C66.431 48.485 66.4402 48.563 66.433 48.6404C66.418 48.804 66.3432 48.9564 66.2228 49.0682C66.1025 49.1801 65.9451 49.2437 65.7808 49.2468Z" fill="white"/>
<path d="M54.1646 52.1612H42.5542C42.4763 52.1625 42.3989 52.1474 42.3273 52.1167C42.2556 52.0861 42.1912 52.0407 42.1383 51.9834C42.0854 51.9262 42.0452 51.8584 42.0203 51.7846C41.9953 51.7107 41.9863 51.6325 41.9937 51.5549C42.0088 51.3913 42.0836 51.2389 42.2039 51.127C42.3243 51.0152 42.4816 50.9516 42.6459 50.9485H54.2563C54.3342 50.9475 54.4114 50.9628 54.4829 50.9936C54.5545 51.0243 54.6188 51.0697 54.6716 51.1269C54.7245 51.1841 54.7647 51.2517 54.7897 51.3254C54.8147 51.3992 54.824 51.4773 54.8168 51.5549C54.8018 51.7185 54.7269 51.8708 54.6066 51.9827C54.4863 52.0946 54.3289 52.1581 54.1646 52.1612Z" fill="white"/>
<path d="M62.2024 52.1612H57.4995C57.4216 52.1625 57.3443 52.1473 57.2726 52.1167C57.2009 52.0861 57.1365 52.0407 57.0836 51.9834C57.0307 51.9262 56.9905 51.8584 56.9656 51.7846C56.9407 51.7107 56.9316 51.6324 56.939 51.5549C56.9541 51.3912 57.0289 51.2389 57.1492 51.127C57.2696 51.0151 57.427 50.9516 57.5912 50.9485H62.2942C62.3719 50.9477 62.449 50.9633 62.5204 50.9941C62.5919 51.0249 62.656 51.0703 62.7088 51.1274C62.7616 51.1845 62.8019 51.2521 62.827 51.3257C62.8521 51.3993 62.8615 51.4774 62.8546 51.5549C62.8396 51.7185 62.7648 51.8708 62.6444 51.9827C62.5241 52.0946 62.3667 52.1581 62.2024 52.1612Z" fill="white"/>
<path d="M44.2809 20.8408H44.8532L44.7123 22.6853H44.1416L44.2809 20.8408Z" fill="#407BFF"/>
<path d="M45.266 20.8408H45.7976L46.4141 21.8599L46.4922 20.8408H47.0289L46.888 22.6853H46.3513L45.7381 21.6663L45.66 22.6853H45.125L45.266 20.8408Z" fill="#407BFF"/>
<path d="M47.2266 20.8408H47.8227L48.1369 22.169L48.6464 20.8408H49.2239L48.4053 22.6853H47.7887L47.2266 20.8408Z" fill="#407BFF"/>
<path d="M49.1815 21.7647C49.1893 21.4997 49.2988 21.248 49.4872 21.0615C49.6856 20.8877 49.9438 20.7976 50.2073 20.8101C50.3333 20.8005 50.46 20.8174 50.5791 20.8598C50.6982 20.9022 50.807 20.9692 50.8986 21.0564C50.9785 21.1514 51.0373 21.2623 51.071 21.3818C51.1047 21.5013 51.1125 21.6266 51.0939 21.7494C51.0866 21.9353 51.0354 22.1169 50.9444 22.2793C50.8628 22.4159 50.7454 22.5275 50.6047 22.602C50.4431 22.6829 50.264 22.7226 50.0833 22.7175C49.908 22.7242 49.7335 22.6899 49.5738 22.6173C49.4402 22.5484 49.3323 22.4382 49.2664 22.3031C49.1897 22.1346 49.1603 21.9485 49.1815 21.7647ZM49.7521 21.7647C49.7273 21.9033 49.7532 22.0461 49.8252 22.1672C49.8577 22.2077 49.8996 22.2399 49.9472 22.2608C49.9948 22.2818 50.0467 22.2911 50.0986 22.2878C50.153 22.2903 50.2073 22.281 50.2578 22.2605C50.3082 22.24 50.3536 22.2087 50.3907 22.1689C50.4806 22.0445 50.5277 21.8943 50.5249 21.7409C50.5479 21.6084 50.5206 21.4722 50.4485 21.3587C50.4154 21.3185 50.3731 21.2867 50.3253 21.266C50.2774 21.2453 50.2253 21.2364 50.1733 21.2399C50.1195 21.2385 50.066 21.2487 50.0165 21.2698C49.967 21.2909 49.9226 21.3224 49.8863 21.3621C49.7983 21.4784 49.7511 21.6205 49.7521 21.7664V21.7647Z" fill="#407BFF"/>
<path d="M51.4925 20.8408H52.0632L51.9239 22.6853H51.3516L51.4925 20.8408Z" fill="#407BFF"/>
<path d="M53.6177 21.9311L54.1052 22.0822C54.0676 22.2101 54.0046 22.3291 53.92 22.4321C53.8441 22.5248 53.7468 22.5977 53.6364 22.6444C53.5048 22.697 53.3637 22.7219 53.222 22.7175C53.0561 22.7236 52.891 22.6934 52.7379 22.6291C52.6052 22.5628 52.4978 22.4548 52.4322 22.3217C52.3454 22.1479 52.3123 21.9522 52.3371 21.7595C52.342 21.4951 52.4484 21.2427 52.6343 21.0547C52.8288 20.884 53.0825 20.7962 53.3409 20.8101C53.5303 20.7976 53.7187 20.8471 53.8776 20.9511C54.013 21.0598 54.1061 21.2124 54.1408 21.3825L53.6313 21.4946C53.6228 21.4516 53.6073 21.4103 53.5855 21.3723C53.5589 21.3297 53.5214 21.2951 53.4768 21.2721C53.4295 21.2478 53.377 21.2356 53.3239 21.2364C53.2634 21.2345 53.2034 21.2479 53.1494 21.2752C53.0954 21.3025 53.0491 21.3429 53.0148 21.3927C52.9467 21.5011 52.9102 21.6264 52.9095 21.7545C52.8832 21.8978 52.9047 22.0457 52.9706 22.1757C53.0004 22.2138 53.039 22.2441 53.0831 22.2639C53.1272 22.2837 53.1754 22.2925 53.2237 22.2895C53.2702 22.2924 53.3168 22.2859 53.3606 22.2701C53.4044 22.2543 53.4446 22.2297 53.4785 22.1977C53.5455 22.1213 53.5933 22.0298 53.6177 21.9311Z" fill="#407BFF"/>
<path d="M54.4744 20.8408H56.003L55.9741 21.2349H55.0179L54.9959 21.5287H55.8773L55.8485 21.904H54.9619L54.933 22.2675H55.9181L55.8858 22.6853H54.3301L54.4744 20.8408Z" fill="#407BFF"/>
<path d="M60.5247 25.0664H43.96L43.9939 24.6078H60.5603L60.5247 25.0664Z" fill="#407BFF"/>
<path d="M60.525 25.0664H43.9603L43.8516 26.4744H60.418L60.525 25.0664Z" fill="#F0F0F0"/>
<path d="M60.3111 27.8807H43.7447L43.6377 29.287H60.2041L60.3111 27.8807Z" fill="#F0F0F0"/>
<path d="M60.0955 30.6932H43.5308L43.4238 32.1012H59.9885L60.0955 30.6932Z" fill="#F0F0F0"/>
<path d="M59.8814 33.5074H43.315L43.208 34.9137H59.7744L59.8814 33.5074Z" fill="#F0F0F0"/>
<path d="M59.6309 36.7803H43.0645L43.1001 36.3201H59.6665L59.6309 36.7803Z" fill="#407BFF"/>
<path d="M57.7363 16.4945H61.179L61.0228 18.5479H57.5801L57.7363 16.4945Z" fill="#F0F0F0"/>
<path d="M23.9773 29.5586L24.5921 29.8049C24.8166 29.8951 25.0134 30.0427 25.1628 30.2329L25.4448 30.5896C25.5358 30.7041 25.5836 30.847 25.5799 30.9932C25.5762 31.1395 25.5211 31.2798 25.4244 31.3895L25.1255 31.7292C25.0707 31.7915 25.0042 31.8424 24.9297 31.8788C24.8552 31.9152 24.7742 31.9365 24.6915 31.9414C24.6087 31.9463 24.5258 31.9347 24.4475 31.9073C24.3692 31.8799 24.2972 31.8373 24.2355 31.7818L23.9467 31.5271C23.9467 31.5271 23.0636 30.9072 22.8037 30.0868L22.9736 29.917C23.1007 29.7823 23.2579 29.6796 23.4324 29.6173C23.6069 29.555 23.7936 29.5349 23.9773 29.5586Z" fill="#FFB573"/>
<path d="M25.6624 23.6008L25.462 23.7332L25.2395 23.8861C25.0918 23.9914 24.9423 24.1001 24.7979 24.2105C24.5075 24.4364 24.2256 24.6691 23.964 24.917C23.4476 25.3809 23.0043 25.9203 22.6494 26.517C22.607 26.5883 22.5696 26.6596 22.5339 26.7327L22.5068 26.787C22.5136 26.7641 22.5193 26.7409 22.5237 26.7174C22.5295 26.6894 22.5295 26.6605 22.5237 26.6325C22.5085 26.5832 22.5068 26.7106 22.5458 26.8363C22.6499 27.1625 22.7859 27.4776 22.9517 27.7772C23.3016 28.4464 23.7398 29.1359 24.1542 29.8153L24.1644 29.834C24.2466 29.9692 24.2718 30.1314 24.2346 30.2852C24.1973 30.439 24.1006 30.5717 23.9657 30.6543C23.8616 30.7167 23.7412 30.7464 23.62 30.7394C23.4988 30.7325 23.3826 30.6892 23.2863 30.6153C22.9469 30.3512 22.6231 30.0676 22.3165 29.766C22.0029 29.461 21.7069 29.1383 21.43 28.7996C21.1215 28.4294 20.8597 28.0227 20.6504 27.5887C20.5877 27.4532 20.5343 27.3136 20.4907 27.1709C20.4347 26.9851 20.405 26.7925 20.4024 26.5985C20.4012 26.4671 20.4155 26.3359 20.4449 26.2078C20.462 26.1347 20.4836 26.0627 20.5094 25.9921L20.5417 25.9055C20.5841 25.7883 20.6317 25.6745 20.681 25.5658C21.0777 24.7002 21.6265 23.9127 22.3012 23.2407C22.6204 22.9145 22.9608 22.6098 23.3203 22.3286C23.5003 22.1894 23.6821 22.0535 23.8706 21.9261C23.9657 21.8616 24.0608 21.797 24.1593 21.7359L24.3105 21.6442L24.4803 21.5457C24.747 21.4017 25.0586 21.365 25.3514 21.4431C25.6442 21.5212 25.8962 21.7081 26.0558 21.9657C26.2154 22.2233 26.2706 22.5322 26.2101 22.8291C26.1496 23.1261 25.978 23.3887 25.7304 23.5634L25.6624 23.6008Z" fill="#FFB573"/>
<path d="M25.6825 20.9053C24.6906 20.9053 23.6036 21.335 22.2109 23.0623C22.2109 24.0932 24.3866 25.4638 24.3866 25.4638C24.3866 25.4638 27.9533 20.8968 25.6825 20.9053Z" fill="#263238"/>
<path d="M18.3125 61.7337C18.2946 61.7332 18.2769 61.7304 18.2598 61.7252C18.0543 61.6522 17.8607 61.1291 17.8488 60.8369C17.848 60.8279 17.85 60.8187 17.8545 60.8108C17.8591 60.8029 17.866 60.7966 17.8743 60.7928C17.8822 60.7878 17.8913 60.7852 17.9006 60.7852C17.9099 60.7852 17.9191 60.7878 17.9269 60.7928C17.949 60.8115 18.4603 61.231 18.484 61.5129C18.4874 61.5402 18.485 61.5678 18.4771 61.5941C18.4692 61.6205 18.456 61.6448 18.4382 61.6658C18.4234 61.6855 18.4045 61.7019 18.3828 61.7136C18.3611 61.7253 18.3371 61.7322 18.3125 61.7337ZM17.9575 60.9507C18.0034 61.2276 18.1613 61.5876 18.2972 61.6301C18.3107 61.6344 18.3252 61.6341 18.3384 61.6292C18.3517 61.6243 18.3629 61.615 18.3702 61.6029C18.3797 61.5918 18.3868 61.5788 18.3909 61.5647C18.395 61.5507 18.396 61.5359 18.394 61.5214C18.3753 61.3601 18.124 61.1002 17.9575 60.9507Z" fill="#263238"/>
<path d="M18.6321 61.1103C18.3626 61.0956 18.1008 61.0151 17.8696 60.8759C17.8621 60.8707 17.8562 60.8634 17.8526 60.855C17.849 60.8466 17.8478 60.8374 17.8492 60.8284C17.8508 60.8191 17.855 60.8106 17.8613 60.8036C17.8676 60.7967 17.8758 60.7918 17.8848 60.7893C17.912 60.7893 18.5523 60.6195 18.7935 60.7621C18.8177 60.7753 18.8389 60.7935 18.8555 60.8155C18.8722 60.8374 18.8841 60.8627 18.8903 60.8895C18.8989 60.9207 18.8977 60.9537 18.8867 60.9842C18.8758 61.0146 18.8557 61.0409 18.8292 61.0594C18.77 61.0955 18.7014 61.1132 18.6321 61.1103ZM18.0258 60.8538C18.2755 60.9795 18.661 61.0645 18.7748 60.9863C18.7918 60.9744 18.8071 60.9575 18.7969 60.9116C18.7938 60.897 18.7875 60.8833 18.7784 60.8716C18.7692 60.8598 18.7576 60.8503 18.7442 60.8437C18.6033 60.757 18.2449 60.8097 18.0258 60.8538Z" fill="#263238"/>
<path d="M16.0898 60.7231C16.5929 60.1847 17.0193 59.5795 17.3568 58.9244C17.3568 58.9244 18.9329 59.3117 18.6238 59.7736C18.0616 60.5974 17.7882 62.2907 18.5117 63.1977C18.9244 63.7157 18.2722 63.8023 17.8323 63.5798C17.153 63.2282 17.175 63.0958 16.8133 62.5132C16.5076 62.0156 16.387 61.8202 15.9641 61.6062C15.6244 61.4211 15.7942 61.0746 16.0898 60.7231Z" fill="#407BFF"/>
<path d="M29.4559 31.1434C29.4559 31.1434 27.1733 42.2851 25.4986 47.0526C23.7424 52.0493 18.8934 59.7618 18.7049 60.093C18.0154 59.9079 17.4005 59.6667 16.9912 59.2676C16.9912 59.2676 19.2671 50.9029 21.4852 45.4764C22.3344 34.1479 24.184 31.1519 24.184 31.1519L29.4559 31.1434Z" fill="#263238"/>
<path opacity="0.2" d="M25.9698 37.1049C25.8662 39.2602 25.7999 42.224 25.8968 45.8314C26.5948 43.5827 27.354 40.534 27.9926 37.7979C27.5663 37.2289 26.9039 36.9555 25.9698 37.1049Z" fill="black"/>
<path d="M26.1074 17.4813C26.3469 18.4511 26.5813 20.029 26.1991 20.8782C26.1991 20.8782 27.6292 20.9427 29.4567 22.4067C30.3178 21.1431 29.3208 20.8952 29.3208 20.8952C28.5616 20.7253 28.599 19.7063 28.6007 18.9844L26.1074 17.4813Z" fill="#FFB573"/>
<path d="M25.7466 21.3112C25.0333 21.2331 25.5258 19.8777 25.8961 20.0102C26.8336 20.3499 28.9363 19.9728 29.5868 20.3312C30.2373 20.6896 30.0725 21.425 30.0725 21.425C30.0725 21.425 26.5143 21.3961 25.7466 21.3112Z" fill="#407BFF"/>
<path opacity="0.7" d="M25.7466 21.3112C25.0333 21.2331 25.5258 19.8777 25.8961 20.0102C26.8336 20.3499 28.9363 19.9728 29.5868 20.3312C30.2373 20.6896 30.0725 21.425 30.0725 21.425C30.0725 21.425 26.5143 21.3961 25.7466 21.3112Z" fill="white"/>
<path d="M29.9079 15.771C29.9317 15.9001 30.0183 15.9935 30.1032 15.9782C30.1881 15.9629 30.2374 15.8457 30.2153 15.7167C30.1932 15.5876 30.1049 15.4942 30.02 15.5095C29.9351 15.5247 29.8909 15.6419 29.9079 15.771Z" fill="#263238"/>
<path d="M29.9844 15.523L30.2799 15.3787C30.2799 15.3787 30.1627 15.6504 29.9844 15.523Z" fill="#263238"/>
<path d="M30.0808 14.7349C30.0846 14.7258 30.0866 14.716 30.0866 14.706C30.0866 14.6961 30.0846 14.6863 30.0808 14.6772C30.0752 14.6574 30.0621 14.6407 30.0443 14.6305C30.0265 14.6204 30.0055 14.6176 29.9857 14.6228C29.8665 14.652 29.7559 14.7091 29.6632 14.7894C29.5705 14.8697 29.4982 14.971 29.4523 15.0848C29.4468 15.1044 29.4487 15.1254 29.4578 15.1436C29.4669 15.1619 29.4826 15.176 29.5016 15.1833C29.5212 15.1898 29.5426 15.1882 29.561 15.179C29.5795 15.1698 29.5935 15.1536 29.6001 15.134C29.637 15.044 29.695 14.9642 29.7692 14.9013C29.8434 14.8383 29.9316 14.7941 30.0264 14.7723C30.0376 14.7702 30.0482 14.7658 30.0575 14.7593C30.0669 14.7529 30.0748 14.7446 30.0808 14.7349Z" fill="#263238"/>
<path d="M30.0615 16.0869C30.2098 16.3732 30.3966 16.6378 30.6169 16.8733C30.5551 16.9282 30.482 16.9688 30.4027 16.9923C30.3235 17.0157 30.2401 17.0215 30.1583 17.0092L30.0615 16.0869Z" fill="#ED893E"/>
<path d="M25.4755 15.7047C25.8542 17.2809 25.985 17.9551 26.9141 18.6328C28.3186 19.6519 30.1326 18.8468 30.2243 17.1925C30.3058 15.7013 29.674 13.3762 28.0333 13.0127C26.3926 12.6493 25.0967 14.1286 25.4755 15.7047Z" fill="#FFB573"/>
<path d="M28.5318 15.9952C29.4592 14.7689 30.0604 13.777 29.6069 12.6917C29.2248 11.7848 28.1667 12.0497 28.0189 12.5032C25.2063 12.2637 24.1958 13.2828 24.7766 14.9676C25.1469 16.0427 23.71 15.4772 24.0599 16.8495C24.3265 17.8957 23.3805 18.2948 23.8612 18.8961C24.5541 19.764 25.9842 18.6328 27.6164 19.2833C28.9479 19.8166 30.9555 19.0099 28.5318 15.9952Z" fill="#263238"/>
<path d="M28.3784 16.2432C28.455 16.3691 28.5574 16.4773 28.6789 16.5608C28.8004 16.6442 28.9382 16.7009 29.0832 16.7272C29.4518 16.7816 29.5791 16.3672 29.4229 15.9833C29.287 15.6436 28.932 15.1936 28.5839 15.3175C28.2357 15.4415 28.1695 15.912 28.3784 16.2432Z" fill="#FFB573"/>
<path d="M28.9262 62.7732C28.6299 62.737 28.3506 62.6147 28.1229 62.4216C28.1163 62.4154 28.1116 62.4076 28.1092 62.3989C28.1068 62.3902 28.1068 62.381 28.1093 62.3724C28.1121 62.3634 28.1175 62.3554 28.1247 62.3494C28.1319 62.3434 28.1407 62.3396 28.15 62.3384C28.1772 62.3384 28.8294 62.2654 29.0536 62.4454C29.0759 62.4618 29.0944 62.483 29.1076 62.5073C29.1208 62.5317 29.1284 62.5587 29.13 62.5864C29.1371 62.6201 29.1326 62.6552 29.1171 62.6861C29.1017 62.7169 29.0764 62.7416 29.0451 62.7562C29.0072 62.7704 28.9666 62.7762 28.9262 62.7732ZM28.2791 62.4233C28.5101 62.5847 28.8787 62.7256 29.0027 62.6645C29.0213 62.6543 29.0383 62.639 29.0349 62.5931C29.0338 62.5783 29.0295 62.5639 29.0221 62.551C29.0148 62.5381 29.0046 62.5269 28.9925 62.5184C28.8719 62.4131 28.5033 62.4097 28.2791 62.4233Z" fill="#263238"/>
<path d="M28.1561 62.4351C28.1485 62.4348 28.141 62.4327 28.1343 62.4292C28.1276 62.4257 28.1217 62.4208 28.117 62.4148C28.112 62.4069 28.1094 62.3977 28.1094 62.3884C28.1094 62.3791 28.112 62.37 28.117 62.3621C28.1306 62.3383 28.4567 61.7643 28.7335 61.6946C28.7601 61.6865 28.7882 61.6843 28.8158 61.6881C28.8434 61.6919 28.8698 61.7017 28.8932 61.7167C28.9236 61.7321 28.9481 61.7571 28.9628 61.7878C28.9776 61.8185 28.9817 61.8532 28.9747 61.8865C28.9373 62.1022 28.4516 62.3791 28.168 62.4385L28.1561 62.4351ZM28.7896 61.7829H28.7556C28.596 61.8237 28.3803 62.1141 28.2597 62.3027C28.5246 62.2109 28.8558 61.9969 28.8796 61.8611C28.8796 61.8407 28.8796 61.8169 28.8405 61.7914C28.8245 61.7843 28.807 61.7814 28.7896 61.7829Z" fill="#263238"/>
<path d="M30.1878 63.3694C28.8121 63.2624 27.8848 62.318 27.9799 61.3177C28.0325 60.7657 26.2696 60.7164 26.2696 60.7164C26.5481 62.4267 26.1982 62.6713 26.0827 63.1129C25.9672 63.5545 25.9961 64.0436 26.3613 64.0521C26.7978 64.064 27.0016 63.9808 27.5502 64.0012C28.1854 64.0267 28.8715 64.0504 30.001 64.0521C30.4477 64.0538 30.7993 63.4169 30.1878 63.3694Z" fill="#407BFF"/>
<path d="M31.8341 31.1434C31.8341 31.1434 31.7136 39.5829 31.0478 45.1282C30.382 50.6736 28.0925 61.5503 28.0925 61.5503C27.4904 61.6924 26.8627 61.6866 26.2633 61.5333C26.2633 61.5333 25.5398 53.0412 26.7542 44.8259C25.8625 36.22 25.3037 31.1434 25.3037 31.1434H31.8341Z" fill="#263238"/>
<path d="M32.1468 23.3375C32.1179 23.9897 33.1471 25.4979 31.8767 26.3709C32.1145 26.9025 32.3149 30.5015 31.8343 31.1435C31.1328 31.653 27.3368 31.5596 24.1914 31.1435C24.0572 29.8425 24.7739 27.1471 23.8958 22.9452C23.8477 22.7151 23.8485 22.4775 23.8982 22.2478C23.9479 22.0181 24.0453 21.8014 24.1842 21.6117C24.3231 21.4221 24.5002 21.2638 24.7042 21.1471C24.9082 21.0304 25.1345 20.9578 25.3684 20.9342C25.6333 20.9088 25.9136 20.885 26.2006 20.8714C27.2031 20.8008 28.2094 20.8008 29.2119 20.8714C29.5363 20.902 29.8726 20.9427 30.1936 20.9886C30.7528 21.0674 31.2627 21.3516 31.6237 21.7859C31.9848 22.2201 32.1713 22.7733 32.1468 23.3375Z" fill="#407BFF"/>
<g opacity="0.3">
<path d="M23.9741 22.7175L23.9044 22.7566C23.8982 22.7584 23.8924 22.7617 23.8876 22.7661C23.8827 22.7705 23.8789 22.7759 23.8764 22.7819C23.8739 22.7879 23.8728 22.7944 23.8731 22.801C23.8734 22.8075 23.8752 22.8138 23.8782 22.8196C23.8813 22.8254 23.8856 22.8304 23.8909 22.8343C23.8961 22.8382 23.9022 22.8409 23.9086 22.8421C23.915 22.8434 23.9216 22.8433 23.9279 22.8417C23.9342 22.8401 23.9401 22.8371 23.9452 22.833L24.0233 22.7905C24.363 22.9145 24.7248 23.1965 24.9337 23.2253C24.594 22.9281 24.3545 22.7158 24.0845 22.7532C24.1643 22.7056 24.2424 22.6581 24.3205 22.6071C24.6297 22.7226 24.9659 22.9808 25.1579 23.0062C24.8454 22.7311 24.6212 22.5341 24.3749 22.5714L24.5447 22.4542L24.6398 22.3846C24.9201 22.5052 25.2156 22.7617 25.3922 22.7973C25.1103 22.5188 24.9116 22.3218 24.6738 22.3608C24.7485 22.3048 24.8216 22.2487 24.8929 22.191C25.1494 22.3031 25.4211 22.5307 25.5825 22.5697C25.3243 22.3133 25.1426 22.1332 24.9235 22.1672L25.1069 22.0143L25.1511 21.977C25.377 22.0959 25.6012 22.3303 25.7489 22.3727C25.5349 22.1163 25.3855 21.9379 25.1613 21.9668C25.219 21.9175 25.2768 21.8666 25.3311 21.8139C25.54 21.9243 25.7455 22.14 25.8814 22.1791C25.6844 21.943 25.5417 21.78 25.3413 21.8054L25.5213 21.6356C25.7031 21.7477 25.8763 21.9515 25.9969 21.994C25.827 21.7698 25.7183 21.6152 25.5332 21.6237C25.5655 21.5914 25.5978 21.5609 25.6283 21.5286L25.6827 21.4726C25.8525 21.5762 26.0105 21.7647 26.1209 21.8037C25.9714 21.5982 25.8644 21.4539 25.6946 21.4641C25.7438 21.4131 25.7931 21.3605 25.8406 21.3078C25.9935 21.391 26.1379 21.549 26.2398 21.5796C26.1056 21.4097 26.0105 21.284 25.8474 21.301L25.8746 21.2721L25.9765 21.1532C26.0933 21.2416 26.2146 21.3238 26.34 21.3995C26.2177 21.2416 26.1311 21.1312 25.985 21.1431C26.0241 21.0955 26.0631 21.0446 26.0971 20.9936C26.0985 20.9923 26.0997 20.9908 26.1005 20.989C26.1013 20.9872 26.1017 20.9853 26.1017 20.9834C26.1017 20.9815 26.1013 20.9796 26.1005 20.9778C26.0997 20.9761 26.0985 20.9745 26.0971 20.9732C26.0944 20.9711 26.0911 20.97 26.0878 20.97C26.0844 20.97 26.0811 20.9711 26.0784 20.9732C26.0444 21.0208 26.0088 21.0666 25.9714 21.1108C25.9793 21.0308 25.9568 20.9508 25.9086 20.8866H25.8508C25.887 20.9684 25.9182 21.0524 25.9442 21.138C25.9137 21.1736 25.8814 21.2076 25.8508 21.2416L25.8287 21.2653C25.861 21.1414 25.7965 21.0344 25.698 20.8985H25.6657C25.6929 21.0038 25.7727 21.1482 25.805 21.2874L25.6691 21.425C25.7132 21.2687 25.6046 21.1312 25.4534 20.9358C25.4534 21.053 25.5961 21.2552 25.6504 21.4454L25.6029 21.4929L25.5094 21.5813C25.5519 21.4114 25.4364 21.2636 25.2717 21.0547C25.2717 21.1804 25.4262 21.3944 25.4857 21.6033L25.3158 21.7511C25.3515 21.5813 25.2377 21.4114 25.0831 21.1906C25.0831 21.3248 25.2207 21.5626 25.2768 21.7851L25.1426 21.8989C25.1816 21.7154 25.0594 21.5354 24.8912 21.2891C24.8912 21.4352 25.0407 21.6933 25.1001 21.9345L25.0645 21.9634C25.0033 22.0143 24.9405 22.0636 24.8776 22.1129C24.9269 21.9243 24.8097 21.712 24.6483 21.4233C24.6365 21.5796 24.7757 21.8853 24.8182 22.1553C24.7468 22.2097 24.6755 22.2606 24.6025 22.3133C24.684 22.0993 24.5515 21.8598 24.3681 21.5269C24.3528 21.6967 24.5125 22.0466 24.5583 22.3438L24.4938 22.388L24.2917 22.5188C24.3851 22.3031 24.2713 22.0483 24.1048 21.7018C24.0964 21.7137 24.0879 21.7256 24.0811 21.7375C24.093 21.9413 24.2118 22.2674 24.2373 22.5511C24.1626 22.5986 24.0845 22.6428 24.008 22.6852C24.0964 22.5052 24.0454 22.3014 23.9367 22.0466C23.9117 22.1187 23.8919 22.1925 23.8773 22.2674C23.9211 22.4147 23.9535 22.5652 23.9741 22.7175Z" fill="#263238"/>
<path d="M28.3129 21.5405C28.0565 21.3707 27.8034 21.0768 27.6336 21.014C27.8663 21.3333 28.0327 21.5592 28.2739 21.5592C28.1907 21.6016 28.104 21.6458 28.0293 21.6917C27.7949 21.5405 27.5639 21.2654 27.4094 21.2076C27.6234 21.5014 27.7762 21.7086 27.997 21.7171C27.9274 21.7562 27.8595 21.797 27.7915 21.8377L27.7423 21.8683C27.5368 21.7154 27.3533 21.4488 27.2141 21.3825C27.3839 21.6713 27.5045 21.87 27.7236 21.8768C27.6573 21.9158 27.5928 21.9583 27.5283 22.0008C27.3414 21.8598 27.1716 21.6135 27.0442 21.5541C27.2005 21.8173 27.3092 22.0008 27.5181 22.0076L27.3143 22.1451C27.1529 22.0059 27.0136 21.7766 26.9015 21.7154C27.0272 21.9617 27.1156 22.1349 27.3007 22.1553L27.1903 22.2335L27.1291 22.2793C26.9797 22.1519 26.8506 21.9396 26.747 21.8836C26.8642 22.1112 26.9457 22.2691 27.1156 22.2895C27.0578 22.332 27.0018 22.3744 26.9457 22.4186C26.8064 22.3133 26.6892 22.1349 26.5924 22.0891C26.6994 22.2827 26.7725 22.4169 26.9321 22.4288L26.9015 22.4525L26.781 22.5545C26.6553 22.4559 26.5483 22.2946 26.46 22.2521C26.5568 22.422 26.6298 22.5511 26.7708 22.5629C26.7249 22.6037 26.6791 22.6479 26.6349 22.6937C26.6335 22.6948 26.6323 22.6963 26.6316 22.6979C26.6308 22.6995 26.6304 22.7013 26.6304 22.7031C26.6304 22.7049 26.6308 22.7066 26.6316 22.7083C26.6323 22.7099 26.6335 22.7113 26.6349 22.7124C26.6374 22.7148 26.6408 22.7161 26.6442 22.7161C26.6477 22.7161 26.6511 22.7148 26.6536 22.7124C26.6935 22.6702 26.7361 22.6305 26.781 22.5935C26.7385 22.709 26.7996 22.8262 26.8812 22.9859C26.8672 22.8452 26.8439 22.7056 26.8115 22.568C26.8472 22.5375 26.8829 22.5103 26.9202 22.4814L26.9457 22.461C26.888 22.5918 26.9542 22.7226 27.0476 22.906C27.031 22.7501 27.0055 22.5953 26.9712 22.4424C27.0238 22.4016 27.0748 22.3642 27.1291 22.3269C27.0612 22.4729 27.1461 22.6275 27.265 22.8364C27.2769 22.7209 27.1733 22.4967 27.1512 22.3031L27.2056 22.264L27.3109 22.1927C27.2429 22.3506 27.3329 22.5171 27.462 22.7498C27.4739 22.6241 27.3635 22.3846 27.338 22.174L27.5232 22.0551C27.4603 22.2165 27.5453 22.3948 27.6624 22.6445C27.6828 22.512 27.586 22.2555 27.5656 22.0279L27.7168 21.9362C27.6489 22.1061 27.7406 22.3082 27.8697 22.5782C27.8917 22.4339 27.7847 22.1536 27.7643 21.9074L27.8034 21.8853L28.0123 21.7664C27.9342 21.9447 28.0123 22.1723 28.1278 22.4848C28.1652 22.332 28.0769 22.0076 28.0735 21.7341C28.1533 21.6917 28.2314 21.6509 28.3129 21.6118C28.1974 21.8105 28.2892 22.067 28.4199 22.4254C28.4607 22.2555 28.3588 21.8904 28.3605 21.5897L28.4301 21.5558L28.6526 21.4573C28.5201 21.6645 28.6034 21.9498 28.7223 22.3455C28.7766 22.1621 28.6883 21.7613 28.7104 21.4335C28.7919 21.3995 28.8802 21.369 28.9583 21.3384C28.7987 21.5643 28.8904 21.8785 29.0212 22.3167C29.0823 22.118 28.9838 21.6764 29.0093 21.3214L29.0857 21.2942C29.0913 21.2925 29.0965 21.2897 29.1009 21.2859C29.1054 21.2821 29.109 21.2774 29.1115 21.2721C29.1141 21.2669 29.1155 21.2611 29.1158 21.2553C29.116 21.2495 29.115 21.2436 29.1129 21.2382C29.1087 21.2274 29.1006 21.2186 29.0902 21.2136C29.0798 21.2086 29.0679 21.2076 29.0568 21.211L28.9736 21.2416C28.777 21.1163 28.5886 20.9784 28.4097 20.8289H28.2739C28.4947 21.0921 28.6764 21.2687 28.9023 21.2721C28.8157 21.3044 28.7324 21.3418 28.6458 21.3791C28.3588 21.2093 28.0684 20.9087 27.8832 20.8509C28.1482 21.1736 28.3384 21.4029 28.5881 21.4046L28.3979 21.4929L28.3129 21.5405Z" fill="#263238"/>
<path d="M26.1919 24.7166C26.0051 24.5128 25.8743 24.3769 25.6909 24.399L25.7758 24.2954L25.8234 24.2342C25.9932 24.3175 26.18 24.4873 26.2955 24.5128C26.1257 24.3259 26.0017 24.1935 25.8319 24.2206C25.876 24.1646 25.9185 24.1086 25.9609 24.0508C26.1223 24.1153 26.2837 24.2563 26.389 24.275C26.2344 24.117 26.1274 24.0066 25.966 24.0423C25.9749 24.0323 25.9829 24.0215 25.9898 24.01C26.0204 23.9676 26.0493 23.9251 26.0781 23.881C26.2046 23.9563 26.335 24.0249 26.4688 24.0865C26.3278 23.9421 26.231 23.8419 26.0866 23.8708C26.1206 23.8181 26.1529 23.7638 26.1817 23.7009C26.1833 23.6975 26.1835 23.6937 26.1822 23.6902C26.1809 23.6867 26.1783 23.6838 26.1749 23.6822C26.1716 23.6807 26.1677 23.6805 26.1642 23.6818C26.1607 23.683 26.1578 23.6857 26.1563 23.689C26.1289 23.7402 26.0983 23.7896 26.0646 23.8368C26.0747 23.7145 25.9847 23.6177 25.8624 23.4852C25.9139 23.6176 25.974 23.7464 26.0425 23.8708L25.9609 23.9829L25.9406 24.0083C25.9626 23.8674 25.8624 23.7587 25.7249 23.6075C25.7817 23.7541 25.8475 23.897 25.9219 24.0355L25.8013 24.1884C25.8268 24.027 25.7045 23.903 25.5312 23.7247C25.5516 23.8402 25.7011 24.027 25.7843 24.2088L25.7419 24.2614L25.6586 24.3582C25.6824 24.1884 25.5516 24.0525 25.3648 23.8623C25.3869 23.9863 25.5567 24.1884 25.6382 24.3837L25.4922 24.5535C25.5092 24.3837 25.3784 24.2291 25.1984 24.0219C25.2153 24.1561 25.3784 24.3769 25.4582 24.5909L25.3376 24.72C25.3563 24.5332 25.2136 24.3684 25.0183 24.1425C25.0353 24.2869 25.2119 24.5281 25.2986 24.759L25.2663 24.793C25.2119 24.8508 25.1542 24.9068 25.0965 24.9629C25.1253 24.7709 24.9861 24.5739 24.7941 24.3039C24.7941 24.4601 24.964 24.7489 25.0472 25.0121C24.9827 25.0733 24.9164 25.1344 24.8502 25.1921C24.9079 24.9713 24.75 24.7489 24.5292 24.438C24.5292 24.6079 24.7313 24.9374 24.8094 25.2278L24.75 25.2788C24.6888 25.3314 24.626 25.3824 24.5631 25.4333C24.6362 25.1972 24.4782 24.9459 24.2591 24.596C24.2591 24.7862 24.4477 25.1497 24.5139 25.4707C24.4448 25.525 24.3735 25.5777 24.2999 25.6286C24.3224 25.5489 24.3283 25.4654 24.3172 25.3833C24.3061 25.3012 24.2782 25.2223 24.2354 25.1514C24.2557 25.3535 24.2727 25.5505 24.2863 25.7441L24.3101 25.7271C24.6583 25.8138 25.0523 26.0515 25.2629 26.0566C24.896 25.7985 24.6311 25.615 24.3712 25.683C24.446 25.6269 24.519 25.5692 24.5903 25.5131C24.9113 25.593 25.2697 25.8121 25.4667 25.8172C25.127 25.5777 24.8808 25.4061 24.6396 25.4775C24.6939 25.4316 24.7466 25.3875 24.7992 25.3399L24.8858 25.2601C25.178 25.3501 25.5007 25.5726 25.679 25.5862C25.3699 25.3416 25.1491 25.1684 24.9164 25.2329C24.9844 25.1701 25.0506 25.1055 25.1168 25.0393C25.3835 25.1225 25.6807 25.3263 25.8438 25.3399C25.5584 25.114 25.3563 24.9544 25.1423 25.0138C25.1984 24.9561 25.2544 24.9 25.3122 24.844L25.3512 24.8015C25.589 24.8949 25.8387 25.1021 25.9898 25.1293C25.7486 24.8983 25.5805 24.737 25.3614 24.7896C25.4124 24.7336 25.465 24.6758 25.5143 24.6198C25.7334 24.7064 25.9626 24.8966 26.1019 24.9204C25.8811 24.7081 25.7266 24.562 25.5245 24.6096C25.5788 24.5484 25.6315 24.4856 25.6824 24.4228C25.8726 24.5043 26.0679 24.6877 26.1919 24.7166Z" fill="#263238"/>
<path d="M29.1492 24.5927C29.0269 24.6471 28.8622 24.8662 28.6804 25.0054L28.5225 24.9273C28.7076 24.8916 28.8231 24.7082 28.9828 24.4552C28.8486 24.5129 28.6702 24.7524 28.4732 24.9035L28.4325 24.8815C28.3611 24.8458 28.2915 24.8067 28.2219 24.7694C28.4138 24.7405 28.5615 24.5486 28.7637 24.2853C28.6142 24.3363 28.39 24.5859 28.1607 24.7354C28.0826 24.6912 28.0062 24.6471 27.9297 24.5995C28.1573 24.591 28.3255 24.3736 28.5581 24.0713C28.3883 24.1291 28.1386 24.411 27.8788 24.5706L27.8125 24.5299L27.6121 24.3957C27.8567 24.3957 28.052 24.1732 28.3221 23.8607C28.1386 23.9117 27.8482 24.2004 27.5612 24.36C27.4876 24.3091 27.4162 24.2564 27.3472 24.2021C27.6223 24.2157 27.838 23.9694 28.1386 23.6229C27.9365 23.6773 27.6172 23.9983 27.303 24.1681L27.2402 24.1172C27.2317 24.1092 27.2204 24.1047 27.2088 24.1047C27.1971 24.1047 27.1858 24.1092 27.1773 24.1172C27.1694 24.1254 27.165 24.1363 27.165 24.1477C27.165 24.1591 27.1694 24.1701 27.1773 24.1783L27.247 24.2327C27.2673 24.591 27.1536 25.0377 27.2096 25.2415C27.3489 24.8135 27.4491 24.5061 27.3081 24.2785C27.3828 24.3329 27.4593 24.3855 27.5357 24.4365C27.5527 24.7762 27.4491 25.177 27.5017 25.3638C27.6308 24.9681 27.7225 24.6844 27.5884 24.4721L27.7582 24.5842L27.8601 24.6454C27.8601 24.9494 27.7412 25.3247 27.7786 25.4946C27.9229 25.1277 28.0248 24.8662 27.8958 24.6641C27.9756 24.7099 28.0656 24.7541 28.1386 24.7982C28.1386 25.0785 28.0299 25.4199 28.0639 25.5812C28.1964 25.2415 28.2898 25.002 28.1709 24.8152L28.3849 24.9239L28.4359 24.9494C28.4172 25.2025 28.2915 25.5031 28.3102 25.6542C28.4613 25.357 28.5649 25.1447 28.4494 24.9545L28.6584 25.0513C28.6397 25.2857 28.5242 25.5608 28.5429 25.7018C28.6804 25.4266 28.7755 25.2364 28.6702 25.0581C28.745 25.0921 28.8197 25.1243 28.8961 25.1549C28.8656 25.3655 28.7467 25.6067 28.7552 25.7341C28.8961 25.4946 28.9929 25.3281 28.9114 25.1617L29.0371 25.2126L29.1084 25.2398C29.0813 25.4351 28.9726 25.6559 28.9794 25.7731C29.1084 25.554 29.1985 25.3995 29.1237 25.2449C29.19 25.2704 29.2562 25.2959 29.3241 25.3179C29.3106 25.4878 29.2222 25.6865 29.2358 25.7935C29.3411 25.5999 29.4057 25.464 29.3343 25.3213L29.3717 25.3349C29.4209 25.3502 29.4702 25.3672 29.5212 25.3808C29.4865 25.5236 29.4593 25.6682 29.4396 25.8139C29.5347 25.644 29.6095 25.515 29.533 25.3842C29.5931 25.4031 29.6544 25.4179 29.7165 25.4283C29.7198 25.4289 29.7233 25.4281 29.7261 25.4262C29.7289 25.4243 29.7309 25.4215 29.7318 25.4182C29.7324 25.4146 29.7317 25.4109 29.7298 25.4078C29.7279 25.4047 29.725 25.4023 29.7216 25.4012C29.6638 25.3893 29.6078 25.374 29.5517 25.357C29.6706 25.3298 29.7369 25.2177 29.8269 25.0615C29.7419 25.0989 29.6349 25.25 29.5127 25.3451L29.3819 25.301L29.3513 25.2891C29.4923 25.2687 29.567 25.1413 29.6706 24.9647C29.5738 25.0071 29.4566 25.1753 29.319 25.2772C29.2596 25.2551 29.1985 25.233 29.139 25.2076C29.2987 25.1855 29.3836 25.0377 29.5008 24.8152C29.3972 24.8679 29.2647 25.0734 29.1135 25.1974L29.0507 25.1719L28.9335 25.1209C29.1033 25.0955 29.1951 24.929 29.3224 24.6963C29.2103 24.7524 29.0677 24.9732 28.9046 25.109C28.8367 25.0802 28.7705 25.0496 28.7042 25.0173C28.8961 24.9935 29.0031 24.8254 29.1492 24.5927Z" fill="#263238"/>
<path d="M28.1694 26.8567C28.2999 26.9235 28.4336 26.9836 28.5703 27.0367C28.4225 26.9025 28.3172 26.8091 28.1762 26.8448C28.2068 26.7904 28.2357 26.7361 28.2611 26.6749C28.2619 26.6733 28.2624 26.6714 28.2625 26.6696C28.2625 26.6678 28.2623 26.6659 28.2616 26.6642C28.261 26.6624 28.26 26.6608 28.2588 26.6595C28.2575 26.6581 28.256 26.657 28.2544 26.6562C28.2527 26.6555 28.2509 26.655 28.249 26.6549C28.2472 26.6549 28.2453 26.6551 28.2436 26.6558C28.2419 26.6564 28.2403 26.6574 28.2389 26.6586C28.2376 26.6599 28.2365 26.6614 28.2357 26.663C28.2102 26.7157 28.183 26.7666 28.1541 26.8176C28.1541 26.6953 28.059 26.6036 27.93 26.4779C27.9891 26.6062 28.0566 26.7304 28.1321 26.8499L28.059 26.9671L28.0404 26.9942C28.0522 26.8516 27.9469 26.7497 27.7992 26.6087C27.8654 26.7504 27.9397 26.8882 28.0217 27.0214L27.913 27.1827C27.9283 27.0214 27.7975 26.9025 27.614 26.7378C27.6412 26.8516 27.8111 27.0282 27.896 27.2048L27.8569 27.2592C27.8331 27.2931 27.806 27.3271 27.7805 27.3611C27.7941 27.1912 27.6548 27.0622 27.4561 26.8855C27.4867 27.0078 27.6684 27.198 27.7618 27.3951C27.7177 27.4545 27.6718 27.5122 27.6259 27.5649C27.6259 27.3951 27.4935 27.249 27.2998 27.0554C27.3253 27.1861 27.502 27.3951 27.5937 27.6057C27.5574 27.6521 27.5201 27.6979 27.4816 27.7432C27.4816 27.5547 27.3372 27.4035 27.1283 27.1861C27.1538 27.3288 27.3457 27.5581 27.4476 27.784L27.417 27.8197C27.3644 27.8808 27.3117 27.9402 27.2574 27.998C27.2744 27.8061 27.1215 27.6158 26.9177 27.3594C26.9313 27.5156 27.1232 27.7925 27.2149 28.0506C27.1538 28.1152 27.0926 28.1797 27.0298 28.2426C27.0723 28.0201 26.9007 27.8061 26.6612 27.5105C26.6782 27.6804 26.8956 27.9963 26.9907 28.2816L26.9364 28.336L26.758 28.5058C26.8158 28.2663 26.6426 28.0252 26.4031 27.6906C26.4031 27.8808 26.6256 28.2324 26.7122 28.5398C26.6459 28.5992 26.578 28.657 26.5084 28.7096C26.5848 28.4447 26.3963 28.178 26.1279 27.8061C26.1279 28.015 26.3725 28.3988 26.4676 28.7436L26.4031 28.7946C26.3985 28.7981 26.3947 28.8026 26.3918 28.8076C26.389 28.8126 26.3871 28.8182 26.3864 28.824C26.3857 28.8297 26.3861 28.8356 26.3877 28.8412C26.3892 28.8467 26.3919 28.852 26.3954 28.8565C26.399 28.8611 26.4034 28.8649 26.4085 28.8678C26.4135 28.8707 26.4191 28.8725 26.4248 28.8732C26.4306 28.8739 26.4364 28.8735 26.442 28.8719C26.4476 28.8704 26.4529 28.8678 26.4574 28.8642L26.5254 28.8081C26.8786 28.871 27.288 29.085 27.4986 29.0765C27.1147 28.8421 26.8396 28.674 26.5848 28.7589C26.6544 28.6994 26.7241 28.6366 26.792 28.5738C27.1164 28.6332 27.4918 28.8285 27.6854 28.8217C27.3304 28.6043 27.074 28.4498 26.8362 28.5313C26.8871 28.482 26.9381 28.4345 26.9873 28.3835L27.0706 28.2986C27.3661 28.3699 27.7024 28.5704 27.8807 28.5738C27.5563 28.3496 27.327 28.1899 27.0977 28.2697C27.1623 28.2018 27.2234 28.1339 27.2846 28.0642C27.558 28.1288 27.8654 28.3139 28.0302 28.3173C27.7312 28.1101 27.5206 27.964 27.31 28.0354C27.3627 27.9759 27.4136 27.9148 27.4646 27.8536L27.5003 27.8078C27.7448 27.8859 28.0098 28.0778 28.1592 28.0948C27.9028 27.8791 27.7261 27.7296 27.5104 27.7976L27.6531 27.6175C27.8773 27.6889 28.1168 27.8638 28.2578 27.8791C28.0234 27.6821 27.8603 27.5394 27.6616 27.6057C27.7109 27.5411 27.7601 27.4749 27.8077 27.4086C28.0064 27.4868 28.2136 27.6583 28.3393 27.6787C28.1389 27.4885 27.9996 27.3543 27.8179 27.3951C27.845 27.3594 27.8705 27.322 27.896 27.2864C27.9215 27.2507 27.9249 27.2422 27.9401 27.2218C28.1219 27.2931 28.3121 27.4511 28.4293 27.4698C28.2442 27.2999 28.1151 27.1709 27.9486 27.2082C27.9894 27.1493 28.0285 27.0899 28.0658 27.0299C28.2357 27.0842 28.4055 27.215 28.5074 27.2269C28.3376 27.0791 28.2289 26.9755 28.0709 27.0214L28.093 26.9874L28.1694 26.8567Z" fill="#263238"/>
<path d="M29.198 28.752C29.2343 28.7055 29.2716 28.6614 29.3101 28.6195C29.2847 28.7384 29.3577 28.8471 29.4596 28.9965C29.4273 28.8585 29.387 28.7223 29.339 28.5889L29.4358 28.4904L29.4579 28.4666C29.4171 28.6042 29.4987 28.7265 29.6142 28.8946C29.5786 28.7422 29.5344 28.5919 29.4817 28.4446L29.6226 28.3104C29.5751 28.4649 29.677 28.6076 29.8231 28.808C29.8231 28.6908 29.6906 28.4819 29.643 28.2985L29.694 28.2543L29.7891 28.1694C29.7398 28.3393 29.8502 28.4887 30.0065 28.7044C30.0065 28.577 29.8655 28.3528 29.8129 28.149C29.8689 28.0998 29.925 28.0539 29.9827 28.0064C29.9402 28.1762 30.0472 28.346 30.1933 28.5753C30.1933 28.4412 30.0693 28.1966 30.0235 27.9741L30.1627 27.8654C30.1152 28.0471 30.2324 28.2306 30.392 28.4836C30.392 28.3376 30.2562 28.0726 30.2052 27.8314L30.2426 27.8025L30.4345 27.6616C30.3784 27.8467 30.4871 28.0624 30.6383 28.3579C30.6553 28.2017 30.5279 27.8909 30.4922 27.6208C30.5653 27.5699 30.6383 27.5189 30.713 27.4697C30.623 27.6803 30.747 27.9248 30.9202 28.2645C30.9406 28.0947 30.7929 27.7397 30.7504 27.4408L30.8149 27.4C30.8846 27.3576 30.9542 27.3151 31.0238 27.276C30.9168 27.4968 31.0357 27.7686 31.1937 28.1473C31.226 27.9588 31.0901 27.5716 31.0714 27.2455C31.1478 27.2013 31.226 27.1588 31.3058 27.1198C31.175 27.3627 31.3058 27.6633 31.4892 28.0828C31.5249 27.8773 31.3737 27.451 31.355 27.096L31.4264 27.0603C31.4316 27.058 31.4363 27.0546 31.4401 27.0504C31.444 27.0462 31.447 27.0412 31.4489 27.0358C31.4508 27.0304 31.4516 27.0247 31.4512 27.019C31.4508 27.0133 31.4493 27.0077 31.4468 27.0026C31.4442 26.9973 31.4407 26.9926 31.4363 26.9887C31.4319 26.9849 31.4268 26.9819 31.4213 26.98C31.4158 26.9781 31.4099 26.9773 31.4041 26.9777C31.3982 26.9781 31.3925 26.9796 31.3873 26.9822L31.3092 27.023C30.978 26.8871 30.6213 26.5916 30.4141 26.5559C30.7402 26.865 30.9746 27.0875 31.2412 27.0654C31.1597 27.1079 31.0799 27.1554 31.0001 27.2013C30.6943 27.0756 30.3683 26.8056 30.178 26.7733C30.4803 27.0603 30.6977 27.2642 30.9457 27.2353L30.7674 27.3474L30.6689 27.4136C30.3937 27.2811 30.1067 27.0145 29.9335 26.9737C30.2035 27.2625 30.3954 27.4663 30.6349 27.4357C30.5585 27.4883 30.4837 27.5427 30.409 27.6055C30.1559 27.4849 29.8995 27.2404 29.7296 27.203C29.9793 27.468 30.1559 27.6548 30.375 27.6293C30.3122 27.6769 30.2477 27.7244 30.1865 27.7737L30.1407 27.811C29.9199 27.6837 29.7042 27.4408 29.5581 27.3932C29.7619 27.6582 29.8978 27.8399 30.1305 27.8195L29.9521 27.9656C29.7483 27.8501 29.5496 27.6259 29.4154 27.5818C29.604 27.8246 29.7347 27.9928 29.9419 27.9758C29.8791 28.0284 29.818 28.0811 29.7568 28.1456C29.587 28.0267 29.4171 27.8161 29.2948 27.7703C29.4494 27.9996 29.5598 28.1592 29.7449 28.1575L29.6447 28.2475L29.5887 28.3019C29.4188 28.1915 29.2728 27.9979 29.1624 27.9622C29.3067 28.1728 29.4069 28.3206 29.5785 28.3189C29.5258 28.3681 29.4749 28.4174 29.4256 28.4683C29.2762 28.3817 29.1369 28.2187 29.035 28.1847C29.1641 28.3545 29.2541 28.487 29.4188 28.4768L29.3917 28.504C29.356 28.5414 29.3186 28.5804 29.2847 28.6195C29.1471 28.538 29.0214 28.3902 28.9297 28.3596C29.0469 28.521 29.1284 28.6348 29.2694 28.6297C29.227 28.6755 29.1873 28.7237 29.1505 28.774C29.149 28.7753 29.1479 28.7769 29.1471 28.7786C29.1463 28.7804 29.1459 28.7823 29.1459 28.7842C29.1459 28.7862 29.1463 28.7881 29.1471 28.7898C29.1479 28.7916 29.149 28.7932 29.1505 28.7944C29.1516 28.7958 29.153 28.797 29.1546 28.7978C29.1563 28.7986 29.158 28.799 29.1598 28.799C29.1616 28.799 29.1634 28.7986 29.165 28.7978C29.1666 28.797 29.1681 28.7958 29.1692 28.7944L29.198 28.752Z" fill="#263238"/>
<path d="M27.2077 31.1723C27.2757 31.1089 27.3419 31.0444 27.4064 30.9787C27.6748 31.0619 27.9703 31.2657 28.1351 31.2793C27.8497 31.0534 27.6476 30.8938 27.4336 30.9515C27.4897 30.8955 27.5457 30.8377 27.6035 30.7817L27.6425 30.7392C27.8803 30.8326 28.1283 31.0398 28.2811 31.067C28.04 30.8343 27.8718 30.6747 27.651 30.7273C27.7037 30.6713 27.7546 30.6135 27.8056 30.5575C28.0247 30.6441 28.254 30.8343 28.3932 30.8581C28.1707 30.6458 28.0162 30.4981 27.8158 30.5473L27.9737 30.3605C28.1673 30.4505 28.3627 30.6339 28.4832 30.6628C28.2964 30.4607 28.1639 30.3231 27.9737 30.3469L28.0586 30.2433L28.1062 30.1821C28.2845 30.2654 28.4646 30.4335 28.5801 30.4607C28.4102 30.2722 28.2862 30.1414 28.1164 30.1686C28.1605 30.1125 28.203 30.0565 28.2438 29.9987C28.4136 30.0633 28.5665 30.2042 28.6718 30.2229C28.5189 30.065 28.4119 29.9546 28.2506 29.9902L28.2743 29.958C28.3032 29.9155 28.3338 29.873 28.3627 29.8289C28.4888 29.9033 28.6186 29.9714 28.7516 30.0327C28.6123 29.89 28.5138 29.7898 28.3694 29.817C28.4041 29.765 28.4359 29.7111 28.4646 29.6556C28.4655 29.6541 28.466 29.6523 28.4663 29.6506C28.4665 29.6488 28.4664 29.647 28.4659 29.6452C28.4654 29.6435 28.4646 29.6419 28.4635 29.6405C28.4624 29.639 28.461 29.6378 28.4595 29.637C28.4579 29.6361 28.4562 29.6355 28.4544 29.6353C28.4526 29.635 28.4508 29.6352 28.4491 29.6356C28.4473 29.6361 28.4457 29.6369 28.4443 29.638C28.4429 29.6391 28.4417 29.6405 28.4408 29.642C28.4125 29.693 28.3819 29.7423 28.3491 29.7898C28.3491 29.6675 28.2692 29.5707 28.147 29.4382C28.196 29.5699 28.2527 29.6987 28.3168 29.8238L28.237 29.9359L28.2166 29.9613C28.2387 29.8204 28.1385 29.7117 27.9992 29.5605C28.0572 29.706 28.123 29.8483 28.1962 29.9868C28.1571 30.0395 28.1181 30.0904 28.0773 30.1397C28.1028 29.98 27.9805 29.8543 27.8073 29.6777C27.8277 29.7932 27.9856 29.98 28.0603 30.1618C28.0451 30.1787 28.0315 30.1974 28.0179 30.2144L27.9347 30.3112C27.9584 30.1414 27.8277 30.0055 27.6408 29.8153C27.6629 29.9393 27.8327 30.1397 27.9143 30.3367L27.7682 30.5065C27.7852 30.3367 27.6544 30.1821 27.4744 29.9749C27.4897 30.1074 27.6442 30.3299 27.7325 30.5439L27.612 30.673C27.6306 30.4845 27.4897 30.3214 27.2944 30.0955C27.3113 30.2399 27.488 30.4811 27.5746 30.712L27.5423 30.746L27.3725 30.9159C27.4014 30.7239 27.2604 30.5252 27.0685 30.2569C27.0685 30.4131 27.2468 30.7019 27.3215 30.9651L27.1262 31.1451C27.1823 30.9244 27.026 30.7019 26.8035 30.391C26.8035 30.5609 27.0073 30.8904 27.0854 31.1808L27.026 31.2318C26.9649 31.2844 26.902 31.3354 26.8392 31.3846C26.9122 31.1502 26.7543 30.8989 26.5352 30.549C26.5352 30.7375 26.7186 31.0942 26.7865 31.4118H26.9173C26.97 31.3676 27.0226 31.3235 27.0736 31.2776C27.1245 31.2318 27.133 31.225 27.1619 31.1978C27.3627 31.2735 27.5589 31.3608 27.7495 31.4594H27.8786C27.6238 31.2572 27.42 31.1129 27.2077 31.1723Z" fill="#263238"/>
<path d="M26.2686 30.6492C26.2686 30.819 26.3959 31.0976 26.486 31.3812L26.615 31.3914C26.5997 31.1808 26.4554 30.9481 26.2686 30.6492Z" fill="#263238"/>
<path d="M26.9434 31.4152L27.1998 31.4305C27.1175 31.4012 27.0286 31.3959 26.9434 31.4152Z" fill="#263238"/>
<path d="M31.8852 31.0585C31.8904 31.0487 31.895 31.0384 31.8988 31.028L31.8376 31.0059L31.8071 30.9957C31.8549 30.9877 31.8996 30.9665 31.9361 30.9345C31.9514 30.8904 31.9667 30.8428 31.9803 30.7902C31.9168 30.8598 31.8481 30.9246 31.7748 30.9838L31.5897 30.9176C31.7493 30.8938 31.8342 30.7477 31.9514 30.5235C31.8478 30.5762 31.7153 30.7817 31.5642 30.9074L31.5013 30.8819L31.3841 30.8309C31.554 30.8038 31.6457 30.639 31.7731 30.4046C31.661 30.4624 31.5183 30.6832 31.3553 30.8191L31.1549 30.7273C31.3247 30.6917 31.43 30.5235 31.5761 30.2908C31.4538 30.3452 31.289 30.566 31.1073 30.7053L30.9494 30.6271C31.1345 30.5898 31.25 30.4063 31.4096 30.1533C31.2755 30.2127 31.0971 30.4522 30.9001 30.6017L30.8593 30.5813L30.6487 30.4675C30.8407 30.4386 30.9884 30.2467 31.1905 29.9851C31.0411 30.0361 30.8169 30.2857 30.5876 30.4335C30.5095 30.391 30.433 30.3452 30.3566 30.2993C30.5842 30.2891 30.7523 30.0734 30.985 29.7711C30.8152 29.8272 30.5655 30.1108 30.3057 30.2705L30.2394 30.2297C30.1715 30.1855 30.1052 30.1414 30.039 30.0938C30.2836 30.0938 30.4789 29.8713 30.7489 29.5605C30.5655 29.6115 30.2751 29.9002 29.988 30.0599L29.7723 29.9002C30.0492 29.9138 30.2649 29.6675 30.5655 29.321C30.3634 29.3771 30.0441 29.6964 29.7299 29.8662L29.667 29.817C29.6625 29.8134 29.6572 29.8108 29.6517 29.8092C29.6461 29.8077 29.6402 29.8073 29.6345 29.808C29.6228 29.8094 29.6123 29.8154 29.6051 29.8246C29.5978 29.8339 29.5946 29.8456 29.596 29.8572C29.5975 29.8688 29.6035 29.8794 29.6127 29.8866L29.6823 29.9393C29.7027 30.2976 29.5889 30.746 29.645 30.9481C29.7842 30.5218 29.8844 30.2144 29.7435 29.9851C29.8182 30.0412 29.8946 30.0938 29.9711 30.1448C29.988 30.4743 29.8844 30.8853 29.9371 31.0721C30.0662 30.6747 30.1579 30.3927 30.0237 30.1804C30.0832 30.2178 30.1409 30.2569 30.1936 30.2925L30.2955 30.3537C30.2955 30.6577 30.1766 31.0331 30.2139 31.2029C30.3583 30.8343 30.4602 30.5745 30.3311 30.3707C30.411 30.4182 30.501 30.4624 30.574 30.5048C30.574 30.7851 30.4653 31.1282 30.4993 31.2878C30.6317 30.9481 30.7252 30.7104 30.6063 30.5235L30.8203 30.6305L30.8712 30.656C30.8525 30.9108 30.7269 31.2097 30.7455 31.3625C30.8967 31.0636 31.0003 30.853 30.8848 30.6628L31.0937 30.7596C31.0767 30.9872 30.968 31.2505 30.9765 31.3948H30.985C31.1192 31.1299 31.2092 30.943 31.1056 30.7664L31.3315 30.8649C31.306 31.0348 31.2245 31.225 31.199 31.3592L31.2449 31.3507C31.3536 31.1604 31.4147 31.011 31.3468 30.8717L31.4708 30.921L31.5438 30.9498C31.5203 31.0697 31.4885 31.1877 31.4487 31.3031L31.5268 31.2793C31.558 31.2319 31.5772 31.1776 31.5828 31.1211C31.5884 31.0646 31.5803 31.0076 31.5591 30.9549L31.7595 31.028C31.7536 31.0854 31.7428 31.1422 31.7272 31.1978C31.7531 31.1848 31.7781 31.1701 31.802 31.1536C31.8028 31.1101 31.7916 31.0673 31.7697 31.0297L31.8071 31.0415L31.8852 31.0585Z" fill="#263238"/>
<path d="M25.3496 27.5208C25.3606 27.5172 25.3699 27.5097 25.3756 27.4996C25.3813 27.4895 25.3829 27.4777 25.3802 27.4664C25.377 27.4552 25.3695 27.4456 25.3594 27.4399C25.3492 27.4342 25.3371 27.4327 25.3259 27.4358L25.2409 27.4613C24.9403 27.266 24.6465 26.9093 24.4495 26.8346C24.711 27.1998 24.8996 27.4613 25.1679 27.4834C25.0796 27.5106 24.9981 27.5411 24.9047 27.5734C24.7008 27.4392 24.5004 27.2337 24.3357 27.0978C24.3357 27.1369 24.3357 27.1743 24.3357 27.2133C24.5055 27.4341 24.6533 27.5819 24.8452 27.5955C24.779 27.6193 24.7144 27.6447 24.6499 27.6719L24.5395 27.7178C24.467 27.6631 24.3983 27.6035 24.334 27.5394C24.334 27.587 24.334 27.6329 24.334 27.6804C24.3858 27.7111 24.4438 27.7297 24.5038 27.7348L24.334 27.8146C24.334 27.8384 24.334 27.8621 24.334 27.8859L24.5633 27.7874C24.4359 27.9776 24.5123 28.2409 24.6176 28.606C24.6703 28.4362 24.5904 28.0676 24.6176 27.767L24.689 27.7382L24.9165 27.6549C24.7705 27.8536 24.835 28.1441 24.9284 28.5449C24.9947 28.3666 24.9284 27.9606 24.9743 27.6362C25.0592 27.6074 25.1441 27.5802 25.2291 27.5564C25.0592 27.7721 25.1271 28.0897 25.2291 28.5381C25.3021 28.3428 25.2291 27.8961 25.2817 27.5428L25.3496 27.5208Z" fill="#263238"/>
<path d="M24.2998 28.5788C24.2998 28.5992 24.31 28.6179 24.3168 28.6399C24.3385 28.4924 24.3385 28.3425 24.3168 28.1949C24.3117 28.3257 24.3066 28.4548 24.2998 28.5788Z" fill="#263238"/>
<path d="M24.9008 31.0635L24.838 30.9633C24.9756 30.6915 25.2507 30.4113 25.2949 30.238C24.9993 30.5013 24.7853 30.6881 24.8159 30.9276C24.765 30.8495 24.7123 30.7748 24.6597 30.6983C24.787 30.4487 25.0384 30.1888 25.0809 30.0342C24.8091 30.2754 24.6172 30.447 24.6376 30.6677L24.4966 30.4741L24.4626 30.4283C24.5934 30.2109 24.8414 30.0003 24.894 29.8559C24.624 30.0529 24.4372 30.1956 24.4542 30.4181L24.3115 30.2364C24.4338 30.0359 24.6614 29.8423 24.7089 29.7098C24.4609 29.8916 24.2894 30.0173 24.303 30.2194L24.1977 30.0937V30.165L24.2588 30.2397C24.2376 30.2347 24.216 30.2313 24.1943 30.2296C24.1943 30.255 24.1943 30.2788 24.1943 30.3043L24.2928 30.2805L24.3998 30.4232C24.3311 30.4029 24.2579 30.4029 24.1892 30.4232V30.5285C24.27 30.5001 24.3529 30.4779 24.4372 30.4622L24.4643 30.4979L24.6019 30.6949C24.4615 30.6643 24.3148 30.6842 24.1875 30.751C24.1875 30.7815 24.1875 30.8138 24.1875 30.8444C24.3375 30.8057 24.4894 30.7751 24.6427 30.7527C24.6919 30.8274 24.7395 30.9021 24.7853 30.9786C24.624 30.9038 24.4457 30.9599 24.1994 31.0652C24.1994 31.0873 24.1994 31.1127 24.1994 31.1331H24.2368C24.4253 31.0848 24.6164 31.0468 24.8091 31.0193L24.8499 31.0856L24.9229 31.2163L25.018 31.2282C24.9739 31.1824 24.9382 31.1229 24.9008 31.0635Z" fill="#263238"/>
<path d="M24.2373 29.5214V29.6012C24.2851 29.5565 24.3253 29.5043 24.3562 29.4467L24.2373 29.5214Z" fill="#263238"/>
<path d="M25.2354 31.2675L25.3865 31.2845C25.514 31.115 25.6174 30.9287 25.6939 30.7308C25.5173 30.8879 25.363 31.0685 25.2354 31.2675Z" fill="#263238"/>
<path d="M25.0642 31.2572C25.2052 30.9702 25.4549 30.6747 25.4905 30.4946C25.195 30.7902 24.981 31.0042 25.0082 31.2504L25.0642 31.2572Z" fill="#263238"/>
<path d="M24.2145 29.8254C24.2145 29.8713 24.2145 29.9154 24.2061 29.9596C24.3265 29.8452 24.4357 29.7195 24.5322 29.5842C24.4161 29.6502 24.3093 29.7313 24.2145 29.8254Z" fill="#263238"/>
</g>
<path d="M36.0051 25.6727L36.7558 24.8761L37.7969 26.3418C37.7969 26.3418 36.9188 26.9635 36.0781 26.9397L35.9813 26.724C35.9036 26.5589 35.8653 26.378 35.8694 26.1955C35.8736 26.0131 35.92 25.8341 36.0051 25.6727Z" fill="#FFB573"/>
<path d="M37.9669 24.9544L38.2607 25.5064C38.3252 25.6276 38.339 25.7694 38.2992 25.9009C38.2595 26.0323 38.1693 26.1427 38.0484 26.2078L37.8038 26.342L36.7627 24.8762L37.3588 24.7064C37.4732 24.6714 37.5962 24.677 37.707 24.7222C37.8178 24.7674 37.9095 24.8494 37.9669 24.9544Z" fill="#FFB573"/>
<path d="M32.0442 22.8143L32.1087 23.1387L32.18 23.4784C32.231 23.7077 32.2802 23.9387 32.338 24.1578C32.4484 24.613 32.5809 25.0596 32.7218 25.491C32.8624 25.9053 33.0327 26.3089 33.2314 26.6986C33.3902 27.0192 33.6001 27.3117 33.853 27.5648L33.4929 27.395C33.3876 27.3814 33.3672 27.4137 33.4233 27.412C33.5125 27.4024 33.5993 27.3771 33.6797 27.3372C33.9342 27.2204 34.1766 27.0788 34.4033 26.9143C34.6563 26.7445 34.9128 26.5441 35.1659 26.3386C35.4189 26.133 35.6754 25.914 35.9234 25.7118L35.9505 25.6915C36.0569 25.6046 36.1898 25.557 36.3271 25.5567C36.4644 25.5563 36.5976 25.6032 36.7044 25.6895C36.8112 25.7757 36.885 25.8961 36.9135 26.0304C36.942 26.1647 36.9234 26.3047 36.8609 26.4269C36.6904 26.7522 36.5004 27.067 36.2919 27.3695C36.0795 27.6758 35.8481 27.9686 35.599 28.2459C35.3272 28.5519 35.0198 28.8245 34.6835 29.0577C34.4727 29.2 34.2444 29.3141 34.0041 29.3974C33.8493 29.4515 33.6885 29.4868 33.5252 29.5027C33.3226 29.5207 33.1184 29.5058 32.9205 29.4586C32.8049 29.4307 32.6959 29.3805 32.5995 29.3108L32.5588 29.2802C32.0371 28.8895 31.5978 28.3994 31.2663 27.8383C31.1112 27.5858 30.9719 27.331 30.8485 27.074C30.725 26.8169 30.6118 26.5599 30.5088 26.3029C30.3122 25.7956 30.1455 25.2773 30.0094 24.7505C29.9432 24.489 29.8804 24.2291 29.8277 23.9659C29.8022 23.8334 29.7751 23.7026 29.753 23.5684C29.7309 23.4343 29.7105 23.3086 29.6884 23.1489C29.6492 22.8438 29.7297 22.5353 29.9132 22.2883C30.0966 22.0413 30.3687 21.875 30.6722 21.8244C30.9756 21.7738 31.2869 21.8429 31.5406 22.017C31.7942 22.1912 31.9705 22.4569 32.0323 22.7583L32.0442 22.8143Z" fill="#FFB573"/>
<path d="M30.4162 21.031C31.4047 21.1329 32.1945 21.7885 32.7465 23.8759C32.3219 24.4635 29.6468 25.7526 29.6468 25.7526C29.6468 25.7526 28.1573 20.7983 30.4162 21.031Z" fill="#263238"/>
</svg>
