<svg width="16" height="24" viewBox="0 0 16 24" fill="none" xmlns="http://www.w3.org/2000/svg">
<path d="M10.4335 23.3336L1.8335 14.4V12.4336H5.9999C7.31083 12.4336 8.4775 12.0112 9.4999 11.1664C10.5223 10.3221 11.0778 9.14455 11.1663 7.63361H0.333496V5.96641H11.0335C10.7444 4.89975 10.1388 4.02775 9.2167 3.35041C8.29456 2.67255 7.2223 2.33361 5.9999 2.33361H0.333496V0.666412H15.6663V2.33361H10.4999C11.0556 2.73361 11.5391 3.26695 11.9503 3.93361C12.361 4.60028 12.633 5.27788 12.7663 5.96641H15.6663V7.63361H12.8663C12.7778 9.58881 12.0668 11.1555 10.7335 12.3336C9.40016 13.5112 7.8223 14.1 5.9999 14.1H3.8663L12.7335 23.3336H10.4335Z" fill="#1C1B1F"/>
</svg>
