<svg width="15" height="21" viewBox="0 0 15 21" fill="none" xmlns="http://www.w3.org/2000/svg">
<path d="M9.74385 20.9272L2.03922 12.9075V10.6162H6.04907C7.06107 10.6162 7.93484 10.2866 8.67036 9.62749C9.40511 8.96911 9.84887 8.15301 10.0016 7.17919H0.893555V4.88785H9.65792C9.33332 4.21955 8.85137 3.67039 8.21209 3.24038C7.57204 2.81114 6.85104 2.59651 6.04907 2.59651H0.893555V0.305176H14.6416V2.59651H10.9182C11.1855 2.92112 11.4242 3.27437 11.6342 3.65626C11.8442 4.03815 12.0065 4.44868 12.1211 4.88785H14.6416V7.17919H12.3216C12.1689 8.80222 11.5005 10.1625 10.3167 11.2601C9.13283 12.3584 7.71029 12.9075 6.04907 12.9075H5.21846L12.9231 20.9272H9.74385Z" fill="white"/>
</svg>
