<svg width="17" height="17" viewBox="0 0 17 17" fill="none" xmlns="http://www.w3.org/2000/svg">
<path fill-rule="evenodd" clip-rule="evenodd" d="M17 8.49046C16.9963 6.83251 16.5089 5.21176 15.5976 3.82735C14.6864 2.44294 13.3911 1.35517 11.8707 0.697699C10.3504 0.0402277 8.67139 -0.158306 7.03991 0.126491C5.40843 0.411288 3.89559 1.16701 2.68727 2.3008C1.47894 3.4346 0.627779 4.89707 0.238349 6.50853C-0.151081 8.11999 -0.0618119 9.81024 0.495192 11.3716C1.0522 12.933 2.05267 14.2974 3.37368 15.2973C4.6947 16.2972 6.27871 16.889 7.93109 17V10.4097C7.46485 10.2768 7.06232 9.97965 6.79773 9.57299C6.53314 9.16634 6.42433 8.67763 6.49135 8.19697C6.55838 7.71631 6.79672 7.27611 7.16244 6.95755C7.52816 6.63898 7.99659 6.46352 8.48137 6.46352C8.96614 6.46352 9.43458 6.63898 9.80029 6.95755C10.166 7.27611 10.4044 7.71631 10.4714 8.19697C10.5384 8.67763 10.4296 9.16634 10.165 9.57299C9.90042 9.97965 9.49789 10.2768 9.03165 10.4097V17C11.1905 16.8592 13.215 15.9015 14.6945 14.3212C16.1739 12.7409 16.9975 10.6563 16.9981 8.49046H17Z" fill="#00B6F0"/>
</svg>
