<svg width="18" height="16" viewBox="0 0 18 16" fill="none" xmlns="http://www.w3.org/2000/svg">
<path d="M8.3751 6.775C8.1751 6.775 8.0001 6.69567 7.8501 6.537C7.7001 6.379 7.6251 6.2 7.6251 6C7.6251 5.8 7.7001 5.62067 7.8501 5.462C8.0001 5.304 8.1751 5.225 8.3751 5.225C8.59176 5.225 8.7751 5.304 8.9251 5.462C9.0751 5.62067 9.1501 5.8 9.1501 6C9.1501 6.2 9.0751 6.379 8.9251 6.537C8.7751 6.69567 8.59176 6.775 8.3751 6.775ZM12.3751 6.775C12.1751 6.775 12.0001 6.69567 11.8501 6.537C11.7001 6.379 11.6251 6.2 11.6251 6C11.6251 5.8 11.7001 5.62067 11.8501 5.462C12.0001 5.304 12.1751 5.225 12.3751 5.225C12.5918 5.225 12.7751 5.304 12.9251 5.462C13.0751 5.62067 13.1501 5.8 13.1501 6C13.1501 6.2 13.0751 6.379 12.9251 6.537C12.7751 6.69567 12.5918 6.775 12.3751 6.775ZM16.3751 6.775C16.1751 6.775 16.0001 6.69567 15.8501 6.537C15.7001 6.379 15.6251 6.2 15.6251 6C15.6251 5.8 15.7001 5.62067 15.8501 5.462C16.0001 5.304 16.1751 5.225 16.3751 5.225C16.5918 5.225 16.7751 5.304 16.9251 5.462C17.0751 5.62067 17.1501 5.8 17.1501 6C17.1501 6.2 17.0751 6.379 16.9251 6.537C16.7751 6.69567 16.5918 6.775 16.3751 6.775ZM15.7251 15.875C13.9751 15.875 12.2168 15.4333 10.4501 14.55C8.68343 13.6667 7.08776 12.5127 5.6631 11.088C4.23776 9.66267 3.07943 8.06667 2.1881 6.3C1.2961 4.53333 0.850098 2.78333 0.850098 1.05C0.850098 0.75 0.950098 0.5 1.1501 0.3C1.3501 0.1 1.6001 0 1.9001 0H4.3751C4.65843 0 4.9001 0.0833333 5.1001 0.25C5.3001 0.416667 5.43343 0.641667 5.5001 0.925L6.0001 3.3C6.03343 3.56667 6.0251 3.804 5.9751 4.012C5.9251 4.22067 5.80843 4.4 5.6251 4.55L3.4501 6.6C4.33343 8.08333 5.33776 9.379 6.4631 10.487C7.58776 11.5957 8.9001 12.575 10.4001 13.425L12.5251 11.225C12.7084 11.0583 12.9001 10.9417 13.1001 10.875C13.3001 10.8083 13.5168 10.8 13.7501 10.85L15.8501 11.275C16.1168 11.3417 16.3378 11.475 16.5131 11.675C16.6878 11.875 16.7751 12.1167 16.7751 12.4V14.825C16.7751 15.125 16.6751 15.375 16.4751 15.575C16.2751 15.775 16.0251 15.875 15.7251 15.875ZM2.9751 5.65L4.8751 3.9C4.94176 3.83333 4.98776 3.75833 5.0131 3.675C5.03776 3.59167 5.03343 3.50833 5.0001 3.425L4.5501 1.3C4.53343 1.2 4.49176 1.125 4.4251 1.075C4.35843 1.025 4.2751 1 4.1751 1H2.1251C2.04176 1 1.9751 1.025 1.9251 1.075C1.8751 1.125 1.8501 1.19167 1.8501 1.275C1.86676 1.95833 1.9751 2.67067 2.1751 3.412C2.3751 4.154 2.64176 4.9 2.9751 5.65ZM15.5001 14.875C15.5834 14.875 15.6501 14.85 15.7001 14.8C15.7501 14.75 15.7751 14.6833 15.7751 14.6V12.6C15.7751 12.5 15.7501 12.4167 15.7001 12.35C15.6501 12.2833 15.5668 12.2333 15.4501 12.2L13.6001 11.825C13.5334 11.8083 13.4711 11.8083 13.4131 11.825C13.3544 11.8417 13.2918 11.8833 13.2251 11.95L11.3501 13.875C12.0168 14.2083 12.7334 14.4543 13.5001 14.613C14.2668 14.771 14.9334 14.8583 15.5001 14.875Z" fill="#1C1B1F"/>
</svg>
